<?xml version="1.0" encoding="utf-8"?>
<!-- Generator: Adobe Illustrator 16.0.0, SVG Export Plug-In . SVG Version: 6.00 Build 0)  -->
<!DOCTYPE svg PUBLIC "-//W3C//DTD SVG 1.1//EN" "http://www.w3.org/Graphics/SVG/1.1/DTD/svg11.dtd">
<svg version="1.1" id="Слой_1" xmlns="http://www.w3.org/2000/svg" xmlns:xlink="http://www.w3.org/1999/xlink" x="0px" y="0px"
	 width="25px" height="25px" viewBox="0 0 25 25" enable-background="new 0 0 25 25" xml:space="preserve">
<g>
	<defs>
		<rect id="SVGID_1_" y="0.002" width="25" height="24.998"/>
	</defs>
	<clipPath id="SVGID_2_">
		<use xlink:href="#SVGID_1_"  overflow="visible"/>
	</clipPath>
	<path clip-path="url(#SVGID_2_)" fill="#FFFFFF" d="M7.828,12.502c0,2.576,2.096,4.671,4.672,4.671
		c2.576,0,4.671-2.096,4.671-4.671S15.076,7.831,12.5,7.831C9.924,7.831,7.828,9.927,7.828,12.502"/>
	<path clip-path="url(#SVGID_2_)" fill="#FFFFFF" d="M23.256,6.336c0.037-0.064,0.035-0.143-0.001-0.206
		c-1.089-1.833-2.638-3.368-4.479-4.439c-1.897-1.105-4.068-1.688-6.276-1.688c-3.822,0-7.383,1.715-9.771,4.706
		c-0.053,0.066-0.06,0.158-0.018,0.231l3.519,6.094c0.037,0.064,0.104,0.103,0.177,0.103c0.009,0,0.019-0.001,0.027-0.002
		c0.083-0.011,0.15-0.071,0.171-0.151C7.299,8.293,9.723,6.416,12.5,6.416c0.172,0,0.35,0.008,0.529,0.023
		c0.006,0,0.012,0.001,0.018,0.001h10.031C23.152,6.44,23.221,6.4,23.256,6.336"/>
	<path clip-path="url(#SVGID_2_)" fill="#FFFFFF" d="M14.347,18.438c-0.051-0.065-0.136-0.094-0.217-0.071
		c-0.529,0.147-1.077,0.223-1.63,0.223c-2.348,0-4.511-1.377-5.513-3.509c-0.002-0.005-0.005-0.01-0.007-0.015L1.96,6.372
		C1.924,6.308,1.855,6.27,1.782,6.27H1.781c-0.074,0-0.141,0.04-0.177,0.104C0.555,8.236,0,10.354,0,12.502
		c0,3.013,1.087,5.923,3.061,8.194c1.954,2.25,4.644,3.729,7.574,4.168c0.01,0.001,0.021,0.002,0.031,0.002
		c0.072,0,0.141-0.04,0.177-0.103l3.52-6.097C14.403,18.595,14.397,18.505,14.347,18.438"/>
	<path clip-path="url(#SVGID_2_)" fill="#FFFFFF" d="M23.948,7.807h-7.046c-0.084,0-0.159,0.05-0.19,0.128
		c-0.031,0.077-0.014,0.165,0.047,0.223c1.178,1.156,1.828,2.699,1.828,4.344c0,1.246-0.377,2.445-1.088,3.466
		c-0.002,0.005-0.006,0.011-0.009,0.016l-5.029,8.709c-0.036,0.064-0.036,0.143,0,0.205C12.5,24.962,12.566,25,12.639,25h0.002
		c3.31-0.036,6.415-1.353,8.744-3.706C23.716,18.938,25,15.817,25,12.502c0-1.575-0.29-3.111-0.861-4.565
		C24.108,7.858,24.032,7.807,23.948,7.807"/>
</g>
</svg>
