<?xml version="1.0" encoding="utf-8"?>
<!-- Generator: Adobe Illustrator 16.0.0, SVG Export Plug-In . SVG Version: 6.00 Build 0)  -->
<!DOCTYPE svg PUBLIC "-//W3C//DTD SVG 1.1//EN" "http://www.w3.org/Graphics/SVG/1.1/DTD/svg11.dtd">
<svg version="1.1" xmlns="http://www.w3.org/2000/svg" xmlns:xlink="http://www.w3.org/1999/xlink" x="0px" y="0px" width="24px"
	 height="20px" viewBox="0 0 24 20" enable-background="new 0 0 24 20" xml:space="preserve">
<g id="Rounded_Rectangle_2_copy_1_" enable-background="new    ">
	<g id="Rounded_Rectangle_2_copy">
		<g>
			<path fill="#88929C" d="M12.526,9H1.474C0.66,9,0,9.656,0,10.466v5.863V20l4-3h8c0.814,0,2-1.19,2-2v-4.534
				C14,9.656,13.34,9,12.526,9z"/>
		</g>
	</g>
</g>
<g id="Rounded_Rectangle_2_copy_2_" enable-background="new    ">
	<g id="Rounded_Rectangle_2_copy_2">
		<g>
			<defs>
				<style>
				  .cls-1 {
					fill: #88929c;
					stroke: #1a1e22;
					stroke-linejoin: round;
					stroke-width: 1px;
					fill-rule: evenodd;
				  }
				</style>
			  </defs>
			  <path fill="#88929C" id="Rounded_Rectangle_2" class="cls-1" d="M538.125,2818H551.25a1.744,1.744,0,0,1,1.75,1.73V2831l-5-3H538c-0.966,0-1.625-.38-1.625-1.34v-6.93A1.744,1.744,0,0,1,538.125,2818Z" transform="translate(-533.5 -2815.5)"/>
		</g>
	</g>
</g>
<g id="Rounded_Rectangle_2_xA0_Изображение_1_">
	
		<image overflow="visible" width="24" height="20" id="Rounded_Rectangle_2_xA0_Изображение" xlink:href="7F48980C.png"  href="7F48980C.png">
	</image>
</g>
<g id="Rectangle_12_copy_1_" enable-background="new    ">
	<g id="Rectangle_12_copy">
		<g>
			<rect x="8" y="8.5" fill="#1A1E22" width="7" height="1"/>
		</g>
	</g>
</g>
<g id="Rectangle_12_copy_2_1_" enable-background="new    ">
	<g id="Rectangle_12_copy_2">
		<g>
			<rect x="8" y="5.5" fill="#1A1E22" width="7" height="1"/>
		</g>
	</g>
</g>
</svg>
