<?xml version="1.0" encoding="utf-8"?>
<!-- Generator: Adobe Illustrator 16.0.0, SVG Export Plug-In . SVG Version: 6.00 Build 0)  -->
<!DOCTYPE svg PUBLIC "-//W3C//DTD SVG 1.1//EN" "http://www.w3.org/Graphics/SVG/1.1/DTD/svg11.dtd">
<svg version="1.1" id="Слой_1" xmlns="http://www.w3.org/2000/svg" xmlns:xlink="http://www.w3.org/1999/xlink" x="0px" y="0px"
	 width="25px" height="25px" viewBox="0 0 25 25" enable-background="new 0 0 25 25" xml:space="preserve">
<path fill="#FFFFFF" d="M24.654,8.342c-0.09-0.015-0.178,0.037-0.215,0.125L24.162,9.12c-0.105-0.859-0.3-2.242-0.558-3.149
	c-0.392-1.396-1.224-2.299-1.258-2.337c-0.064-0.068-0.162-0.083-0.242-0.037c-0.078,0.045-0.119,0.142-0.1,0.236l0.215,1.035
	c-0.518-0.577-1.349-1.406-2.171-1.809c-0.197-0.103-0.4-0.197-0.576-0.278c-1.785-1.694-4.078-2.627-6.456-2.627
	c-3.349,0-6.402,1.79-8.208,4.802C4.638,4.809,4.4,4.552,4.264,4.183c-0.249-0.65-0.375-1.381-0.376-1.388
	C3.875,2.717,3.822,2.653,3.751,2.628C3.68,2.604,3.602,2.623,3.548,2.678c-1.49,1.524-1.342,3.9-1.286,4.438
	C2.078,7.327,1.556,7.951,1.029,8.85c-0.655,1.119-0.853,3.073-0.861,3.156c-0.009,0.092,0.038,0.18,0.117,0.22
	c0.079,0.038,0.172,0.019,0.232-0.048l0.436-0.492c-0.048,0.188-0.095,0.402-0.14,0.643c-0.196,1.037-0.139,2.645-0.136,2.712
	c0.003,0.1,0.071,0.185,0.162,0.204s0.184-0.029,0.224-0.12l0.255-0.581c0.19,1.413,0.916,4.414,3.7,7.179
	c2.062,2.051,4.929,3.226,7.868,3.226l0,0c2.852,0,5.545-1.089,7.787-3.147c2.65-2.438,3.639-5.918,4-8.408
	c0.39-2.689,0.161-4.774,0.151-4.861C24.813,8.434,24.744,8.357,24.654,8.342 M20.128,8.421c0.003,0.004,0.277,0.388,0.338,1.373
	c0.041,0.737-0.101,1.916-0.189,2.562l-0.54-0.669c-0.06-0.072-0.153-0.096-0.236-0.058c-0.081,0.039-0.13,0.13-0.119,0.225
	c0.002,0.017,0.187,1.682-0.124,3.129c-0.146,0.681-0.377,1.17-0.572,1.491l0.075-1.091c0.007-0.103-0.056-0.197-0.152-0.224
	c-0.095-0.025-0.193,0.025-0.235,0.12c-0.009,0.022-0.943,2.166-3.509,3.017c-0.357,0.117-0.735,0.177-1.12,0.177
	c-1.367,0-2.609-0.744-3.313-1.268c0.061,0.003,0.121,0.005,0.18,0.005c1.009,0,1.784-0.463,2.407-0.836
	c0.165-0.098,0.319-0.189,0.468-0.268c0.896-0.482,1.313-0.521,1.632-0.521c0.169,0,0.299-0.105,0.34-0.275
	c0.1-0.416-0.367-1.155-0.946-1.497c-0.287-0.166-0.594-0.244-0.966-0.244c-0.592,0-1.325,0.199-2.375,0.504
	c-0.192,0.055-0.383,0.082-0.565,0.082c-0.644,0-1.069-0.333-1.313-0.611c-0.328-0.374-0.515-0.871-0.487-1.293
	c0.013-0.192,0.083-0.389,0.513-0.389c0.381,0,0.805,0.167,0.809,0.169c0.023,0.009,0.047,0.014,0.071,0.014H10.2
	c0.111,0,0.203-0.097,0.203-0.216c0-0.012-0.001-0.022-0.003-0.034l-0.057-1.896c0.205-0.139,0.695-0.478,1.166-0.844
	c1.14-0.883,1.292-1.222,1.17-1.478c-0.162-0.35-0.587-0.406-1.08-0.473c-0.281-0.038-0.601-0.08-0.889-0.182
	C10.11,6.708,9.713,6.154,9.624,6.018C9.605,5.904,9.56,5.521,9.736,5.193c0.191-0.358,0.852-0.913,1.09-1.096
	c0.068-0.052,0.099-0.144,0.077-0.23c-0.021-0.087-0.091-0.15-0.174-0.16c-0.021-0.002-0.626-0.067-1.615,0.283
	C8.308,4.277,7.684,4.744,7.468,4.917C7.375,4.898,7.217,4.871,6.955,4.843c1.543-1.86,3.731-2.918,6.062-2.918
	c1.711,0,3.328,0.555,4.703,1.611l-1.361,0.243c-0.093,0.017-0.162,0.1-0.169,0.199c-0.006,0.099,0.052,0.191,0.142,0.221
	c0.019,0.006,1.833,0.619,3.188,1.732c0.302,0.252,0.576,0.578,0.819,0.97c0.227,0.517,0.403,1.05,0.529,1.592l-0.456-0.378
	c-0.082-0.067-0.196-0.058-0.269,0.02C20.07,8.21,20.064,8.334,20.128,8.421"/>
</svg>
