<?xml version="1.0" encoding="utf-8"?>
<!-- Generator: Adobe Illustrator 16.0.0, SVG Export Plug-In . SVG Version: 6.00 Build 0)  -->
<!DOCTYPE svg PUBLIC "-//W3C//DTD SVG 1.1//EN" "http://www.w3.org/Graphics/SVG/1.1/DTD/svg11.dtd">
<svg version="1.1" id="Слой_1" xmlns="http://www.w3.org/2000/svg" xmlns:xlink="http://www.w3.org/1999/xlink" x="0px" y="0px"
	 width="25px" height="25px" viewBox="0 0 25 25" enable-background="new 0 0 25 25" xml:space="preserve">
<g>
	<defs>
		<rect id="SVGID_1_" width="25" height="25"/>
	</defs>
	<clipPath id="SVGID_2_">
		<use xlink:href="#SVGID_1_"  overflow="visible"/>
	</clipPath>
	<path clip-path="url(#SVGID_2_)" fill="#FFFFFF" d="M19.676,1.967C17.702,0.7,15.258,0,12.503,0c-2.52,0-4.778,0.584-6.658,1.652
		C2.228,3.688,0,7.498,0,12.38C0,18.984,5,25,12.501,25C20.001,25,25,18.985,25,12.38C24.999,7.738,22.986,4.065,19.676,1.967
		 M12.503,2.333c4.022,0,4.996,5.237,4.996,9.995c0,4.408-0.609,10.307-4.948,10.307S7.496,16.678,7.496,12.27
		C7.497,7.513,8.478,2.333,12.503,2.333"/>
</g>
</svg>
