<?xml version="1.0" encoding="utf-8"?>
<!-- Generator: Adobe Illustrator 16.0.0, SVG Export Plug-In . SVG Version: 6.00 Build 0)  -->
<!DOCTYPE svg PUBLIC "-//W3C//DTD SVG 1.1//EN" "http://www.w3.org/Graphics/SVG/1.1/DTD/svg11.dtd">
<svg version="1.1" id="Слой_1" xmlns="http://www.w3.org/2000/svg" xmlns:xlink="http://www.w3.org/1999/xlink" x="0px" y="0px"
	 width="23px" height="23px" viewBox="0 0 23 23" enable-background="new 0 0 23 23" xml:space="preserve">
<title>iPhone 6 Plus</title>
<desc>Created with Sketch.</desc>
<g id="Page-1_1_">
	<g id="iPhone-6-Plus">
		<g id="Page-1">
			<path id="Fill-1" fill="#FFFFFF" d="M11.5,1.022c-5.777,0-10.478,4.7-10.478,10.478s4.7,10.478,10.478,10.478
				s10.478-4.7,10.478-10.478S17.277,1.022,11.5,1.022 M11.5,23C5.159,23,0,17.841,0,11.5S5.159,0,11.5,0S23,5.159,23,11.5
				S17.841,23,11.5,23"/>
			<path id="Fill-3" fill="#FFFFFF" d="M6.79,10.514l4.959,5.166l3.873-8.81L6.79,10.514z M11.905,17.064
				c-0.135,0-0.265-0.054-0.36-0.152l-5.985-6.234c-0.115-0.12-0.163-0.288-0.128-0.45c0.034-0.161,0.145-0.296,0.298-0.359
				l10.658-4.397c0.188-0.077,0.406-0.033,0.547,0.113c0.143,0.146,0.184,0.364,0.102,0.551l-4.674,10.63
				c-0.066,0.153-0.205,0.262-0.371,0.291C11.964,17.063,11.936,17.064,11.905,17.064L11.905,17.064z"/>
		</g>
	</g>
</g>
</svg>
