<?xml version="1.0" encoding="utf-8"?>
<!-- Generator: Adobe Illustrator 16.0.0, SVG Export Plug-In . SVG Version: 6.00 Build 0)  -->
<!DOCTYPE svg PUBLIC "-//W3C//DTD SVG 1.1//EN" "http://www.w3.org/Graphics/SVG/1.1/DTD/svg11.dtd">
<svg version="1.1" id="Слой_1" xmlns="http://www.w3.org/2000/svg" xmlns:xlink="http://www.w3.org/1999/xlink" x="0px" y="0px"
	 width="14px" height="21px" viewBox="0 0 14 21" enable-background="new 0 0 14 21" xml:space="preserve">
<title>iPhone 6 Plus</title>
<desc>Created with Sketch.</desc>
<g id="Page-1_1_">
	<g id="iPhone-6-Plus">
		<g id="Page-1">
			<polygon id="Fill-1" fill="#FFFFFF" points="0,21 14,21 14,20 0,20 			"/>
			<path id="Fill-2" fill="#4C4C4C" d="M4,10c0.276,0,0.5-0.224,0.5-0.5V1h5v8.5C9.5,9.776,9.725,10,10,10h2l-5,6.667L2,10H4z
				 M6.6,17.8C6.694,17.926,6.843,18,7,18s0.306-0.074,0.4-0.2l6-8c0.113-0.152,0.132-0.354,0.047-0.524C13.361,9.107,13.189,9,13,9
				h-2.5V0.5C10.5,0.224,10.275,0,10,0H4C3.724,0,3.5,0.224,3.5,0.5V9H1C0.811,9,0.638,9.107,0.553,9.276
				C0.468,9.446,0.486,9.648,0.6,9.8L6.6,17.8z"/>
		</g>
	</g>
</g>
</svg>
