<?xml version="1.0" encoding="utf-8"?>
<!-- Generator: Adobe Illustrator 16.0.0, SVG Export Plug-In . SVG Version: 6.00 Build 0)  -->
<!DOCTYPE svg PUBLIC "-//W3C//DTD SVG 1.1//EN" "http://www.w3.org/Graphics/SVG/1.1/DTD/svg11.dtd">
<svg version="1.1" id="Слой_1" xmlns="http://www.w3.org/2000/svg" xmlns:xlink="http://www.w3.org/1999/xlink" x="0px" y="0px"
	 width="25px" height="25px" viewBox="0 0 25 25" enable-background="new 0 0 25 25" xml:space="preserve">
<g>
	<defs>
		<rect id="SVGID_1_" width="25" height="25"/>
	</defs>
	<clipPath id="SVGID_2_">
		<use xlink:href="#SVGID_1_"  overflow="visible"/>
	</clipPath>
	<path clip-path="url(#SVGID_2_)" fill="#FFFFFF" d="M16.182,23.377c-2.144,2.092-4.67,1.889-6.362,0.919
		c-1.752-1.003-2.872-3.212-3.359-5.02c-0.458-1.694-0.671-3.856-0.607-6.765c-2.404-2.06-4.514-4.096-5.418-6.021
		c-0.866-1.847-0.442-4.369,1.31-5.643C2.402,0.371,3.3,0.054,4.531,0.05c-0.144,2.645,1.878,4.37,4.56,6.507
		c1.758-1.799,3.975-3.573,6.203-4.801c1.74-0.958,3.448-1.58,4.901-1.728c1.521-0.155,3.072,0.308,4.071,1.455
		c0.646,0.745,0.999,1.809,0.489,3.283c-1.256,0.169-2.34,0.434-3.29,0.77c-1.465,0.521-2.471,1.352-3.525,2.153
		c-1.926,1.47-3.552,2.96-4.909,4.486c-0.051,2.456-0.037,5.852,0.675,8.241c0.389,1.308,1.112,2.37,2.479,2.96H16.182
		L16.182,23.377z"/>
</g>
</svg>
