<?xml version="1.0" standalone="no"?>
<!DOCTYPE svg PUBLIC "-//W3C//DTD SVG 1.1//EN" "http://www.w3.org/Graphics/SVG/1.1/DTD/svg11.dtd" >
<svg xmlns="http://www.w3.org/2000/svg" xmlns:xlink="http://www.w3.org/1999/xlink" version="1.1">
<metadata></metadata>
<defs>
<font id="qanelasblack" horiz-adv-x="614" >
<font-face units-per-em="2048" ascent="1638" descent="-410" />
<missing-glyph horiz-adv-x="482" />
<glyph horiz-adv-x="0" />
<glyph horiz-adv-x="682" />
<glyph unicode=" "  horiz-adv-x="482" />
<glyph unicode="&#x09;" horiz-adv-x="482" />
<glyph unicode="&#xa0;" horiz-adv-x="482" />
<glyph unicode="!" horiz-adv-x="626" d="M96 1065v426h434v-426l-70 -522h-294zM124 0v382h378v-382h-378z" />
<glyph unicode="&#x22;" horiz-adv-x="941" d="M96 1491h328l-42 -552h-244zM518 1491h328l-43 -552h-242z" />
<glyph unicode="#" horiz-adv-x="1343" d="M43 415l40 256h218l25 149h-218l41 255h219l51 309h274l-52 -309h174l52 309h273l-51 -309h212l-41 -255h-214l-24 -149h216l-41 -256h-217l-53 -309h-273l53 309h-177l-51 -309h-272l51 309h-215zM573 671h177l23 149h-175z" />
<glyph unicode="$" horiz-adv-x="1173" d="M32 477h377q0 -66 25.5 -102.5t79.5 -51.5v267q-42 14 -70 24.5t-70 28t-70.5 33t-64.5 39.5t-60.5 48t-49.5 57t-40 68.5t-24.5 81t-9.5 95.5q0 102 35.5 185t98 138.5t145 89t180.5 42.5v184h148v-186q96 -10 175.5 -44.5t142 -93.5t97.5 -150t35 -206h-362 q0 114 -88 141v-260q2 -1 4.5 -1.5t4.5 -1t4 -1.5q3 -2 10 -4q59 -21 91 -33t88 -37.5t88 -47.5t73.5 -59.5t63 -77.5t37.5 -95.5t16 -120.5q0 -83 -24.5 -153.5t-68 -123t-103.5 -91t-131.5 -60.5t-152.5 -28v-183h-148v185q-104 10 -190 44.5t-152 95t-103 154t-37 211.5z M431 1073q0 -35 21 -61t62 -49v206q-83 -20 -83 -96zM662 321q34 6 56.5 20.5t33 33.5t10.5 42q0 41 -25.5 68.5t-74.5 49.5v-214z" />
<glyph unicode="%" horiz-adv-x="1837" d="M75 1142q0 104 51 191.5t141 138.5t200 51q109 0 198 -50.5t139 -138t50 -193t-50 -193t-139 -139t-198 -51.5q-110 0 -200 51.5t-141 139.5t-51 193zM224 0l1075 1491h313l-1077 -1491h-311zM366 1142q0 -44 27.5 -73.5t70.5 -29.5t72 30.5t29 72.5t-29 72t-72 30 q-42 0 -70 -30t-28 -72zM982 352q0 105 50.5 193t140.5 139t201 51q109 0 198 -51t139.5 -139t50.5 -193t-50.5 -192.5t-140 -138.5t-197.5 -51q-111 0 -201 51t-140.5 138.5t-50.5 192.5zM1274 352q0 -43 28 -72.5t70 -29.5q28 0 51.5 14.5t36 37.5t12.5 50q0 43 -28 72 t-72 29q-43 0 -70.5 -29t-27.5 -72z" />
<glyph unicode="&#x26;" horiz-adv-x="1579" d="M75 424q0 122 56 224t165 175q-83 124 -83 252q0 131 65.5 233t182.5 158.5t267 56.5q85 0 162 -18t144.5 -57.5t116.5 -96.5t77 -141t28 -186h-380q0 64 -39.5 100.5t-108.5 36.5q-28 0 -52.5 -7.5t-42.5 -21.5t-28.5 -35t-10.5 -47q0 -18 8.5 -39t16.5 -35.5t31 -41.5 t32 -36.5t40 -41.5l296 -300q30 89 30 188h381q0 -116 -37.5 -234t-109.5 -220l287 -290h-447l-76 73q-182 -105 -407 -105q-168 0 -296.5 58t-198 161.5t-69.5 236.5zM460 458q0 -71 53 -115.5t152 -44.5q61 0 125 21l-274 267q-56 -54 -56 -128z" />
<glyph unicode="'" horiz-adv-x="516" d="M96 1491h328l-42 -552h-244z" />
<glyph unicode="(" horiz-adv-x="695" d="M96 746q0 488 234 958h355q-234 -470 -234 -958q0 -490 234 -959h-355q-234 469 -234 959z" />
<glyph unicode=")" horiz-adv-x="695" d="M10 -213q235 472 235 959q0 486 -235 958h356q235 -472 235 -958q0 -487 -235 -959h-356z" />
<glyph unicode="*" horiz-adv-x="862" d="M96 1084v205l194 -21l-119 148l170 107l90 -175l91 175l171 -107l-122 -148l193 21v-205l-193 22l122 -149l-171 -107l-91 174l-90 -174l-170 107l119 149z" />
<glyph unicode="+" horiz-adv-x="1191" d="M87 577v337h341v340h336v-340h342v-337h-342v-341h-336v341h-341z" />
<glyph unicode="," d="M118 0v382h380v-382q0 -153 -99.5 -242.5t-280.5 -89.5v145q99 0 143 46t44 141h-187z" />
<glyph unicode="-" horiz-adv-x="1064" d="M118 473v336h829v-336h-829z" />
<glyph unicode="." d="M118 0v382h380v-382h-380z" />
<glyph unicode="/" horiz-adv-x="1106" d="M53 -213l852 1917h150l-852 -1917h-150z" />
<glyph unicode="0" horiz-adv-x="1341" d="M53 746q0 173 41 316t118.5 245.5t195 159t263.5 56.5t263 -56.5t194.5 -159t119 -245.5t41.5 -316.5t-41.5 -316.5t-119 -245.5t-194.5 -159t-263 -56.5q-117 0 -216 36.5t-173 104.5t-125.5 163.5t-77.5 215t-26 258.5zM435 746q0 -204 58 -305.5t178 -101.5 q80 0 132.5 45.5t78 135.5t25.5 225.5t-25.5 225.5t-78 135.5t-132.5 45.5t-132.5 -45.5t-78 -135.5t-25.5 -225z" />
<glyph unicode="1" horiz-adv-x="870" d="M10 918v387l342 186h381v-1491h-381v1103z" />
<glyph unicode="2" horiz-adv-x="1151" d="M53 0v277l496 513q72 74 110 131t38 110q0 57 -31.5 89t-92.5 32q-67 0 -102.5 -34.5t-35.5 -103.5h-382q0 105 29 191t77.5 144t114.5 98t138 58t149 18q79 0 153 -18t140 -57t115 -95t77.5 -138.5t28.5 -181.5q0 -220 -229 -454l-214 -211h465v-368h-1044z" />
<glyph unicode="3" horiz-adv-x="1166" d="M17 477h379q0 -64 42.5 -101t126.5 -37t126 38t42 102q0 65 -42 102t-126 37h-216v234l224 274h-504v365h968v-300l-245 -307q145 -45 232.5 -152t87.5 -263q0 -99 -29 -181.5t-79.5 -141t-120 -99t-150 -60t-168.5 -19.5q-89 0 -169.5 20t-150 62t-120.5 102 t-79.5 143.5t-28.5 181.5z" />
<glyph unicode="4" horiz-adv-x="1252" d="M32 228v347l456 916h421l-458 -916h256v279h379v-279h150v-347h-150v-228h-379v228h-675z" />
<glyph unicode="5" horiz-adv-x="1181" d="M43 473h381q0 -61 43.5 -96.5t124.5 -35.5q79 0 122.5 36t43.5 96q0 63 -44.5 99.5t-121.5 36.5h-488l62 882h895v-365h-539l-13 -163h105q88 0 166.5 -18.5t144.5 -58t113.5 -97t74.5 -139.5t27 -181q0 -96 -29 -177.5t-80 -140t-120 -100t-150 -61.5t-169 -20 q-87 0 -167.5 20t-150 61.5t-121 100.5t-81 141.5t-29.5 179.5z" />
<glyph unicode="6" horiz-adv-x="1191" d="M32 494q0 171 86 296l449 701h432l-316 -475q217 -26 347.5 -168.5t130.5 -353.5q0 -92 -26 -173.5t-75.5 -145.5t-118 -110.5t-157 -71.5t-188.5 -25q-126 0 -231.5 39t-178.5 108t-113.5 166.5t-40.5 212.5zM413 494q0 -85 51.5 -131t131.5 -46t132 46.5t52 130.5 q0 85 -52 132t-132 47t-131.5 -47t-51.5 -132z" />
<glyph unicode="7" horiz-adv-x="1043" d="M2 1122v369h1010v-316l-467 -1175h-411l443 1122h-575z" />
<glyph unicode="8" horiz-adv-x="1211" d="M49 419q0 113 51 207t148 154q-148 111 -148 297q0 105 39 189.5t108 139.5t161 84.5t199 29.5t198.5 -29.5t160 -84.5t107.5 -139.5t39 -189.5q0 -187 -147 -297q96 -60 147 -154t51 -207q0 -208 -145 -328.5t-411 -120.5q-267 0 -412.5 120.5t-145.5 328.5zM431 473 q0 -71 48 -112.5t128 -41.5q79 0 128 41.5t49 112.5q0 48 -22.5 83.5t-62.5 53.5t-92 18q-80 0 -128 -41t-48 -114zM460 1048q0 -59 39.5 -93.5t107.5 -34.5q65 0 105 35t40 93t-40 92.5t-105 34.5q-45 0 -78.5 -15.5t-51 -44t-17.5 -67.5z" />
<glyph unicode="9" horiz-adv-x="1191" d="M32 996q0 115 41 212.5t114 167t178.5 108.5t230.5 39q126 0 232 -39t178.5 -108.5t113.5 -167t41 -212.5q0 -170 -86 -295l-449 -701h-433l316 475q-218 26 -347.5 168t-129.5 353zM413 996q0 -85 51.5 -132t131.5 -47t132 47t52 132t-52 131t-132 46t-131.5 -46.5 t-51.5 -130.5z" />
<glyph unicode=":" d="M118 0v382h380v-382h-380zM118 683v382h380v-382h-380z" />
<glyph unicode=";" d="M118 0v382h380v-382q0 -153 -99.5 -242.5t-280.5 -89.5v145q99 0 143 46t44 141h-187zM118 683v382h380v-382h-380z" />
<glyph unicode="&#x3c;" horiz-adv-x="1109" d="M75 588v315l958 416v-367l-575 -206l575 -207v-366z" />
<glyph unicode="=" horiz-adv-x="1087" d="M75 343v338h937v-338h-937zM75 809v339h937v-339h-937z" />
<glyph unicode="&#x3e;" horiz-adv-x="1109" d="M75 173v366l577 207l-577 206v367l958 -416v-315z" />
<glyph unicode="?" horiz-adv-x="1173" d="M45 1024q0 98 28 180.5t78 140.5t118 98.5t148 60t169 19.5q79 0 152.5 -17.5t136.5 -53.5t110 -86.5t74 -120.5t27 -152q0 -64 -19 -121.5t-49.5 -100.5t-67 -81.5t-73.5 -70t-67.5 -60t-49 -58.5t-18.5 -58h-362q0 46 14 89.5t36.5 77t52 66.5t60 60t59.5 56t52 54 t37 55t14 60q0 46 -34 73t-100 27q-76 0 -116 -36.5t-40 -100.5h-370zM370 0v382h380v-382h-380z" />
<glyph unicode="@" horiz-adv-x="1636" d="M59 532q0 158 59.5 300.5t162 246t247 164t307.5 60.5q138 0 259.5 -42t209 -113t151 -164.5t95 -198t31.5 -210.5q0 -151 -42 -258.5t-121 -163t-191 -55.5q-113 0 -190 47t-110 127q-79 -91 -203 -91q-141 0 -227 99t-86 252q0 101 38.5 181t110 125.5t164.5 45.5 q109 0 183 -71v45h290v-502q0 -44 10.5 -73t34 -45t61.5 -16q81 0 131 86.5t50 266.5q0 133 -50.5 251.5t-136.5 204t-206.5 135.5t-255.5 50q-142 0 -268 -53t-217 -144t-144 -217.5t-53 -269.5q0 -146 54.5 -273t149 -217t228.5 -141.5t289 -51.5q185 0 321 47v-92 q-136 -42 -321 -42q-172 0 -323 58t-259 159t-170.5 245t-62.5 308zM703 532q0 -48 28 -79t74 -31q30 0 53 14.5t35 39.5t12 56q0 50 -27 80.5t-73 30.5t-74 -30.5t-28 -80.5z" />
<glyph unicode="A" horiz-adv-x="1405" d="M-10 0l485 1491h456l485 -1491h-412l-63 215h-477l-62 -215h-412zM556 543h294l-147 516z" />
<glyph unicode="B" horiz-adv-x="1458" d="M118 0v1491h380h258q130 0 237 -50.5t169.5 -144t62.5 -210.5q0 -104 -62 -190q78 -39 135 -101.5t87.5 -144t30.5 -175.5q0 -99 -36 -187t-99 -151.5t-153 -100t-193 -36.5h-732h-85zM498 345h384q75 0 114 40t39 107q0 68 -38.5 107.5t-112.5 39.5h-386v-294zM498 952 h313q41 34 41 89q0 45 -27.5 75t-72.5 30h-254v-194z" />
<glyph unicode="C" horiz-adv-x="1599" d="M59 745.5q0 162.5 58.5 306.5t161 247.5t247.5 163.5t311 60q182 0 340.5 -77t262.5 -215.5t131 -312.5h-393q-30 106 -123.5 169t-217.5 63q-179 0 -288.5 -112.5t-109.5 -292t109.5 -292t288.5 -112.5q125 0 219 63t122 169h396q-28 -173 -132 -311.5t-263 -216 t-342 -77.5q-166 0 -311 60t-247.5 163.5t-161 247.5t-58.5 306.5z" />
<glyph unicode="D" horiz-adv-x="1549" d="M118 0v1491h391h257q152 0 286.5 -57.5t231 -156.5t152 -237t55.5 -294t-55.5 -294.5t-152 -237.5t-231 -156.5t-286.5 -57.5h-532h-116zM509 368h257q155 0 253.5 104t98.5 274q0 84 -26 154.5t-72.5 119t-111.5 75.5t-142 27h-257v-754z" />
<glyph unicode="E" horiz-adv-x="1089" d="M118 0v1491h380h524v-357h-524v-212h471v-339h-471v-225h535v-358h-799h-116z" />
<glyph unicode="F" horiz-adv-x="1064" d="M118 0v1491h380h514v-369h-514v-264h504v-368h-504v-490h-380z" />
<glyph unicode="G" horiz-adv-x="1665" d="M59 745.5q0 162.5 58.5 306.5t161 247.5t247.5 163.5t311 60q134 0 258.5 -43t220 -116.5t162.5 -175t91 -215.5h-398q-38 78 -127.5 127.5t-204.5 49.5q-180 0 -290 -112.5t-110 -291.5q0 -194 110.5 -310.5t287.5 -116.5q123 0 208 46.5t126 136.5h-321v318h724v-318 v-502h-338v147q-152 -179 -441 -179q-157 0 -294 60t-233.5 163.5t-152.5 247.5t-56 306.5z" />
<glyph unicode="H" horiz-adv-x="1372" d="M118 0v1491h380v-541h378v541h378v-1491h-378v583h-378v-583h-380z" />
<glyph unicode="I" d="M118 0v1491h380v-1491h-380z" />
<glyph unicode="J" horiz-adv-x="1160" d="M21 462v47h381v-47q0 -60 35.5 -91.5t105.5 -31.5q68 0 104 31.5t36 91.5v1029h380v-1033q0 -119 -39.5 -213t-109.5 -154t-164.5 -91.5t-206.5 -31.5q-113 0 -208 31.5t-165 92.5t-109.5 155.5t-39.5 214.5z" />
<glyph unicode="K" horiz-adv-x="1343" d="M118 0v1491h380v-627l407 627h426l-475 -725l496 -766h-425l-429 669v-669h-380z" />
<glyph unicode="L" horiz-adv-x="1000" d="M118 0v1491h380v-1123h492v-368h-813h-59z" />
<glyph unicode="M" horiz-adv-x="1786" d="M118 0v1491h380h73l321 -822l324 822h452v-1491h-379v878l-258 -665h-275l-258 665v-878h-380z" />
<glyph unicode="N" horiz-adv-x="1394" d="M118 0v1491h295l483 -771v771h380v-1491h-294l-484 771v-771h-380z" />
<glyph unicode="O" horiz-adv-x="1681" d="M59 745.5q0 161.5 61.5 306t166.5 247.5t249.5 163.5t305 60.5t305 -60.5t249 -163.5t166 -247.5t61.5 -306t-61.5 -306t-166 -248t-249 -163.5t-305 -60t-305 60t-249.5 163.5t-166.5 248t-61.5 306zM439 746q0 -117 53 -210t144.5 -144t204.5 -51t205 51t145 144 t53 210t-53 209.5t-145 143.5t-205 51t-204.5 -51t-144.5 -143.5t-53 -209.5z" />
<glyph unicode="P" horiz-adv-x="1260" d="M118 0v1491h380h199q111 0 209 -38.5t169 -106.5t112.5 -166t41.5 -211t-41.5 -210.5t-112.5 -165.5t-169 -107t-209 -39h-199v-447h-380zM498 809h199q64 0 107.5 45.5t43.5 114.5q0 46 -20 82t-54.5 55.5t-76.5 19.5h-199v-317z" />
<glyph unicode="Q" horiz-adv-x="1693" d="M59 745.5q0 161.5 61.5 306t166.5 247.5t249.5 163.5t305 60.5t305 -60.5t249 -163.5t166 -247.5t61.5 -305.5q0 -137 -44 -261.5t-124 -226.5l136 -160l-272 -226l-146 166q-161 -70 -332 -70q-160 0 -304.5 60t-249.5 163.5t-166.5 248t-61.5 306zM439 746 q0 -117 53 -210t144.5 -144t204.5 -51q24 0 66 4l-138 159l275 226l155 -179q45 88 45 195q0 117 -53 209.5t-145 143.5t-205 51t-204.5 -51t-144.5 -143.5t-53 -209.5z" />
<glyph unicode="R" horiz-adv-x="1345" d="M118 0v1491h380h195q112 0 211 -38.5t170.5 -106t113 -164t41.5 -206.5q0 -136 -67.5 -247t-183.5 -176l410 -553h-429l-354 482h-107v-482h-380zM498 813h195h3q65 -1 108 43q44 44 44 120q0 72 -44 118t-111 46h-195v-327z" />
<glyph unicode="S" horiz-adv-x="1171" d="M32 477h381q0 -77 46 -112t142 -35q81 0 119 28t38 75q0 18 -7.5 33.5t-25.5 29t-34.5 23.5t-49 22.5t-53 19.5t-62.5 20h-2q-52 17 -92.5 31.5t-92 38.5t-90 49.5t-77.5 63t-64 80t-41 99.5t-16 122q0 75 19 139.5t53.5 114.5t82 89t105 64t122 38t134.5 13 q86 0 163 -18t144.5 -57.5t117 -96.5t77.5 -141t28 -186h-379q0 44 -16 74t-50 46.5t-85 16.5q-66 0 -100 -27t-34 -69q0 -18 6.5 -33.5t15.5 -27t29 -24.5t34.5 -21t44.5 -19.5t48 -18t56 -18.5q52 -17 91.5 -31t91.5 -38t89.5 -49t77 -62t64.5 -78.5t41 -97.5t16 -121 q0 -111 -42 -199.5t-115.5 -144.5t-171 -85t-211.5 -29q-95 0 -178.5 18t-155 58t-123 98.5t-80.5 144t-29 190.5z" />
<glyph unicode="T" horiz-adv-x="1064" d="M17 1122v369h705h326v-369h-326v-1122h-379v1122h-326z" />
<glyph unicode="U" horiz-adv-x="1319" d="M96 458v1033h381v-975q0 -88 44 -132.5t139.5 -44.5t139 44.5t43.5 132.5v975h382v-1033q0 -117 -43.5 -211t-120 -154.5t-179 -92.5t-222 -32t-222 32t-179 92.5t-120 154.5t-43.5 211z" />
<glyph unicode="V" horiz-adv-x="1362" d="M-10 1491h412l279 -1048l280 1048h413l-465 -1491h-456z" />
<glyph unicode="W" horiz-adv-x="1916" d="M-10 1491h398l238 -952l177 648l-85 304h355l228 -924l228 924h398l-417 -1491h-382l-169 620l-171 -620h-381z" />
<glyph unicode="X" horiz-adv-x="1323" d="M10 0l439 760l-421 731h428l206 -361l207 361h428l-421 -731l436 -760h-426l-224 388l-223 -388h-429z" />
<glyph unicode="Y" horiz-adv-x="1343" d="M0 1491h428l243 -479l245 479h428l-482 -841v-650h-380v650z" />
<glyph unicode="Z" horiz-adv-x="1154" d="M71 0v294l523 828h-513v369h1010v-294l-524 -829h541v-368h-1037z" />
<glyph unicode="[" horiz-adv-x="657" d="M96 -213v1917h355h207v-338h-207v-1240h207v-339h-413h-149z" />
<glyph unicode="\" horiz-adv-x="1106" d="M53 1704h150l852 -1917h-150z" />
<glyph unicode="]" horiz-adv-x="657" d="M0 126h209v1240h-209v338h563v-1917h-354h-209v339z" />
<glyph unicode="^" horiz-adv-x="1234" d="M66 737l426 754h252l425 -754h-379l-172 336l-173 -336h-379z" />
<glyph unicode="_" horiz-adv-x="1096" d="M53 -59h991v-337h-991v337z" />
<glyph unicode="`" horiz-adv-x="668" d="M43 1491l247 -309h336l-170 309h-413z" />
<glyph unicode="a" horiz-adv-x="1092" d="M53 302.5q0 80.5 28.5 145t78.5 104.5t115 61t140 21q155 0 256 -71v97q0 120 -113 120q-56 0 -84.5 -26t-28.5 -66h-341q0 79 25 146t68 114.5t100.5 81t123.5 49.5t137 16q51 0 99.5 -8.5t93.5 -25.5t84.5 -42.5t72 -60.5t55.5 -77.5t36 -96t13 -113.5v-671h-341v73 q-49 -50 -110 -76.5t-150 -26.5q-75 0 -139.5 21t-113.5 61.5t-77 105t-28 145zM409 302.5q0 -44.5 32.5 -71t93.5 -26.5t98.5 27t37.5 71q0 45 -37 71t-99 26q-61 0 -93.5 -26.5t-32.5 -71z" />
<glyph unicode="b" horiz-adv-x="1309" d="M102 0v1491h354v-505q112 109 294 109q104 0 198 -43.5t162.5 -118t108 -179t39.5 -222.5q0 -94 -25.5 -180.5t-72 -155.5t-109 -120t-140 -78.5t-161.5 -27.5q-182 0 -294 109v-79h-354zM456 532.5q0 -103.5 61.5 -165.5t161.5 -62t162 62t62 165.5t-62 165.5t-162 62 t-161.5 -62t-61.5 -165.5z" />
<glyph unicode="c" horiz-adv-x="1189" d="M51 532.5q0 117.5 43.5 221.5t118.5 179t180.5 118.5t224.5 43.5q103 0 197 -34t165.5 -94t119.5 -144.5t63 -181.5h-368q-20 49 -67.5 79t-109.5 30q-60 0 -108 -27.5t-75.5 -77.5t-27.5 -113q0 -95 60 -156t151 -61q41 0 77 13.5t62 38.5t38 57h368 q-19 -130 -95.5 -234t-194.5 -162t-255 -58q-119 0 -224.5 43.5t-180.5 118.5t-118.5 179t-43.5 221.5z" />
<glyph unicode="d" horiz-adv-x="1309" d="M51 532q0 118 40 222.5t108.5 179t162.5 118t199 43.5q184 0 293 -109v505h353v-1491h-353v79q-109 -109 -293 -109q-84 0 -162 27.5t-140.5 78.5t-109.5 120t-72.5 155.5t-25.5 180.5zM407 532.5q0 -103.5 62 -165.5t161.5 -62t161.5 62t62 165.5t-62 165.5t-161.5 62 t-161.5 -62t-62 -165.5z" />
<glyph unicode="e" horiz-adv-x="1209" d="M51 532q0 79 19 152t53.5 135t86 113.5t114 87.5t138.5 55.5t160 19.5q115 0 215 -43t170.5 -117.5t111 -178t40.5 -221.5q0 -70 -15 -133h-731q29 -83 89 -121.5t137 -38.5q50 0 93.5 20t62.5 49h331q-34 -114 -109.5 -192t-174 -113.5t-218.5 -35.5q-103 0 -193.5 28 t-159.5 79t-119 120.5t-75.5 155t-25.5 179.5zM411 650h406q-19 76 -71 111.5t-122 35.5q-79 0 -134 -37.5t-79 -109.5z" />
<glyph unicode="f" horiz-adv-x="670" d="M0 726v339h134q0 230 135 351q120 109 345 109q28 0 57 -2v-328q-14 1 -27 1q-69 0 -109 -27q-47 -32 -47 -104h183v-339h-183v-726h-354v726h-134z" />
<glyph unicode="g" horiz-adv-x="1311" d="M59 553q0 110 40 210.5t108 173t162.5 115.5t199.5 43q184 0 295 -111v81h350v-1022q0 -75 -17 -140t-46 -115t-70.5 -91.5t-89.5 -69.5t-103 -47.5t-111 -28.5t-115 -9q-71 0 -137 11.5t-128 33.5t-113 58.5t-89 84t-59 112.5t-21 141h354q0 -24 9 -45t25.5 -37t40 -27 t53.5 -17t65 -6q92 0 147 48.5t55 143.5v81q-111 -112 -295 -112q-105 0 -199.5 43t-162.5 115.5t-108 172.5t-40 210zM413 553q0 -96 62.5 -156t163 -60t163 60t62.5 156t-62.5 157t-162.5 61q-67 0 -118.5 -27.5t-79.5 -77t-28 -113.5z" />
<glyph unicode="h" horiz-adv-x="1140" d="M102 0v1491h354v-515q11 15 24.5 28.5t29 25.5t33 22t37.5 18t41.5 13.5t46 8.5t50.5 3q151 0 246 -111.5t95 -306.5v-677h-354v636q0 61 -31.5 92.5t-85.5 31.5q-44 0 -73.5 -17t-44 -50.5t-14.5 -80.5v-612h-354z" />
<glyph unicode="i" horiz-adv-x="557" d="M102 0v1065h354v-1065h-354zM102 1182v309h354v-309h-354z" />
<glyph unicode="j" horiz-adv-x="589" d="M-21 -130q11 -1 21 -1q64 0 96 27q38 31 38 104v1065h354v-1065q0 -251 -123 -362q-109 -98 -329 -98q-27 0 -57 2v328zM134 1182v309h354v-309h-354z" />
<glyph unicode="k" horiz-adv-x="1142" d="M102 0v1491h354v-869l268 443h398l-340 -533l362 -532h-398l-290 449v-449h-354z" />
<glyph unicode="l" horiz-adv-x="557" d="M102 0v1534h354v-1534h-354z" />
<glyph unicode="m" horiz-adv-x="1634" d="M102 0v1065h354v-89q41 55 104.5 87t140.5 32q163 0 242 -128q114 128 275 128q159 0 248 -100.5t89 -289.5v-705h-356v665q0 49 -24.5 72t-64.5 23q-49 0 -76.5 -31.5t-27.5 -94.5v-634h-354v665q0 49 -25.5 72t-65.5 23q-49 0 -77 -31.5t-28 -94.5v-634h-354z" />
<glyph unicode="n" horiz-adv-x="1140" d="M102 0v1065h354v-89q11 15 24.5 28.5t29 25.5t33 22t37.5 18t41.5 13.5t46 8.5t50.5 3q151 0 246 -111.5t95 -306.5v-677h-354v636q0 61 -31.5 92.5t-85.5 31.5q-44 0 -73.5 -17t-44 -50.5t-14.5 -80.5v-612h-354z" />
<glyph unicode="o" horiz-adv-x="1240" d="M51 532.5q0 116.5 45 221t121 179.5t181 118.5t222 43.5q94 0 180.5 -27.5t156.5 -79t122.5 -120.5t81 -155.5t28.5 -180.5q0 -116 -44.5 -220.5t-120.5 -179.5t-181.5 -118.5t-222.5 -43.5q-116 0 -221 43.5t-181.5 118t-121.5 179.5t-45 221.5zM407 532.5 q0 -98.5 60.5 -160t152.5 -61.5q61 0 110 27.5t77 78.5t28 115q0 99 -61 160.5t-154 61.5q-92 0 -152.5 -61.5t-60.5 -160z" />
<glyph unicode="p" horiz-adv-x="1309" d="M102 -426v1491h354v-79q109 109 294 109q104 0 198 -43.5t162.5 -118t108 -179t39.5 -222.5q0 -94 -25.5 -180.5t-72 -155.5t-109 -120t-140 -78.5t-161.5 -27.5q-185 0 -294 109v-505h-354zM456 532.5q0 -103.5 61.5 -165.5t161.5 -62t162 62t62 165.5t-62 165.5 t-162 62t-161.5 -62t-61.5 -165.5z" />
<glyph unicode="q" horiz-adv-x="1309" d="M51 532q0 118 40 222.5t108.5 179t162.5 118t199 43.5q184 0 293 -109v79h353v-1491h-353v505q-109 -109 -293 -109q-84 0 -162 27.5t-140.5 78.5t-109.5 120t-72.5 155.5t-25.5 180.5zM407 532.5q0 -103.5 62 -165.5t161.5 -62t161.5 62t62 165.5t-62 165.5t-161.5 62 t-161.5 -62t-62 -165.5z" />
<glyph unicode="r" horiz-adv-x="748" d="M102 0v1065h354v-169q28 93 102 141.5t175 48.5v-391q-25 4 -49.5 4t-49 -3.5t-47 -12t-42.5 -21t-36.5 -31t-28.5 -41t-18 -52.5t-6 -65v-473h-354z" />
<glyph unicode="s" horiz-adv-x="1028" d="M59 349h350q0 -95 107 -95q100 0 100 63q0 21 -15.5 36t-41.5 23.5t-61 17.5t-74.5 16t-81 19.5t-81 27t-74.5 40.5t-61.5 58.5t-41.5 81.5t-15 109q0 71 24.5 130t66.5 99t99.5 67.5t121 40t133.5 12.5q47 0 92.5 -7t89 -22t81 -37t69 -53.5t54 -69.5t35 -86.5 t12.5 -103.5h-344q0 45 -23.5 70t-65.5 25q-45 0 -70 -16.5t-25 -46.5q0 -24 19 -40t50.5 -26t73 -17.5t87 -17.5t91 -24t87 -38.5t73.5 -58t50.5 -86.5t18.5 -121q0 -73 -24.5 -132.5t-66.5 -99.5t-100.5 -66.5t-123.5 -38.5t-138 -12t-138.5 13t-124.5 42t-101.5 72 t-67.5 107.5t-25 144.5z" />
<glyph unicode="t" horiz-adv-x="723" d="M28 726v339h157v341h354v-341h158v-339h-158v-726h-354v726h-157z" />
<glyph unicode="u" horiz-adv-x="1140" d="M83 388v677h354v-637q0 -60 31 -91.5t85 -31.5q65 0 98.5 38t33.5 110v612h354v-1065h-354v89q-89 -119 -261 -119q-151 0 -246 111t-95 307z" />
<glyph unicode="v" horiz-adv-x="1134" d="M0 1065h374l195 -603l191 603h376l-388 -1065h-329h-31z" />
<glyph unicode="w" horiz-adv-x="1575" d="M10 1065h378l153 -614l115 382l-70 232h281l174 -583l148 583h376l-325 -1065h-318h-10l-124 400l-123 -400h-260h-68z" />
<glyph unicode="x" horiz-adv-x="1071" d="M0 0l349 543l-334 522h375l147 -228l144 228h376l-333 -522l347 -543h-374l-160 252l-163 -252h-374z" />
<glyph unicode="y" horiz-adv-x="1118" d="M-10 1065h376l207 -592l177 592h376l-502 -1491h-374l146 436z" />
<glyph unicode="z" horiz-adv-x="968" d="M53 0v242l380 495h-358v328h830v-242l-379 -495h401v-328h-874z" />
<glyph unicode="{" horiz-adv-x="740" d="M87 579v339q77 -8 115 15t38 91v286q0 213 121.5 322t366.5 93v-328q-45 4 -73.5 -2t-44.5 -26.5t-16 -58.5v-286q0 -198 -143 -274q143 -79 143 -277v-286q0 -37 16 -58t44.5 -27.5t73.5 -1.5v-328q-245 -15 -366.5 93.5t-121.5 321.5v286q0 69 -38 92t-115 14z" />
<glyph unicode="|" horiz-adv-x="589" d="M118 -426v1960h355v-1960h-355z" />
<glyph unicode="}" horiz-adv-x="740" d="M10 100q69 -7 102 12.5t33 74.5v286q0 198 142 277q-142 76 -142 274v286q0 56 -33 74.5t-102 12.5v328q247 16 368.5 -92.5t121.5 -322.5v-286q0 -68 38.5 -91t115.5 -15v-339q-77 9 -115.5 -14.5t-38.5 -91.5v-286q0 -213 -121.5 -321.5t-368.5 -93.5v328z" />
<glyph unicode="~" horiz-adv-x="1290" d="M75 630q27 118 83 199.5t129.5 118.5t162 35.5t182.5 -44.5q56 -24 91 -37.5t67.5 -21t52 -5t37.5 15t30 34t25 57.5l279 -130q-28 -118 -83.5 -199.5t-128.5 -118.5t-161 -35.5t-183 44.5q-56 24 -91 37.5t-68.5 21.5t-52.5 5.5t-37.5 -15t-30 -34.5t-22.5 -58z" />
<glyph unicode="&#xa2;" horiz-adv-x="1183" d="M51 746q0 117 43.5 221t118.5 178.5t180 118t225 43.5q43 0 85 -6l59 190h134l-71 -219q89 -34 160.5 -95.5t117.5 -144.5t60 -178h-368q-23 57 -77 85l-132 -409q10 -2 32 -2q62 0 110.5 29.5t66.5 78.5h368q-19 -130 -95.5 -233.5t-194.5 -161.5t-255 -58 q-64 0 -139 15l-64 -198h-134l79 240q-142 70 -225.5 204t-83.5 302zM407 746q0 -99 64 -160l121 375q-81 -8 -133 -67.5t-52 -147.5z" />
<glyph unicode="&#xa3;" horiz-adv-x="1240" d="M53 0v368h132v169h-110v298h110v211q0 95 29 175t77 135t112 93t134 56t142.5 18t142 -18t133.5 -56t112.5 -93t77 -135t28.5 -175v-107h-381v107q0 33 -12.5 58.5t-38.5 40t-62 14.5q-53 0 -82.5 -31t-29.5 -82v-211h378v-298h-378v-169h647v-368h-1161z" />
<glyph unicode="&#xa5;" horiz-adv-x="1343" d="M0 1491h428l243 -479l245 479h428l-401 -699h244v-200h-325v-88h325v-197h-325v-307h-380v307h-326v197h326v88h-326v200h244z" />
<glyph unicode="&#xa8;" horiz-adv-x="785" d="M43 1171v299h296v-299h-296zM445 1171v299h299v-299h-299z" />
<glyph unicode="&#xa9;" horiz-adv-x="1658" d="M59 746q0 157 61 299.5t164.5 245.5t246.5 164t300 61t300 -61t246 -164t164 -245.5t61 -299.5t-61 -300t-164 -246.5t-246 -164.5t-300 -61q-90 0 -177 20t-163 58.5t-143 91t-119.5 119.5t-90.5 143t-58.5 163t-20.5 177zM153 745.5q0 -139.5 53.5 -266.5t144.5 -218.5 t216.5 -145.5t263.5 -54q137 0 262 54t215.5 145.5t144 218.5t53.5 266.5t-53.5 266.5t-144 218t-215.5 145t-262 54q-138 0 -263.5 -54t-216.5 -145t-144.5 -218t-53.5 -266.5zM413 746q0 84 34 161t91 133.5t135.5 90.5t163.5 34q97 0 183 -42t147 -123.5t81 -188.5h-305 q-40 65 -114 65q-57 0 -92.5 -39.5t-35.5 -91t35.5 -90.5t92.5 -39q75 0 114 63h305q-20 -107 -81 -188t-147 -123t-183 -42q-85 0 -163.5 33.5t-135.5 90.5t-91 134.5t-34 161.5z" />
<glyph unicode="&#xab;" horiz-adv-x="1211" d="M118 658l240 415h300l-239 -415l239 -416h-300zM553 658l239 415h303l-241 -415l241 -416h-303z" />
<glyph unicode="&#xad;" horiz-adv-x="1064" d="M118 473v336h829v-336h-829z" />
<glyph unicode="&#xae;" horiz-adv-x="1658" d="M59 746q0 157 61 299.5t164.5 245.5t246.5 164t300 61t300 -61t246 -164t164 -245.5t61 -299.5t-61 -300t-164 -246.5t-246 -164.5t-300 -61q-90 0 -177 20t-163 58.5t-143 91t-119.5 119.5t-90.5 143t-58.5 163t-20.5 177zM153 745.5q0 -139.5 53.5 -266.5t144.5 -218.5 t216.5 -145.5t263.5 -54q137 0 262 54t215.5 145.5t144 218.5t53.5 266.5t-53.5 266.5t-144 218t-215.5 145t-262 54q-138 0 -263.5 -54t-216.5 -145t-144.5 -218t-53.5 -266.5zM512 352v788h278h111q79 0 147 -34t109.5 -98t41.5 -144q0 -74 -27.5 -137t-76.5 -107 l179 -268h-298l-130 195h-56v-195h-278zM790 771h51q79 0 79 62q0 61 -79 61h-51v-123z" />
<glyph unicode="&#xb4;" horiz-adv-x="668" d="M43 1182h337l246 309h-413z" />
<glyph unicode="&#xb8;" horiz-adv-x="583" d="M43 -238q202 -15 202 29q0 18 -28.5 27.5t-84.5 15.5v166h285v-98q16 -5 31 -13t32.5 -22t30.5 -31.5t21.5 -43t8.5 -54.5q0 -238 -498 -209v233z" />
<glyph unicode="&#xbb;" horiz-adv-x="1211" d="M118 242l240 416l-240 415h301l239 -415l-239 -416h-301zM553 242l239 416l-239 415h301l241 -415l-241 -416h-301z" />
<glyph unicode="&#x2c6;" horiz-adv-x="892" d="M43 1161l225 330h326h30l226 -330h-320l-85 121l-83 -121h-319z" />
<glyph unicode="&#x2da;" horiz-adv-x="683" d="M43 1416q0 121 84 201t214 80q134 0 217 -79.5t83 -201.5q0 -123 -83 -201.5t-217 -78.5q-131 0 -214.5 79t-83.5 201zM270 1416.5q0 -29.5 19 -49t52 -19.5q35 0 54.5 19t19.5 49.5t-19 49t-55 18.5q-33 0 -52 -19t-19 -48.5z" />
<glyph unicode="&#x2dc;" horiz-adv-x="849" d="M43 1167q0 104 24.5 178.5t65 112t93.5 51t109 3t112 -39.5q19 -11 28.5 -15.5t23 -10t20 -5.5t14 3t11 11.5t5.5 22.5t2 34h256q0 -105 -24.5 -180t-65 -112.5t-93.5 -50t-109 -1.5t-113 42q-16 8 -24.5 12t-21 9.5t-18.5 6t-14 0t-11.5 -5.5t-7.5 -13t-5.5 -21 t-1.5 -31h-255z" />
<glyph unicode="&#x401;" horiz-adv-x="1089" d="M118 0v1491h380h524v-357h-524v-212h471v-339h-471v-225h535v-358h-799h-116zM222 1597v299h296v-299h-296zM624 1597v299h298v-299h-298z" />
<glyph unicode="&#x402;" horiz-adv-x="1411" d="M17 1122v369h705h390v-369h-390v-210q126 35 237 35q183 0 285 -106t102 -311v-99q0 -251 -121.5 -362t-376.5 -97v339q69 -5 96 23.5t27 96.5v53q0 123 -121 123q-56 0 -128 -28v-579h-379v1122h-326z" />
<glyph unicode="&#x403;" horiz-adv-x="1010" d="M118 0v1491h881v-369h-501v-1122h-380zM356 1606l170 309h413l-246 -309h-337z" />
<glyph unicode="&#x404;" horiz-adv-x="1605" d="M59 745.5q0 162.5 57.5 306t158 247.5t245 164t311.5 60q139 0 267 -45.5t225.5 -124.5t162.5 -191.5t81 -243.5h-394q-26 107 -120.5 172.5t-225.5 65.5q-133 0 -227 -62.5t-136 -173.5h540v-349h-540q42 -111 136 -173.5t227 -62.5q132 0 226 65.5t120 172.5h396 q-17 -130 -81.5 -242.5t-162 -192t-226 -125t-268.5 -45.5q-167 0 -311.5 60t-245 164t-158 247.5t-57.5 306z" />
<glyph unicode="&#x405;" horiz-adv-x="1171" d="M32 477h381q0 -77 46 -112t142 -35q81 0 119 28t38 75q0 18 -7.5 33.5t-25.5 29t-34.5 23.5t-49 22.5t-53 19.5t-62.5 20h-2q-52 17 -92.5 31.5t-92 38.5t-90 49.5t-77.5 63t-64 80t-41 99.5t-16 122q0 75 19 139.5t53.5 114.5t82 89t105 64t122 38t134.5 13 q86 0 163 -18t144.5 -57.5t117 -96.5t77.5 -141t28 -186h-379q0 44 -16 74t-50 46.5t-85 16.5q-66 0 -100 -27t-34 -69q0 -18 6.5 -33.5t15.5 -27t29 -24.5t34.5 -21t44.5 -19.5t48 -18t56 -18.5q52 -17 91.5 -31t91.5 -38t89.5 -49t77 -62t64.5 -78.5t41 -97.5t16 -121 q0 -111 -42 -199.5t-115.5 -144.5t-171 -85t-211.5 -29q-95 0 -178.5 18t-155 58t-123 98.5t-80.5 144t-29 190.5z" />
<glyph unicode="&#x406;" d="M118 0v1491h380v-1491h-380z" />
<glyph unicode="&#x407;" d="M-43 1597v299h297v-299h-297zM118 0v1491h380v-1491h-380zM360 1597v299h298v-299h-298z" />
<glyph unicode="&#x408;" horiz-adv-x="1160" d="M21 462v47h381v-47q0 -60 35.5 -91.5t105.5 -31.5q68 0 104 31.5t36 91.5v1029h380v-1033q0 -119 -39.5 -213t-109.5 -154t-164.5 -91.5t-206.5 -31.5q-113 0 -208 31.5t-165 92.5t-109.5 155.5t-39.5 214.5z" />
<glyph unicode="&#x409;" horiz-adv-x="1933" d="M10 -4v356q45 -5 81 -1.5t63.5 18.5t46 43.5t28 74.5t9.5 111v893h974v-503h158q107 0 203 -34.5t169 -97t115.5 -156.5t42.5 -206t-42.5 -206t-115.5 -156.5t-169 -97t-203 -34.5h-423h-114v1122h-213v-541q0 -94 -14 -173.5t-39.5 -138.5t-61 -106.5t-79 -77.5t-93 -52 t-103 -30t-109 -11.5t-111.5 4.5zM1212 362h158q68 0 109 32.5t41 99.5t-41 99.5t-109 32.5h-158v-264z" />
<glyph unicode="&#x40a;" horiz-adv-x="1941" d="M118 0v1491h380v-503h343v503h382v-503h155q86 0 165.5 -21.5t146 -64t116 -101.5t77 -138t27.5 -169q0 -112 -42.5 -206t-115.5 -156.5t-169.5 -97t-204.5 -34.5h-419h-118v626h-343v-626h-380zM1223 362h155q68 0 109.5 32.5t41.5 99.5t-41.5 99.5t-109.5 32.5h-155 v-264z" />
<glyph unicode="&#x40b;" horiz-adv-x="1422" d="M17 1122v369h705h390v-369h-390v-210q126 35 237 35q183 0 285 -106t102 -311v-530h-375v484q0 123 -121 123q-56 0 -128 -28v-579h-379v1122h-326z" />
<glyph unicode="&#x40c;" horiz-adv-x="1343" d="M118 0v1491h380v-627l407 627h426l-475 -725l496 -766h-425l-429 669v-669h-380zM482 1606l170 309h413l-248 -309h-335z" />
<glyph unicode="&#x40e;" horiz-adv-x="1339" d="M32 1491h392l275 -611l238 611h390l-431 -1033q-101 -242 -266 -355.5t-408 -102.5v356q108 -9 180 18t118 90zM311 1604v298h688v-298h-688z" />
<glyph unicode="&#x40f;" horiz-adv-x="1362" d="M118 0v1491h380v-1123h366v1123h382v-1491h-374v-307h-380v307h-374z" />
<glyph unicode="&#x410;" horiz-adv-x="1405" d="M-10 0l485 1491h456l485 -1491h-412l-63 215h-477l-62 -215h-412zM556 543h294l-147 516z" />
<glyph unicode="&#x411;" horiz-adv-x="1260" d="M118 0v1491h380h608v-369h-608v-181h235q151 0 264.5 -57.5t174.5 -163.5t61 -247q0 -213 -136 -343t-364 -130h-479h-136zM498 349h220q29 0 53.5 7.5t43 22.5t29 39t10.5 55q0 63 -37.5 94t-98.5 31h-220v-249z" />
<glyph unicode="&#x412;" horiz-adv-x="1458" d="M118 0v1491h380h258q130 0 237 -50.5t169.5 -144t62.5 -210.5q0 -104 -62 -190q78 -39 135 -101.5t87.5 -144t30.5 -175.5q0 -99 -36 -187t-99 -151.5t-153 -100t-193 -36.5h-732h-85zM498 345h384q75 0 114 40t39 107q0 68 -38.5 107.5t-112.5 39.5h-386v-294zM498 952 h313q41 34 41 89q0 45 -27.5 75t-72.5 30h-254v-194z" />
<glyph unicode="&#x413;" horiz-adv-x="1010" d="M118 0v1491h881v-369h-501v-1122h-380z" />
<glyph unicode="&#x414;" horiz-adv-x="1484" d="M21 77v283h150q110 161 110 481v650h1005v-1131h161v-360v-307h-382v307h-663v-307h-381v384zM571 360h334v778h-245v-301q0 -306 -89 -477z" />
<glyph unicode="&#x415;" horiz-adv-x="1089" d="M118 0v1491h380h524v-357h-524v-212h471v-339h-471v-225h535v-358h-799h-116z" />
<glyph unicode="&#x416;" horiz-adv-x="1973" d="M10 0l450 754l-428 737h421l344 -645v645h381v-645l340 645h423l-427 -737l447 -754h-421l-362 650v-650h-381v650l-364 -650h-423z" />
<glyph unicode="&#x417;" horiz-adv-x="1181" d="M10 494h382q0 -74 50 -120t144 -46q95 0 144.5 41t49.5 115q0 71 -49.5 111.5t-144.5 40.5h-137v340h137h40q57 29 57 97q0 47 -30 73.5t-88.5 26.5t-89 -26.5t-30.5 -73.5h-379q0 134 65.5 237t179 158t254.5 55q139 0 253.5 -54t179.5 -149.5t65 -213.5 q0 -69 -24.5 -133t-67.5 -113q91 -66 140.5 -165.5t49.5 -221.5q0 -149 -72 -264t-203 -178t-300 -63q-127 0 -235 40t-182.5 110t-116.5 167t-42 209z" />
<glyph unicode="&#x418;" horiz-adv-x="1394" d="M118 0v1491h380v-771l484 771h294v-1491h-380v771l-483 -771h-295z" />
<glyph unicode="&#x419;" horiz-adv-x="1394" d="M118 0v1491h380v-771l484 771h294v-1491h-380v771l-483 -771h-295zM374 1606v298h689v-298h-689z" />
<glyph unicode="&#x41a;" horiz-adv-x="1343" d="M118 0v1491h380v-627l407 627h426l-475 -725l496 -766h-425l-429 669v-669h-380z" />
<glyph unicode="&#x41b;" horiz-adv-x="1362" d="M10 -4v356q45 -5 81 -1.5t63.5 18.5t46 43.5t28 74.5t9.5 111v893h1008v-1491h-382v1122h-244v-541q0 -94 -14 -173.5t-39.5 -138.5t-61 -106.5t-79 -77.5t-93 -52t-103 -30t-109 -11.5t-111.5 4.5z" />
<glyph unicode="&#x41c;" horiz-adv-x="1786" d="M118 0v1491h380h73l321 -822l324 822h452v-1491h-379v878l-258 -665h-275l-258 665v-878h-380z" />
<glyph unicode="&#x41d;" horiz-adv-x="1372" d="M118 0v1491h380v-541h378v541h378v-1491h-378v583h-378v-583h-380z" />
<glyph unicode="&#x41e;" horiz-adv-x="1681" d="M59 745.5q0 161.5 61.5 306t166.5 247.5t249.5 163.5t305 60.5t305 -60.5t249 -163.5t166 -247.5t61.5 -306t-61.5 -306t-166 -248t-249 -163.5t-305 -60t-305 60t-249.5 163.5t-166.5 248t-61.5 306zM439 746q0 -117 53 -210t144.5 -144t204.5 -51t205 51t145 144 t53 210t-53 209.5t-145 143.5t-205 51t-204.5 -51t-144.5 -143.5t-53 -209.5z" />
<glyph unicode="&#x41f;" horiz-adv-x="1362" d="M118 0v1491h380h748v-1491h-382v1122h-366v-1122h-380z" />
<glyph unicode="&#x420;" horiz-adv-x="1260" d="M118 0v1491h380h199q111 0 209 -38.5t169 -106.5t112.5 -166t41.5 -211t-41.5 -210.5t-112.5 -165.5t-169 -107t-209 -39h-199v-447h-380zM498 809h199q64 0 107.5 45.5t43.5 114.5q0 46 -20 82t-54.5 55.5t-76.5 19.5h-199v-317z" />
<glyph unicode="&#x421;" horiz-adv-x="1599" d="M59 745.5q0 162.5 58.5 306.5t161 247.5t247.5 163.5t311 60q182 0 340.5 -77t262.5 -215.5t131 -312.5h-393q-30 106 -123.5 169t-217.5 63q-179 0 -288.5 -112.5t-109.5 -292t109.5 -292t288.5 -112.5q125 0 219 63t122 169h396q-28 -173 -132 -311.5t-263 -216 t-342 -77.5q-166 0 -311 60t-247.5 163.5t-161 247.5t-58.5 306.5z" />
<glyph unicode="&#x422;" horiz-adv-x="1064" d="M17 1122v369h705h326v-369h-326v-1122h-379v1122h-326z" />
<glyph unicode="&#x423;" horiz-adv-x="1339" d="M32 1491h392l275 -611l238 611h390l-431 -1033q-101 -242 -266 -355.5t-408 -102.5v356q108 -9 180 18t118 90z" />
<glyph unicode="&#x424;" horiz-adv-x="1773" d="M43 746q0 251 176 412t486 199v177h366v-177q310 -38 485.5 -199t175.5 -412.5t-175.5 -412t-485.5 -199.5v-177h-366v177q-205 26 -353.5 106t-228.5 209.5t-80 296.5zM424 746q0 -112 68 -177t213 -87v532q-58 -9 -104 -25t-79.5 -39t-55 -53.5t-32 -68t-10.5 -82.5z M1071 482q145 22 213 87t68 177q0 114 -68 180t-213 88v-532z" />
<glyph unicode="&#x425;" horiz-adv-x="1323" d="M10 0l439 760l-421 731h428l206 -361l207 361h428l-421 -731l436 -760h-426l-224 388l-223 -388h-429z" />
<glyph unicode="&#x426;" horiz-adv-x="1473" d="M118 0v1491h391v-1123h367v1123h390v-1123h169v-675h-380v307h-937z" />
<glyph unicode="&#x427;" horiz-adv-x="1339" d="M92 959v532h379v-492q0 -84 51 -131.5t132 -47.5q95 0 187 26v645h382v-1491h-382v482q-106 -29 -215 -29q-157 0 -277 59t-188.5 174t-68.5 273z" />
<glyph unicode="&#x428;" horiz-adv-x="1935" d="M118 0v1491h380v-1123h280v1123h381v-1123h278v1123h382v-1491h-1701z" />
<glyph unicode="&#x429;" horiz-adv-x="2026" d="M118 0v1491h380v-1123h280v1123h381v-1123h278v1123h382v-1123h171v-675h-382v307h-1490z" />
<glyph unicode="&#x42a;" horiz-adv-x="1484" d="M0 1122v369h722v-447h198q110 0 208.5 -39t169.5 -107t113 -166t42 -210q0 -113 -42 -210.5t-113.5 -165.5t-169.5 -107t-208 -39h-579v1122h-341zM722 362h198q65 0 108 45t43 115q0 69 -43 113t-108 44h-198v-317z" />
<glyph unicode="&#x42b;" horiz-adv-x="1850" d="M118 0v1491h380v-447h199q110 0 208.5 -39t169.5 -107.5t112.5 -166t41.5 -209.5q0 -113 -41.5 -210.5t-112.5 -165.5t-169 -107t-209 -39h-579zM498 362h199q64 0 107.5 45t43.5 115q0 46 -20 82t-54.5 55.5t-76.5 19.5h-199v-317zM1352 0v1491h380v-1491h-380z" />
<glyph unicode="&#x42c;" horiz-adv-x="1260" d="M118 0v1491h380v-447h199q111 0 209 -38.5t169 -107t112.5 -166t41.5 -210.5t-41.5 -210.5t-112.5 -165.5t-169 -107t-209 -39h-463h-116zM498 364h199q64 0 107.5 44.5t43.5 114t-43.5 114t-107.5 44.5h-199v-317z" />
<glyph unicode="&#x42d;" horiz-adv-x="1605" d="M36 573h397q25 -107 120 -172.5t227 -65.5q88 0 160.5 29t123 81.5t78.5 125.5h-539v349h539q-42 111 -136 173.5t-226 62.5q-131 0 -226.5 -65.5t-120.5 -172.5h-395q17 131 81.5 243.5t162.5 191.5t225.5 124.5t267.5 45.5q167 0 311.5 -60t245 -164t157.5 -247.5 t57 -306t-57 -306t-157.5 -247.5t-245 -164t-311.5 -60q-141 0 -269 45.5t-225.5 125t-162 192t-82.5 242.5z" />
<glyph unicode="&#x42e;" horiz-adv-x="2274" d="M118 0v1491h380v-541h193q43 167 148.5 297t260 203t333.5 73q161 0 305.5 -60.5t249 -163.5t166 -247.5t61.5 -305.5q0 -108 -28 -209.5t-78 -187t-122 -156.5t-158 -120.5t-187.5 -77t-208.5 -27.5q-140 0 -267 46t-225 127.5t-166 195t-94 246.5h-183v-583h-380z M1031 746q0 -117 53 -210t144.5 -144t204.5 -51t205 51t145 144t53 210t-53 209.5t-145 143.5t-205 51t-204.5 -50t-144.5 -143t-53 -211z" />
<glyph unicode="&#x42f;" horiz-adv-x="1358" d="M-19 0l428 539q-129 63 -204 178.5t-75 258.5q0 147 71 265.5t194.5 184t275.5 65.5h569v-1491h-380v482h-72l-362 -482h-445zM509 969q0 -72 49.5 -119t122.5 -47h179v337h-179q-47 0 -86.5 -21.5t-62.5 -61t-23 -88.5z" />
<glyph unicode="&#x430;" horiz-adv-x="1092" d="M53 302.5q0 80.5 28.5 145t78.5 104.5t115 61t140 21q155 0 256 -71v97q0 120 -113 120q-56 0 -84.5 -26t-28.5 -66h-341q0 79 25 146t68 114.5t100.5 81t123.5 49.5t137 16q51 0 99.5 -8.5t93.5 -25.5t84.5 -42.5t72 -60.5t55.5 -77.5t36 -96t13 -113.5v-671h-341v73 q-49 -50 -110 -76.5t-150 -26.5q-75 0 -139.5 21t-113.5 61.5t-77 105t-28 145zM409 302.5q0 -44.5 32.5 -71t93.5 -26.5t98.5 27t37.5 71q0 45 -37 71t-99 26q-61 0 -93.5 -26.5t-32.5 -71z" />
<glyph unicode="&#x431;" horiz-adv-x="1199" d="M51 518q0 96 21.5 182t58 151t84 123t99.5 104t104 87.5t99 80t82.5 76t56 81t19.5 88.5h371q2 -78 -16 -143.5t-48.5 -111t-73 -84.5t-88.5 -66t-95.5 -54t-93 -48.5t-83.5 -49.5t-64 -58q53 29 106.5 43t131.5 14q52 0 105 -14.5t103.5 -41t94.5 -67.5t77 -91.5 t52 -115t19 -134.5q0 -107 -40 -199.5t-111.5 -159t-175.5 -104.5t-226 -38q-127 0 -233.5 41.5t-180 114.5t-114.5 174.5t-41 219.5zM411 471q0 -85 59.5 -140.5t147 -55.5t143.5 53.5t56 135.5q0 55 -25.5 98.5t-73 68.5t-106.5 25q-51 0 -96 -20.5t-75 -64t-30 -100.5z " />
<glyph unicode="&#x432;" horiz-adv-x="1118" d="M102 0v419v646h339h198q154 0 247.5 -82t93.5 -203q0 -82 -58 -152q59 -28 99 -72t60 -99.5t20 -119.5q0 -71 -24 -131.5t-70.5 -107t-120.5 -72.5t-168 -26h-616zM441 270h221q44 0 67 19.5t23 57.5q0 72 -90 72h-221v-149zM441 671h200q11 26 11 51q0 37 -21.5 59 t-63.5 22h-126v-132z" />
<glyph unicode="&#x433;" horiz-adv-x="823" d="M102 0v1065h723v-339h-369v-726h-354z" />
<glyph unicode="&#x434;" horiz-adv-x="1234" d="M10 77v242h118q46 69 68.5 156t22.5 222v368h346h378h122v-746h138v-319v-277h-341v277h-510v-277h-342v354zM496 319h224v431h-155v-53q0 -220 -69 -378z" />
<glyph unicode="&#x435;" horiz-adv-x="1209" d="M51 532q0 79 19 152t53.5 135t86 113.5t114 87.5t138.5 55.5t160 19.5q115 0 215 -43t170.5 -117.5t111 -178t40.5 -221.5q0 -70 -15 -133h-731q29 -83 89 -121.5t137 -38.5q50 0 93.5 20t62.5 49h331q-34 -114 -109.5 -192t-174 -113.5t-218.5 -35.5q-103 0 -193.5 28 t-159.5 79t-119 120.5t-75.5 155t-25.5 179.5zM411 650h406q-19 76 -71 111.5t-122 35.5q-79 0 -134 -37.5t-79 -109.5z" />
<glyph unicode="&#x436;" horiz-adv-x="1658" d="M10 0l333 532l-311 533h390l232 -433v433h352v-433l232 433h390l-311 -533l331 -532h-390l-252 439v-439h-352v439l-254 -439h-390z" />
<glyph unicode="&#x437;" horiz-adv-x="955" d="M21 349h351q0 -85 107 -85q104 0 104 90q0 37 -26 59t-78 22h-127v246h134q40 23 40 69q0 30 -18 45.5t-50 15.5q-34 0 -52 -16.5t-18 -48.5h-337q0 165 108 257t310 92q182 0 287.5 -84t105.5 -221q0 -111 -70 -181q143 -93 143 -272q0 -76 -28.5 -141.5t-83 -117 t-143 -81t-201.5 -29.5q-114 0 -202 28.5t-143.5 80t-84 120.5t-28.5 152z" />
<glyph unicode="&#x438;" horiz-adv-x="1171" d="M102 0v1065h345v-494l354 494h268v-1065h-345v494l-354 -494h-268z" />
<glyph unicode="&#x439;" horiz-adv-x="1171" d="M102 0v1065h345v-494l354 494h268v-1065h-345v494l-354 -494h-268zM240 1180v298h689v-298h-689z" />
<glyph unicode="&#x43a;" horiz-adv-x="1142" d="M102 0v1065h354v-443l268 443h398l-340 -533l362 -532h-398l-290 449v-449h-354z" />
<glyph unicode="&#x43b;" horiz-adv-x="1142" d="M21 -17v328q38 -5 67 3.5t48 31t29 59t10 87.5v573h353h513v-1065h-353v726h-160v-285q0 -249 -124 -361t-383 -97z" />
<glyph unicode="&#x43c;" horiz-adv-x="1415" d="M102 0v1065h343h19l243 -462l245 462h363v-1065h-344v528l-183 -345h-162l-181 345v-528h-343z" />
<glyph unicode="&#x43d;" horiz-adv-x="1160" d="M102 0v1065h354v-366h249v366h354v-1065h-354v366h-249v-366h-354z" />
<glyph unicode="&#x43e;" horiz-adv-x="1240" d="M51 532.5q0 116.5 45 221t121 179.5t181 118.5t222 43.5q94 0 180.5 -27.5t156.5 -79t122.5 -120.5t81 -155.5t28.5 -180.5q0 -116 -44.5 -220.5t-120.5 -179.5t-181.5 -118.5t-222.5 -43.5q-116 0 -221 43.5t-181.5 118t-121.5 179.5t-45 221.5zM407 532.5 q0 -98.5 60.5 -160t152.5 -61.5q61 0 110 27.5t77 78.5t28 115q0 99 -61 160.5t-154 61.5q-92 0 -152.5 -61.5t-60.5 -160z" />
<glyph unicode="&#x43f;" horiz-adv-x="1160" d="M102 0v1065h354h603v-1065h-354v730h-249v-730h-354z" />
<glyph unicode="&#x440;" horiz-adv-x="1309" d="M102 -426v1491h354v-79q109 109 294 109q104 0 198 -43.5t162.5 -118t108 -179t39.5 -222.5q0 -94 -25.5 -180.5t-72 -155.5t-109 -120t-140 -78.5t-161.5 -27.5q-185 0 -294 109v-505h-354zM456 532.5q0 -103.5 61.5 -165.5t161.5 -62t162 62t62 165.5t-62 165.5 t-162 62t-161.5 -62t-61.5 -165.5z" />
<glyph unicode="&#x441;" horiz-adv-x="1189" d="M51 532.5q0 117.5 43.5 221.5t118.5 179t180.5 118.5t224.5 43.5q103 0 197 -34t165.5 -94t119.5 -144.5t63 -181.5h-368q-20 49 -67.5 79t-109.5 30q-60 0 -108 -27.5t-75.5 -77.5t-27.5 -113q0 -95 60 -156t151 -61q41 0 77 13.5t62 38.5t38 57h368 q-19 -130 -95.5 -234t-194.5 -162t-255 -58q-119 0 -224.5 43.5t-180.5 118.5t-118.5 179t-43.5 221.5z" />
<glyph unicode="&#x442;" horiz-adv-x="915" d="M17 730v335h619h263v-335h-263v-730h-353v730h-266z" />
<glyph unicode="&#x443;" horiz-adv-x="1142" d="M-2 1065h392l206 -612l158 612h390l-347 -1033q-42 -126 -107 -217.5t-148.5 -145.5t-181 -77.5t-211.5 -17.5v332q74 0 121.5 10t81 34.5t57.5 68.5z" />
<glyph unicode="&#x444;" horiz-adv-x="1510" d="M51 532q0 83 21.5 157t65 138.5t106 115t148.5 86t189 51.5v411h346v-411q129 -20 230.5 -70t166.5 -122t99 -162.5t34 -193.5q0 -82 -21 -157t-64.5 -139.5t-106 -115t-149 -86t-189.5 -51.5v-409h-346v409q-128 20 -229.5 70t-167 122t-99.5 163t-34 194zM402 532.5 q0 -162.5 179 -213.5v427q-179 -51 -179 -213.5zM927 319q179 50 179 213.5t-179 213.5v-427z" />
<glyph unicode="&#x445;" horiz-adv-x="1071" d="M0 0l349 543l-334 522h375l147 -228l144 228h376l-333 -522l347 -543h-374l-160 252l-163 -252h-374z" />
<glyph unicode="&#x446;" horiz-adv-x="1250" d="M102 0v1065h354v-730h225v730h356v-730h181v-612h-340v277h-776z" />
<glyph unicode="&#x447;" horiz-adv-x="1106" d="M53 646v419h356v-358q0 -29 8.5 -51t24.5 -34t35.5 -18t44.5 -6q63 0 128 28v439h356v-1065h-356v303q-106 -33 -207 -33q-113 0 -200.5 43.5t-138.5 129.5t-51 203z" />
<glyph unicode="&#x448;" horiz-adv-x="1650" d="M102 0v1065h354v-730h196v730h350v-730h193v730h354v-1065h-354h-543h-439h-111z" />
<glyph unicode="&#x449;" horiz-adv-x="1707" d="M102 0v1065h354v-730h178v730h350v-730h179v730h353v-730h158v-335v-277h-339v277h-351h-528h-354z" />
<glyph unicode="&#x44a;" horiz-adv-x="1240" d="M0 733v332h384h234v-301h172q128 0 222.5 -46.5t144.5 -132.5t50 -201q0 -176 -112 -280t-305 -104h-453h-75v733h-262zM618 296h151q28 0 49 11t32.5 30.5t11.5 46.5q0 38 -25.5 61.5t-67.5 23.5h-151v-173z" />
<glyph unicode="&#x44b;" horiz-adv-x="1590" d="M102 0v1065h354v-301h174q193 0 305.5 -103t112.5 -277q0 -176 -112.5 -280t-305.5 -104h-453h-75zM456 296h153q43 0 68.5 24t25.5 64q0 38 -25.5 61.5t-68.5 23.5h-153v-173zM1136 0v1065h353v-1065h-353z" />
<glyph unicode="&#x44c;" horiz-adv-x="1079" d="M102 0v1065h354v-301h174q193 0 305.5 -103t112.5 -277q0 -176 -112.5 -280t-305.5 -104h-453h-75zM456 296h153q43 0 68.5 24t25.5 64q0 38 -25.5 61.5t-68.5 23.5h-153v-173z" />
<glyph unicode="&#x44d;" horiz-adv-x="1183" d="M21 424h345q16 -64 71.5 -103.5t139.5 -39.5q66 0 116 28.5t80 78.5h-291v289h291q-30 50 -80 78.5t-116 28.5q-82 0 -137 -41t-72 -102h-347q19 130 96 234t195 162t255 58q97 0 185 -28t157 -79t120 -120t78 -155t27 -180.5t-27 -180.5t-78 -155t-120 -120t-157 -79 t-185 -28q-138 0 -256 58t-194.5 162t-95.5 234z" />
<glyph unicode="&#x44e;" horiz-adv-x="1718" d="M102 0v1065h354v-366h113q50 177 194.5 286.5t335.5 109.5q117 0 222 -43.5t181 -118.5t121 -179.5t45 -221.5q0 -93 -28.5 -179.5t-81 -155.5t-122.5 -120.5t-157 -79t-180 -27.5q-191 0 -335.5 109.5t-194.5 286.5h-113v-366h-354zM884 532.5q0 -98.5 61 -160 t154 -61.5t153 61.5t60 160t-60 160t-153 61.5t-154 -61.5t-61 -160z" />
<glyph unicode="&#x44f;" horiz-adv-x="1138" d="M0 0l275 360q-87 51 -135 136.5t-48 182.5q0 80 27 150t77.5 122.5t128 83t171.5 30.5h541v-1065h-349v303h-62l-224 -303h-402zM437 673q0 -42 26.5 -66t71.5 -24h153v183h-153q-45 0 -71.5 -24.5t-26.5 -68.5z" />
<glyph unicode="&#x451;" horiz-adv-x="1209" d="M51 532q0 79 19 152t53.5 135t86 113.5t114 87.5t138.5 55.5t160 19.5q115 0 215 -43t170.5 -117.5t111 -178t40.5 -221.5q0 -70 -15 -133h-731q29 -83 89 -121.5t137 -38.5q50 0 93.5 20t62.5 49h331q-34 -114 -109.5 -192t-174 -113.5t-218.5 -35.5q-103 0 -193.5 28 t-159.5 79t-119 120.5t-75.5 155t-25.5 179.5zM272 1187v297h297v-297h-297zM411 650h406q-19 76 -71 111.5t-122 35.5q-79 0 -134 -37.5t-79 -109.5zM675 1187v297h298v-297h-298z" />
<glyph unicode="&#x452;" horiz-adv-x="1138" d="M0 1148v226h124v117h353v-117h287v-226h-287v-198q87 119 262 119q152 0 246.5 -110.5t94.5 -306.5v-652q0 -251 -123.5 -361.5t-385.5 -96.5v328q80 -5 117.5 26t37.5 104v614q0 40 -14.5 68t-41 41.5t-63.5 13.5q-42 0 -71 -17.5t-44 -51t-15 -80.5v-588h-353v1148 h-124z" />
<glyph unicode="&#x453;" horiz-adv-x="823" d="M102 0v1065h723v-339h-369v-726h-354zM228 1182l170 309h413l-246 -309h-337z" />
<glyph unicode="&#x454;" horiz-adv-x="1183" d="M51 532q0 94 27 180.5t78 155.5t120.5 120t157 79t184.5 28q103 0 197 -34t165.5 -94t119.5 -144.5t63 -181.5h-348q-10 39 -36.5 71t-71 52t-100.5 20q-65 0 -116 -28.5t-80 -78.5h292v-289h-292q29 -50 80 -78.5t116 -28.5q84 0 139 39.5t71 103.5h346 q-19 -130 -95.5 -234t-194.5 -162t-255 -58q-121 0 -226.5 43.5t-180 118.5t-117.5 179t-43 221z" />
<glyph unicode="&#x455;" horiz-adv-x="1028" d="M59 349h350q0 -95 107 -95q100 0 100 63q0 21 -15.5 36t-41.5 23.5t-61 17.5t-74.5 16t-81 19.5t-81 27t-74.5 40.5t-61.5 58.5t-41.5 81.5t-15 109q0 71 24.5 130t66.5 99t99.5 67.5t121 40t133.5 12.5q47 0 92.5 -7t89 -22t81 -37t69 -53.5t54 -69.5t35 -86.5 t12.5 -103.5h-344q0 45 -23.5 70t-65.5 25q-45 0 -70 -16.5t-25 -46.5q0 -24 19 -40t50.5 -26t73 -17.5t87 -17.5t91 -24t87 -38.5t73.5 -58t50.5 -86.5t18.5 -121q0 -73 -24.5 -132.5t-66.5 -99.5t-100.5 -66.5t-123.5 -38.5t-138 -12t-138.5 13t-124.5 42t-101.5 72 t-67.5 107.5t-25 144.5z" />
<glyph unicode="&#x456;" horiz-adv-x="557" d="M102 0v1065h354v-1065h-354zM102 1182v309h354v-309h-354z" />
<glyph unicode="&#x457;" horiz-adv-x="557" d="M-73 1171v299h297v-299h-297zM102 0v1065h354v-1065h-354zM330 1171v299h298v-299h-298z" />
<glyph unicode="&#x458;" horiz-adv-x="589" d="M-21 -130q80 -5 117.5 26t37.5 104v1065h354v-1065q0 -251 -123 -361.5t-386 -96.5v328zM134 1182v309h354v-309h-354z" />
<glyph unicode="&#x459;" horiz-adv-x="1612" d="M21 -17v328q38 -5 67 3.5t48 31t29 59t10 87.5v573h353h397h99v-321h161q84 0 156.5 -26t125.5 -73t83.5 -117t30.5 -156q0 -114 -53 -199.5t-142.5 -129t-200.5 -43.5h-439h-75v726h-143v-285q0 -249 -124 -361t-383 -97zM1024 296h137q31 0 53 20.5t22 55.5 q0 23 -10.5 40.5t-27.5 26t-37 8.5h-137v-151z" />
<glyph unicode="&#x45a;" horiz-adv-x="1614" d="M81 0v1065h354v-321h238v321h353v-321h159q114 0 203 -44t141 -129t52 -199t-52.5 -199.5t-142 -129t-201.5 -43.5h-439h-73v419h-238v-419h-354zM1026 296h137q30 0 51.5 20.5t21.5 55.5q0 34 -21.5 54.5t-51.5 20.5h-137v-151z" />
<glyph unicode="&#x45b;" horiz-adv-x="1162" d="M0 1148v226h124v117h353v-117h287v-226h-287v-198q87 119 262 119q152 0 246.5 -110.5t94.5 -306.5v-652h-354v614q0 40 -14.5 68t-41 41.5t-63.5 13.5q-42 0 -71 -17.5t-44 -51t-15 -80.5v-588h-353v1148h-124z" />
<glyph unicode="&#x45c;" horiz-adv-x="1142" d="M102 0v1065h354v-443l268 443h398l-340 -533l362 -532h-398l-290 449v-449h-354zM364 1182l171 309h412l-246 -309h-337z" />
<glyph unicode="&#x45e;" horiz-adv-x="1142" d="M-2 1065h392l206 -612l158 612h390l-347 -1033q-42 -126 -107 -217.5t-148.5 -145.5t-181 -77.5t-211.5 -17.5v332q74 0 121.5 10t81 34.5t57.5 68.5zM234 1180v298h688v-298h-688z" />
<glyph unicode="&#x45f;" horiz-adv-x="1160" d="M102 0v1065h354v-730h249v730h354v-1065h-307v-277h-341v277h-309z" />
<glyph unicode="&#x490;" horiz-adv-x="1010" d="M118 0v1491h502v255h379v-406v-218h-501v-1122h-380z" />
<glyph unicode="&#x491;" horiz-adv-x="823" d="M102 0v1065h384v217h339v-556h-369v-726h-354z" />
<glyph unicode="&#x2000;" horiz-adv-x="957" />
<glyph unicode="&#x2001;" horiz-adv-x="1915" />
<glyph unicode="&#x2002;" horiz-adv-x="957" />
<glyph unicode="&#x2003;" horiz-adv-x="1915" />
<glyph unicode="&#x2004;" horiz-adv-x="638" />
<glyph unicode="&#x2005;" horiz-adv-x="478" />
<glyph unicode="&#x2006;" horiz-adv-x="319" />
<glyph unicode="&#x2007;" horiz-adv-x="319" />
<glyph unicode="&#x2008;" horiz-adv-x="239" />
<glyph unicode="&#x2009;" horiz-adv-x="383" />
<glyph unicode="&#x200a;" horiz-adv-x="106" />
<glyph unicode="&#x2010;" horiz-adv-x="1064" d="M118 473v336h829v-336h-829z" />
<glyph unicode="&#x2011;" horiz-adv-x="1064" d="M118 473v336h829v-336h-829z" />
<glyph unicode="&#x2012;" horiz-adv-x="1064" d="M118 473v336h829v-336h-829z" />
<glyph unicode="&#x2013;" horiz-adv-x="1362" d="M118 473v336h1128v-336h-1128z" />
<glyph unicode="&#x2014;" horiz-adv-x="1575" d="M118 473v336h1341v-336h-1341z" />
<glyph unicode="&#x2018;" d="M118 792v381q0 153 99.5 242t280.5 89v-143q-100 0 -143.5 -46t-43.5 -142h187v-381h-380z" />
<glyph unicode="&#x2019;" d="M118 780v145q100 0 143.5 45t43.5 140h-187v381h380v-381q0 -151 -99.5 -240.5t-280.5 -89.5z" />
<glyph unicode="&#x201a;" d="M118 0v382h380v-382q0 -153 -99.5 -242.5t-280.5 -89.5v145q99 0 143 46t44 141h-187z" />
<glyph unicode="&#x201c;" horiz-adv-x="1092" d="M120 792v381q0 153 98.5 243t279.5 90v-145q-100 0 -143.5 -46t-43.5 -142h187v-381h-378zM594 792v381q0 153 99 242t280 89v-143q-67 0 -108.5 -21.5t-60 -62t-18.5 -104.5h187v-381h-379z" />
<glyph unicode="&#x201d;" horiz-adv-x="1092" d="M118 780v145q100 0 143.5 45t43.5 140h-187v381h380v-381q0 -151 -99.5 -240.5t-280.5 -89.5zM594 778v144q100 0 144 46.5t44 141.5h-188v381h379v-381q0 -153 -99 -242.5t-280 -89.5z" />
<glyph unicode="&#x201e;" horiz-adv-x="1092" d="M118 0v382h380v-382q0 -153 -99.5 -242.5t-280.5 -89.5v145q99 0 143 46t44 141h-187zM594 0v382h379v-382q0 -153 -99 -242.5t-280 -89.5v145q100 0 144 46t44 141h-188z" />
<glyph unicode="&#x2022;" horiz-adv-x="849" d="M75 750q0 93 47 172.5t128.5 126t177.5 46.5q94 0 173.5 -46.5t125.5 -126t46 -172.5q0 -96 -46 -177.5t-125 -129t-174 -47.5q-96 0 -177.5 47.5t-128.5 129t-47 177.5z" />
<glyph unicode="&#x2026;" horiz-adv-x="1677" d="M118 0v382h380v-382h-380zM650 0v382h379v-382h-379zM1180 0v382h381v-382h-381z" />
<glyph unicode="&#x202f;" horiz-adv-x="383" />
<glyph unicode="&#x2039;" horiz-adv-x="774" d="M118 658l240 415h300l-239 -415l239 -416h-300z" />
<glyph unicode="&#x203a;" horiz-adv-x="774" d="M118 242l240 416l-240 415h301l239 -415l-239 -416h-301z" />
<glyph unicode="&#x205f;" horiz-adv-x="478" />
<glyph unicode="&#x20ac;" horiz-adv-x="1396" d="M32 532v179h130q-2 11 -2 35q0 28 2 40h-130v179h147q23 128 73.5 230.5t125.5 175.5t177 112.5t223 39.5q248 0 399.5 -155t179.5 -421h-384q-7 101 -58 153t-137 52q-162 0 -213 -187h338v-179h-362v-40v-35h362v-179h-338q48 -193 213 -193q89 0 140 56.5t58 165.5 h385q-16 -181 -88.5 -314t-199.5 -206t-295 -73q-244 0 -400 151t-201 413h-145z" />
<glyph unicode="&#x2122;" horiz-adv-x="1002" d="M63 1344v147h352v-147h-98v-279h-155v279h-99zM453 1065v426h150h6l88 -170l85 170h157v-426h-153v189l-64 -112h-55l-64 114v-191h-150z" />
<glyph unicode="&#x25fc;" horiz-adv-x="1064" d="M0 0v1065h1065v-1065h-1065z" />
</font>
</defs>
</svg>
