<?xml version="1.0" standalone="no"?>
<!DOCTYPE svg PUBLIC "-//W3C//DTD SVG 1.1//EN" "http://www.w3.org/Graphics/SVG/1.1/DTD/svg11.dtd" >
<svg xmlns="http://www.w3.org/2000/svg" xmlns:xlink="http://www.w3.org/1999/xlink" version="1.1">
<metadata></metadata>
<defs>
<font id="qanelasmedium" horiz-adv-x="516" >
<font-face units-per-em="2048" ascent="1638" descent="-410" />
<missing-glyph horiz-adv-x="532" />
<glyph horiz-adv-x="0" />
<glyph horiz-adv-x="682" />
<glyph unicode=" "  horiz-adv-x="532" />
<glyph unicode="&#x09;" horiz-adv-x="532" />
<glyph unicode="&#xa0;" horiz-adv-x="532" />
<glyph unicode="!" d="M145 0v230h227v-230h-227zM147 1065v426h223v-426l-40 -628h-143z" />
<glyph unicode="&#x22;" horiz-adv-x="708" d="M102 1491h185l-25 -447h-134zM422 1491h185l-26 -447h-134z" />
<glyph unicode="#" horiz-adv-x="1288" d="M59 475l26 153h247l38 234h-248l25 156h251l60 366h164l-61 -366h259l62 366h162l-60 -366h245l-26 -156h-246l-39 -234h249l-25 -153h-250l-61 -369h-162l61 369h-259l-62 -369h-164l62 369h-248zM496 628h260l39 234h-260z" />
<glyph unicode="$" horiz-adv-x="1166" d="M75 441h197q0 -112 66 -181t180 -87v506q-39 15 -68 27t-65.5 29t-64 33.5t-57.5 38.5t-52 45t-43 53t-33.5 62t-20.5 71.5t-8 83.5q0 86 33.5 158t91 120.5t131 77.5t156.5 36v190h134v-192q67 -8 128 -30t113 -60t90.5 -88t60 -117t21.5 -144h-196q0 102 -58.5 165.5 t-158.5 82.5v-496q56 -21 92 -36t87 -40t84 -48t70 -57.5t58.5 -71.5t35.5 -86.5t14 -105.5q0 -72 -23 -135t-64 -110t-96.5 -81.5t-121 -54.5t-136.5 -25v-187h-134v192q-94 11 -174 46t-140.5 91.5t-94.5 140t-34 184.5zM303 1122q0 -45 15.5 -82t46.5 -66.5t67 -51.5 t86 -44v445q-97 -13 -156 -65t-59 -136zM652 168q110 10 177 66t67 146q0 36 -12.5 68.5t-33.5 57t-53.5 47.5t-66.5 40t-78 35v-460z" />
<glyph unicode="%" horiz-adv-x="1628" d="M118 1189q0 89 43 164.5t120.5 120t172 44.5t172 -44t121 -119.5t43.5 -165.5q0 -91 -42.5 -166.5t-120 -120t-174.5 -44.5q-94 0 -171.5 44.5t-120.5 120t-43 166.5zM193 0l1047 1491h197l-1047 -1491h-197zM283 1189q0 -74 48 -124.5t122 -50.5q75 0 123 50.5t48 124.5 q0 73 -47.5 122.5t-123.5 49.5q-74 0 -122 -50t-48 -122zM839 304.5q0 90.5 43.5 166t120.5 119.5t172 44t172.5 -44t121 -119.5t43.5 -166t-43.5 -166t-121 -120t-172.5 -44.5t-172 44.5t-120.5 120t-43.5 166zM1006 305q0 -73 47.5 -123t121.5 -50q75 0 123 50t48 123 t-48 122.5t-123 49.5q-74 0 -121.5 -49.5t-47.5 -122.5z" />
<glyph unicode="&#x26;" horiz-adv-x="1439" d="M102 415q0 123 60.5 228t172.5 177q-52 63 -79.5 130.5t-27.5 155.5q0 92 36.5 170.5t98.5 131t145 81.5t175 29q73 0 141 -17t128 -53t105 -87.5t71 -125.5t26 -162h-197q0 51 -14.5 93.5t-39.5 72t-60 49.5t-75 29.5t-85 9.5q-111 0 -185 -61.5t-74 -166.5 q0 -33 11 -66t32 -65t42.5 -58t53.5 -58l470 -480q73 133 73 329h195q0 -125 -31.5 -246.5t-98.5 -220.5l231 -234h-256l-100 100q-173 -128 -428 -128q-146 0 -263 53t-185 155t-68 235zM301 424q0 -78 39.5 -138t113.5 -93t172 -33q175 0 283 76l-449 452 q-81 -46 -120 -116t-39 -148z" />
<glyph unicode="'" horiz-adv-x="388" d="M102 1491h185l-25 -447h-134z" />
<glyph unicode="(" horiz-adv-x="595" d="M124 746q0 488 234 958h185q-234 -470 -234 -958q0 -490 234 -959h-185q-234 469 -234 959z" />
<glyph unicode=")" horiz-adv-x="595" d="M53 -213q234 469 234 959q0 488 -234 958h185q235 -472 235 -958q0 -487 -235 -959h-185z" />
<glyph unicode="*" horiz-adv-x="838" d="M124 1163v136l191 -10l-110 158l118 71l96 -174l97 174l120 -71l-112 -158l194 10v-136l-194 8l112 -155l-120 -73l-97 175l-96 -175l-118 73l110 155z" />
<glyph unicode="+" horiz-adv-x="1160" d="M124 658v177h368v368h177v-368h370v-177h-370v-371h-177v371h-368z" />
<glyph unicode="," d="M145 0v230h227v-230q0 -124 -58.5 -198t-168.5 -85v98q36 8 58.5 24.5t37.5 56.5t15 104h-111z" />
<glyph unicode="-" horiz-adv-x="1096" d="M160 565v179h777v-179h-777z" />
<glyph unicode="." d="M145 0v230h227v-230h-227z" />
<glyph unicode="/" horiz-adv-x="1124" d="M81 -213l852 1917h111l-853 -1917h-110z" />
<glyph unicode="0" horiz-adv-x="1341" d="M96 745.5q0 230.5 66 404t197 271t312 97.5q136 0 245.5 -56t181.5 -157.5t110 -244t38 -315t-38 -314.5t-110 -244.5t-181.5 -158.5t-245.5 -56q-181 0 -312 98t-197 271.5t-66 404zM294 746q0 -278 98.5 -429t278.5 -151t279.5 151.5t99.5 428.5t-99.5 429t-279.5 152 t-278.5 -152t-98.5 -429z" />
<glyph unicode="1" horiz-adv-x="756" d="M30 1086v207l364 198h198v-1491h-198v1284z" />
<glyph unicode="2" horiz-adv-x="1124" d="M81 0v162l526 533q99 98 154.5 187.5t55.5 178.5q0 85 -36.5 146.5t-95 90.5t-129.5 29q-59 0 -108.5 -15.5t-88 -47t-60.5 -84t-22 -121.5h-196q0 92 26 168.5t71 129.5t105.5 90t128.5 54t141 17q69 0 135.5 -18t126 -56t104.5 -91t71 -128.5t26 -163.5 q0 -66 -20.5 -132.5t-58 -128.5t-82.5 -117t-103 -112l-384 -380h676v-191h-963z" />
<glyph unicode="3" horiz-adv-x="1138" d="M38 441h196q0 -129 87.5 -202t227.5 -73q138 0 225.5 73t87.5 202q0 130 -87 203.5t-226 73.5h-125v130l338 457h-662v186h894v-174l-323 -439q65 -13 123 -37.5t107 -62.5t84.5 -87t55.5 -113t20 -137q0 -64 -14.5 -121.5t-40.5 -104t-62 -86t-80.5 -68.5t-95.5 -49 t-106 -30t-113 -10q-81 0 -156 19.5t-139.5 59t-112.5 94.5t-75.5 131t-27.5 165z" />
<glyph unicode="4" horiz-adv-x="1224" d="M51 283v186l535 1022h213l-533 -1022h549v421h199v-421h181v-186h-181v-283h-199v283h-764z" />
<glyph unicode="5" horiz-adv-x="1177" d="M77 441h198q0 -129 87 -202t226 -73t227 73t88 202q0 131 -87.5 204t-227.5 73h-439l56 773h836v-186h-653l-28 -396h234q102 0 192.5 -31t160.5 -88.5t111 -147.5t41 -201q0 -89 -27.5 -165t-75.5 -131t-112.5 -94.5t-139.5 -59t-156 -19.5t-156.5 19.5t-140 59 t-112 94.5t-75 131t-27.5 165z" />
<glyph unicode="6" horiz-adv-x="1145" d="M59 475q0 171 90 298l479 718h226l-354 -520q48 5 73 5q148 0 264.5 -63t182.5 -177.5t66 -260.5t-65.5 -261t-182.5 -178.5t-265 -63.5q-149 0 -266 63.5t-182.5 178.5t-65.5 261zM256 475q0 -141 88 -227t229 -86q140 0 228.5 86t88.5 227q0 69 -23.5 127.5t-65.5 98.5 t-100.5 62.5t-127.5 22.5q-141 0 -229 -85t-88 -226z" />
<glyph unicode="7" horiz-adv-x="1043" d="M38 1303v188h931v-176l-543 -1315h-207l539 1303h-720z" />
<glyph unicode="8" horiz-adv-x="1181" d="M81 409q0 80 28.5 149.5t80 122.5t123.5 90q-85 54 -134 136.5t-49 189.5q0 83 25.5 153t69 119t102.5 83t125 50t138 16t138.5 -16t126 -50t103 -83t69 -119t25.5 -153q0 -107 -48.5 -189.5t-134.5 -136.5q109 -56 170.5 -149.5t61.5 -212.5q0 -136 -67 -236 t-182 -150.5t-262 -50.5t-261 50t-181 150.5t-67 236.5zM277 422q0 -125 86 -192.5t227 -67.5q142 0 228.5 67.5t86.5 192.5q0 124 -86.5 190.5t-228.5 66.5q-141 0 -227 -66.5t-86 -190.5zM326 1093q0 -57 21.5 -103.5t58.5 -75.5t84 -44.5t100 -15.5q72 0 130.5 26 t96 81.5t37.5 131.5q0 49 -14 88.5t-38.5 66.5t-58 45.5t-72 27t-81.5 8.5q-54 0 -100.5 -14t-83.5 -41.5t-58.5 -74t-21.5 -106.5z" />
<glyph unicode="9" horiz-adv-x="1145" d="M59 1018q0 146 65.5 260.5t182.5 177t266 62.5q111 0 206.5 -36.5t163 -102t105.5 -158.5t38 -203q0 -175 -92 -300h2l-480 -718h-224l351 520q-24 -2 -70 -2q-149 0 -266 63t-182.5 177t-65.5 260zM256 1018q0 -141 88 -227t229 -86t229 86t88 227q0 93 -40 164 t-112 109t-165 38q-141 0 -229 -85.5t-88 -225.5z" />
<glyph unicode=":" d="M145 0v230h227v-230h-227zM145 837v228h227v-228h-227z" />
<glyph unicode=";" d="M145 0v230h227v-230q0 -124 -58.5 -198t-168.5 -85v98q36 8 58.5 24.5t37.5 56.5t15 104h-111zM145 837v228h227v-228h-227z" />
<glyph unicode="&#x3c;" horiz-adv-x="1113" d="M118 656v181l878 384v-201l-668 -274l668 -273v-201z" />
<glyph unicode="=" horiz-adv-x="1138" d="M118 441v177h904v-177h-904zM118 874v176h904v-176h-904z" />
<glyph unicode="&#x3e;" horiz-adv-x="1113" d="M118 272v201l668 273l-668 274v201l878 -384v-181z" />
<glyph unicode="?" horiz-adv-x="1151" d="M81 1073q0 88 26.5 161t72 125t108 88.5t134.5 53.5t151 17q71 0 137.5 -16t124.5 -49t101.5 -80t69 -113t25.5 -144q0 -47 -11 -91t-30 -79.5t-44 -69.5t-53.5 -62.5t-58 -58.5t-58 -56.5t-53.5 -57.5t-43.5 -61t-29.5 -67t-11 -76h-198q0 49 11 95t30 82t44 71t53 63 t58 57.5t58 55t53 55t44 58t30 63t11 71.5q0 107 -73 163t-191 56q-84 0 -149 -27t-104 -85t-39 -142h-196zM426 0v230h228v-230h-228z" />
<glyph unicode="@" horiz-adv-x="1679" d="M81 532q0 158 59.5 300.5t161.5 246t246.5 164t307.5 60.5q138 0 259.5 -42t209 -113t151 -164.5t95 -198t31.5 -210.5q0 -115 -27 -205t-73 -143t-101 -80t-117 -27q-63 0 -114 19.5t-87.5 60t-51.5 98.5q-27 -34 -62 -58.5t-77.5 -37.5t-88.5 -13q-144 0 -239 98.5 t-95 244.5q0 96 43 174.5t119.5 124t171.5 45.5q131 0 215 -94v76h164v-470q0 -39 7 -71t21.5 -59t41.5 -42t65 -15q44 0 81.5 21t68 64t48 117t17.5 172q0 139 -52.5 262.5t-142.5 211.5t-215.5 139.5t-265.5 51.5q-116 0 -223.5 -34.5t-194.5 -98.5t-152.5 -150.5 t-101 -195.5t-35.5 -229q0 -150 56.5 -282t155 -225t237 -146.5t296.5 -53.5q213 0 362 60v-68q-148 -55 -362 -55q-171 0 -322 58t-258.5 159t-170 244.5t-62.5 308.5zM634 532.5q0 -84.5 56.5 -137t138.5 -52.5q80 0 134.5 52.5t54.5 136.5q0 43 -15 78.5t-40.5 60t-60 38 t-73.5 13.5q-82 0 -138.5 -52.5t-56.5 -137z" />
<glyph unicode="A" horiz-adv-x="1358" d="M17 0l550 1491h223l552 -1491h-212l-118 335h-665l-119 -335h-211zM413 520h530l-264 738z" />
<glyph unicode="B" horiz-adv-x="1458" d="M160 0v1491h198h404q89 0 165 -29t128 -80t82 -120.5t30 -147.5q0 -101 -53 -183q126 -59 201 -178t75 -267q0 -133 -60.5 -244.5t-168.5 -176.5t-241 -65h-722h-38zM358 185h534q137 0 219 87.5t82 217.5q0 132 -81 218.5t-218 86.5h-536v-610zM358 976h560 q51 54 51 134q0 84 -55.5 139.5t-151.5 55.5h-404v-329z" />
<glyph unicode="C" horiz-adv-x="1620" d="M81 746q0 159 58.5 301.5t160 246t247.5 164t313 60.5q125 0 241 -38t208 -106t159.5 -164t98.5 -208h-210q-53 145 -190 235t-307 90q-128 0 -238 -45t-185 -122.5t-117.5 -184.5t-42.5 -229q0 -121 42.5 -228t117.5 -184.5t185 -122.5t238 -45q171 0 307.5 89.5 t189.5 234.5h210q-41 -150 -144 -268t-250 -184t-313 -66q-167 0 -313 61t-247.5 165t-160 246.5t-58.5 301.5z" />
<glyph unicode="D" horiz-adv-x="1571" d="M160 0v1491h198h426q151 0 283.5 -58.5t225 -159t145.5 -237.5t53 -290t-53 -290.5t-145.5 -238t-225 -159t-283.5 -58.5h-550h-74zM358 187h426q113 0 210 43t164 118t105 178t38 220t-38 219.5t-105 177t-164 117.5t-210 43h-426v-1116z" />
<glyph unicode="E" horiz-adv-x="1102" d="M160 0v1491h198h654v-188h-654v-457h601v-186h-601v-473h664v-187h-788h-74z" />
<glyph unicode="F" horiz-adv-x="1059" d="M160 0v1491h198h654v-188h-654v-521h628v-188h-628v-594h-198z" />
<glyph unicode="G" horiz-adv-x="1686" d="M81 746q0 159 58 301.5t159 246t245 164t309 60.5t312.5 -65.5t250.5 -180.5t144 -260h-211q-35 91 -108.5 162.5t-174.5 112t-213 40.5q-126 0 -233.5 -45t-182.5 -122.5t-117 -185t-42 -228.5q0 -123 42.5 -231.5t118 -186.5t183 -123t231.5 -45q102 0 192 27.5t160 78 t112.5 129.5t46.5 176h5v17h-486v181h677v-181v-588h-191v215q-81 -119 -219.5 -181t-307.5 -62q-161 0 -303 61t-242 165t-157.5 246.5t-57.5 301.5z" />
<glyph unicode="H" horiz-adv-x="1347" d="M160 0v1491h198v-631h632v631h199v-1491h-199v673h-632v-673h-198z" />
<glyph unicode="I" d="M160 0v1491h198v-1491h-198z" />
<glyph unicode="J" horiz-adv-x="1134" d="M38 428v28h196v-28q0 -66 21.5 -117t60.5 -82.5t90 -47t112 -15.5t111 15.5t88.5 47t60 82.5t21.5 117v1063h197v-1063q0 -45 -6.5 -87.5t-19.5 -79t-31 -69t-40.5 -59t-49.5 -49.5t-57 -41t-62.5 -31.5t-67.5 -22t-71 -13t-73 -4.5q-76 0 -145.5 17.5t-130.5 54 t-106 89.5t-71.5 129t-26.5 166z" />
<glyph unicode="K" horiz-adv-x="1260" d="M160 0v1491h198v-676l622 676h243l-658 -727l679 -764h-242l-644 716v-716h-198z" />
<glyph unicode="L" horiz-adv-x="1032" d="M160 0v1491h198v-1304h638v-187h-836z" />
<glyph unicode="M" horiz-adv-x="1713" d="M160 0v1491h198h38l462 -1014l461 1014h236v-1491h-196v1165l-416 -913h-170l-415 913v-1165h-198z" />
<glyph unicode="N" horiz-adv-x="1352" d="M160 0v1491h159l677 -1101v1101h197v-1491h-160l-675 1103v-1103h-198z" />
<glyph unicode="O" horiz-adv-x="1703" d="M81 746q0 159 60 302t162.5 246t245.5 163.5t302.5 60.5t303 -60.5t246.5 -163.5t164 -246.5t61 -301.5t-61 -301.5t-164 -247t-246.5 -164.5t-303 -61t-302.5 61t-245.5 164.5t-162.5 247t-60 301.5zM277 746q0 -81 20 -156.5t56.5 -139t89 -116.5t115.5 -90 t138.5 -57.5t155.5 -20.5q120 0 226.5 45.5t183 122.5t121 184.5t44.5 227.5q0 121 -44.5 228.5t-121 185t-183 122.5t-226.5 45t-227 -45t-183.5 -122.5t-120.5 -185t-44 -228.5z" />
<glyph unicode="P" horiz-adv-x="1240" d="M160 0v1491h198h343q76 0 147 -23t128.5 -66t100.5 -100t66.5 -127.5t23.5 -145.5q0 -95 -37 -180.5t-99 -148t-148.5 -99t-181.5 -36.5h-343v-565h-198zM358 750h343q111 0 189.5 82t78.5 196.5t-78.5 195.5t-189.5 81h-343v-555z" />
<glyph unicode="Q" horiz-adv-x="1713" d="M81 746q0 158 61 301.5t164 246.5t246 163.5t300 60.5t300 -60.5t247 -163.5t165.5 -246.5t61.5 -301.5q0 -152 -56 -288t-156 -243l188 -211l-143 -117l-185 211q-194 -126 -422 -126q-157 0 -300 61t-246 164.5t-164 247t-61 301.5zM277 746q0 -96 28.5 -185t81.5 -160 t124 -124t158.5 -82t182.5 -29q160 0 292 76l-201 229l143 117l200 -228q45 51 76 111.5t48 130.5t17 144q0 120 -45.5 228t-122.5 185.5t-183 122.5t-224 45t-224.5 -45t-183.5 -122.5t-122 -185.5t-45 -228z" />
<glyph unicode="R" horiz-adv-x="1341" d="M160 0v1491h198h345q94 0 180 -36.5t148 -98.5t99 -147.5t37 -179.5q0 -98 -40 -186t-110.5 -152.5t-160.5 -94.5l514 -596h-242l-489 571h-281v-571h-198zM358 750h345q110 0 188 82t78 196.5t-78 195.5t-188 81h-345v-555z" />
<glyph unicode="S" horiz-adv-x="1168" d="M75 441h197q0 -133 89.5 -204t243.5 -71q130 0 210.5 60.5t80.5 161.5q0 30 -8.5 56.5t-23 47.5t-38.5 41.5t-47.5 35t-58.5 31t-63 28t-69 26.5q-9 3 -26 10q-62 22 -94 34.5t-88 38t-86.5 47t-70 57t-60 73t-35.5 89t-15 111.5q0 94 38.5 172t103 128t147 77t171.5 27 q55 0 106.5 -9t99.5 -28t89.5 -46t75.5 -64t58 -81.5t37 -99.5t13 -117h-198q0 82 -36 139.5t-98.5 86t-146.5 28.5q-75 0 -134.5 -25t-94.5 -74t-35 -114q0 -32 8.5 -59.5t21.5 -49.5t36 -42.5t45.5 -35.5t56.5 -31.5t62 -27.5t68 -27q14 -5 41 -15q61 -23 93 -35.5 t87.5 -38.5t86 -47.5t70.5 -56t60 -70.5t35 -85t15 -105q0 -96 -40 -175.5t-107.5 -131.5t-156 -80.5t-186.5 -28.5q-86 0 -165 19t-145.5 58t-115.5 94t-76.5 131.5t-27.5 166.5z" />
<glyph unicode="T" horiz-adv-x="1064" d="M38 1303v188h592h399v-188h-399v-1303h-195v1303h-397z" />
<glyph unicode="U" horiz-adv-x="1319" d="M138 447v1044h199v-1035q0 -141 85.5 -215.5t237.5 -74.5q102 0 174.5 33t112 98t39.5 159v1035h196v-1044q0 -91 -26 -168t-73.5 -133t-113 -95.5t-143.5 -59t-166 -19.5q-109 0 -203.5 31.5t-165.5 90t-112 149.5t-41 204z" />
<glyph unicode="V" horiz-adv-x="1311" d="M17 1491h211l428 -1253l428 1253h213l-528 -1491h-224z" />
<glyph unicode="W" horiz-adv-x="1852" d="M17 1491h198l377 -1265l243 805l-138 460h187l376 -1265l380 1265h198l-452 -1491h-238l-221 730l-222 -730h-238z" />
<glyph unicode="X" horiz-adv-x="1234" d="M38 0l468 769l-440 722h221l331 -541l332 541h219l-441 -722l471 -769h-221l-360 590l-360 -590h-220z" />
<glyph unicode="Y" horiz-adv-x="1243" d="M17 1491h221l384 -619l384 619h221l-507 -810v-681h-198v685z" />
<glyph unicode="Z" horiz-adv-x="1118" d="M83 0v173l720 1130h-701v188h937v-170l-722 -1134h740v-187h-974z" />
<glyph unicode="[" horiz-adv-x="574" d="M124 -213v1917h185h266v-179h-266v-1559h266v-179h-398h-53z" />
<glyph unicode="\" horiz-adv-x="1124" d="M81 1704h110l853 -1917h-111z" />
<glyph unicode="]" horiz-adv-x="574" d="M0 -34h268v1559h-268v179h453v-1917h-185h-268v179z" />
<glyph unicode="^" horiz-adv-x="1106" d="M85 831l386 660h165l386 -660h-209l-260 451l-259 -451h-209z" />
<glyph unicode="_" horiz-adv-x="1106" d="M81 -142h948v-179h-948v179z" />
<glyph unicode="`" horiz-adv-x="478" d="M43 1491l215 -281h179l-171 281h-223z" />
<glyph unicode="a" horiz-adv-x="1069" d="M81 313q0 83 31 149t83 107.5t118.5 63t139.5 21.5q68 0 127.5 -14.5t107 -42t83.5 -67.5v151q0 50 -12.5 90t-33.5 67t-50.5 44.5t-63 25.5t-72.5 8q-99 0 -164.5 -50t-65.5 -142h-183q0 108 54 192.5t147.5 130.5t211.5 46q119 0 213 -47t148.5 -140t54.5 -218v-688 h-184v110q-105 -138 -318 -138q-73 0 -139.5 21.5t-118.5 63t-83 107.5t-31 149zM266 313q0 -83 60 -133t180 -50q117 0 191 51.5t74 131.5q0 86 -73 135.5t-192 49.5t-179.5 -50.5t-60.5 -134.5z" />
<glyph unicode="b" horiz-adv-x="1347" d="M140 0v1491h186v-607q65 99 168 154t234 55q109 0 209 -43.5t172.5 -118t115.5 -179t43 -220.5q0 -92 -27.5 -178.5t-77.5 -155t-116.5 -120t-148.5 -79t-170 -27.5q-131 0 -234 55t-168 154v-181h-186zM326 532.5q0 -107.5 49.5 -195t136.5 -137t193 -49.5 q105 0 191.5 49.5t136 137t49.5 195t-49.5 195t-136 137t-191.5 49.5q-106 0 -193 -49.5t-136.5 -137t-49.5 -195z" />
<glyph unicode="c" horiz-adv-x="1215" d="M81 532q0 59 11 115t31.5 106t50 95t66.5 82.5t82.5 68t95.5 51.5t106.5 32t116.5 11q188 0 331 -107t187 -277h-196q-37 92 -124.5 147.5t-197.5 55.5q-104 0 -190 -49.5t-135.5 -137t-49.5 -193.5q0 -78 29 -148t79 -120t119.5 -79t147.5 -29q111 0 199 55t123 147h196 q-42 -171 -186 -278.5t-332 -107.5q-95 0 -181.5 28t-155 79t-119 120t-77.5 154.5t-27 178.5z" />
<glyph unicode="d" horiz-adv-x="1347" d="M81 532.5q0 115.5 43 220t115.5 179t172 118t208.5 43.5q66 0 126 -14.5t110.5 -42t92 -66t73.5 -86.5v607h185v-1491h-185v181q-65 -99 -168 -154t-234 -55q-109 0 -208.5 43.5t-172 118t-115.5 179t-43 220zM266 532q0 -80 29 -151t79 -121.5t120 -79.5t149 -29 t149.5 29t121 79.5t79.5 121.5t29 151q0 108 -49.5 195.5t-136.5 137t-193 49.5q-105 0 -191.5 -49.5t-136 -137t-49.5 -195.5z" />
<glyph unicode="e" horiz-adv-x="1215" d="M81 532q0 118 40 221t111 178t174.5 118.5t225.5 43.5q94 0 177.5 -29.5t146 -82.5t107.5 -123.5t68 -154t23 -173.5q0 -41 -6 -83h-878q24 -144 123 -225.5t243 -81.5q50 0 96.5 12t83 33.5t64.5 49.5t45 61h193q-46 -146 -177 -235t-307 -89q-123 0 -227 43t-175 117.5 t-111 178t-40 221.5zM270 612h695q-13 100 -63.5 171t-119.5 103t-152 32q-146 0 -241.5 -83.5t-118.5 -222.5z" />
<glyph unicode="f" horiz-adv-x="668" d="M32 886v179h173v32q0 215 119 326q104 97 290 97q27 0 55 -2v-178q-22 2 -43 2q-109 0 -167 -50q-69 -58 -69 -195v-32h279v-179h-279v-886h-185v886h-173z" />
<glyph unicode="g" horiz-adv-x="1345" d="M81 539q0 91 27.5 176t77.5 153t116 119t148 78.5t170 27.5q132 0 235 -56t169 -155v183h183v-1020q0 -97 -29 -179t-80 -140t-119.5 -99t-147 -60.5t-162.5 -19.5q-99 0 -192.5 30t-165 82.5t-115 130t-43.5 165.5h186q0 -32 13.5 -65t42 -63.5t67 -54.5t92.5 -38.5 t115 -14.5q170 0 262.5 86.5t92.5 239.5v148q-66 -99 -169 -154.5t-235 -55.5q-110 0 -209.5 43.5t-171.5 117.5t-115 177t-43 218zM266 539q0 -106 50 -193t137 -136.5t193 -49.5t193 49.5t136 136.5t49 193q0 78 -29 148t-79 120.5t-120.5 79.5t-149.5 29 q-106 0 -193 -49.5t-137 -136t-50 -191.5z" />
<glyph unicode="h" horiz-adv-x="1113" d="M140 0v1491h186v-558q104 160 315 160q59 0 113 -17.5t98.5 -52t77.5 -82t51 -111.5t18 -137v-693h-186v683q0 112 -61 172.5t-160 60.5q-52 0 -98 -16.5t-84.5 -51.5t-61 -97t-22.5 -144v-607h-186z" />
<glyph unicode="i" horiz-adv-x="468" d="M140 0v1065h186v-1065h-186zM140 1256v235h186v-235h-186z" />
<glyph unicode="j" horiz-adv-x="512" d="M-38 -275q18 -1 35 -1q89 0 135 41q55 49 55 172v1128h185v-1128q0 -206 -104 -305q-92 -87 -258 -87q-23 0 -48 2v178zM187 1256v235h185v-235h-185z" />
<glyph unicode="k" horiz-adv-x="1069" d="M140 0v1491h186v-899l458 473h232l-504 -516l525 -549h-232l-479 502v-502h-186z" />
<glyph unicode="l" horiz-adv-x="468" d="M140 0v1534h186v-1534h-186z" />
<glyph unicode="m" horiz-adv-x="1634" d="M140 0v1065h186v-118q99 146 277 146q87 0 160 -43.5t115 -124.5q107 168 309 168q70 0 130 -24.5t105.5 -70.5t71.5 -118.5t26 -161.5v-718h-185v711q0 104 -52.5 154.5t-132.5 50.5q-21 0 -42.5 -3.5t-44 -13t-42.5 -23t-38 -35t-30.5 -48t-20 -63.5t-7.5 -80v-650 h-186v711q0 104 -53 154.5t-135 50.5q-25 0 -50 -5.5t-51 -17t-48 -32.5t-39.5 -49.5t-27 -70t-9.5 -91.5v-650h-186z" />
<glyph unicode="n" horiz-adv-x="1113" d="M140 0v1065h186v-132q104 160 315 160q59 0 113 -17.5t98.5 -52t77.5 -82t51 -111.5t18 -137v-693h-186v683q0 112 -61 172.5t-160 60.5q-52 0 -98 -16.5t-84.5 -51.5t-61 -97t-22.5 -144v-607h-186z" />
<glyph unicode="o" horiz-adv-x="1281" d="M81 532.5q0 92.5 28 179t79.5 155t120.5 120t154.5 79t177.5 27.5t177.5 -27.5t155 -79t121 -120t80 -155t28.5 -179.5q0 -116 -44.5 -220t-120 -178.5t-179.5 -118t-218 -43.5q-92 0 -177.5 27.5t-154.5 79t-120.5 120t-79.5 155t-28 179zM266 532q0 -106 49.5 -193 t135.5 -136.5t190 -49.5q78 0 148 29t120.5 79.5t79.5 121t29 149.5q0 106 -49.5 193.5t-136 137t-191.5 49.5q-104 0 -190 -49.5t-135.5 -137t-49.5 -193.5z" />
<glyph unicode="p" horiz-adv-x="1347" d="M140 -426v1491h186v-181q43 65 101.5 111t135 72t165.5 26q109 0 209 -43.5t172.5 -118t115.5 -179t43 -220.5q0 -92 -27.5 -178.5t-77.5 -155t-116.5 -120t-148.5 -79t-170 -27.5q-132 0 -234.5 55t-167.5 154v-607h-186zM326 532.5q0 -107.5 49.5 -195t136.5 -137 t193 -49.5q105 0 191.5 49.5t136 137t49.5 195t-49.5 195t-136 137t-191.5 49.5q-106 0 -193 -49.5t-136.5 -137t-49.5 -195z" />
<glyph unicode="q" horiz-adv-x="1347" d="M81 532.5q0 115.5 43 220t115.5 179t172 118t208.5 43.5q66 0 126 -14.5t110.5 -42t92 -66t73.5 -86.5v181h185v-1491h-185v607q-65 -99 -168 -154t-234 -55q-109 0 -208.5 43.5t-172 118t-115.5 179t-43 220zM266 532q0 -80 29 -151t79 -121.5t120 -79.5t149 -29 t149.5 29t121 79.5t79.5 121.5t29 151q0 108 -49.5 195.5t-136.5 137t-193 49.5q-105 0 -191.5 -49.5t-136 -137t-49.5 -195.5z" />
<glyph unicode="r" horiz-adv-x="685" d="M140 0v1065h186v-160q101 179 322 179v-194h-19q-31 0 -61 -4q-38 -6 -74.5 -21t-67 -40.5t-53 -60t-35 -84t-12.5 -109.5v-571h-186z" />
<glyph unicode="s" horiz-adv-x="994" d="M92 319h183q0 -37 11 -67t31 -49.5t48.5 -33t61 -19t69.5 -5.5q64 0 113 15t79 48.5t30 81.5q0 31 -15 55t-33.5 39.5t-57 30.5t-64.5 22t-77 20q-49 13 -74.5 20t-70.5 22.5t-70 30t-57.5 39t-49 52.5t-29 67.5t-12.5 86.5q0 70 30 130t82.5 101t123.5 64t152 23 q109 0 195.5 -40.5t138.5 -120.5t52 -186h-183q0 46 -17 80.5t-46.5 54.5t-64.5 29.5t-75 9.5q-84 0 -143 -37t-59 -108q0 -38 21 -66.5t56 -45.5t81 -30.5t96.5 -26t100.5 -27.5t96 -38t81 -54.5t56 -81.5t21 -115q0 -142 -114 -230t-293 -88q-117 0 -208 40.5t-143.5 120 t-52.5 186.5z" />
<glyph unicode="t" horiz-adv-x="683" d="M41 886v179h211v341h185v-341h209v-179h-209v-886h-185v886h-211z" />
<glyph unicode="u" horiz-adv-x="1113" d="M115 374v691h186v-683q0 -112 61 -172.5t160 -60.5q52 0 98 16.5t84.5 51.5t61 97.5t22.5 145.5v605h185v-1065h-185v132q-105 -160 -315 -160q-74 0 -139 28t-113.5 78.5t-77 127t-28.5 168.5z" />
<glyph unicode="v" horiz-adv-x="1022" d="M17 1065h196l299 -854l297 854h199l-392 -1065h-177h-32z" />
<glyph unicode="w" horiz-adv-x="1479" d="M21 1065h198l269 -848l170 509l-115 339h181l272 -837l267 837h196l-362 -1065h-172h-18l-165 484l-167 -484h-162h-27z" />
<glyph unicode="x" horiz-adv-x="979" d="M32 0l356 551l-333 514h201l232 -358l230 358h200l-330 -514l355 -551h-199l-256 396l-256 -396h-200z" />
<glyph unicode="y" horiz-adv-x="1022" d="M17 1065h196l319 -797l277 797h199l-522 -1491h-199l154 436z" />
<glyph unicode="z" horiz-adv-x="959" d="M81 0v124l543 764h-522v177h778v-124l-545 -764h566v-177h-820z" />
<glyph unicode="{" horiz-adv-x="750" d="M106 658v179q54 -1 88 5t62.5 24.5t41.5 56.5t13 97v343q0 196 102 287t303 75v-179q-55 7 -96.5 1.5t-69 -25.5t-41 -59t-13.5 -100v-343q0 -113 -38.5 -177.5t-114.5 -94.5q38 -14 65.5 -36.5t47.5 -55t30 -78t10 -103.5v-343q0 -60 13.5 -99t41 -59t69 -25.5t96.5 0.5 v-179q-200 -15 -302.5 76t-102.5 286v343q0 49 -9.5 82.5t-25 53.5t-42.5 31t-56 14t-72 2z" />
<glyph unicode="|" horiz-adv-x="504" d="M160 -426v1960h185v-1960h-185z" />
<glyph unicode="}" horiz-adv-x="750" d="M38 -51q55 -6 96 -0.5t68.5 25.5t41.5 59t14 99v343q0 114 37.5 179.5t113.5 93.5q-76 30 -113.5 94.5t-37.5 177.5v343q0 61 -14 100.5t-41.5 59t-68.5 25t-96 -1.5v179q200 16 302.5 -75t102.5 -287v-343q0 -59 12.5 -96.5t41 -56.5t62 -25t87.5 -5v-179 q-43 1 -71.5 -2t-55.5 -14t-42.5 -31t-24.5 -53.5t-9 -82.5v-343q0 -194 -103 -285.5t-302 -76.5v179z" />
<glyph unicode="~" horiz-adv-x="1268" d="M118 662q55 191 194 239t340 -66q55 -31 98 -49.5t77 -23.5t59.5 1t45.5 25t34 46.5t26 68.5l160 -76q-36 -126 -110 -191t-183 -61t-243 81q-65 37 -114 54.5t-85 18.5t-63 -16.5t-45 -47.5t-32 -77z" />
<glyph unicode="&#xa2;" horiz-adv-x="1215" d="M81 746q0 116 42.5 219.5t116.5 178t178 118t223 43.5q56 0 96 -8l64 194h111l-71 -221q118 -43 202.5 -135t115.5 -213h-196q-24 60 -70 104.5t-109 70.5l-233 -717q55 -12 90 -12q111 0 199 55.5t123 147.5h196q-42 -171 -185.5 -277.5t-332.5 -106.5q-65 0 -145 18 l-65 -205h-112l77 240q-145 66 -230 201t-85 305zM266 746q0 -106 50.5 -193.5t136.5 -135.5l228 705q-12 2 -40 2q-78 0 -147.5 -29t-119.5 -79t-79 -120.5t-29 -149.5z" />
<glyph unicode="&#xa3;" horiz-adv-x="1245" d="M81 0v191h185v388h-148v173h148v311q0 90 25.5 166t69 128.5t101 89.5t121 54t130.5 17q65 0 128 -17t121 -54t102 -89t70.5 -128.5t26.5 -166.5v-61h-198v61q0 67 -21.5 119t-58 83t-79.5 46.5t-91 15.5q-51 0 -95 -15.5t-79.5 -46.5t-56 -83t-20.5 -119v-311h463v-173 h-463v-388h752v-191h-1133z" />
<glyph unicode="&#xa5;" horiz-adv-x="1243" d="M17 1491h221l384 -619l384 619h221l-465 -741h329v-138h-371v-118h371v-140h-371v-354h-198v354h-369v140h369v118h-369v138h329z" />
<glyph unicode="&#xa8;" horiz-adv-x="697" d="M43 1223v196h197v-196h-197zM458 1223v196h198v-196h-198z" />
<glyph unicode="&#xa9;" horiz-adv-x="1701" d="M81 746q0 157 61 299.5t164 245.5t246 164t300 61t300 -61t246 -164t164 -245.5t61 -299.5t-61 -300t-164 -246.5t-246 -164.5t-300 -61t-300 61t-246 164.5t-164 246.5t-61 300zM149 745.5q0 -144.5 55.5 -275.5t150 -225.5t224.5 -150.5t273 -56q142 0 271.5 56 t223.5 150.5t150 225.5t56 275.5t-56 275.5t-150 225.5t-223.5 150.5t-271.5 56q-143 0 -273 -56t-224.5 -150.5t-150 -225.5t-55.5 -275.5zM441 746q0 67 21 129.5t59.5 113t89.5 88.5t115 58.5t132 20.5q96 0 179.5 -39t140 -110t74.5 -161h-179q-10 34 -31.5 61.5 t-50.5 45.5t-63.5 27.5t-71.5 9.5q-73 0 -129 -35t-84.5 -90t-28.5 -119t28.5 -119.5t84.5 -91t129 -35.5q76 0 136.5 39t80.5 109h179q-27 -138 -137.5 -225.5t-256.5 -87.5q-114 0 -210 54.5t-151.5 149.5t-55.5 207z" />
<glyph unicode="&#xab;" horiz-adv-x="1085" d="M145 658l235 390h199l-234 -390l234 -388h-199zM506 658l236 390h199l-234 -390l234 -388h-199z" />
<glyph unicode="&#xad;" horiz-adv-x="1096" d="M160 565v179h777v-179h-777z" />
<glyph unicode="&#xae;" horiz-adv-x="1701" d="M81 746q0 157 61 299.5t164 245.5t246 164t300 61t300 -61t246 -164t164 -245.5t61 -299.5t-61 -300t-164 -246.5t-246 -164.5t-300 -61t-300 61t-246 164.5t-164 246.5t-61 300zM149 745.5q0 -144.5 55.5 -275.5t150 -225.5t224.5 -150.5t273 -56q142 0 271.5 56 t223.5 150.5t150 225.5t56 275.5t-56 275.5t-150 225.5t-223.5 150.5t-271.5 56q-143 0 -273 -56t-224.5 -150.5t-150 -225.5t-55.5 -275.5zM598 352v788h164h112q135 0 216 -75t81 -183q0 -55 -16.5 -101.5t-48 -81.5t-75.5 -56l219 -291h-183l-195 260h-110v-260h-164z M762 760h102q68 0 106 30.5t38 83.5t-37.5 82.5t-106.5 29.5h-102v-226z" />
<glyph unicode="&#xb4;" horiz-adv-x="478" d="M43 1210h179l215 281h-224z" />
<glyph unicode="&#xb8;" horiz-adv-x="532" d="M43 -319q140 -11 212.5 6.5t72.5 58.5q0 37 -45 54.5t-132 22.5v177h158v-96q81 -16 131 -60.5t50 -109.5q0 -220 -447 -194v141z" />
<glyph unicode="&#xbb;" horiz-adv-x="1085" d="M145 270l235 388l-235 390h200l234 -390l-234 -388h-200zM506 270l236 388l-236 390h201l234 -390l-234 -388h-201z" />
<glyph unicode="&#x2c6;" horiz-adv-x="740" d="M43 1203l225 288h190h15l226 -288h-199l-130 173l-130 -173h-197z" />
<glyph unicode="&#x2da;" horiz-adv-x="565" d="M43 1390q0 97 67 161.5t173 64.5q107 0 174 -64t67 -162t-67 -162.5t-174 -64.5q-106 0 -173 64.5t-67 162.5zM183 1390q0 -43 26 -70t74 -27t75.5 27.5t27.5 69.5t-28 69.5t-75 27.5t-73.5 -27.5t-26.5 -69.5z" />
<glyph unicode="&#x2dc;" horiz-adv-x="723" d="M43 1221q0 83 18.5 142.5t51 88.5t74.5 36.5t89.5 -8t95.5 -49.5q35 -25 56 -38t41.5 -19t31 3.5t17 34t6.5 68.5h157q0 -83 -19 -142t-51 -88t-74 -36t-89 8.5t-94 49.5q-35 25 -56 38t-41.5 19t-31.5 -4t-17.5 -35t-6.5 -69h-158z" />
<glyph unicode="&#x401;" horiz-adv-x="1102" d="M160 0v1491h198h654v-188h-654v-457h601v-186h-601v-473h664v-187h-788h-74zM281 1648v197h198v-197h-198zM697 1648v197h197v-197h-197z" />
<glyph unicode="&#x402;" horiz-adv-x="1405" d="M38 1303v188h578h459v-188h-459v-372q143 65 280 65q88 0 161 -26t127.5 -75.5t84.5 -128t30 -178.5v-218q0 -205 -104.5 -304t-306.5 -85v183q115 -11 164 37t49 169v207q0 125 -58.5 182.5t-164.5 57.5q-124 0 -262 -61v-756h-199v1303h-379z" />
<glyph unicode="&#x403;" horiz-adv-x="1032" d="M160 0v1491h836v-188h-638v-1303h-198zM456 1634l170 281h224l-216 -281h-178z" />
<glyph unicode="&#x404;" horiz-adv-x="1603" d="M81 746q0 160 55 302t152.5 246t239 164t305.5 60q134 0 253.5 -38t210.5 -106.5t156 -163.5t96 -208h-212q-52 148 -184 236.5t-320 88.5q-90 0 -171 -23.5t-145 -67t-113 -104t-79.5 -135t-41.5 -158.5h767v-185h-767q14 -105 58.5 -194.5t114 -154.5t166.5 -102 t211 -37q125 0 228.5 41t172.5 113t103 170h212q-31 -113 -96 -208.5t-156 -164t-210.5 -107t-253.5 -38.5q-164 0 -305.5 61t-239 165t-152.5 246t-55 302z" />
<glyph unicode="&#x405;" horiz-adv-x="1168" d="M75 441h197q0 -133 89.5 -204t243.5 -71q130 0 210.5 60.5t80.5 161.5q0 30 -8.5 56.5t-23 47.5t-38.5 41.5t-47.5 35t-58.5 31t-63 28t-69 26.5q-9 3 -26 10q-62 22 -94 34.5t-88 38t-86.5 47t-70 57t-60 73t-35.5 89t-15 111.5q0 94 38.5 172t103 128t147 77t171.5 27 q55 0 106.5 -9t99.5 -28t89.5 -46t75.5 -64t58 -81.5t37 -99.5t13 -117h-198q0 82 -36 139.5t-98.5 86t-146.5 28.5q-75 0 -134.5 -25t-94.5 -74t-35 -114q0 -32 8.5 -59.5t21.5 -49.5t36 -42.5t45.5 -35.5t56.5 -31.5t62 -27.5t68 -27q14 -5 41 -15q61 -23 93 -35.5 t87.5 -38.5t86 -47.5t70.5 -56t60 -70.5t35 -85t15 -105q0 -96 -40 -175.5t-107.5 -131.5t-156 -80.5t-186.5 -28.5q-86 0 -165 19t-145.5 58t-115.5 94t-76.5 131.5t-27.5 166.5z" />
<glyph unicode="&#x406;" d="M160 0v1491h198v-1491h-198z" />
<glyph unicode="&#x407;" d="M-49 1648v197h198v-197h-198zM160 0v1491h198v-1491h-198zM366 1648v197h199v-197h-199z" />
<glyph unicode="&#x408;" horiz-adv-x="1134" d="M38 428v28h196v-28q0 -66 21.5 -117t60.5 -82.5t90 -47t112 -15.5t111 15.5t88.5 47t60 82.5t21.5 117v1063h197v-1063q0 -45 -6.5 -87.5t-19.5 -79t-31 -69t-40.5 -59t-49.5 -49.5t-57 -41t-62.5 -31.5t-67.5 -22t-71 -13t-73 -4.5q-76 0 -145.5 17.5t-130.5 54 t-106 89.5t-71.5 129t-26.5 166z" />
<glyph unicode="&#x409;" horiz-adv-x="2010" d="M30 -2v179q46 -7 86 -1t72.5 24t57.5 54.5t42.5 89.5t26 128.5t8.5 173.5v845h846v-611h301q128 0 235 -56.5t169 -158t62 -226.5t-62 -226t-168.5 -157t-235.5 -56h-424h-75v1303h-449v-657q0 -116 -12.5 -210.5t-36.5 -163t-57.5 -120.5t-75.5 -83t-91.5 -50t-104 -22 t-114.5 1zM1169 185h301q113 0 190.5 70.5t77.5 183.5t-77.5 184.5t-190.5 71.5h-301v-510z" />
<glyph unicode="&#x40a;" horiz-adv-x="1986" d="M160 0v1491h198v-611h589v611h199v-611h301q95 0 181 -33.5t148.5 -91t99.5 -140t37 -176.5q0 -125 -62.5 -226t-169 -157t-234.5 -56h-425h-75v695h-589v-695h-198zM1146 185h301q113 0 190.5 70.5t77.5 183.5t-77.5 184.5t-190.5 71.5h-301v-510z" />
<glyph unicode="&#x40b;" horiz-adv-x="1415" d="M38 1303v188h578h459v-188h-459v-372q143 65 280 65q88 0 161 -26t127.5 -75.5t84.5 -128t30 -178.5v-588h-198v577q0 125 -58.5 182.5t-164.5 57.5q-124 0 -262 -61v-756h-199v1303h-379z" />
<glyph unicode="&#x40c;" horiz-adv-x="1260" d="M160 0v1491h198v-676l622 676h243l-658 -727l679 -764h-242l-644 716v-716h-198zM498 1634l171 281h223l-215 -281h-179z" />
<glyph unicode="&#x40e;" horiz-adv-x="1234" d="M59 1491h201l394 -852l360 852h200l-479 -1137q-80 -193 -206 -279t-307 -75v183q123 -12 200 37t127 168l14 34zM328 1648v163h575v-163h-575z" />
<glyph unicode="&#x40f;" horiz-adv-x="1347" d="M160 0v1491h198v-1304h632v1304h199v-1491h-199h-217v-307h-198v307h-341h-74z" />
<glyph unicode="&#x410;" horiz-adv-x="1358" d="M17 0l550 1491h223l552 -1491h-212l-118 335h-665l-119 -335h-211zM413 520h530l-264 738z" />
<glyph unicode="&#x411;" horiz-adv-x="1245" d="M160 0v1491h198h697v-188h-697v-398h362q128 0 234 -59.5t167 -163.5t61 -229q0 -126 -61 -230.5t-167 -163.5t-234 -59h-486h-74zM358 185h362q110 0 188 76.5t78 191.5q0 114 -78 190.5t-188 76.5h-362v-535z" />
<glyph unicode="&#x412;" horiz-adv-x="1458" d="M160 0v1491h198h404q89 0 165 -29t128 -80t82 -120.5t30 -147.5q0 -101 -53 -183q126 -59 201 -178t75 -267q0 -133 -60.5 -244.5t-168.5 -176.5t-241 -65h-722h-38zM358 185h534q137 0 219 87.5t82 217.5q0 132 -81 218.5t-218 86.5h-536v-610zM358 976h560 q51 54 51 134q0 84 -55.5 139.5t-151.5 55.5h-404v-329z" />
<glyph unicode="&#x413;" horiz-adv-x="1032" d="M160 0v1491h836v-188h-638v-1303h-198z" />
<glyph unicode="&#x414;" horiz-adv-x="1422" d="M32 77v108h128q44 53 73.5 117t48.5 169t19 240v780h892v-1306h159v-185v-307h-196v307h-926v-307h-198v384zM384 185h612v1120h-498v-598q0 -337 -114 -522z" />
<glyph unicode="&#x415;" horiz-adv-x="1102" d="M160 0v1491h198h654v-188h-654v-457h601v-186h-601v-473h664v-187h-788h-74z" />
<glyph unicode="&#x416;" horiz-adv-x="1848" d="M38 0l598 762l-577 729h224l544 -682v682h195v-682l543 682h226l-579 -729l601 -762h-226l-565 713v-713h-195v713l-565 -713h-224z" />
<glyph unicode="&#x417;" horiz-adv-x="1138" d="M38 473h196q0 -65 21.5 -121t62.5 -99t106 -68t147 -25q81 0 145.5 24t105 66t62 97t21.5 120q0 133 -84.5 220.5t-226.5 87.5h-108v180h108q36 0 85 -8q56 41 80.5 91t24.5 98q0 86 -59.5 141.5t-168.5 55.5q-110 0 -169 -55.5t-59 -141.5h-198q0 80 30 150t84 121.5 t134.5 81t177.5 29.5q96 0 176.5 -29t134 -80t83.5 -120t30 -147q0 -145 -106 -260q108 -63 168.5 -172t60.5 -243q0 -104 -37 -194.5t-104.5 -157t-168.5 -105t-222 -38.5q-122 0 -223 39.5t-168 107.5t-104.5 159t-37.5 195z" />
<glyph unicode="&#x418;" horiz-adv-x="1352" d="M160 0v1491h198v-1101l675 1101h160v-1491h-197v1103l-677 -1103h-159z" />
<glyph unicode="&#x419;" horiz-adv-x="1352" d="M160 0v1491h198v-1101l675 1101h160v-1491h-197v1103l-677 -1103h-159zM411 1650v163h575v-163h-575z" />
<glyph unicode="&#x41a;" horiz-adv-x="1260" d="M160 0v1491h198v-676l622 676h243l-658 -727l679 -764h-242l-644 716v-716h-198z" />
<glyph unicode="&#x41b;" horiz-adv-x="1370" d="M30 -2v179q46 -7 86 -1t72.5 24t57.5 54.5t42.5 89.5t26 128.5t8.5 173.5v845h889v-1491h-198v1303h-492v-657q0 -116 -12.5 -210.5t-36.5 -163t-57.5 -120.5t-75.5 -83t-91.5 -50t-104 -22t-114.5 1z" />
<glyph unicode="&#x41c;" horiz-adv-x="1713" d="M160 0v1491h198h38l462 -1014l461 1014h236v-1491h-196v1165l-416 -913h-170l-415 913v-1165h-198z" />
<glyph unicode="&#x41d;" horiz-adv-x="1347" d="M160 0v1491h198v-631h632v631h199v-1491h-199v673h-632v-673h-198z" />
<glyph unicode="&#x41e;" horiz-adv-x="1703" d="M81 746q0 159 60 302t162.5 246t245.5 163.5t302.5 60.5t303 -60.5t246.5 -163.5t164 -246.5t61 -301.5t-61 -301.5t-164 -247t-246.5 -164.5t-303 -61t-302.5 61t-245.5 164.5t-162.5 247t-60 301.5zM277 746q0 -81 20 -156.5t56.5 -139t89 -116.5t115.5 -90 t138.5 -57.5t155.5 -20.5q120 0 226.5 45.5t183 122.5t121 184.5t44.5 227.5q0 121 -44.5 228.5t-121 185t-183 122.5t-226.5 45t-227 -45t-183.5 -122.5t-120.5 -185t-44 -228.5z" />
<glyph unicode="&#x41f;" horiz-adv-x="1347" d="M160 0v1491h198h831v-1491h-199v1303h-632v-1303h-198z" />
<glyph unicode="&#x420;" horiz-adv-x="1240" d="M160 0v1491h198h343q76 0 147 -23t128.5 -66t100.5 -100t66.5 -127.5t23.5 -145.5q0 -95 -37 -180.5t-99 -148t-148.5 -99t-181.5 -36.5h-343v-565h-198zM358 750h343q111 0 189.5 82t78.5 196.5t-78.5 195.5t-189.5 81h-343v-555z" />
<glyph unicode="&#x421;" horiz-adv-x="1620" d="M81 746q0 159 58.5 301.5t160 246t247.5 164t313 60.5q125 0 241 -38t208 -106t159.5 -164t98.5 -208h-210q-53 145 -190 235t-307 90q-128 0 -238 -45t-185 -122.5t-117.5 -184.5t-42.5 -229q0 -121 42.5 -228t117.5 -184.5t185 -122.5t238 -45q171 0 307.5 89.5 t189.5 234.5h210q-41 -150 -144 -268t-250 -184t-313 -66q-167 0 -313 61t-247.5 165t-160 246.5t-58.5 301.5z" />
<glyph unicode="&#x422;" horiz-adv-x="1064" d="M38 1303v188h592h399v-188h-399v-1303h-195v1303h-397z" />
<glyph unicode="&#x423;" horiz-adv-x="1234" d="M59 1491h201l394 -852l360 852h200l-479 -1137q-80 -193 -206 -279t-307 -75v183q123 -12 200 37t127 168l14 34z" />
<glyph unicode="&#x424;" horiz-adv-x="1722" d="M59 746q0 131 52 237.5t145.5 179.5t222.5 116.5t285 53.5v169h195v-169q156 -10 285.5 -53.5t223.5 -116.5t146 -179.5t52 -237.5t-52 -237.5t-146 -179.5t-223.5 -116.5t-285.5 -54.5v-168h-195v168q-124 9 -232 38t-195 79t-149 118t-95.5 158t-33.5 195zM256 746 q0 -187 134 -289t374 -118v813q-240 -16 -374 -117.5t-134 -288.5zM959 339q158 11 270 57.5t175 135t63 214.5q0 187 -134 288.5t-374 117.5v-813z" />
<glyph unicode="&#x425;" horiz-adv-x="1234" d="M38 0l468 769l-440 722h221l331 -541l332 541h219l-441 -722l471 -769h-221l-360 590l-360 -590h-220z" />
<glyph unicode="&#x426;" horiz-adv-x="1415" d="M160 0v1491h198v-1304h632v1304h199v-1304h159v-494h-198v307h-990z" />
<glyph unicode="&#x427;" horiz-adv-x="1296" d="M128 959v532h198v-520q0 -122 76.5 -194t213.5 -72q178 0 323 66v720h199v-1491h-199v583q-148 -65 -325 -65q-219 0 -352.5 122t-133.5 319z" />
<glyph unicode="&#x428;" horiz-adv-x="1933" d="M160 0v1491h198v-1304h511v1304h196v-1304h512v1304h197v-1491h-1614z" />
<glyph unicode="&#x429;" horiz-adv-x="2002" d="M160 0v1491h198v-1304h511v1304h196v-1304h512v1304h197v-1304h160v-494h-198v307h-1576z" />
<glyph unicode="&#x42a;" horiz-adv-x="1469" d="M0 1303v188h586v-564h343q95 0 181.5 -37t149 -99.5t99 -148t36.5 -178.5q0 -95 -36.5 -181t-99 -148t-148.5 -98.5t-182 -36.5h-539v1303h-390zM586 185h343q112 0 191 81t79 198q0 114 -79.5 196t-190.5 82h-343v-557z" />
<glyph unicode="&#x42b;" horiz-adv-x="1673" d="M160 0v1491h198v-564h343q95 0 181.5 -37t148.5 -99.5t99 -148t37 -178.5q0 -95 -37 -181t-99 -148t-148.5 -98.5t-181.5 -36.5h-541zM358 185h343q112 0 190 81t78 198q0 75 -35.5 139t-97.5 101.5t-135 37.5h-343v-557zM1319 0v1491h195v-1491h-195z" />
<glyph unicode="&#x42c;" horiz-adv-x="1240" d="M160 0v1491h198v-564h343q95 0 181.5 -37t148.5 -99.5t99 -148t37 -178.5q0 -95 -37 -181t-99 -148t-148.5 -98.5t-181.5 -36.5h-467h-74zM358 185h343q112 0 190 81t78 198q0 75 -35.5 139t-97.5 101.5t-135 37.5h-343v-557z" />
<glyph unicode="&#x42d;" horiz-adv-x="1603" d="M55 490h211q53 -149 185 -236.5t320 -87.5q112 0 209.5 37t167 102t114.5 154.5t59 194.5h-768v185h768q-14 105 -59 194t-114.5 154.5t-167 102.5t-209.5 37q-126 0 -229 -41.5t-172 -114t-104 -169.5h-211q24 90 70.5 169.5t112 143t147 109t180 70t206.5 24.5 q164 0 305.5 -60t239.5 -164t153.5 -246t55.5 -302t-55.5 -302t-153.5 -246t-239.5 -165t-305.5 -61q-134 0 -253.5 38.5t-211 107t-156.5 164t-95 208.5z" />
<glyph unicode="&#x42e;" horiz-adv-x="2225" d="M160 0v1491h198v-631h260q19 139 85 260.5t164.5 209.5t230 138t276.5 50q159 0 302.5 -60.5t246.5 -163.5t163.5 -246.5t60.5 -301.5t-60.5 -301.5t-163.5 -247t-246.5 -164.5t-302.5 -61q-151 0 -286.5 54.5t-235 148t-163 223t-75.5 275.5h-256v-673h-198zM799 746 q0 -81 20 -156.5t56.5 -139t89 -116.5t115.5 -90t138.5 -57.5t155.5 -20.5q120 0 227 45.5t183 122.5t120.5 184.5t44.5 227.5q0 121 -44.5 228.5t-121 185t-183 122.5t-226.5 45t-227 -45t-183 -122t-120.5 -185t-44.5 -229z" />
<glyph unicode="&#x42f;" horiz-adv-x="1331" d="M32 0l503 579q-160 34 -264.5 160t-104.5 290q0 94 36.5 179.5t98.5 147.5t148 98.5t181 36.5h541v-1491h-195v571h-212l-489 -571h-243zM362 1029q0 -115 80.5 -197t191.5 -82h342v555h-342q-73 0 -135.5 -37t-99.5 -100.5t-37 -138.5z" />
<glyph unicode="&#x430;" horiz-adv-x="1069" d="M81 313q0 83 31 149t83 107.5t118.5 63t139.5 21.5q68 0 127.5 -14.5t107 -42t83.5 -67.5v151q0 50 -12.5 90t-33.5 67t-50.5 44.5t-63 25.5t-72.5 8q-99 0 -164.5 -50t-65.5 -142h-183q0 108 54 192.5t147.5 130.5t211.5 46q119 0 213 -47t148.5 -140t54.5 -218v-688 h-184v110q-105 -138 -318 -138q-73 0 -139.5 21.5t-118.5 63t-83 107.5t-31 149zM266 313q0 -83 60 -133t180 -50q117 0 191 51.5t74 131.5q0 86 -73 135.5t-192 49.5t-179.5 -50.5t-60.5 -134.5z" />
<glyph unicode="&#x431;" horiz-adv-x="1205" d="M81 526q0 83 17.5 159t41.5 133t68.5 115t79.5 95t95 83t93.5 68.5t95.5 62.5q64 41 95.5 63t71.5 56t56 65t16 65h195q0 -71 -28.5 -130t-77 -101.5t-108 -80t-127.5 -75t-130 -76t-119.5 -94t-92.5 -119.5q137 146 331 146q98 0 188 -36t158.5 -98.5t109 -155 t40.5 -198.5t-39.5 -199t-109 -159.5t-168 -104.5t-211.5 -38q-115 0 -215 40.5t-171.5 112.5t-113 176t-41.5 225zM270 484q0 -96 47 -172.5t127.5 -118.5t177.5 -42q150 0 246.5 91.5t96.5 230.5q0 141 -100 232.5t-253 91.5q-64 0 -124 -21.5t-109 -60t-79 -99 t-30 -132.5z" />
<glyph unicode="&#x432;" horiz-adv-x="1118" d="M140 0v526v539h181h267q154 0 247.5 -84t93.5 -210q0 -72 -39 -132q89 -41 136 -118.5t47 -175.5q0 -71 -24 -133t-70 -109.5t-120.5 -75t-167.5 -27.5h-551zM321 164h360q67 0 114 22.5t71 63.5t24 97q0 86 -54 132.5t-155 46.5h-360v-362zM321 681h370q4 0 16 -1t19 -1 q24 46 24 79q0 71 -49.5 109.5t-125.5 35.5h-254v-222z" />
<glyph unicode="&#x433;" horiz-adv-x="804" d="M140 0v1065h657v-179h-471v-886h-186z" />
<glyph unicode="&#x434;" horiz-adv-x="1219" d="M38 77v98h128q52 71 78 161t26 235v494h183h461h100v-890h147v-175v-307h-183v307h-756v-307h-184v384zM380 175h451v717h-378v-321q0 -239 -73 -396z" />
<glyph unicode="&#x435;" horiz-adv-x="1215" d="M81 532q0 118 40 221t111 178t174.5 118.5t225.5 43.5q94 0 177.5 -29.5t146 -82.5t107.5 -123.5t68 -154t23 -173.5q0 -41 -6 -83h-878q24 -144 123 -225.5t243 -81.5q50 0 96.5 12t83 33.5t64.5 49.5t45 61h193q-46 -146 -177 -235t-307 -89q-123 0 -227 43t-175 117.5 t-111 178t-40 221.5zM270 612h695q-13 100 -63.5 171t-119.5 103t-152 32q-146 0 -241.5 -83.5t-118.5 -222.5z" />
<glyph unicode="&#x436;" horiz-adv-x="1486" d="M38 0l446 549l-425 516h216l377 -471v471h183v-471l377 471h217l-425 -516l447 -549h-218l-398 502v-502h-183v502l-398 -502h-216z" />
<glyph unicode="&#x437;" horiz-adv-x="904" d="M41 328h183q0 -85 62.5 -133t167 -48t166 48.5t61.5 134.5q0 84 -62 133t-166 49h-83v155h86q46 0 85 -7q68 50 68 120q0 69 -48 105.5t-122 36.5q-75 0 -122 -38t-47 -113h-183q0 95 42.5 168t123.5 113.5t190 40.5q80 0 146 -24t109.5 -66t67.5 -97t24 -118 q0 -109 -74 -187q36 -23 64 -52.5t46.5 -64.5t28 -75t9.5 -83q0 -72 -27.5 -135.5t-78 -112.5t-129.5 -77.5t-176 -28.5t-176 28t-130 77t-78.5 113.5t-27.5 137.5z" />
<glyph unicode="&#x438;" horiz-adv-x="1138" d="M140 0v1065h183v-746l527 746h149v-1065h-184v746l-525 -746h-150z" />
<glyph unicode="&#x439;" horiz-adv-x="1138" d="M140 0v1065h183v-746l527 746h149v-1065h-184v746l-525 -746h-150zM283 1225v161h575v-161h-575z" />
<glyph unicode="&#x43a;" horiz-adv-x="1069" d="M140 0v1065h186v-473l458 473h232l-504 -516l525 -549h-232l-479 502v-502h-186z" />
<glyph unicode="&#x43b;" horiz-adv-x="1120" d="M21 -4v175q54 -6 92.5 5t67.5 43t43 90.5t14 146.5v609h186h556v-1065h-185v886h-371v-435q0 -107 -19 -189t-53.5 -134.5t-86 -84t-111 -42t-133.5 -5.5z" />
<glyph unicode="&#x43c;" horiz-adv-x="1358" d="M140 0v1065h183h22l334 -641l333 641h204v-1065h-181v773l-293 -562h-124l-295 562v-773h-183z" />
<glyph unicode="&#x43d;" horiz-adv-x="1140" d="M140 0v1065h186v-443h487v443h186v-1065h-186v445h-487v-445h-186z" />
<glyph unicode="&#x43e;" horiz-adv-x="1281" d="M81 532.5q0 92.5 28 179t79.5 155t120.5 120t154.5 79t177.5 27.5t177.5 -27.5t155 -79t121 -120t80 -155t28.5 -179.5q0 -116 -44.5 -220t-120 -178.5t-179.5 -118t-218 -43.5q-92 0 -177.5 27.5t-154.5 79t-120.5 120t-79.5 155t-28 179zM266 532q0 -106 49.5 -193 t135.5 -136.5t190 -49.5q78 0 148 29t120.5 79.5t79.5 121t29 149.5q0 106 -49.5 193.5t-136 137t-191.5 49.5q-104 0 -190 -49.5t-135.5 -137t-49.5 -193.5z" />
<glyph unicode="&#x43f;" horiz-adv-x="1138" d="M140 0v1065h186h673v-1065h-186v888h-487v-888h-186z" />
<glyph unicode="&#x440;" horiz-adv-x="1347" d="M140 -426v1491h186v-181q43 65 101.5 111t135 72t165.5 26q109 0 209 -43.5t172.5 -118t115.5 -179t43 -220.5q0 -92 -27.5 -178.5t-77.5 -155t-116.5 -120t-148.5 -79t-170 -27.5q-132 0 -234.5 55t-167.5 154v-607h-186zM326 532.5q0 -107.5 49.5 -195t136.5 -137 t193 -49.5q105 0 191.5 49.5t136 137t49.5 195t-49.5 195t-136 137t-191.5 49.5q-106 0 -193 -49.5t-136.5 -137t-49.5 -195z" />
<glyph unicode="&#x441;" horiz-adv-x="1215" d="M81 532q0 59 11 115t31.5 106t50 95t66.5 82.5t82.5 68t95.5 51.5t106.5 32t116.5 11q188 0 331 -107t187 -277h-196q-37 92 -124.5 147.5t-197.5 55.5q-104 0 -190 -49.5t-135.5 -137t-49.5 -193.5q0 -78 29 -148t79 -120t119.5 -79t147.5 -29q111 0 199 55t123 147h196 q-42 -171 -186 -278.5t-332 -107.5q-95 0 -181.5 28t-155 79t-119 120t-77.5 154.5t-27 178.5z" />
<glyph unicode="&#x442;" horiz-adv-x="868" d="M21 888v177h507h320v-177h-320v-888h-185v888h-322z" />
<glyph unicode="&#x443;" horiz-adv-x="1032" d="M28 1065h196l321 -809l275 809h198l-396 -1131q-64 -180 -190 -275.5t-285 -84.5v172q52 -4 97.5 9t80.5 41.5t62 69t46 93.5l18 47z" />
<glyph unicode="&#x444;" horiz-adv-x="1437" d="M81 532q0 109 38 204.5t108 168t173 120t228 61.5v405h183v-405q166 -18 291 -94.5t191 -195.5t66 -263.5t-66 -263.5t-191 -195.5t-291 -94.5v-405h-183v405q-166 18 -291 94.5t-190.5 195.5t-65.5 263zM264 532.5q0 -146.5 96.5 -248.5t267.5 -126v749 q-171 -24 -267.5 -126t-96.5 -248.5zM811 158q170 24 266 126t96 248.5t-96 248.5t-266 126v-749z" />
<glyph unicode="&#x445;" horiz-adv-x="979" d="M32 0l356 551l-333 514h201l232 -358l230 358h200l-330 -514l355 -551h-199l-256 396l-256 -396h-200z" />
<glyph unicode="&#x446;" horiz-adv-x="1203" d="M140 0v1065h186v-888h460v888h185v-888h175v-484h-183v307h-823z" />
<glyph unicode="&#x447;" horiz-adv-x="1073" d="M96 691v374h185v-364q0 -201 215 -201q127 0 252 56v509h185v-1065h-185v382q-121 -54 -266 -54q-179 0 -282.5 94t-103.5 269z" />
<glyph unicode="&#x448;" horiz-adv-x="1614" d="M140 0v1065h186v-888h387v888h186v-888h387v888h186v-1065h-186h-573h-481h-92z" />
<glyph unicode="&#x449;" horiz-adv-x="1667" d="M140 0v1065h186v-888h383v888h185v-888h382v888h185v-888h147v-177v-307h-183v307h-531h-568h-186z" />
<glyph unicode="&#x44a;" horiz-adv-x="1173" d="M0 888v177h384h98v-384h264q77 0 145.5 -25t118 -69t78 -107.5t28.5 -138.5q0 -99 -49 -177.5t-133 -121t-188 -42.5h-380h-70v888h-296zM482 173h264q79 0 133 46t54 122t-54.5 123.5t-132.5 47.5h-264v-339z" />
<glyph unicode="&#x44b;" horiz-adv-x="1426" d="M140 0v1065h186v-384h264q105 0 189.5 -42t133 -120t48.5 -177.5t-48.5 -178t-133 -121t-189.5 -42.5h-379h-71zM326 173h264q79 0 133.5 46t54.5 122t-55 123.5t-133 47.5h-264v-339zM1099 0v1065h185v-1065h-185z" />
<glyph unicode="&#x44c;" horiz-adv-x="1019" d="M140 0v1065h186v-384h264q105 0 189.5 -42t133 -120t48.5 -177.5t-48.5 -178t-133 -121t-189.5 -42.5h-379h-71zM326 173h264q79 0 133.5 46t54.5 122t-55 123.5t-133 47.5h-264v-339z" />
<glyph unicode="&#x44d;" horiz-adv-x="1207" d="M53 358h195q23 -62 71 -109t116.5 -73.5t145.5 -26.5q134 0 231 82.5t125 213.5h-475v175h475q-28 131 -125 213.5t-231 82.5q-116 0 -206.5 -56.5t-126.5 -150.5h-195q43 170 188.5 277t335.5 107q118 0 221 -43.5t175 -118.5t113.5 -178.5t41.5 -220t-41.5 -220 t-113.5 -178.5t-175 -118.5t-221 -43.5q-190 0 -336.5 107.5t-187.5 278.5z" />
<glyph unicode="&#x44e;" horiz-adv-x="1711" d="M140 0v1065h186v-443h198q20 134 96 241.5t194 168.5t257 61q115 0 218.5 -43.5t178.5 -118t119.5 -178.5t44.5 -220.5t-44.5 -220.5t-119.5 -178.5t-178.5 -118t-218.5 -43.5q-139 0 -257 61t-194 169t-96 243h-198v-445h-186zM695 532.5q0 -106.5 49 -193.5 t135.5 -136.5t191.5 -49.5q104 0 190.5 49.5t136 137t49.5 193t-49.5 193t-136 137t-190.5 49.5q-105 0 -191.5 -49.5t-135.5 -136.5t-49 -193.5z" />
<glyph unicode="&#x44f;" horiz-adv-x="1077" d="M32 0l348 396q-119 31 -190.5 119t-71.5 207q0 146 104 244.5t262 98.5h453v-1065h-183v384h-166l-330 -384h-226zM301 720q0 -77 55 -124t134 -47h264v343h-264q-80 0 -134.5 -47t-54.5 -125z" />
<glyph unicode="&#x451;" horiz-adv-x="1215" d="M81 532q0 118 40 221t111 178t174.5 118.5t225.5 43.5q94 0 177.5 -29.5t146 -82.5t107.5 -123.5t68 -154t23 -173.5q0 -41 -6 -83h-878q24 -144 123 -225.5t243 -81.5q50 0 96.5 12t83 33.5t64.5 49.5t45 61h193q-46 -146 -177 -235t-307 -89q-123 0 -227 43t-175 117.5 t-111 178t-40 221.5zM270 612h695q-13 100 -63.5 171t-119.5 103t-152 32q-146 0 -241.5 -83.5t-118.5 -222.5zM326 1225v196h198v-196h-198zM742 1225v196h197v-196h-197z" />
<glyph unicode="&#x452;" horiz-adv-x="1124" d="M17 1212v136h143v143h185v-143h305v-136h-305v-279q105 160 315 160q74 0 139.5 -28t114 -78.5t76.5 -126.5t28 -167v-756q0 -206 -104.5 -305t-306.5 -85v178q117 -9 171.5 40t54.5 172v746q0 112 -61 172.5t-160 60.5q-53 0 -98.5 -16.5t-84 -51.5t-61.5 -97t-23 -144 v-607h-185v1212h-143z" />
<glyph unicode="&#x453;" horiz-adv-x="804" d="M140 0v1065h657v-179h-471v-886h-186zM296 1210l171 281h224l-216 -281h-179z" />
<glyph unicode="&#x454;" horiz-adv-x="1207" d="M81 532.5q0 116.5 41.5 220t113.5 178.5t174.5 118.5t219.5 43.5q190 0 335.5 -107t188.5 -277h-193q-24 62 -73 108.5t-117 72.5t-145 26q-134 0 -231 -82.5t-125 -213.5h478v-175h-478q28 -131 125 -213.5t231 -82.5q117 0 208 57.5t127 151.5h193 q-41 -171 -187 -278.5t-337 -107.5q-117 0 -219.5 43.5t-174.5 118.5t-113.5 178.5t-41.5 220z" />
<glyph unicode="&#x455;" horiz-adv-x="994" d="M92 319h183q0 -37 11 -67t31 -49.5t48.5 -33t61 -19t69.5 -5.5q64 0 113 15t79 48.5t30 81.5q0 31 -15 55t-33.5 39.5t-57 30.5t-64.5 22t-77 20q-49 13 -74.5 20t-70.5 22.5t-70 30t-57.5 39t-49 52.5t-29 67.5t-12.5 86.5q0 70 30 130t82.5 101t123.5 64t152 23 q109 0 195.5 -40.5t138.5 -120.5t52 -186h-183q0 46 -17 80.5t-46.5 54.5t-64.5 29.5t-75 9.5q-84 0 -143 -37t-59 -108q0 -38 21 -66.5t56 -45.5t81 -30.5t96.5 -26t100.5 -27.5t96 -38t81 -54.5t56 -81.5t21 -115q0 -142 -114 -230t-293 -88q-117 0 -208 40.5t-143.5 120 t-52.5 186.5z" />
<glyph unicode="&#x456;" horiz-adv-x="468" d="M140 0v1065h186v-1065h-186zM140 1256v235h186v-235h-186z" />
<glyph unicode="&#x457;" horiz-adv-x="468" d="M-73 1223v196h199v-196h-199zM140 0v1065h186v-1065h-186zM343 1223v196h198v-196h-198z" />
<glyph unicode="&#x458;" horiz-adv-x="512" d="M-38 -275q116 -9 170.5 40t54.5 172v1128h185v-1128q0 -206 -104.5 -305t-305.5 -85v178zM187 1256v235h185v-235h-185z" />
<glyph unicode="&#x459;" horiz-adv-x="1603" d="M21 -4v175q54 -6 92.5 5t67.5 43t43 90.5t14 146.5v609h186h434h101v-419h236q99 0 178.5 -38t126 -112.5t46.5 -174.5q0 -98 -47 -172t-126 -111.5t-178 -37.5h-352h-70v886h-349v-435q0 -107 -19 -189t-53.5 -134.5t-86 -84t-111 -42t-133.5 -5.5zM959 173h238 q17 0 32.5 2t30.5 6.5t28 11t25 15.5t21 20.5t15.5 25.5t10 31t3.5 36q0 75 -47.5 113.5t-118.5 38.5h-238v-300z" />
<glyph unicode="&#x45a;" horiz-adv-x="1616" d="M136 0v1065h185v-419h465v419h185v-419h239q98 0 176.5 -38t125.5 -112.5t47 -174.5q0 -98 -47.5 -172t-126 -111.5t-175.5 -37.5h-354h-70v469h-465v-469h-185zM971 173h239q46 0 82.5 15t60 49t23.5 84q0 76 -47 114t-119 38h-239v-300z" />
<glyph unicode="&#x45b;" horiz-adv-x="1132" d="M17 1212v136h143v143h185v-143h305v-136h-305v-279q105 160 315 160q74 0 139.5 -28t114 -78.5t76.5 -126.5t28 -167v-693h-185v683q0 112 -61 172.5t-160 60.5q-53 0 -98.5 -16.5t-84 -51.5t-61.5 -97t-23 -144v-607h-185v1212h-143z" />
<glyph unicode="&#x45c;" horiz-adv-x="1069" d="M140 0v1065h186v-473l458 473h232l-504 -516l525 -549h-232l-479 502v-502h-186zM407 1210l170 281h224l-215 -281h-179z" />
<glyph unicode="&#x45e;" horiz-adv-x="1032" d="M28 1065h196l321 -809l275 809h198l-396 -1131q-64 -180 -190 -275.5t-285 -84.5v172q52 -4 97.5 9t80.5 41.5t62 69t46 93.5l18 47zM232 1225v161h575v-161h-575z" />
<glyph unicode="&#x45f;" horiz-adv-x="1138" d="M140 0v1065h186v-888h487v888h186v-1065h-186h-151v-307h-183v307h-247h-92z" />
<glyph unicode="&#x490;" horiz-adv-x="1032" d="M160 0v1491h639v255h197v-344v-99h-638v-1303h-198z" />
<glyph unicode="&#x491;" horiz-adv-x="804" d="M140 0v1065h474v219h183v-398h-471v-886h-186z" />
<glyph unicode="&#x2000;" horiz-adv-x="957" />
<glyph unicode="&#x2001;" horiz-adv-x="1915" />
<glyph unicode="&#x2002;" horiz-adv-x="957" />
<glyph unicode="&#x2003;" horiz-adv-x="1915" />
<glyph unicode="&#x2004;" horiz-adv-x="638" />
<glyph unicode="&#x2005;" horiz-adv-x="478" />
<glyph unicode="&#x2006;" horiz-adv-x="319" />
<glyph unicode="&#x2007;" horiz-adv-x="319" />
<glyph unicode="&#x2008;" horiz-adv-x="239" />
<glyph unicode="&#x2009;" horiz-adv-x="383" />
<glyph unicode="&#x200a;" horiz-adv-x="106" />
<glyph unicode="&#x2010;" horiz-adv-x="1096" d="M160 565v179h777v-179h-777z" />
<glyph unicode="&#x2011;" horiz-adv-x="1096" d="M160 565v179h777v-179h-777z" />
<glyph unicode="&#x2012;" horiz-adv-x="1096" d="M160 565v179h777v-179h-777z" />
<glyph unicode="&#x2013;" horiz-adv-x="1394" d="M160 565v179h1076v-179h-1076z" />
<glyph unicode="&#x2014;" horiz-adv-x="1607" d="M160 565v179h1289v-179h-1289z" />
<glyph unicode="&#x2018;" d="M145 990v228q0 125 58.5 200t168.5 84v-98q-26 -5 -45 -15.5t-34.5 -31t-23 -55t-7.5 -84.5h110v-228h-227z" />
<glyph unicode="&#x2019;" d="M145 980v97q36 7 58.5 23.5t37.5 56.5t15 106h-111v228h227v-228q0 -125 -58.5 -199.5t-168.5 -83.5z" />
<glyph unicode="&#x201a;" d="M145 0v230h227v-230q0 -124 -58.5 -198t-168.5 -85v98q36 8 58.5 24.5t37.5 56.5t15 104h-111z" />
<glyph unicode="&#x201c;" horiz-adv-x="847" d="M145 988v230q0 124 58.5 198.5t168.5 85.5v-98q-26 -6 -45 -16.5t-34.5 -31t-23 -55t-7.5 -83.5h110v-230h-227zM475 990v228q0 125 59 200t169 84v-98q-26 -5 -45 -15.5t-35 -31t-23.5 -55.5t-7.5 -84h111v-228h-228z" />
<glyph unicode="&#x201d;" horiz-adv-x="847" d="M145 980v97q36 7 58.5 23.5t37.5 56.5t15 106h-111v228h227v-228q0 -125 -58.5 -199.5t-168.5 -83.5zM475 980v97q36 8 58.5 24.5t37.5 56.5t15 105h-111v230h228v-230q0 -125 -58.5 -198.5t-169.5 -84.5z" />
<glyph unicode="&#x201e;" horiz-adv-x="847" d="M145 0v230h227v-230q0 -124 -58.5 -198t-168.5 -85v98q36 8 58.5 24.5t37.5 56.5t15 104h-111zM475 0v230h228v-230q0 -124 -58.5 -198t-169.5 -85v98q36 8 58.5 24.5t37.5 56.5t15 104h-111z" />
<glyph unicode="&#x2022;" horiz-adv-x="681" d="M102 748q0 99 70.5 168.5t170.5 69.5q99 0 168.5 -69.5t69.5 -168.5q0 -101 -69.5 -171.5t-168.5 -70.5q-100 0 -170.5 70.5t-70.5 171.5z" />
<glyph unicode="&#x2026;" horiz-adv-x="1380" d="M145 0v230h227v-230h-227zM575 0v230h230v-230h-230zM1008 0v230h228v-230h-228z" />
<glyph unicode="&#x202f;" horiz-adv-x="383" />
<glyph unicode="&#x2039;" horiz-adv-x="723" d="M145 658l235 390h199l-234 -390l234 -388h-199z" />
<glyph unicode="&#x203a;" horiz-adv-x="723" d="M145 270l235 388l-235 390h200l234 -390l-234 -388h-200z" />
<glyph unicode="&#x205f;" horiz-adv-x="478" />
<glyph unicode="&#x20ac;" horiz-adv-x="1337" d="M28 561v138h143v47q0 41 2 65h-145v136h157q41 267 185.5 419t375.5 152q220 0 359 -138.5t171 -380.5h-201q-22 158 -107.5 243t-221.5 85q-144 0 -237 -98.5t-125 -281.5h506v-136h-522v-65v-47h522v-138h-508q29 -191 122.5 -293t241.5 -102q139 0 226 88.5t108 254.5 h200q-31 -250 -170.5 -393.5t-363.5 -143.5q-156 0 -275.5 73.5t-191 204.5t-96.5 311h-155z" />
<glyph unicode="&#x2122;" horiz-adv-x="990" d="M81 1400v91h336v-91h-119v-335h-97v335h-120zM464 1065v426h99h14l111 -225l111 225h110v-426h-100v256l-83 -165h-76l-87 169v-260h-99z" />
<glyph unicode="&#x25fc;" horiz-adv-x="1064" d="M0 0v1065h1065v-1065h-1065z" />
</font>
</defs>
</svg>
