<?xml version="1.0" encoding="UTF-8" standalone="no"?>
<svg width="23px" height="23px" viewBox="0 0 23 23" version="1.1" xmlns="http://www.w3.org/2000/svg" xmlns:xlink="http://www.w3.org/1999/xlink">
    <!-- Generator: Sketch 39.1 (31720) - http://www.bohemiancoding.com/sketch -->
    <title>Page 1</title>
    <desc>Created with Sketch.</desc>
    <defs></defs>
    <g id="Page-1" stroke="none" stroke-width="1" fill="none" fill-rule="evenodd">
        <g id="Apple-Watch-38mm" fill="#4A4A4A">
            <g id="Page-1">
                <path d="M11.5,0.958333333 C5.68770833,0.958333333 0.958333333,5.68770833 0.958333333,11.5 C0.958333333,17.3122917 5.68770833,22.0416667 11.5,22.0416667 C17.3122917,22.0416667 22.0416667,17.3122917 22.0416667,11.5 C22.0416667,5.68770833 17.3122917,0.958333333 11.5,0.958333333 M11.5,23 C5.15870833,23 0,17.8412917 0,11.5 C0,5.15870833 5.15870833,0 11.5,0 C17.8412917,0 23,5.15870833 23,11.5 C23,17.8412917 17.8412917,23 11.5,23" id="Fill-1"></path>
                <path d="M8.50290833,15.33525 C8.37545,15.33525 8.24895,15.2844583 8.154075,15.1847917 C7.97295,14.993125 7.981575,14.6893333 8.1742,14.5082083 L11.2887833,11.5680417 L8.21924167,8.4755 C8.033325,8.28766667 8.03428333,7.983875 8.22211667,7.79795833 C8.40899167,7.61108333 8.71278333,7.61108333 8.89965833,7.799875 L12.3151583,11.2422083 C12.4071583,11.33325 12.4560333,11.4578333 12.455075,11.5872083 C12.4531583,11.7165833 12.3985333,11.8402083 12.3036583,11.9274167 L8.83161667,15.2039583 C8.73961667,15.292125 8.62078333,15.33525 8.50290833,15.33525" id="Fill-3"></path>
                <path d="M10.9632375,17.9116333 C10.8338625,17.9116333 10.7054458,17.8598833 10.6115292,17.7573417 C10.4313625,17.5637583 10.4438208,17.2599667 10.6383625,17.0807583 L16.6998208,11.4831333 L10.7322792,5.59705 C10.5434875,5.41113333 10.5415708,5.1083 10.7274875,4.91855 C10.9134042,4.731675 11.2171958,4.72975833 11.4050292,4.91375833 L17.7300292,11.1525083 C17.8229875,11.2454667 17.8737792,11.3719667 17.8718625,11.5023 C17.8709042,11.6326333 17.8143625,11.7572167 17.7175708,11.8463417 L11.2881125,17.784175 C11.1961125,17.8694667 11.0801542,17.9116333 10.9632375,17.9116333" id="Fill-5"></path>
            </g>
        </g>
    </g>
</svg>