<?xml version="1.0" encoding="UTF-8" standalone="no"?>
<svg width="27px" height="15px" viewBox="0 0 27 15" version="1.1" xmlns="http://www.w3.org/2000/svg" xmlns:xlink="http://www.w3.org/1999/xlink">
    <!-- Generator: Sketch 39.1 (31720) - http://www.bohemiancoding.com/sketch -->
    <title>Fill 1</title>
    <desc>Created with Sketch.</desc>
    <defs></defs>
    <g id="Page-1" stroke="none" stroke-width="1" fill="none" fill-rule="evenodd">
        <g id="Apple-Watch-38mm" fill="#4A4A4A">
            <g id="Page-1">
                <path d="M13.5001929,3.5184 C11.2186929,3.5184 9.36147857,5.33110588 9.36147857,7.55792941 C9.36147857,9.78569412 11.2186929,11.5984 13.5001929,11.5984 C15.7816929,11.5984 17.6389071,9.78569412 17.6389071,7.55792941 C17.6389071,5.33110588 15.7816929,3.5184 13.5001929,3.5184 M13.5001929,12.5395765 C10.6864071,12.5395765 8.39719286,10.3052235 8.39719286,7.55792941 C8.39719286,4.81157647 10.6864071,2.57722353 13.5001929,2.57722353 C16.3139786,2.57722353 18.6031929,4.81157647 18.6031929,7.55792941 C18.6031929,10.3052235 16.3139786,12.5395765 13.5001929,12.5395765 M1.0908,7.55792941 C4.4253,11.7085176 9.04037143,14.1753412 13.5001929,14.1753412 C17.9600143,14.1753412 22.5750857,11.7085176 25.9095857,7.55792941 C22.5770143,3.40828235 17.9619429,0.941458824 13.5001929,0.941458824 C9.03844286,0.941458824 4.42337143,3.40828235 1.0908,7.55792941 M13.5001929,15.1165176 C8.63922857,15.1165176 3.62976429,12.3974588 0.09855,7.84216471 C-0.0325928571,7.67463529 -0.0325928571,7.44216471 0.09855,7.27463529 C3.62687143,2.71934118 8.6373,0.000282352941 13.5001929,0.000282352941 C18.3630857,0.000282352941 23.3735143,2.71934118 26.9018357,7.27463529 C27.0329786,7.44216471 27.0329786,7.67463529 26.9018357,7.84216471 C23.3706214,12.3974588 18.3611571,15.1165176 13.5001929,15.1165176" id="Fill-1"></path>
            </g>
        </g>
    </g>
</svg>