<?xml version="1.0" encoding="utf-8"?>
<!-- Generator: Adobe Illustrator 19.0.0, SVG Export Plug-In . SVG Version: 6.00 Build 0)  -->
<svg version="1.1" id="Layer_1" xmlns="http://www.w3.org/2000/svg" xmlns:xlink="http://www.w3.org/1999/xlink" x="0px" y="0px"
	 viewBox="0 0 108.4 79.7" style="enable-background:new 0 0 108.4 79.7;" xml:space="preserve">
<style type="text/css">
	.st0{fill:#ffffff;}
	.st1{fill:#ffffff;}
	.st2{fill:#ffffff;}
</style>
<g id="XMLID_1350_">
	<path id="XMLID_1409_" class="st0" d="M69.3,35.1c1.2,1.3,2.3,2.8,3.1,4.5h36c-0.2-1.6-0.6-3.1-1.3-4.5H69.3z"/>
	<path id="XMLID_1408_" class="st0" d="M73.8,44.1c0.2,1,0.3,2,0.3,3.1c0,0.5,0,1-0.1,1.4h32.7c0.8-1.4,1.3-2.9,1.6-4.5H73.8z"/>
	<path id="XMLID_1407_" class="st0" d="M45.4,17.1c2.7,1,5.2,2.6,7.4,4.5h36.5c-0.4-1.6-0.9-3-1.5-4.5H45.4z"/>
	<path id="XMLID_1354_" class="st0" d="M58.9,29.7c1.3,0.2,2.5,0.5,3.7,0.9h41.3c-2.7-2.6-6.4-4.2-10.4-4.2c-1.2,0-2.3,0.1-3.4,0.4
		c0-0.2,0-0.5-0.1-0.7H56.8C57.6,27.2,58.3,28.4,58.9,29.7z"/>
	<path id="XMLID_1353_" class="st0" d="M73,53.1c-0.4,1.2-1,2.3-1.6,3.4h22.1c3.6,0,6.9-1.3,9.5-3.4H73z"/>
	<path id="XMLID_1352_" class="st0" d="M75.9,3.7C71.8,1.3,67,0,62,0c-5.1,0-9.8,1.3-13.9,3.7H75.9z"/>
	<path id="XMLID_1351_" class="st0" d="M42.2,8.2c-1.4,1.4-2.6,2.9-3.7,4.5h47c-1.1-1.6-2.3-3.1-3.7-4.5H42.2z"/>
</g>
<path id="XMLID_1349_" class="st1" d="M42.4,56H36l2.7-2.7c0.6-0.6,0.6-1.5,0-2.1h0c-0.6-0.6-1.5-0.6-2.1,0L34,53.9v-6.3
	c0-1-0.8-1.9-1.9-1.9c-1,0-1.9,0.8-1.9,1.9v6.3l-2.7-2.7c-0.6-0.6-1.5-0.6-2.1,0c-0.6,0.6-0.6,1.5,0,2.1l2.7,2.7h-6.3
	c-1,0-1.9,0.8-1.9,1.9c0,1,0.8,1.9,1.9,1.9h6.3l-2.7,2.7c-0.6,0.6-0.6,1.5,0,2.1c0.6,0.6,1.5,0.6,2.1,0l2.7-2.7v6.3
	c0,1,0.8,1.9,1.9,1.9c1,0,1.9-0.8,1.9-1.9v-6.3l2.7,2.7c0.6,0.6,1.5,0.6,2.1,0h0c0.6-0.6,0.6-1.5,0-2.1L36,59.7h6.3
	c1,0,1.9-0.8,1.9-1.9C44.3,56.8,43.4,56,42.4,56z"/>
<path id="XMLID_1348_" class="st1" d="M54.9,71.2h-3.8l1.7-1.7c0.3-0.3,0.3-0.9,0-1.3h0c-0.3-0.3-0.9-0.3-1.3,0L49.9,70v-3.8
	c0-0.6-0.5-1.1-1.1-1.1c-0.6,0-1.1,0.5-1.1,1.1V70l-1.7-1.7c-0.3-0.3-0.9-0.3-1.3,0c-0.3,0.3-0.3,0.9,0,1.3l1.7,1.7h-3.8
	c-0.6,0-1.1,0.5-1.1,1.1c0,0.6,0.5,1.1,1.1,1.1h3.8l-1.7,1.7c-0.3,0.3-0.3,0.9,0,1.3c0.3,0.3,0.9,0.3,1.3,0l1.7-1.7v3.8
	c0,0.6,0.5,1.1,1.1,1.1c0.6,0,1.1-0.5,1.1-1.1v-3.8l1.7,1.7c0.3,0.3,0.9,0.3,1.3,0h0c0.3-0.3,0.3-0.9,0-1.3l-1.7-1.7h3.8
	c0.6,0,1.1-0.5,1.1-1.1C56.1,71.7,55.6,71.2,54.9,71.2z"/>
<path id="XMLID_1295_" class="st2" d="M39.8,54.3l-0.2,0.2h2.7c0.5,0,1,0.1,1.5,0.4h24.5c0.8-1.3,1.3-2.7,1.6-4.2H40.2
	C41,51.8,40.8,53.3,39.8,54.3z"/>
<path id="XMLID_1190_" class="st2" d="M24.5,54.5l-0.2-0.2c-0.6-0.6-0.9-1.3-0.9-2.1c0-0.6,0.2-1.1,0.5-1.6H0c0,0,0,0.1,0,0.1
	c0,1.5,0.3,2.8,0.8,4.1h19.5c0.5-0.2,1-0.4,1.5-0.4H24.5z"/>
<path id="XMLID_1189_" class="st2" d="M32.1,44.2c1.4,0,2.7,0.9,3.2,2.2h35.1c-0.1-1.5-0.4-2.9-0.9-4.2H3.8
	c-1.3,1.2-2.3,2.6-2.9,4.2h28.1C29.4,45.1,30.6,44.2,32.1,44.2z"/>
<path id="XMLID_499_" class="st2" d="M61.4,33.7H15.3c-0.4,1.4-0.8,2.8-0.9,4.2H67C65.5,36.1,63.6,34.7,61.4,33.7z"/>
<path id="XMLID_498_" class="st2" d="M51.5,25.3H20.4c-1.2,1.3-2.3,2.7-3.2,4.2h37.6C53.8,28,52.8,26.6,51.5,25.3z"/>
<path id="XMLID_237_" class="st2" d="M36,18.7c-3.5,0-6.9,0.9-9.8,2.3h19.6C42.8,19.6,39.5,18.7,36,18.7z"/>
<path id="XMLID_236_" class="st2" d="M42.4,61.2h-2.7l0.2,0.2c0.3,0.3,0.5,0.6,0.6,0.9h15c3.5,0,6.7-1.2,9.3-3.2H45.5
	C45,60.3,43.8,61.2,42.4,61.2z"/>
<path id="XMLID_68_" class="st2" d="M24.5,61.2h-2.7c-1.4,0-2.7-0.9-3.1-2.2H3.6c2.1,2,4.9,3.2,8,3.2h12.2c0.1-0.3,0.3-0.6,0.6-0.9
	L24.5,61.2z"/>
</svg>
