<?xml version="1.0" encoding="utf-8"?>
<!-- Generator: Adobe Illustrator 19.0.0, SVG Export Plug-In . SVG Version: 6.00 Build 0)  -->
<svg version="1.1" id="Layer_1" xmlns="http://www.w3.org/2000/svg" xmlns:xlink="http://www.w3.org/1999/xlink" x="0px" y="0px"
	 viewBox="0 0 108.7 91.6" style="enable-background:new 0 0 108.7 91.6;" xml:space="preserve">
<style type="text/css">
	.st0{fill:#ffffff;}
	.st1{fill:#ffffff;}
	.st2{fill:#ffffff;}
</style>
<path id="XMLID_487_" class="st0" d="M11.4,39.1c0.9,0,1.8,0.1,2.6,0.3c0.6-11.5,10.1-20.7,21.7-20.7c9.2,0,17.1,5.7,20.3,13.8
	c7.9,0.4,14.2,6.9,14.2,14.9c0,8.2-6.7,14.9-14.9,14.9H11.4C5,62.3-0.1,57.1-0.1,50.7C-0.1,44.3,5,39.1,11.4,39.1z"/>
<path id="XMLID_434_" class="st1" d="M93.4,26.4c-1.2,0-2.3,0.1-3.4,0.4C89.3,11.9,77,0,61.8,0c-11,0-20.5,6.3-25.2,15.5
	c9.6,0.1,18.1,5.6,22.1,14.2c8.6,1.2,15.2,8.6,15.2,17.5c0,3.4-1,6.6-2.7,9.3h22.1c8.3,0,15-6.7,15-15
	C108.4,33.1,101.7,26.4,93.4,26.4z"/>
<circle id="XMLID_381_" class="st2" cx="47.2" cy="84.4" r="7.1"/>
<circle id="XMLID_380_" class="st2" cx="65.8" cy="72.1" r="4.8"/>
<circle id="XMLID_379_" class="st2" cx="86.2" cy="76.4" r="7.1"/>
<circle id="XMLID_261_" class="st2" cx="25.8" cy="77.1" r="4.8"/>
</svg>
