<?xml version="1.0" encoding="utf-8"?>
<!-- Generator: Adobe Illustrator 19.0.0, SVG Export Plug-In . SVG Version: 6.00 Build 0)  -->
<svg version="1.1" id="Layer_1" xmlns="http://www.w3.org/2000/svg" xmlns:xlink="http://www.w3.org/1999/xlink" x="0px" y="0px"
	 viewBox="0 0 83.4 83.5" style="enable-background:new 0 0 83.4 83.5;" xml:space="preserve">
<style type="text/css">
	.st0{fill:#ffffff;}
	.st1{fill:#ffffff;}
</style>
<g id="XMLID_1095_">
	<path id="XMLID_1096_" class="st0" d="M69.6,24.2c-1.1,0-2.1,0.1-3.1,0.4C65.9,10.9,54.6,0,40.8,0c-10.9,0-20.2,6.8-24,16.3
		C7.4,16.8,0,24.5,0,33.9c0,9.7,7.9,17.6,17.7,17.6h52c7.6,0,13.7-6.1,13.7-13.7S77.2,24.2,69.6,24.2z"/>
</g>
<g id="XMLID_1092_">
	<path id="XMLID_1093_" class="st1" d="M8.4,59.9c-0.1-0.1-0.3-0.1-0.4,0C7.9,60,4.6,64,4.6,66c0,2,1.7,3.7,3.7,3.7
		c2,0,3.7-1.7,3.7-3.7C11.9,64,8.6,60,8.4,59.9z"/>
</g>
<g id="XMLID_1011_">
	<path id="XMLID_1012_" class="st1" d="M58.1,64c-0.2-0.2-0.6-0.2-0.8,0c-0.3,0.3-6.9,8.2-6.9,12.2c0,4.1,3.3,7.3,7.3,7.3
		c4.1,0,7.3-3.3,7.3-7.3C65,72.3,58.3,64.4,58.1,64z"/>
</g>
<g id="XMLID_566_">
	<path id="XMLID_567_" class="st1" d="M41.2,57.2c-0.1-0.1-0.4-0.1-0.5,0c-0.2,0.2-4.8,5.7-4.8,8.4c0,2.8,2.3,5,5,5c2.8,0,5-2.3,5-5
		C45.9,62.9,41.4,57.5,41.2,57.2z"/>
</g>
<g id="XMLID_563_">
	<path id="XMLID_564_" class="st1" d="M24.7,64c-0.2-0.2-0.6-0.2-0.8,0c-0.3,0.3-6.9,8.2-6.9,12.2c0,4.1,3.3,7.3,7.3,7.3
		c4.1,0,7.3-3.3,7.3-7.3C31.6,72.3,25,64.4,24.7,64z"/>
</g>
<g id="XMLID_261_">
	<path id="XMLID_379_" class="st1" d="M75.8,59.9c-0.1-0.1-0.3-0.1-0.4,0C75.3,60,71.9,64,71.9,66c0,2,1.7,3.7,3.7,3.7
		c2,0,3.7-1.7,3.7-3.7C79.3,64,75.9,60,75.8,59.9z"/>
</g>
</svg>
