<?xml version="1.0" encoding="utf-8"?>
<!-- Generator: Adobe Illustrator 19.0.0, SVG Export Plug-In . SVG Version: 6.00 Build 0)  -->
<svg version="1.1" id="Layer_1" xmlns="http://www.w3.org/2000/svg" xmlns:xlink="http://www.w3.org/1999/xlink" x="0px" y="0px"
	 viewBox="0 0 108.5 92.8" style="enable-background:new 0 0 108.5 92.8;" xml:space="preserve">
<style type="text/css">
	.st0{fill:#ffffff;}
	.st1{fill:#ffffff;}
	.st2{fill:#ffffff;}
</style>
<path id="XMLID_1655_" class="st0" d="M11.6,39.1c0.9,0,1.8,0.1,2.6,0.3C14.8,27.9,24.3,18.7,36,18.7c9.2,0,17.1,5.7,20.3,13.8
	c7.9,0.4,14.2,6.9,14.2,14.9c0,8.2-6.7,14.9-14.9,14.9H11.6C5.2,62.3,0,57.1,0,50.7C0,44.3,5.2,39.1,11.6,39.1z"/>
<path id="XMLID_1654_" class="st1" d="M93.5,26.4c-1.2,0-2.3,0.1-3.4,0.4C89.4,11.9,77.1,0,62,0C51,0,41.4,6.3,36.8,15.5
	c9.6,0.1,18.1,5.6,22.1,14.2c8.6,1.2,15.2,8.6,15.2,17.5c0,3.4-1,6.6-2.7,9.3h22.1c8.3,0,15-6.7,15-15
	C108.5,33.1,101.8,26.4,93.5,26.4z"/>
<g id="XMLID_1651_">
	<path id="XMLID_1652_" class="st2" d="M7.8,69.2c-0.1-0.1-0.3-0.1-0.4,0C7.3,69.4,4,73.4,4,75.3c0,2,1.7,3.7,3.7,3.7
		c2,0,3.7-1.7,3.7-3.7C11.3,73.4,7.9,69.4,7.8,69.2z"/>
</g>
<g id="XMLID_1531_">
	<path id="XMLID_1532_" class="st2" d="M50.4,73.4c-0.2-0.2-0.6-0.2-0.8,0c-0.3,0.3-6.9,8.2-6.9,12.2c0,4.1,3.3,7.3,7.3,7.3
		c4.1,0,7.3-3.3,7.3-7.3C57.4,81.6,50.7,73.7,50.4,73.4z"/>
</g>
<g id="XMLID_566_">
	<path id="XMLID_567_" class="st2" d="M35.6,66.6c-0.1-0.1-0.4-0.1-0.5,0c-0.2,0.2-4.8,5.7-4.8,8.4c0,2.8,2.3,5,5,5c2.8,0,5-2.3,5-5
		C40.3,72.3,35.8,66.8,35.6,66.6z"/>
</g>
<g id="XMLID_563_">
	<path id="XMLID_564_" class="st2" d="M21.1,73.4c-0.2-0.2-0.6-0.2-0.8,0c-0.3,0.3-6.9,8.2-6.9,12.2c0,4.1,3.3,7.3,7.3,7.3
		c4.1,0,7.3-3.3,7.3-7.3C28,81.6,21.4,73.7,21.1,73.4z"/>
</g>
<g id="XMLID_261_">
	<path id="XMLID_379_" class="st2" d="M64.2,69.2c-0.1-0.1-0.3-0.1-0.4,0c-0.1,0.2-3.5,4.1-3.5,6.1c0,2,1.7,3.7,3.7,3.7
		c2,0,3.7-1.7,3.7-3.7C67.7,73.4,64.3,69.4,64.2,69.2z"/>
</g>
</svg>
