<?xml version="1.0" encoding="utf-8"?>
<!-- Generator: Adobe Illustrator 19.0.0, SVG Export Plug-In . SVG Version: 6.00 Build 0)  -->
<svg version="1.1" id="Layer_1" xmlns="http://www.w3.org/2000/svg" xmlns:xlink="http://www.w3.org/1999/xlink" x="0px" y="0px"
	 viewBox="0 0 94.3 109.7" style="enable-background:new 0 0 94.3 109.7;" xml:space="preserve">
<style type="text/css">
	.st0{fill:#ffffff;}
	.st1{fill:#ffffff;}
	.st2{fill:#ffffff;}
</style>
<g id="XMLID_499_">
	<path id="XMLID_500_" class="st0" d="M66.9,83.2c-0.1-0.1-0.4-0.1-0.5,0c-0.2,0.2-5,5.9-5,8.8c0,2.9,2.4,5.2,5.2,5.2
		c2.9,0,5.2-2.4,5.2-5.2C71.9,89.2,67.1,83.5,66.9,83.2z"/>
</g>
<g id="XMLID_237_">
	<path id="XMLID_498_" class="st1" d="M81.3,50.9c-1,0-2,0.1-3,0.3C77.7,38.3,67,28,53.9,28c-10.4,0-19.2,6.4-22.8,15.5
		c-8.9,0.4-15.9,7.7-15.9,16.7c0,9.3,7.5,16.8,16.8,16.8h49.4c7.2,0,13-5.8,13-13S88.5,50.9,81.3,50.9z"/>
</g>
<path id="XMLID_236_" class="st0" d="M56.2,95.7h-6.3l2.7-2.7c0.6-0.6,0.6-1.5,0-2.1h0c-0.6-0.6-1.5-0.6-2.1,0l-2.7,2.7v-6.3
	c0-1-0.8-1.9-1.9-1.9c-1,0-1.9,0.8-1.9,1.9v6.3l-2.7-2.7c-0.6-0.6-1.5-0.6-2.1,0c-0.6,0.6-0.6,1.5,0,2.1l2.7,2.7h-6.3
	c-1,0-1.9,0.8-1.9,1.9c0,1,0.8,1.9,1.9,1.9H42l-2.7,2.7c-0.6,0.6-0.6,1.5,0,2.1c0.6,0.6,1.5,0.6,2.1,0l2.7-2.7v6.3
	c0,1,0.8,1.9,1.9,1.9c1,0,1.9-0.8,1.9-1.9v-6.3l2.7,2.7c0.6,0.6,1.5,0.6,2.1,0h0c0.6-0.6,0.6-1.5,0-2.1l-2.7-2.7h6.3
	c1,0,1.9-0.8,1.9-1.9C58.1,96.5,57.3,95.7,56.2,95.7z"/>
<path id="XMLID_68_" class="st2" d="M28.1,41.4c0.7-1.7,1.5-3.3,2.5-4.8c-5.1-4-8.3-10.2-8.3-17.2c0-6.3,2.7-12.3,7.6-16.6
	c0.6-0.4,0.6-1.2,0.4-1.8s-0.8-1-1.6-1C12.3,1.6,0,15.1,0,31.7c0,10.2,4.8,19.2,12.2,25C12.9,48.3,19.7,41.8,28.1,41.4z"/>
</svg>
