<?xml version="1.0" encoding="utf-8"?>
<!-- Generator: Adobe Illustrator 19.0.0, SVG Export Plug-In . SVG Version: 6.00 Build 0)  -->
<svg version="1.1" id="Layer_1" xmlns="http://www.w3.org/2000/svg" xmlns:xlink="http://www.w3.org/1999/xlink" x="0px" y="0px"
	 viewBox="0 0 94.6 112.6" style="enable-background:new 0 0 94.6 112.6;" xml:space="preserve">
<style type="text/css">
	.st0{fill:#ffffff;}
	.st1{fill:#ffffff;}
	.st2{fill:#ffffff;}
</style>
<g id="XMLID_802_">
	<path id="XMLID_1011_" class="st0" d="M81.5,52.2c-1,0-2,0.1-3,0.3c-0.6-13-11.3-23.3-24.5-23.3c-10.4,0-19.2,6.4-22.8,15.5
		c-8.9,0.4-15.9,7.7-15.9,16.7c0,9.3,7.5,16.8,16.8,16.8h49.4c7.2,0,13-5.8,13-13S88.7,52.2,81.5,52.2z"/>
</g>
<path id="XMLID_801_" class="st1" d="M47.9,102.8c-1.1,0-2-0.9-2-2c0-0.2,0.1-0.4,0.1-0.6l4.3-12.4c0.3-0.7,1-1.3,1.8-1.3h9.2
	c0.5,0,0.8,0.4,0.8,0.8c0,0.2-0.1,0.4-0.2,0.5l0,0l-6.3,8.5h4.9c0.9,0,1.6,0.7,1.6,1.6c0,0.4-0.1,0.7-0.3,1l-9.7,13c0,0,0,0,0,0
	c-0.5,0.7-1.6,0.9-2.3,0.3c-0.6-0.5-0.8-1.4-0.4-2.1c0,0,0,0,0,0l3.1-7.4H47.9L47.9,102.8z"/>
<g id="XMLID_499_">
	<path id="XMLID_500_" class="st2" d="M33.9,84.2c-0.2-0.2-0.5-0.2-0.6,0c-0.2,0.3-5.9,7-5.9,10.3c0,3.4,2.8,6.2,6.2,6.2
		c3.4,0,6.2-2.8,6.2-6.2C39.8,91.1,34.1,84.4,33.9,84.2z"/>
</g>
<g id="XMLID_236_">
	<path id="XMLID_237_" class="st2" d="M74.9,84.2c-0.2-0.2-0.5-0.2-0.6,0c-0.2,0.3-5.9,7-5.9,10.3c0,3.4,2.8,6.2,6.2,6.2
		c3.4,0,6.2-2.8,6.2-6.2C80.8,91.1,75.1,84.4,74.9,84.2z"/>
</g>
<path id="XMLID_68_" class="st1" d="M28.1,41.4c0.7-1.7,1.5-3.3,2.5-4.8c-5.1-4-8.3-10.2-8.3-17.2c0-6.3,2.7-12.3,7.6-16.6
	c0.6-0.4,0.6-1.2,0.4-1.8s-0.8-1-1.6-1C12.3,1.6,0,15.1,0,31.7c0,10.2,4.8,19.2,12.2,25C12.9,48.3,19.7,41.8,28.1,41.4z"/>
</svg>
