<?xml version="1.0" encoding="utf-8"?>
<!-- Generator: Adobe Illustrator 19.0.0, SVG Export Plug-In . SVG Version: 6.00 Build 0)  -->
<svg version="1.1" id="Layer_1" xmlns="http://www.w3.org/2000/svg" xmlns:xlink="http://www.w3.org/1999/xlink" x="0px" y="0px"
	 viewBox="0 0 94.3 105" style="enable-background:new 0 0 94.3 105;" xml:space="preserve">
<style type="text/css">
	.st0{fill:#ffffff;}
	.st1{fill:#ffffff;}
	.st2{fill:#ffffff;}
</style>
<g id="XMLID_567_">
	<path id="XMLID_568_" class="st0" d="M81.3,51.1c-1,0-2,0.1-3,0.3c-0.6-13-11.3-23.3-24.5-23.3c-10.4,0-19.2,6.4-22.8,15.5
		c-8.9,0.4-15.9,7.7-15.9,16.7c0,9.3,7.5,16.8,16.8,16.8h49.4c7.2,0,13-5.8,13-13S88.5,51.1,81.3,51.1z"/>
</g>
<g id="XMLID_564_">
	<path id="XMLID_565_" class="st1" d="M47.8,86.5c-0.2-0.2-0.5-0.2-0.7,0c-0.2,0.3-6.6,7.8-6.6,11.6c0,3.9,3.1,6.9,6.9,6.9
		c3.9,0,6.9-3.1,6.9-6.9C54.4,94.3,48,86.8,47.8,86.5z"/>
</g>
<g id="XMLID_379_">
	<path id="XMLID_380_" class="st1" d="M65.7,83.7c-0.1-0.1-0.3-0.1-0.5,0c-0.2,0.2-4.1,4.9-4.1,7.3c0,2.4,2,4.4,4.4,4.4
		c2.4,0,4.4-2,4.4-4.4C69.9,88.6,65.9,83.9,65.7,83.7z"/>
</g>
<path id="XMLID_261_" class="st2" d="M28.1,41.4c0.7-1.7,1.5-3.3,2.5-4.8c-5.1-4-8.3-10.2-8.3-17.2c0-6.3,2.7-12.3,7.6-16.6
	c0.6-0.4,0.6-1.2,0.4-1.8s-0.8-1-1.6-1C12.3,1.6,0,15.1,0,31.7c0,10.2,4.8,19.2,12.2,25C12.9,48.3,19.7,41.8,28.1,41.4z"/>
</svg>
