<?xml version="1.0" encoding="utf-8"?>
<!-- Generator: Adobe Illustrator 19.0.0, SVG Export Plug-In . SVG Version: 6.00 Build 0)  -->
<svg version="1.1" id="Layer_1" xmlns="http://www.w3.org/2000/svg" xmlns:xlink="http://www.w3.org/1999/xlink" x="0px" y="0px"
	 viewBox="0 0 83.4 81.5" style="enable-background:new 0 0 83.4 81.5;" xml:space="preserve">
<style type="text/css">
	.st0{fill:#ffffff;}
	.st1{fill:#ffffff;}
</style>
<g id="XMLID_1231_">
	<path id="XMLID_1232_" class="st0" d="M69.6,24.2c-1.1,0-2.1,0.1-3.1,0.4C65.9,10.9,54.6,0,40.8,0c-10.9,0-20.2,6.8-24,16.3
		C7.4,16.8,0,24.5,0,33.9c0,9.7,7.9,17.6,17.7,17.6h52c7.6,0,13.7-6.1,13.7-13.7S77.2,24.2,69.6,24.2z"/>
</g>
<g id="XMLID_1228_">
	<path id="XMLID_1229_" class="st1" d="M27.1,71.7c-0.1-0.1-0.3-0.1-0.4,0c-0.1,0.2-3.5,4.1-3.5,6.1c0,2,1.7,3.7,3.7,3.7
		c2,0,3.7-1.7,3.7-3.7C30.5,75.9,27.2,71.9,27.1,71.7z"/>
</g>
<g id="XMLID_1095_">
	<path id="XMLID_1096_" class="st1" d="M42.2,64.2c-0.1-0.1-0.4-0.1-0.5,0c-0.2,0.2-4.8,5.7-4.8,8.4c0,2.8,2.3,5,5,5
		c2.8,0,5-2.3,5-5C46.9,69.9,42.4,64.4,42.2,64.2z"/>
</g>
<g id="XMLID_1092_">
	<path id="XMLID_1093_" class="st1" d="M30.9,57c-0.1-0.1-0.3-0.1-0.4,0c-0.1,0.2-3.5,4.1-3.5,6.1c0,2,1.7,3.7,3.7,3.7
		c2,0,3.7-1.7,3.7-3.7C34.4,61.1,31,57.1,30.9,57z"/>
</g>
<g id="XMLID_1011_">
	<path id="XMLID_1012_" class="st1" d="M14.9,59.2c-0.1-0.1-0.4-0.1-0.5,0c-0.2,0.2-4.8,5.7-4.8,8.4c0,2.8,2.3,5,5,5
		c2.8,0,5-2.3,5-5C19.7,64.9,15.1,59.5,14.9,59.2z"/>
</g>
<g id="XMLID_566_">
	<path id="XMLID_567_" class="st1" d="M53.5,77.8c0,2,1.6,3.7,3.7,3.7c2,0,3.7-1.6,3.7-3.7c0-2-3.3-6-3.5-6.1
		c-0.1-0.1-0.3-0.1-0.4,0C56.8,71.9,53.5,75.9,53.5,77.8z"/>
</g>
<g id="XMLID_563_">
	<path id="XMLID_564_" class="st1" d="M49.7,63.1c0,2,1.6,3.7,3.7,3.7c2,0,3.7-1.6,3.7-3.7c0-2-3.3-6-3.5-6.1
		c-0.1-0.1-0.3-0.1-0.4,0C53,57.1,49.7,61.1,49.7,63.1z"/>
</g>
<g id="XMLID_261_">
	<path id="XMLID_379_" class="st1" d="M64.3,67.6c0,2.8,2.2,5,5,5c2.8,0,5-2.2,5-5c0-2.7-4.6-8.2-4.8-8.4c-0.1-0.1-0.4-0.1-0.5,0
		C68.9,59.5,64.3,64.9,64.3,67.6z"/>
</g>
</svg>
