<?xml version="1.0" encoding="utf-8"?>
<!-- Generator: Adobe Illustrator 19.0.0, SVG Export Plug-In . SVG Version: 6.00 Build 0)  -->
<svg version="1.1" id="Layer_1" xmlns="http://www.w3.org/2000/svg" xmlns:xlink="http://www.w3.org/1999/xlink" x="0px" y="0px"
	 viewBox="0 0 108.5 93.4" style="enable-background:new 0 0 108.5 93.4;" xml:space="preserve">
<style type="text/css">
	.st0{fill:#ffffff;}
	.st1{fill:#ffffff;}
	.st2{fill:#ffffff;}
</style>
<path id="XMLID_500_" class="st0" d="M11.6,39.1c0.9,0,1.8,0.1,2.6,0.3C14.8,27.9,24.3,18.7,36,18.7c9.2,0,17.1,5.7,20.3,13.8
	c7.9,0.4,14.2,6.9,14.2,14.9c0,8.2-6.7,14.9-14.9,14.9H11.6C5.2,62.3,0,57.1,0,50.7C0,44.3,5.2,39.1,11.6,39.1z"/>
<path id="XMLID_499_" class="st1" d="M93.5,26.4c-1.2,0-2.3,0.1-3.4,0.4C89.4,11.9,77.1,0,62,0C51,0,41.4,6.3,36.8,15.5
	c9.6,0.1,18.1,5.6,22.1,14.2c8.6,1.2,15.2,8.6,15.2,17.5c0,3.4-1,6.6-2.7,9.3h22.1c8.3,0,15-6.7,15-15
	C108.5,33.1,101.8,26.4,93.5,26.4z"/>
<g id="XMLID_236_">
	<path id="XMLID_237_" class="st2" d="M47.4,66.9c-0.1-0.1-0.4-0.1-0.5,0c-0.2,0.2-5,5.9-5,8.8c0,2.9,2.4,5.2,5.2,5.2
		c2.9,0,5.2-2.4,5.2-5.2C52.4,72.9,47.6,67.2,47.4,66.9z"/>
</g>
<path id="XMLID_68_" class="st2" d="M36.7,79.4h-6.3l2.7-2.7c0.6-0.6,0.6-1.5,0-2.1h0c-0.6-0.6-1.5-0.6-2.1,0l-2.7,2.7V71
	c0-1-0.8-1.9-1.9-1.9c-1,0-1.9,0.8-1.9,1.9v6.3l-2.7-2.7c-0.6-0.6-1.5-0.6-2.1,0c-0.6,0.6-0.6,1.5,0,2.1l2.7,2.7h-6.3
	c-1,0-1.9,0.8-1.9,1.9c0,1,0.8,1.9,1.9,1.9h6.3l-2.7,2.7c-0.6,0.6-0.6,1.5,0,2.1c0.6,0.6,1.5,0.6,2.1,0l2.7-2.7v6.3
	c0,1,0.8,1.9,1.9,1.9c1,0,1.9-0.8,1.9-1.9v-6.3L31,88c0.6,0.6,1.5,0.6,2.1,0h0c0.6-0.6,0.6-1.5,0-2.1l-2.7-2.7h6.3
	c1,0,1.9-0.8,1.9-1.9C38.6,80.2,37.7,79.4,36.7,79.4z"/>
</svg>
