<?xml version="1.0" encoding="utf-8"?>
<!-- Generator: Adobe Illustrator 19.0.0, SVG Export Plug-In . SVG Version: 6.00 Build 0)  -->
<svg version="1.1" id="Layer_1" xmlns="http://www.w3.org/2000/svg" xmlns:xlink="http://www.w3.org/1999/xlink" x="0px" y="0px"
	 viewBox="0 0 83.4 88.2" style="enable-background:new 0 0 83.4 88.2;" xml:space="preserve">
<style type="text/css">
	.st0{fill:#ffffff;}
	.st1{fill:#ffffff;}
</style>
<g id="XMLID_559_">
	<path id="XMLID_560_" class="st0" d="M69.6,24.2c-1.1,0-2.1,0.1-3.1,0.4C65.9,10.9,54.6,0,40.8,0c-10.9,0-20.2,6.8-24,16.3
		C7.4,16.8,0,24.5,0,33.9c0,9.7,7.9,17.6,17.7,17.6h52c7.6,0,13.7-6.1,13.7-13.7S77.2,24.2,69.6,24.2z"/>
</g>
<g id="XMLID_556_">
	<path id="XMLID_558_" class="st1" d="M34.6,74.2h-6.3l2.7-2.7c0.6-0.6,0.6-1.5,0-2.1h0c-0.6-0.6-1.5-0.6-2.1,0l-2.7,2.7v-6.3
		c0-1-0.8-1.9-1.9-1.9c-1,0-1.9,0.8-1.9,1.9v6.3l-2.7-2.7c-0.6-0.6-1.5-0.6-2.1,0c-0.6,0.6-0.6,1.5,0,2.1l2.7,2.7h-6.3
		c-1,0-1.9,0.8-1.9,1.9c0,1,0.8,1.9,1.9,1.9h6.3l-2.7,2.7c-0.6,0.6-0.6,1.5,0,2.1c0.6,0.6,1.5,0.6,2.1,0l2.7-2.7v6.3
		c0,1,0.8,1.9,1.9,1.9c1,0,1.9-0.8,1.9-1.9V80l2.7,2.7c0.6,0.6,1.5,0.6,2.1,0h0c0.6-0.6,0.6-1.5,0-2.1l-2.7-2.7h6.3
		c1,0,1.9-0.8,1.9-1.9C36.5,75,35.7,74.2,34.6,74.2z"/>
	<path id="XMLID_557_" class="st1" d="M67.6,74.2h-6.3l2.7-2.7c0.6-0.6,0.6-1.5,0-2.1h0c-0.6-0.6-1.5-0.6-2.1,0l-2.7,2.7v-6.3
		c0-1-0.8-1.9-1.9-1.9c-1,0-1.9,0.8-1.9,1.9v6.3l-2.7-2.7c-0.6-0.6-1.5-0.6-2.1,0c-0.6,0.6-0.6,1.5,0,2.1l2.7,2.7h-6.3
		c-1,0-1.9,0.8-1.9,1.9c0,1,0.8,1.9,1.9,1.9h6.3l-2.7,2.7c-0.6,0.6-0.6,1.5,0,2.1c0.6,0.6,1.5,0.6,2.1,0l2.7-2.7v6.3
		c0,1,0.8,1.9,1.9,1.9c1,0,1.9-0.8,1.9-1.9V80l2.7,2.7c0.6,0.6,1.5,0.6,2.1,0h0c0.6-0.6,0.6-1.5,0-2.1l-2.7-2.7h6.3
		c1,0,1.9-0.8,1.9-1.9C69.5,75,68.7,74.2,67.6,74.2z"/>
</g>
<g id="XMLID_553_">
	<path id="XMLID_554_" class="st1" d="M41.2,56c-0.1-0.1-0.4-0.1-0.5,0c-0.2,0.2-5,5.9-5,8.8c0,2.9,2.4,5.2,5.2,5.2
		c2.9,0,5.2-2.4,5.2-5.2C46.2,61.9,41.4,56.2,41.2,56z"/>
</g>
<g id="XMLID_498_">
	<path id="XMLID_499_" class="st1" d="M8.8,59.2c-0.1-0.1-0.4-0.1-0.5,0C8.1,59.4,4,64.3,4,66.8c0,2.5,2,4.5,4.5,4.5
		c2.5,0,4.5-2,4.5-4.5C13.1,64.3,8.9,59.4,8.8,59.2z"/>
</g>
<g id="XMLID_68_">
	<path id="XMLID_236_" class="st1" d="M75.8,59.2c-0.1-0.1-0.4-0.1-0.5,0c-0.2,0.2-4.3,5.1-4.3,7.5c0,2.5,2,4.5,4.5,4.5
		c2.5,0,4.5-2,4.5-4.5C80.1,64.3,75.9,59.4,75.8,59.2z"/>
</g>
</svg>
