<?xml version="1.0" encoding="utf-8"?>
<!-- Generator: Adobe Illustrator 19.0.0, SVG Export Plug-In . SVG Version: 6.00 Build 0)  -->
<svg version="1.1" id="Layer_1" xmlns="http://www.w3.org/2000/svg" xmlns:xlink="http://www.w3.org/1999/xlink" x="0px" y="0px"
	 viewBox="-6 -7 108.5 98" style="enable-background:new -6 -7 108.5 98;" xml:space="preserve">
<style type="text/css">
	.st0{fill:#ffffff;}
	.st1{fill:#ffffff;}
	.st2{fill:#ffffff;}
</style>
<path id="XMLID_286_" class="st0" d="M5.6,32.1c0.9,0,1.8,0.1,2.6,0.3C8.8,20.9,18.3,11.7,30,11.7c9.2,0,17.1,5.7,20.3,13.8
	c7.9,0.4,14.2,6.9,14.2,14.9c0,8.2-6.7,14.9-14.9,14.9h-44C-0.8,55.3-6,50.1-6,43.7S-0.8,32.1,5.6,32.1z"/>
<path id="XMLID_285_" class="st1" d="M87.5,19.4c-1.2,0-2.3,0.1-3.4,0.4C83.4,4.9,71.1-7,56-7C45-7,35.4-0.7,30.8,8.5
	c9.6,0.1,18.1,5.6,22.1,14.2c8.6,1.2,15.2,8.6,15.2,17.5c0,3.4-1,6.6-2.7,9.3h22.1c8.3,0,15-6.7,15-15
	C102.5,26.1,95.8,19.4,87.5,19.4z"/>
<g>
	<path class="st2" d="M25,77h-6.2l2.7-2.7c0.6-0.6,0.6-1.5,0-2.1c-0.6-0.6-1.5-0.6-2.1,0L16.6,75v-6.4c0-1.1-0.9-1.9-1.9-1.9
		c-1.1,0-1.9,0.9-1.9,1.9v6.2l-2.6-2.6c-0.6-0.6-1.5-0.6-2.1,0c-0.6,0.6-0.6,1.5,0,2.1l2.7,2.7H4.5c-1.1,0-1.9,0.9-1.9,1.9
		s0.8,1.8,1.9,1.9h6.3l-2.7,2.7c-0.6,0.6-0.6,1.5,0,2.1c0.5,0.5,1.4,0.5,2,0l2.7-2.7v6.2c0,1.1,0.9,1.9,1.9,1.9
		c1.1,0,1.9-0.8,1.9-1.9v-6.3l2.8,2.8c0.6,0.6,1.5,0.6,2.1,0c0.6-0.6,0.6-1.5,0-2.1l-2.7-2.7H25c1.1,0,1.9-0.9,1.9-1.9
		C26.9,77.8,26,77,25,77z"/>
	<path class="st2" d="M54.5,77h-6.3l2.7-2.7c0.6-0.6,0.6-1.5,0-2.1c-0.6-0.6-1.5-0.6-2.1,0l-2.7,2.7v-6.3c0-1.1-0.9-1.9-1.9-1.9
		c-1.1,0-1.9,0.9-1.9,1.9v6.3l-2.7-2.7c-0.6-0.6-1.5-0.6-2.1,0c-0.5,0.6-0.5,1.5,0,2.1l2.7,2.7H34c-1.1,0-1.9,0.9-1.9,1.9
		s0.8,1.8,1.8,1.9h6.3l-2.7,2.7c-0.6,0.6-0.6,1.5,0,2.1c0.6,0.5,1.5,0.5,2.1,0l2.7-2.7v6.2c0,1.1,0.9,1.9,1.9,1.9
		c1.1,0,1.9-0.8,1.9-1.9v-6.2l2.7,2.7c0.6,0.6,1.5,0.6,2.1,0c0.6-0.6,0.6-1.5,0-2.1l-2.7-2.7h6.3c1.1,0,1.9-0.9,1.9-1.9
		C56.4,77.8,55.5,77,54.5,77z"/>
	<path class="st2" d="M32.7,70c0.4,0.4,0.9,0.4,1.3,0s0.4-0.9,0-1.3L32.3,67h3.9c0.7,0,1.2-0.5,1.2-1.2s-0.5-1.2-1.2-1.2h-4l1.8-1.8
		c0.4-0.4,0.4-0.9,0-1.3s-0.9-0.4-1.3,0l-1.8,1.8v-4c0-0.7-0.5-1.2-1.2-1.2s-1.2,0.5-1.2,1.2v3.9l-1.7-1.7c-0.4-0.4-0.9-0.4-1.3,0
		s-0.4,1,0,1.3l1.8,1.8h-4.1c-0.7,0-1.2,0.5-1.2,1.2c0,0.6,0.5,1.2,1.2,1.2h4l-1.7,1.7c-0.4,0.4-0.4,0.9,0,1.3
		c0.3,0.4,0.9,0.4,1.3,0l1.7-1.7v4c0,0.7,0.5,1.2,1.2,1.2c0.6,0,1.2-0.6,1.2-1.2v-4.1L32.7,70z"/>
	<path class="st2" d="M3.9,71.3c0.3,0.3,0.7,0.3,1,0c0.3-0.3,0.3-0.7,0-1l-1.4-1.4h3.2c0.5,0,0.9-0.4,0.9-0.9s-0.4-0.9-0.9-0.9H3.6
		l1.3-1.3c0.3-0.3,0.3-0.7,0-1c-0.3-0.3-0.7-0.3-1,0l-1.4,1.4V63c0-0.5-0.4-0.9-0.9-0.9S0.7,62.5,0.7,63v3.1l-1.3-1.3
		c-0.3-0.3-0.7-0.3-1,0c-0.3,0.2-0.3,0.7,0,1l1.3,1.3h-3.1c-0.5,0-0.9,0.4-0.9,0.9c0,0.6,0.4,1,0.9,0.9h3.2l-1.4,1.4
		c-0.3,0.3-0.3,0.7,0,1c0.2,0.3,0.7,0.3,1,0L0.7,70v3.1c0,0.5,0.4,0.9,0.9,0.9s0.9-0.4,0.9-0.9v-3.2L3.9,71.3z"/>
	<path class="st2" d="M63.4,67.1h-3.1l1.3-1.3c0.3-0.3,0.3-0.7,0-1c-0.3-0.3-0.7-0.3-1,0l-1.4,1.4V63c0-0.5-0.4-0.9-0.9-0.9
		s-0.9,0.4-0.9,0.9v3.1l-1.3-1.3c-0.3-0.3-0.7-0.3-1,0c-0.3,0.2-0.3,0.7,0,1l1.3,1.3h-3.1c-0.5,0-0.9,0.4-0.9,0.9
		c0,0.6,0.4,1,0.9,0.9h3.2l-1.4,1.4c-0.3,0.3-0.3,0.7,0,1c0.2,0.3,0.7,0.3,1,0l1.3-1.3v3.1c0,0.5,0.4,0.9,0.9,0.9s1-0.4,0.9-0.9
		v-3.2l1.4,1.4c0.3,0.3,0.7,0.3,1,0c0.3-0.3,0.3-0.7,0-1l-1.4-1.4h3.2c0.5,0,0.9-0.4,0.9-0.9S63.9,67.1,63.4,67.1z"/>
</g>
</svg>
