<?xml version="1.0" encoding="utf-8"?>
<!-- Generator: Adobe Illustrator 19.0.0, SVG Export Plug-In . SVG Version: 6.00 Build 0)  -->
<svg version="1.1" id="Layer_1" xmlns="http://www.w3.org/2000/svg" xmlns:xlink="http://www.w3.org/1999/xlink" x="0px" y="0px"
	 viewBox="-18 -2.2 83.4 88.2" style="enable-background:new -18 -2.2 83.4 88.2;" xml:space="preserve">
<style type="text/css">
	.st0{fill:#ffffff;}
	.st1{fill:#ffffff;}
</style>
<g id="XMLID_1950_">
	<path id="XMLID_1951_" class="st0" d="M51.6,22c-1.1,0-2.1,0.1-3.1,0.4C47.9,8.7,36.6-2.2,22.8-2.2c-10.9,0-20.2,6.8-24,16.3
		C-10.6,14.6-18,22.3-18,31.7c0,9.7,7.9,17.6,17.7,17.6h52c7.6,0,13.7-6.1,13.7-13.7S59.2,22,51.6,22z"/>
</g>
<g>
	<path class="st1" d="M16.6,72h-6.2l2.7-2.7c0.6-0.6,0.6-1.5,0-2.1c-0.6-0.6-1.5-0.6-2.1,0L8.2,70v-6.4c0-1.1-0.9-1.9-1.9-1.9
		c-1.1,0-1.9,0.9-1.9,1.9v6.2l-2.6-2.6c-0.6-0.6-1.5-0.6-2.1,0c-0.6,0.5-0.6,1.5,0,2L2.5,72h-6.4c-1.1,0-1.9,0.9-1.9,1.9
		s0.8,1.8,1.9,1.9h6.2l-2.6,2.6c-0.6,0.6-0.6,1.5,0,2.1c0.5,0.6,1.5,0.6,2,0l2.7-2.7v6.3c0,1.1,0.9,1.9,1.9,1.9
		c1.1,0,1.9-0.8,1.9-1.9v-6.2l2.7,2.7c0.6,0.6,1.5,0.6,2.1,0c0.6-0.6,0.6-1.5,0-2.1l-2.7-2.7h6.3c1.1,0,1.9-0.9,1.9-1.9
		C18.5,72.8,17.6,72,16.6,72z"/>
	<path class="st1" d="M49.6,72h-6.2l2.7-2.7c0.6-0.6,0.6-1.5,0-2.1c-0.6-0.6-1.5-0.6-2.1,0L41.2,70v-6.4c0-1.1-0.9-1.9-1.9-1.9
		c-1.1,0-1.9,0.9-1.9,1.9v6.2l-2.6-2.6c-0.6-0.6-1.5-0.6-2.1,0c-0.6,0.5-0.6,1.5,0,2l2.8,2.8h-6.4c-1.1,0-1.9,0.9-1.9,1.9
		s0.8,1.8,1.9,1.9h6.2l-2.6,2.6c-0.6,0.6-0.6,1.5,0,2.1c0.5,0.6,1.5,0.6,2,0l2.7-2.7v6.3c0,1.1,0.9,1.9,1.9,1.9
		c1.1,0,1.9-0.8,1.9-1.9v-6.2l2.7,2.7c0.6,0.6,1.5,0.6,2.1,0c0.6-0.6,0.6-1.5,0-2.1l-2.7-2.7h6.3c1.1,0,1.9-0.9,1.9-1.9
		C51.5,72.8,50.6,72,49.6,72z"/>
	<path class="st1" d="M27.2,63.7L25.5,62h3.9c0.7,0,1.2-0.5,1.2-1.2s-0.5-1.2-1.2-1.2h-4l1.8-1.8c0.4-0.4,0.4-0.9,0-1.3
		c-0.4-0.4-0.9-0.4-1.3,0l-1.8,1.8v-4.1c0-0.7-0.5-1.2-1.2-1.2c-0.7,0-1.2,0.5-1.2,1.2v4L20,56.5c-0.4-0.4-0.9-0.4-1.3,0
		c-0.4,0.4-0.4,1,0,1.3l1.8,1.8h-4.1c-0.7,0-1.2,0.5-1.2,1.2c0,0.6,0.6,1.1,1.2,1.2h4l-1.7,1.7c-0.4,0.4-0.4,0.9,0,1.3
		c0.4,0.3,0.9,0.3,1.3,0l1.7-1.7v3.9c0,0.7,0.5,1.2,1.2,1.2c0.7,0,1.2-0.5,1.2-1.2v-4l1.8,1.8c0.4,0.4,0.9,0.4,1.3,0
		C27.6,64.6,27.6,64.1,27.2,63.7z"/>
	<path class="st1" d="M-7.6,63.9h3.2c0.5,0,0.9-0.4,0.9-0.9s-0.4-0.9-0.9-0.9h-3.1l1.3-1.3c0.3-0.3,0.3-0.7,0-1s-0.7-0.3-1,0
		l-1.4,1.4V58c0-0.5-0.4-0.9-0.9-0.9s-0.9,0.4-0.9,0.9v3.1l-1.3-1.3c-0.3-0.3-0.7-0.3-1,0c-0.3,0.2-0.3,0.7,0,1l1.3,1.3h-3.1
		c-0.5,0-0.9,0.4-0.9,0.9s0.4,0.9,0.9,0.9h3.2l-1.4,1.4c-0.3,0.3-0.3,0.7,0,1c0.2,0.3,0.7,0.3,1,0l1.3-1.3v3.1
		c0,0.5,0.4,0.9,0.9,0.9s1-0.4,0.9-0.9v-3.2l1.4,1.4c0.3,0.3,0.7,0.3,1,0s0.3-0.7,0-1L-7.6,63.9z"/>
	<path class="st1" d="M62.6,62.1h-3.1l1.3-1.3c0.3-0.3,0.3-0.7,0-1c-0.3-0.3-0.7-0.3-1,0l-1.4,1.4V58c0-0.5-0.4-0.9-0.9-0.9
		s-0.9,0.4-0.9,0.9v3.1l-1.3-1.3c-0.3-0.3-0.7-0.3-1,0c-0.3,0.2-0.3,0.7,0,1l1.3,1.3h-3.1c-0.5,0-0.9,0.4-0.9,0.9s0.4,0.9,0.9,0.9
		h3.2l-1.4,1.4c-0.3,0.3-0.3,0.7,0,1c0.2,0.3,0.7,0.3,1,0l1.3-1.3v3.1c0,0.5,0.4,0.9,0.9,0.9s1-0.4,0.9-0.9v-3.2l1.4,1.4
		c0.3,0.3,0.7,0.3,1,0c0.3-0.3,0.3-0.7,0-1l-1.4-1.4h3.2c0.5,0,0.9-0.4,0.9-0.9S63.1,62.1,62.6,62.1z"/>
</g>
</svg>
