<?xml version="1.0" encoding="utf-8"?>
<!-- Generator: Adobe Illustrator 19.0.0, SVG Export Plug-In . SVG Version: 6.00 Build 0)  -->
<svg version="1.1" id="Layer_1" xmlns="http://www.w3.org/2000/svg" xmlns:xlink="http://www.w3.org/1999/xlink" x="0px" y="0px"
	 viewBox="-3 -14.6 114.8 113.6" style="enable-background:new -3 -14.6 114.8 113.6;" xml:space="preserve">
<style type="text/css">
	.st0{fill:#ffffff;}
	.st1{fill:#ffffff;}
	.st2{fill:#ffffff;}
</style>
<g id="XMLID_514_">
	<path id="XMLID_520_" class="st0" d="M45.6,27.5c2.5-5.4,6.7-9.8,11.7-12.5c-3.8-6.6-10.9-11-19-11c-12.1,0-21.9,9.8-21.9,21.9
		c0,8.6,5,16.1,12.3,19.7C29.3,36.3,36.4,28.7,45.6,27.5z"/>
	<path id="XMLID_519_" class="st0" d="M38.3,0.1c1.4,0,2.5-1.1,2.5-2.5v-9.7c0-1.4-1.1-2.5-2.5-2.5s-2.5,1.1-2.5,2.5v9.7
		C35.8-1.1,37,0.1,38.3,0.1z"/>
	<path id="XMLID_518_" class="st0" d="M11.7,26.7c0-1.4-1.1-2.5-2.5-2.5h-9.7c-1.4,0-2.5,1.2-2.5,2.5s1.1,2.5,2.5,2.5h9.7
		C10.5,29.2,11.7,28.1,11.7,26.7z"/>
	<path id="XMLID_517_" class="st0" d="M60.7,7.9l6.8-6.8c1-1,1-2.6,0-3.5l0,0c-1-1-2.6-1-3.5,0l-6.8,6.8c-1,1-1,2.6,0,3.5
		S59.8,8.8,60.7,7.9z"/>
	<path id="XMLID_516_" class="st0" d="M15.9,45.6l-6.8,6.8c-1,1-1,2.6,0,3.5c1,1,2.6,1,3.5,0l6.8-6.8c1-1,1-2.6,0-3.5
		C18.5,44.6,16.9,44.6,15.9,45.6z"/>
	<path id="XMLID_515_" class="st0" d="M15.9,7.9c1,1,2.6,1,3.5,0c1-1,1-2.6,0-3.5l-6.8-6.8c-1-1-2.6-1-3.5,0l0,0c-1,1-1,2.6,0,3.5
		L15.9,7.9z"/>
</g>
<g id="XMLID_462_">
	<path id="XMLID_487_" class="st1" d="M98.7,38.4c-1,0-2,0.1-3,0.3c-0.6-13-11.3-23.3-24.5-23.3c-10.4,0-19.2,6.4-22.8,15.5
		c-8.9,0.4-15.9,7.7-15.9,16.7c0,9.3,7.5,16.8,16.8,16.8h49.4c7.2,0,13-5.8,13-13S105.9,38.4,98.7,38.4z"/>
</g>
<g>
	<path class="st2" d="M66.3,85.8h-6.1l2.6-2.6c0.5-0.5,0.5-1.4,0-1.9s-1.4-0.5-1.9,0l-2.5,2.5v-5.9c0-1-0.8-1.8-1.8-1.8
		s-1.8,0.8-1.8,1.8v6l-2.6-2.6c-0.5-0.5-1.4-0.5-1.9,0s-0.5,1.4,0,1.9l2.6,2.6H47c-1,0-1.8,0.8-1.8,1.8c0,0.9,0.8,1.7,1.8,1.8h5.8
		l-2.5,2.5c-0.5,0.5-0.5,1.4,0,1.9c0.6,0.6,1.4,0.6,1.9,0l2.6-2.6v6c0,1,0.8,1.8,1.8,1.8s1.8-0.8,1.8-1.8v-5.9l2.5,2.5
		c0.5,0.5,1.4,0.5,1.9,0s0.5-1.4,0-1.9l-2.5-2.5h6c1,0,1.8-0.8,1.8-1.8S67.3,85.8,66.3,85.8z"/>
	<path class="st2" d="M97.2,85.8h-6l2.6-2.6c0.5-0.5,0.5-1.4,0-1.9s-1.4-0.5-1.9,0l-2.6,2.6v-6c0-1-0.8-1.8-1.8-1.8
		s-1.8,0.8-1.8,1.8v5.9l-2.5-2.5c-0.5-0.5-1.4-0.5-1.9,0c-0.6,0.5-0.6,1.4,0,1.9l2.6,2.6h-6c-1,0-1.8,0.8-1.8,1.8
		c0,0.9,0.8,1.7,1.8,1.8h5.9l-2.5,2.5c-0.5,0.5-0.5,1.4,0,1.9c0.5,0.6,1.4,0.6,1.9,0l2.5-2.5v5.9c0,1,0.8,1.8,1.8,1.8
		s1.8-0.8,1.8-1.8v-6l2.6,2.6c0.5,0.5,1.4,0.5,1.9,0s0.5-1.4,0-1.9l-2.5-2.5h5.9c1,0,1.8-0.8,1.8-1.8S98.2,85.8,97.2,85.8z"/>
	<path class="st2" d="M76.1,78l-1.6-1.6h3.7c0.6,0,1.1-0.5,1.1-1.1c0-0.6-0.5-1.1-1.1-1.1h-3.7l1.6-1.6c0.3-0.3,0.3-0.9,0-1.2
		c-0.3-0.3-0.9-0.3-1.2,0l-1.7,1.7v-3.9c0-0.6-0.5-1.1-1.1-1.1c-0.6,0-1.1,0.5-1.1,1.1v3.7l-1.6-1.6c-0.3-0.3-0.9-0.3-1.2,0
		c-0.4,0.4-0.4,0.9,0,1.2l1.7,1.7H66c-0.6,0-1.1,0.5-1.1,1.1c0,0.6,0.5,1.1,1.1,1.1h3.9l-1.7,1.7c-0.3,0.3-0.3,0.9,0,1.2
		s0.9,0.3,1.2,0l1.6-1.6v3.7c0,0.6,0.5,1.1,1.1,1.1c0.7,0,1.2-0.5,1.1-1.1v-3.9l1.7,1.7c0.3,0.3,0.9,0.3,1.2,0
		C76.4,78.9,76.4,78.3,76.1,78z"/>
	<path class="st2" d="M43.5,78.3h3c0.5,0,0.9-0.4,0.9-0.9s-0.4-0.9-0.9-0.9h-2.9l1.2-1.2c0.3-0.2,0.3-0.6,0-0.9
		c-0.2-0.3-0.6-0.3-0.9,0l-1.2,1.2v-2.9c0-0.5-0.4-0.9-0.9-0.9s-0.9,0.4-0.9,0.9v3l-1.3-1.3c-0.2-0.3-0.6-0.3-0.9,0
		c-0.3,0.2-0.3,0.6,0,0.9l1.2,1.2h-2.8c-0.5,0-0.9,0.4-0.9,0.9s0.4,0.9,0.9,0.9H40l-1.3,1.3c-0.3,0.2-0.3,0.6,0,0.9s0.7,0.3,0.9,0
		l1.3-1.3v2.9c0,0.5,0.4,0.9,0.9,0.9s0.8-0.4,0.9-0.9v-2.8l1.2,1.2c0.2,0.3,0.6,0.3,0.9,0c0.3-0.2,0.3-0.6,0-0.9L43.5,78.3z"/>
	<path class="st2" d="M109.3,76.5h-2.9l1.2-1.2c0.3-0.2,0.3-0.6,0-0.9c-0.2-0.3-0.6-0.3-0.9,0l-1.2,1.2v-2.9c0-0.5-0.4-0.9-0.9-0.9
		s-0.9,0.4-0.9,0.9v3l-1.3-1.3c-0.2-0.3-0.6-0.3-0.9,0c-0.3,0.2-0.3,0.6,0,0.9l1.2,1.2h-2.8c-0.5,0-0.9,0.4-0.9,0.9s0.4,0.9,0.9,0.9
		h2.9l-1.3,1.3c-0.3,0.2-0.3,0.6,0,0.9s0.7,0.3,0.9,0l1.3-1.3v2.9c0,0.5,0.4,0.9,0.9,0.9s0.8-0.4,0.9-0.9v-2.8l1.2,1.2
		c0.2,0.3,0.6,0.3,0.9,0c0.3-0.2,0.3-0.6,0-0.9l-1.3-1.3h3c0.5,0,0.9-0.4,0.9-0.9S109.8,76.5,109.3,76.5z"/>
</g>
</svg>
