<?xml version="1.0" encoding="utf-8"?>
<!-- Generator: Adobe Illustrator 19.0.0, SVG Export Plug-In . SVG Version: 6.00 Build 0)  -->
<svg version="1.1" id="Layer_1" xmlns="http://www.w3.org/2000/svg" xmlns:xlink="http://www.w3.org/1999/xlink" x="0px" y="0px"
	 viewBox="-13 -14.7 94.6 112.7" style="enable-background:new -13 -14.7 94.6 112.7;" xml:space="preserve">
<style type="text/css">
	.st0{fill:#ffffff;}
	.st1{fill:#ffffff;}
	.st2{fill:#ffffff;}
</style>
<g id="XMLID_539_">
	<path id="XMLID_540_" class="st0" d="M68.5,37.5c-1,0-2,0.1-3,0.3c-0.6-13-11.3-23.3-24.5-23.3c-10.4,0-19.2,6.4-22.8,15.5
		C9.3,30.4,2.3,37.7,2.3,46.7c0,9.3,7.5,16.8,16.8,16.8h49.4c7.2,0,13-5.8,13-13S75.7,37.5,68.5,37.5z"/>
</g>
<g>
	<path class="st1" d="M36,84.9h-5.9l2.6-2.6c0.5-0.5,0.5-1.4,0-1.9s-1.4-0.5-1.9,0L28.2,83v-5.9c0-1-0.8-1.8-1.8-1.8
		s-1.8,0.8-1.8,1.8V83L22,80.4c-0.5-0.5-1.4-0.5-1.9,0s-0.5,1.4,0,1.9l2.6,2.6h-5.9c-1,0-1.8,0.8-1.8,1.8s0.8,1.8,1.8,1.8h5.9
		l-2.6,2.6c-0.5,0.5-0.5,1.4,0,1.9s1.4,0.5,1.9,0l2.6-2.6v5.9c0,1,0.8,1.8,1.8,1.8s1.8-0.8,1.8-1.8v-6l2.6,2.6
		c0.5,0.5,1.4,0.5,1.9,0s0.5-1.4,0-1.9l-2.6-2.6H36c1,0,1.8-0.8,1.8-1.8S37,84.9,36,84.9z"/>
	<path class="st1" d="M66.9,84.9H61l2.6-2.6c0.5-0.5,0.5-1.4,0-1.9s-1.4-0.5-1.9,0L59.1,83v-5.9c0-1-0.8-1.8-1.8-1.8
		s-1.8,0.8-1.8,1.8V83L53,80.4c-0.5-0.5-1.4-0.5-1.9,0s-0.5,1.4,0,1.9l2.6,2.6h-5.9c-1,0-1.8,0.8-1.8,1.8s0.8,1.8,1.8,1.8h5.9
		l-2.6,2.6c-0.5,0.5-0.5,1.4,0,1.9s1.4,0.5,1.9,0l2.6-2.6v5.9c0,1,0.8,1.8,1.8,1.8s1.8-0.8,1.8-1.8v-6l2.6,2.6
		c0.5,0.5,1.4,0.5,1.9,0s0.5-1.4,0-1.9l-2.6-2.6H67c1,0,1.8-0.8,1.8-1.8S67.9,84.9,66.9,84.9z"/>
	<path class="st1" d="M45.9,77.1l-1.6-1.6H48c0.6,0,1.1-0.5,1.1-1.1c0-0.6-0.5-1.1-1.1-1.1h-3.8l1.6-1.6c0.3-0.3,0.3-0.9,0-1.2
		s-0.9-0.3-1.2,0L43,72v-3.7c0-0.6-0.5-1.1-1.1-1.1c-0.6,0-1.1,0.5-1.1,1.1v3.8l-1.6-1.6c-0.3-0.3-0.9-0.3-1.2,0s-0.3,0.9,0,1.2
		l1.6,1.6h-3.8c-0.6,0-1.1,0.5-1.1,1.1c0,0.6,0.5,1.1,1.1,1.1h3.8L38,77.1c-0.3,0.3-0.3,0.9,0,1.2s0.9,0.3,1.2,0l1.6-1.6v3.8
		c0,0.6,0.5,1.1,1.1,1.1c0.6,0,1.1-0.5,1.1-1.1v-3.8l1.6,1.6c0.3,0.3,0.9,0.3,1.2,0S46.2,77.4,45.9,77.1z"/>
	<path class="st1" d="M13.4,77.3h2.9c0.5,0,0.9-0.4,0.9-0.9s-0.4-0.9-0.9-0.9h-2.9l1.3-1.3c0.3-0.3,0.3-0.7,0-0.9
		c-0.3-0.3-0.7-0.3-0.9,0l-1.3,1.3v-2.9c0-0.5-0.4-0.9-0.9-0.9s-0.9,0.4-0.9,0.9v2.9l-1.3-1.3c-0.3-0.3-0.7-0.3-0.9,0
		s-0.3,0.7,0,0.9l1.3,1.3H6.9c-0.5,0-0.9,0.4-0.9,0.9s0.4,0.9,0.9,0.9h2.9l-1.3,1.3c-0.3,0.3-0.3,0.7,0,0.9s0.7,0.3,0.9,0l1.3-1.3
		v2.9c0,0.5,0.4,0.9,0.9,0.9s0.9-0.4,0.9-0.9v-2.8l1.3,1.3c0.3,0.3,0.7,0.3,0.9,0c0.3-0.3,0.3-0.7,0-0.9L13.4,77.3z"/>
	<path class="st1" d="M79.1,75.6h-2.9l1.3-1.3c0.3-0.3,0.3-0.7,0-0.9c-0.3-0.3-0.7-0.3-0.9,0l-1.3,1.3v-2.9c0-0.5-0.4-0.9-0.9-0.9
		s-0.9,0.4-0.9,0.9v2.9l-1.3-1.3c-0.3-0.3-0.7-0.3-0.9,0c-0.2,0.3-0.3,0.7,0,0.9l1.3,1.3h-2.9c-0.5,0-0.9,0.4-0.9,0.9
		s0.4,0.9,0.9,0.9h2.9l-1.3,1.3c-0.3,0.3-0.3,0.7,0,0.9c0.3,0.2,0.7,0.3,0.9,0l1.3-1.3v2.9c0,0.5,0.4,0.9,0.9,0.9s0.9-0.4,0.9-0.9
		v-2.9l1.3,1.3c0.3,0.3,0.7,0.3,0.9,0c0.3-0.3,0.3-0.7,0-0.9l-1.3-1.4h2.9c0.5,0,0.9-0.4,0.9-0.9C80,76,79.6,75.6,79.1,75.6z"/>
</g>
<path id="XMLID_68_" class="st2" d="M15.1,26.7c0.7-1.7,1.5-3.3,2.5-4.8c-5.1-4-8.3-10.2-8.3-17.2c0-6.3,2.7-12.3,7.6-16.6
	c0.6-0.4,0.6-1.2,0.4-1.8c-0.2-0.6-0.8-1-1.6-1C-0.7-13.1-13,0.4-13,17c0,10.2,4.8,19.2,12.2,25C-0.1,33.6,6.7,27.1,15.1,26.7z"/>
</svg>
