<?xml version="1.0" encoding="utf-8"?>
<!-- Generator: Adobe Illustrator 19.0.0, SVG Export Plug-In . SVG Version: 6.00 Build 0)  -->
<svg version="1.1" id="Layer_1" xmlns="http://www.w3.org/2000/svg" xmlns:xlink="http://www.w3.org/1999/xlink" x="0px" y="0px"
	 viewBox="0 0 83.4 85.6" style="enable-background:new 0 0 83.4 85.6;" xml:space="preserve">
<style type="text/css">
	.st0{fill:#ffffff;}
	.st1{fill:#ffffff;}
	.st2{fill:#ffffff;}
</style>
<path id="XMLID_1190_" class="st0" d="M35.5,75.8c-1.1,0-2-0.9-2-2c0-0.2,0.1-0.4,0.1-0.6L38,60.8c0.3-0.7,1-1.3,1.8-1.3H49
	c0.5,0,0.8,0.4,0.8,0.8c0,0.2-0.1,0.4-0.2,0.5l0,0l-6.3,8.5h4.9c0.9,0,1.6,0.7,1.6,1.6c0,0.4-0.1,0.7-0.3,1l-9.7,13c0,0,0,0,0,0
	c-0.5,0.7-1.6,0.9-2.3,0.3c-0.6-0.5-0.8-1.4-0.4-2.1c0,0,0,0,0,0l3.1-7.4H35.5L35.5,75.8z"/>
<g id="XMLID_499_">
	<path id="XMLID_1189_" class="st1" d="M69.6,24.2c-1.1,0-2.1,0.1-3.1,0.4C65.9,10.9,54.6,0,40.8,0c-10.9,0-20.2,6.8-24,16.3
		C7.4,16.8,0,24.5,0,33.9c0,9.7,7.9,17.6,17.7,17.6h52c7.6,0,13.7-6.1,13.7-13.7S77.2,24.2,69.6,24.2z"/>
</g>
<path id="XMLID_498_" class="st2" d="M23.7,69.9h-4.9l2.1-2.1c0.4-0.4,0.4-1.2,0-1.6c-0.4-0.4-1.2-0.4-1.6,0l-2.1,2.1v-4.9
	c0-0.8-0.7-1.5-1.5-1.5c-0.8,0-1.5,0.7-1.5,1.5v4.9l-2.1-2.1c-0.4-0.4-1.2-0.4-1.6,0c-0.4,0.4-0.4,1.2,0,1.6l2.1,2.1H7.7
	c-0.8,0-1.5,0.7-1.5,1.5c0,0.8,0.7,1.5,1.5,1.5h4.9L10.5,75c-0.4,0.4-0.4,1.2,0,1.6c0.4,0.4,1.2,0.4,1.6,0l2.1-2.1v4.9
	c0,0.8,0.7,1.5,1.5,1.5c0.8,0,1.5-0.7,1.5-1.5v-4.9l2.1,2.1c0.4,0.4,1.2,0.4,1.6,0c0.4-0.4,0.4-1.2,0-1.6l-2.1-2.1h4.9
	c0.8,0,1.5-0.7,1.5-1.5C25.1,70.6,24.5,69.9,23.7,69.9z"/>
<path id="XMLID_237_" class="st2" d="M78,69.9h-4.9l2.1-2.1c0.4-0.4,0.4-1.2,0-1.6c-0.4-0.4-1.2-0.4-1.6,0l-2.1,2.1v-4.9
	c0-0.8-0.7-1.5-1.5-1.5c-0.8,0-1.5,0.7-1.5,1.5v4.9l-2.1-2.1c-0.4-0.4-1.2-0.4-1.6,0c-0.4,0.4-0.4,1.2,0,1.6l2.1,2.1h-4.9
	c-0.8,0-1.5,0.7-1.5,1.5c0,0.8,0.7,1.5,1.5,1.5H67L64.9,75c-0.4,0.4-0.4,1.2,0,1.6c0.4,0.4,1.2,0.4,1.6,0l2.1-2.1v4.9
	c0,0.8,0.7,1.5,1.5,1.5c0.8,0,1.5-0.7,1.5-1.5v-4.9l2.1,2.1c0.4,0.4,1.2,0.4,1.6,0c0.4-0.4,0.4-1.2,0-1.6l-2.1-2.1H78
	c0.8,0,1.5-0.7,1.5-1.5C79.5,70.6,78.8,69.9,78,69.9z"/>
<path id="XMLID_236_" class="st2" d="M32.6,61.1h-3l1.3-1.3c0.3-0.3,0.3-0.7,0-1c-0.3-0.3-0.7-0.3-1,0l-1.3,1.3v-3
	c0-0.5-0.4-0.9-0.9-0.9c-0.5,0-0.9,0.4-0.9,0.9v3l-1.3-1.3c-0.3-0.3-0.7-0.3-1,0c-0.3,0.3-0.3,0.7,0,1l1.3,1.3h-3
	c-0.5,0-0.9,0.4-0.9,0.9c0,0.5,0.4,0.9,0.9,0.9h3l-1.3,1.3c-0.3,0.3-0.3,0.7,0,1c0.3,0.3,0.7,0.3,1,0l1.3-1.3v3
	c0,0.5,0.4,0.9,0.9,0.9c0.5,0,0.9-0.4,0.9-0.9v-3l1.3,1.3c0.3,0.3,0.7,0.3,1,0c0.3-0.3,0.3-0.7,0-1l-1.3-1.3h3
	c0.5,0,0.9-0.4,0.9-0.9C33.5,61.5,33.1,61.1,32.6,61.1z"/>
<path id="XMLID_68_" class="st2" d="M62.8,61.1h-3l1.3-1.3c0.3-0.3,0.3-0.7,0-1c-0.3-0.3-0.7-0.3-1,0l-1.3,1.3v-3
	c0-0.5-0.4-0.9-0.9-0.9c-0.5,0-0.9,0.4-0.9,0.9v3l-1.3-1.3c-0.3-0.3-0.7-0.3-1,0c-0.3,0.3-0.3,0.7,0,1l1.3,1.3h-3
	c-0.5,0-0.9,0.4-0.9,0.9c0,0.5,0.4,0.9,0.9,0.9h3l-1.3,1.3c-0.3,0.3-0.3,0.7,0,1c0.3,0.3,0.7,0.3,1,0l1.3-1.3v3
	c0,0.5,0.4,0.9,0.9,0.9c0.5,0,0.9-0.4,0.9-0.9v-3l1.3,1.3c0.3,0.3,0.7,0.3,1,0c0.3-0.3,0.3-0.7,0-1l-1.3-1.3h3
	c0.5,0,0.9-0.4,0.9-0.9C63.7,61.5,63.3,61.1,62.8,61.1z"/>
</svg>
