<?xml version="1.0" encoding="utf-8"?>
<!-- Generator: Adobe Illustrator 19.0.0, SVG Export Plug-In . SVG Version: 6.00 Build 0)  -->
<svg version="1.1" id="Layer_1" xmlns="http://www.w3.org/2000/svg" xmlns:xlink="http://www.w3.org/1999/xlink" x="0px" y="0px"
	 viewBox="0 0 94.4 110.1" style="enable-background:new 0 0 94.4 110.1;" xml:space="preserve">
<style type="text/css">
	.st0{fill:#ffffff;}
	.st1{fill:#ffffff;}
	.st2{fill:#ffffff;}
</style>
<g id="XMLID_501_">
	<path id="XMLID_502_" class="st0" d="M81.3,51.1c-1,0-2,0.1-3,0.3c-0.6-13-11.3-23.3-24.5-23.3c-10.4,0-19.2,6.4-22.8,15.5
		c-8.9,0.4-15.9,7.7-15.9,16.7c0,9.3,7.5,16.8,16.8,16.8h49.4c7.2,0,13-5.8,13-13S88.5,51.1,81.3,51.1z"/>
</g>
<path id="XMLID_237_" class="st1" d="M28.1,41.4c0.7-1.7,1.5-3.3,2.5-4.8c-5.1-4-8.3-10.2-8.3-17.2c0-6.3,2.7-12.3,7.6-16.6
	c0.6-0.4,0.6-1.2,0.4-1.8s-0.8-1-1.6-1C12.3,1.6,0.1,15.1,0.1,31.7c0,10.2,4.8,19.2,12.2,25C13,48.3,19.7,41.8,28.1,41.4z"/>
<g id="XMLID_68_">
	<path id="XMLID_236_" class="st2" d="M57.1,96.1h-6.3l2.7-2.7c0.6-0.6,0.6-1.5,0-2.1c-0.6-0.6-1.5-0.6-2.1,0L48.7,94v-6.3
		c0-1-0.8-1.9-1.9-1.9S45,86.7,45,87.7V94l-2.7-2.7c-0.6-0.6-1.5-0.6-2.1,0c-0.6,0.6-0.6,1.5,0,2.1l2.7,2.7h-6.3
		c-1,0-1.9,0.8-1.9,1.9c0,1,0.8,1.9,1.9,1.9h6.3l-2.7,2.7c-0.6,0.6-0.6,1.5,0,2.1c0.6,0.6,1.5,0.6,2.1,0l2.7-2.7v6.3
		c0,1,0.8,1.9,1.9,1.9s1.9-0.8,1.9-1.9v-6.3l2.7,2.7c0.6,0.6,1.5,0.6,2.1,0c0.6-0.6,0.6-1.5,0-2.1l-2.7-2.7h6.3c1,0,1.9-0.8,1.9-1.9
		C59,96.9,58.2,96.1,57.1,96.1z"/>
	<path id="XMLID_258_" class="st2" d="M72.6,89h-4l1.7-1.7c0.4-0.4,0.4-0.9,0-1.3s-0.9-0.4-1.3,0l-1.7,1.7v-4c0-0.7-0.5-1.2-1.2-1.2
		s-1.2,0.5-1.2,1.2v4L63.1,86c-0.4-0.4-0.9-0.4-1.3,0c-0.4,0.4-0.4,0.9,0,1.3l1.7,1.7h-4c-0.7,0-1.2,0.5-1.2,1.2s0.5,1.2,1.2,1.2h4
		l-1.7,1.7c-0.4,0.4-0.4,0.9,0,1.3c0.4,0.4,0.9,0.4,1.3,0l1.7-1.7v4c0,0.7,0.5,1.2,1.2,1.2s1.2-0.5,1.2-1.2v-4l1.7,1.7
		c0.4,0.4,0.9,0.4,1.3,0c0.4-0.4,0.4-0.9,0-1.3l-1.7-1.7h4c0.7,0,1.2-0.5,1.2-1.2S73.2,89,72.6,89z"/>
</g>
</svg>
