<?xml version="1.0" encoding="utf-8"?>
<!-- Generator: Adobe Illustrator 19.0.0, SVG Export Plug-In . SVG Version: 6.00 Build 0)  -->
<svg version="1.1" id="Layer_1" xmlns="http://www.w3.org/2000/svg" xmlns:xlink="http://www.w3.org/1999/xlink" x="0px" y="0px"
	 viewBox="0 0 108.5 97.2" style="enable-background:new 0 0 108.5 97.2;" xml:space="preserve">
<style type="text/css">
	.st0{fill:#ffffff;}
	.st1{fill:#ffffff;}
	.st2{fill:#ffffff;}
	.st3{fill:#ffffff;}
</style>
<path id="XMLID_802_" class="st0" d="M29.8,87.4c-1.1,0-2-0.9-2-2c0-0.2,0.1-0.4,0.1-0.6l4.3-12.4c0.3-0.7,1-1.3,1.8-1.3h9.2
	c0.5,0,0.8,0.4,0.8,0.8c0,0.2-0.1,0.4-0.2,0.5l0,0l-6.3,8.5h4.9c0.9,0,1.6,0.7,1.6,1.6c0,0.4-0.1,0.7-0.3,1l-9.7,13c0,0,0,0,0,0
	c-0.5,0.7-1.6,0.9-2.3,0.3c-0.6-0.5-0.8-1.4-0.4-2.1c0,0,0,0,0,0l3.1-7.4H29.8L29.8,87.4z"/>
<g id="XMLID_500_">
	<path id="XMLID_683_" class="st1" d="M15.8,68.7c-0.2-0.2-0.5-0.2-0.6,0c-0.2,0.3-5.9,7-5.9,10.3c0,3.4,2.8,6.2,6.2,6.2
		c3.4,0,6.2-2.8,6.2-6.2C21.6,75.7,16,69,15.8,68.7z"/>
</g>
<g id="XMLID_237_">
	<path id="XMLID_498_" class="st1" d="M56.8,68.7c-0.2-0.2-0.5-0.2-0.6,0c-0.2,0.3-5.9,7-5.9,10.3c0,3.4,2.8,6.2,6.2,6.2
		c3.4,0,6.2-2.8,6.2-6.2C62.6,75.7,57,69,56.8,68.7z"/>
</g>
<path id="XMLID_236_" class="st2" d="M11.6,39.1c0.9,0,1.8,0.1,2.6,0.3C14.8,27.9,24.3,18.7,36,18.7c9.2,0,17.1,5.7,20.3,13.8
	c7.9,0.4,14.2,6.9,14.2,14.9c0,8.2-6.7,14.9-14.9,14.9H11.6C5.2,62.3,0,57.1,0,50.7C0,44.3,5.2,39.1,11.6,39.1z"/>
<path id="XMLID_68_" class="st3" d="M93.5,26.4c-1.2,0-2.3,0.1-3.4,0.4C89.4,11.9,77.1,0,62,0C51,0,41.4,6.3,36.8,15.5
	c9.6,0.1,18.1,5.6,22.1,14.2c8.6,1.2,15.2,8.6,15.2,17.5c0,3.4-1,6.6-2.7,9.3h22.1c8.3,0,15-6.7,15-15
	C108.5,33.1,101.8,26.4,93.5,26.4z"/>
</svg>
