<?xml version="1.0" encoding="utf-8"?>
<!-- Generator: Adobe Illustrator 19.0.0, SVG Export Plug-In . SVG Version: 6.00 Build 0)  -->
<svg version="1.1" id="Layer_1" xmlns="http://www.w3.org/2000/svg" xmlns:xlink="http://www.w3.org/1999/xlink" x="0px" y="0px"
	 viewBox="0 0 83.4 85.8" style="enable-background:new 0 0 83.4 85.8;" xml:space="preserve">
<style type="text/css">
	.st0{fill:#ffffff;}
	.st1{fill:#ffffff;}
	.st2{fill:#ffffff;}
</style>
<path id="XMLID_802_" class="st0" d="M34.5,76.1c-1.1,0-2-0.9-2-2c0-0.2,0.1-0.4,0.1-0.6L37,61.1c0.3-0.7,1-1.3,1.8-1.3H48
	c0.5,0,0.8,0.4,0.8,0.8c0,0.2-0.1,0.4-0.2,0.5l0,0l-6.3,8.5h4.9c0.9,0,1.6,0.7,1.6,1.6c0,0.4-0.1,0.7-0.3,1l-9.7,13c0,0,0,0,0,0
	c-0.5,0.7-1.6,0.9-2.3,0.3c-0.6-0.5-0.8-1.4-0.4-2.1c0,0,0,0,0,0l3.1-7.4H34.5L34.5,76.1z"/>
<g id="XMLID_683_">
	<path id="XMLID_801_" class="st1" d="M69.6,24.2c-1.1,0-2.1,0.1-3.1,0.4C65.9,10.9,54.6,0,40.8,0c-10.9,0-20.2,6.8-24,16.3
		C7.4,16.8,0,24.5,0,33.9c0,9.7,7.9,17.6,17.7,17.6h52c7.6,0,13.7-6.1,13.7-13.7S77.2,24.2,69.6,24.2z"/>
</g>
<g id="XMLID_498_">
	<path id="XMLID_499_" class="st2" d="M20.5,57.4c-0.2-0.2-0.5-0.2-0.6,0c-0.2,0.3-5.9,7-5.9,10.3c0,3.4,2.8,6.2,6.2,6.2
		c3.4,0,6.2-2.8,6.2-6.2C26.4,64.4,20.7,57.6,20.5,57.4z"/>
</g>
<g id="XMLID_68_">
	<path id="XMLID_236_" class="st2" d="M61.5,57.4c-0.2-0.2-0.5-0.2-0.6,0c-0.2,0.3-5.9,7-5.9,10.3c0,3.4,2.8,6.2,6.2,6.2
		c3.4,0,6.2-2.8,6.2-6.2C67.4,64.4,61.7,57.6,61.5,57.4z"/>
</g>
</svg>
