<?xml version="1.0" encoding="utf-8"?>
<!-- Generator: Adobe Illustrator 17.1.0, SVG Export Plug-In . SVG Version: 6.00 Build 0)  -->
<!DOCTYPE svg PUBLIC "-//W3C//DTD SVG 1.1//EN" "http://www.w3.org/Graphics/SVG/1.1/DTD/svg11.dtd">
<svg version="1.1" id="Layer_1" xmlns="http://www.w3.org/2000/svg" xmlns:xlink="http://www.w3.org/1999/xlink" x="0px" y="0px"
	 viewBox="0 0 200 200" enable-background="new 0 0 200 200" xml:space="preserve">
<g>
	<path fill="#FFFFFF" d="M199.6,39.3c0,43.9,0,87.7,0,131.6c-3.2,7.9-8.3,13.3-17.5,13.3c-54.7,0-109.5,0-164.2,0
		c-8.1,0-13.7-4.1-16.7-11.6c-0.2-0.6-0.6-1.1-0.9-1.6c0-43.9,0-87.7,0-131.6c4.8-13.1,15.7-14.1,27.5-13c0-2.7-0.4-4.7,0.1-6.5
		c0.4-1.4,2-2.6,3-3.8c1.1,1.3,2.8,2.5,3.3,4c0.6,1.8,0.1,4,0.1,5.9c9.6,0,18.6,0,28,0c0-2.3-0.4-4.5,0.1-6.4
		c0.3-1.3,1.8-2.4,2.8-3.5c1.1,1.2,2.9,2.1,3.3,3.5c0.6,2,0.1,4.3,0.1,6.3c9.7,0,18.8,0,28.1,0c0-2.4-0.4-4.6,0.1-6.5
		c0.3-1.3,2-2.2,3-3.3c1.1,1.1,2.7,2,3,3.3c0.5,2,0.1,4.3,0.1,6.6c9.6,0,18.7,0,28.1,0c0-2.3-0.4-4.5,0.1-6.4
		c0.4-1.4,2.1-2.4,3.3-3.5c1,1.2,2.5,2.2,2.8,3.5c0.5,2,0.1,4.3,0.1,6.4c9.7,0,18.7,0,28,0c0-2,0-3.8,0-5.6c0.1-2.3,0.7-4.6,3.4-4.1
		c1.3,0.2,2.6,2.4,3.1,4c0.5,1.7,0.1,3.8,0.1,6c3.6,0,6.7,0,9.8,0c6.1,0.1,11.1,2.4,14.6,7.5C197.8,35.3,198.6,37.4,199.6,39.3z
		 M7,60.4c-0.1,1.3-0.2,2.5-0.2,3.6c0,33.6,0,67.2,0,100.8c0,9,4,12.9,13.2,12.9c53.3,0,106.6,0,160,0c9.5,0,13.4-3.9,13.4-13.5
		c0-33.2,0-66.4,0-99.6c0-1.4,0-2.7,0-4.2C130.8,60.4,69,60.4,7,60.4z M192.9,53.5c2.1-18.1-3.2-23.1-20.8-20.2
		c0,1.9,0.4,3.9-0.1,5.7c-0.4,1.5-2,2.6-3,3.9c-1.1-1.3-2.8-2.5-3.3-4c-0.6-1.8-0.1-4-0.1-6c-9.6,0-18.6,0-28,0
		c0,2.4,0.4,4.5-0.1,6.4c-0.3,1.3-1.8,2.4-2.8,3.5c-1.1-1.2-2.9-2.2-3.3-3.5c-0.6-2-0.1-4.3-0.1-6.4c-9.6,0-18.7,0-28,0
		c0,2.3,0.4,4.4-0.1,6.1c-0.4,1.4-2,2.5-3,3.8c-1.1-1.2-2.7-2.3-3.1-3.6c-0.5-1.9-0.1-4.1-0.1-6.4c-9.5,0-18.6,0-28,0
		c0,1.9,0,3.6,0,5.3c0.1,2.4-0.5,4.7-3.3,4.7c-2.7,0-3.1-2.2-3.1-4.5c0-1.8,0-3.5,0-5.5c-9.6,0-18.6,0-28,0c0,2.3,0.4,4.4-0.1,6.3
		c-0.4,1.4-2.1,2.5-3.1,3.7c-1.1-1.2-2.7-2.3-3.1-3.8c-0.5-1.9-0.1-4.1-0.1-6C10.3,30.8,4.7,35.5,7.3,53.5
		C69.1,53.5,130.9,53.5,192.9,53.5z"/>
	<path fill="#FFFFFF" d="M100.4,74.3c22,0,44.1,0,66.1,0c8.4,0,12.4,3.9,12.4,12.3c0,21.5,0,43.1,0,64.6c0,8.4-3.9,12.3-12.4,12.3
		c-44.4,0-88.7,0-133.1,0c-8.5,0-12.4-3.9-12.4-12.3c0-21.5,0-43.1,0-64.6c0-8.4,4-12.3,12.4-12.3C55.8,74.3,78.1,74.3,100.4,74.3z
		 M27.7,136.1c10.6,0,20.8,0,30.9,0c0-4.8,0-9.2,0-13.7c-10.4,0-20.6,0-30.9,0C27.7,127.1,27.7,131.5,27.7,136.1z M172.3,122.4
		c-10.5,0-20.7,0-30.9,0c0,4.7,0,9.2,0,13.8c10.4,0,20.6,0,30.9,0C172.3,131.5,172.3,127.2,172.3,122.4z M65.6,94.9
		c10.4,0,20.6,0,31,0c0-4.7,0-9.1,0-13.8c-10.4,0-20.5,0-31,0C65.6,85.7,65.6,90.2,65.6,94.9z M134.4,81.2c-10.5,0-20.7,0-31,0
		c0,4.7,0,9.1,0,13.7c10.4,0,20.5,0,31,0C134.4,90.2,134.4,85.7,134.4,81.2z M96.6,136.2c0-4.7,0-9.2,0-13.8c-10.4,0-20.6,0-30.9,0
		c0,4.7,0,9.2,0,13.8C76,136.2,86.1,136.2,96.6,136.2z M103.4,122.4c0,4.7,0,9.2,0,13.8c10.4,0,20.6,0,30.9,0c0-4.7,0-9.2,0-13.8
		C123.9,122.4,113.7,122.4,103.4,122.4z M58.6,80.9c-9.3,0-18.5-0.1-27.6,0.1c-1.1,0-3.1,1.9-3.2,3.1c-0.4,3.5-0.2,7.1-0.2,10.7
		c10.6,0,20.7,0,31,0C58.6,90.2,58.6,85.7,58.6,80.9z M141.3,94.8c10.6,0,20.7,0,31.2,0c0-3.3-0.1-6.2,0-9.2
		c0.1-3.3-1.6-4.8-4.7-4.8c-3.8,0-7.5,0-11.3,0c-5,0-10,0-15.2,0C141.3,85.7,141.3,90.1,141.3,94.8z M58.7,101.8
		c-10.6,0-20.7,0-30.9,0c0,4.7,0,9.2,0,13.6c10.4,0,20.6,0,30.9,0C58.7,110.7,58.7,106.4,58.7,101.8z M96.7,101.8
		c-10.6,0-20.9,0-31.1,0c0,4.7,0,9,0,13.5c10.5,0,20.8,0,31.1,0C96.7,110.7,96.7,106.4,96.7,101.8z M134.5,115.5c0-4.8,0-9.1,0-13.7
		c-10.5,0-20.7,0-31,0c0,4.7,0,9.2,0,13.7C113.9,115.5,124,115.5,134.5,115.5z M172.3,101.8c-10.6,0-20.7,0-30.9,0
		c0,4.7,0,9.2,0,13.6c10.4,0,20.6,0,30.9,0C172.3,110.7,172.3,106.4,172.3,101.8z M65.7,142.9c0,4.8,0,9.2,0,13.7
		c10.5,0,20.6,0,30.9,0c0-4.7,0-9.2,0-13.7C86.2,142.9,76.1,142.9,65.7,142.9z M103.4,156.6c10.5,0,20.7,0,31,0c0-4.7,0-9.1,0-13.5
		c-10.5,0-20.8,0-31,0C103.4,147.8,103.4,152.2,103.4,156.6z M58.6,143c-10.4,0-20.6,0-31.1,0c0,3.1,0.1,6.1,0,9.1
		c-0.1,3.5,1.5,4.9,4.9,4.9c6.9-0.1,13.8,0,20.6,0c1.9,0,3.7,0,5.6,0C58.6,151.9,58.6,147.5,58.6,143z M141.4,156.9
		c9.3,0,18.1,0.1,26.9-0.1c1.4,0,3.7-1.9,3.9-3.1c0.5-3.5,0.2-7.1,0.2-10.6c-10.7,0-20.9,0-31,0
		C141.4,147.7,141.4,152.1,141.4,156.9z"/>
</g>
</svg>
