<?xml version="1.0" encoding="utf-8"?>
<!-- Generator: Adobe Illustrator 17.1.0, SVG Export Plug-In . SVG Version: 6.00 Build 0)  -->
<!DOCTYPE svg PUBLIC "-//W3C//DTD SVG 1.1//EN" "http://www.w3.org/Graphics/SVG/1.1/DTD/svg11.dtd">
<svg version="1.1" id="Layer_1" xmlns="http://www.w3.org/2000/svg" xmlns:xlink="http://www.w3.org/1999/xlink" x="0px" y="0px"
	 viewBox="0 0 200 200" enable-background="new 0 0 200 200" xml:space="preserve">
<g>
	<path fill="#BFBFBF" d="M92.2,0.3c5.2,0,10.4,0,15.6,0c3.7,0.6,7.4,1,11.1,1.8c40.3,9.4,66.5,33.7,77.7,73.7
		c1.5,5.3,2.1,10.9,3.2,16.4c0,5.2,0,10.4,0,15.6c-0.6,3.7-1,7.4-1.8,11.1c-9.4,40.3-33.7,66.5-73.7,77.7
		c-5.3,1.5-10.9,2.1-16.3,3.2c-5.2,0-10.4,0-15.6,0c-3.7-0.6-7.4-1-11.1-1.8c-40.3-9.4-66.5-33.7-77.7-73.7
		c-1.5-5.3-2.1-10.9-3.2-16.4c0-5.2,0-10.4,0-15.6c0.6-3.7,1-7.4,1.8-11.1c9.4-40.3,33.7-66.5,73.7-77.7C81.2,2,86.8,1.3,92.2,0.3z
		 M124.6,142C124.6,142,124.6,142,124.6,142c12.1,0,24.1,0.1,36.2-0.1c3.5,0,7-0.3,10.4-0.9c8.2-1.3,14.3-8.9,13.4-16.5
		c-1-8.7-8.3-14.9-17-14.1c-2.8,0.3-3.6-0.8-4.4-3c-3.9-10.9-15-17.7-25.9-14.8c-4.8,1.3-7.5,0.3-10.1-3.2c-0.3-0.4-0.7-0.8-1.1-1.1
		c-6.4-5.4-13.6-7.9-22-6.6c-10.1,1.6-17.4,7-21.6,16.4c-1,2.3-2.4,3.7-4.8,4.6c-9.4,3.5-14.5,13-12.6,22.9
		C67,134.9,75.8,142,85.3,142C98.4,142,111.5,142,124.6,142z M32.9,79.8c-0.5,0-1,0-1.6,0c-7.3,0.1-14.3,4.8-16.7,11.4
		c-2.1,5.7-1.7,14.7,4.2,20.2c4.7,4.3,10.2,5.6,16.1,5.8c7.8,0.2,15.6,0,23.4,0.1c2.8,0,4.1-1,4.8-3.8c1.7-7,6.2-11.9,12.9-14.5
		c2.2-0.9,3.8-2,4.6-4.3c1.6-4.5,4.7-8,8.3-11.1c6.4-5.4,13.9-7.4,22.1-6.2c7.4,1,13.4,4.7,18.2,10.3c1.2,1.5,2.5,2.6,4.6,1.7
		c1.9-0.8,3.3-1.6,3.7-3.9c4.2-22.9-14.4-44.3-40-39.4c-7.6,1.5-13.6,5.7-18.4,11.5c-1.9,2.2-3.6,2.7-6.4,1.8
		c-14-4.6-28.7,2.5-33.8,16.4C37.4,79.9,37.4,79.9,32.9,79.8z"/>
	<path fill="#FFFFFF" d="M124.6,142c-13.1,0-26.2,0-39.3,0c-9.5,0-18.3-7.1-20.1-16.4c-1.9-9.8,3.2-19.4,12.6-22.9
		c2.4-0.9,3.8-2.3,4.8-4.6c4.2-9.4,11.5-14.8,21.6-16.4c8.4-1.3,15.6,1.2,22,6.6c0.4,0.3,0.8,0.7,1.1,1.1c2.6,3.5,5.3,4.5,10.1,3.2
		c10.9-2.9,22,3.8,25.9,14.8c0.8,2.3,1.6,3.3,4.4,3c8.7-0.9,16,5.3,17,14.1c0.9,7.6-5.2,15.2-13.4,16.5c-3.4,0.6-7,0.9-10.4,0.9
		C148.8,142.1,136.7,142,124.6,142C124.6,142,124.6,142,124.6,142z"/>
	<path fill="#FFFFFF" d="M32.9,79.8c4.5,0.1,4.5,0.1,6.1-4.2c5.1-13.8,19.8-21,33.8-16.4c2.8,0.9,4.5,0.5,6.4-1.8
		c4.8-5.8,10.8-10.1,18.4-11.5c25.5-4.9,44.2,16.6,40,39.4c-0.4,2.4-1.9,3.2-3.7,3.9c-2.2,0.9-3.4-0.2-4.6-1.7
		c-4.8-5.7-10.7-9.3-18.2-10.3c-8.3-1.1-15.7,0.8-22.1,6.2c-3.6,3-6.7,6.5-8.3,11.1c-0.8,2.3-2.4,3.5-4.6,4.3
		c-6.7,2.6-11.2,7.5-12.9,14.5c-0.7,2.8-2,3.8-4.8,3.8c-7.8-0.1-15.6,0.1-23.4-0.1c-5.9-0.2-11.4-1.5-16.1-5.8
		c-5.9-5.5-6.3-14.5-4.2-20.2c2.4-6.5,9.5-11.2,16.7-11.4C31.8,79.7,32.4,79.8,32.9,79.8z"/>
</g>
</svg>
