<?xml version="1.0" encoding="utf-8"?>
<!-- Generator: Adobe Illustrator 17.1.0, SVG Export Plug-In . SVG Version: 6.00 Build 0)  -->
<!DOCTYPE svg PUBLIC "-//W3C//DTD SVG 1.1//EN" "http://www.w3.org/Graphics/SVG/1.1/DTD/svg11.dtd">
<svg version="1.1" id="Layer_1" xmlns="http://www.w3.org/2000/svg" xmlns:xlink="http://www.w3.org/1999/xlink" x="0px" y="0px"
	 viewBox="0 0 200 200" enable-background="new 0 0 200 200" xml:space="preserve">
<g>
	<path fill="#B7B7B7" d="M1.3,194.7c0-59.1,0-118.2,0-177.3c1.9-0.5,3.8-1.5,5.7-1.6c13.8-0.1,27.7-0.1,41.5,0
		c2.8,0,4.1-0.8,5.5-3.4c1.5-2.9,3.9-5.9,6.6-7.7C71.2-2,85.8,5,86.4,18.9c-1,9.9-7,16.7-15.1,17c-2.1,0.1-4.7,0.6-5.2-2.5
		c-0.5-3.2,1.9-3.8,4.3-4.3c6.3-1.3,8.5-3.9,8.8-10.1c0.2-4.8-2.3-7.7-6.5-9.4c-4-1.5-7.6-0.5-10.6,2.3c-0.8,0.8-1.2,2.1-1.8,3.2
		c1.1,0.2,2.1,0.6,3.2,0.6c2.5,0,5-0.1,5.8,3.1c-0.4,3.4-2.7,3.8-5.5,3.8c-16.2,0-32.5,0.1-48.7,0.2c-0.6,0-1.3-0.1-1.9-0.1
		c-5-0.1-5-0.1-5,5c0,6.3,0,12.5,0,18.8c0,6.8,0,6.8,6.9,6.4c12.6,0,25.1,0.1,37.7,0.1c44,0,88,0,131.9-0.1c0.6,0,1.3,0,1.9,0
		c5,0,5,0,5-5.1c0-6.1,0.1-12.3,0-18.4c-0.1-6.7,1.4-6.8-6.9-6.5c-11.3,0-22.5,0-33.8-0.2c-2.5,0-3.9,0.7-4.8,3.2
		c-2.4,5.9-7,9.3-13.4,10c-2.3,0.2-5,0.4-5.4-2.7c-0.4-3,2.1-3.7,4.5-4.1c6-1.1,8.4-4,8.9-10.2c-0.7-6.2-3.1-8.7-9.7-9.9
		c-2.3-0.4-4.1-1.3-3.6-3.9c0.5-2.5,2.4-3.1,4.7-2.8c6.6,0.9,11.6,4.1,14,10.5c1,2.5,2.3,3.2,4.8,3.1c14-0.1,27.9-0.1,41.9,0
		c1.9,0,3.8,1,5.7,1.6c0,59.1,0,118.2,0,177.3c-2.1,0.5-4.2,1.4-6.2,1.4c-61.6,0.1-123.3,0.1-184.9,0C5.5,196.1,3.4,195.2,1.3,194.7
		z M184.8,189.3c6.9,0.1,7,0.1,7-4.3c0-40.3,0-80.5,0.1-120.8c0-3.4-1-4.8-4.4-4.3c-0.9,0.1-1.8,0.1-2.7,0.1c-55.7,0-111.3,0-167,0
		c-0.9,0-1.8,0.1-2.7,0.2c-6.9-0.6-6.9-0.6-6.9,6.1c0,38.9,0,77.7,0,116.6c0,6.8,0,6.8,6.9,6.4c0.9,0,1.8,0.1,2.7,0.1
		C73.5,189.3,129.1,189.3,184.8,189.3z"/>
	<path fill="#FDFDFD" d="M1.3,194.7c2.1,0.5,4.2,1.4,6.2,1.4c61.6,0.1,123.3,0.1,184.9,0c2.1,0,4.2-0.9,6.2-1.4
		c0.6,2.6-0.4,3.2-3.1,3.2c-63.7-0.1-127.5-0.1-191.2,0C1.7,197.9,0.7,197.3,1.3,194.7z"/>
	<path fill="#E1E2E4" d="M15.1,60.1c0.9-0.1,1.8-0.2,2.7-0.2c55.7,0,111.3,0,167,0c0,43.1,0,86.2,0.1,129.4c-55.7,0-111.3,0-167,0
		c-0.9,0-1.8-0.1-2.7-0.1c0-17,0.1-33.9,0-50.9C15.1,112.2,15.1,86.2,15.1,60.1z M23.8,111.1c2.3,1.6,3.7,3.3,4.9,3.1
		c1.3-0.2,3.1-2.1,3.1-3.3c0-1.1-2-2.9-3.2-3.1C27.4,107.8,26,109.5,23.8,111.1z M171.2,115.9c1.7-2.2,3.4-3.6,3.3-4.7
		c-0.1-1.2-1.9-2.4-3-3.5c-1.2,1.1-3.1,2-3.3,3.2C168.1,112.1,169.7,113.5,171.2,115.9z M147.7,79.1c-1.7,2.2-3.5,3.6-3.3,4.7
		c0.2,1.3,2.2,2.3,3.4,3.4c1-1.2,2.7-2.3,2.9-3.7C150.9,82.6,149.2,81.3,147.7,79.1z M33.4,134.7c-2.2-1.5-3.6-3.1-4.6-2.9
		c-1.3,0.3-2.4,2-3.5,3.1c1.1,1.1,2.2,3.1,3.4,3.2C29.9,138.1,31.2,136.3,33.4,134.7z M176.2,134.8c-2.3-1.5-3.6-3.1-4.9-3
		c-1.1,0-2.2,1.9-3.3,2.9c1.2,1.2,2.3,2.9,3.8,3.4C172.6,138.3,174.1,136.4,176.2,134.8z M33.4,162c-2.3-1.5-3.7-3.2-4.9-3.1
		c-1.2,0.1-2.1,2.2-3.2,3.4c1.2,1,2.4,2.7,3.7,2.9C30,165.3,31.3,163.6,33.4,162z M100,79c-1.6,2.3-3.3,3.7-3.2,4.9
		c0.1,1.2,2.1,3.2,3,3c1.3-0.2,3.1-1.8,3.4-3.1C103.4,82.8,101.6,81.3,100,79z M147.5,115.8c1.6-2.1,3.3-3.4,3.1-4.4
		c-0.2-1.3-1.8-2.5-2.9-3.7c-1.2,1.1-3.2,2-3.3,3.2C144.3,112.1,146,113.5,147.5,115.8z M52.5,130c-1.6,2.4-3.1,3.7-3.1,5
		c0,1.1,2.1,3.2,2.8,3.1c1.4-0.3,3.2-1.8,3.4-3.1C55.8,133.8,54.1,132.4,52.5,130z M152.3,135.1c-2.1-1.6-3.4-3.4-4.6-3.3
		c-1.2,0.1-2.3,2-3.5,3.1c1.2,1.1,2.2,2.9,3.5,3.2C148.7,138.3,150.1,136.6,152.3,135.1z M57.3,162c-2.4-1.6-3.7-3.1-5.1-3.1
		c-1,0-3,2.1-2.9,3c0.2,1.3,1.9,3.1,3.1,3.3C53.6,165.3,55,163.6,57.3,162z M47.7,110.9c2.1,1.6,3.3,3.4,4.3,3.3
		c1.4-0.2,2.5-1.9,3.7-2.9c-1.1-1.2-2-3.1-3.3-3.3C51.4,107.7,50,109.4,47.7,110.9z M176.3,84c-2.4-1.6-3.7-3.1-5-3.1
		c-1.1,0-3.3,2.1-3.1,2.7c0.4,1.4,1.8,3.2,3.1,3.5C172.4,87.3,173.9,85.5,176.3,84z M81.1,134.5c-2.4-1.4-3.9-2.9-5-2.7
		c-1.2,0.3-2.7,2.2-2.8,3.5c-0.1,0.9,2.1,2.9,3.1,2.7C77.7,137.9,78.9,136.3,81.1,134.5z M128.4,134.7c-2.2-1.5-3.5-3-4.8-3
		c-1.1,0-2.2,1.9-3.2,2.9c1.2,1.2,2.3,2.9,3.8,3.4C124.9,138.3,126.3,136.4,128.4,134.7z M81.1,162.1c-2.3-1.6-3.7-3.3-4.9-3.2
		c-1.1,0.1-2.7,2.1-2.9,3.4c-0.1,0.9,1.9,2.9,3,2.9C77.5,165.2,78.8,163.6,81.1,162.1z M123.9,166.9c1.5-2.4,2.9-3.8,2.9-5.1
		c-0.1-1.1-2.2-3.2-2.9-3c-1.4,0.4-3.1,2-3.3,3.3C120.4,163.2,122.2,164.6,123.9,166.9z M76.2,79.2c-1.5,2.1-3.2,3.4-3,4.3
		c0.3,1.4,1.9,2.4,2.9,3.6c1.1-1.2,2.9-2.2,3.2-3.5C79.6,82.7,77.8,81.3,76.2,79.2z M128.6,83.6c-2.3-1.4-3.8-3-4.7-2.8
		c-1.3,0.3-2.3,2-3.4,3.2c1.1,1.1,2.2,2.9,3.3,3C125,87,126.3,85.3,128.6,83.6z M76.3,115.9c1.5-2.4,3.1-3.8,3-5.1
		c-0.1-1.1-2-2.1-3.1-3.1c-1.1,1.2-2.8,2.3-3,3.6C73.1,112.3,74.8,113.7,76.3,115.9z M128.3,111c-2-1.5-3.4-3.3-4.3-3.1
		c-1.3,0.3-2.4,2-3.5,3.1c1.2,1.1,2.2,2.9,3.6,3.1C124.9,114.4,126.3,112.6,128.3,111z M104.4,111.3c-1.9-1.6-3.3-3.5-4.1-3.3
		c-1.3,0.3-2.9,1.9-3.1,3.2c-0.2,0.9,1.7,2.9,2.9,3C101.1,114.3,102.4,112.7,104.4,111.3z M104.4,135.1c-1.9-1.6-3.3-3.5-4.1-3.3
		c-1.3,0.3-2.9,1.9-3.1,3.2c-0.2,0.9,1.7,2.8,2.9,3C101.1,138.2,102.4,136.5,104.4,135.1z M99.9,157.2c-1.4,2.3-3,3.7-2.8,4.7
		c0.3,1.3,2,2.3,3.1,3.4c0.9-1.2,2.6-2.3,2.6-3.5C103,160.7,101.4,159.4,99.9,157.2z"/>
	<path fill="#EFEFEF" d="M127.3,18.9c4.5,0,9,0,13.5,0c-0.5,6.2-2.9,9-8.9,10.2c-2.4,0.5-4.9,1.1-4.5,4.1c0.4,3.1,3.1,2.9,5.4,2.7
		c6.4-0.7,11-4.1,13.4-10c1-2.5,2.3-3.2,4.8-3.2c11.3,0.2,22.5,0.1,33.8,0.2c0,10,0,20,0,30c-44,0-88,0.1-131.9,0.1
		c-12.6,0-25.1-0.1-37.7-0.1c0-10,0-20,0-30c16.2-0.1,32.5-0.1,48.7-0.2c2.8,0,5.2-0.4,5.5-3.8c3.3,0,6.6,0.1,9.9,0.1
		c-0.3,6.3-2.5,8.9-8.8,10.1c-2.4,0.5-4.8,1-4.3,4.3c0.5,3.1,3,2.6,5.2,2.5c8.1-0.3,14.1-7.2,15.1-17c4.5,0,9,0,13.5,0
		c-0.5,6.2-3,9-8.9,10.2c-2.4,0.5-4.9,1.1-4.5,4.1c0.4,3.1,3.1,2.9,5.4,2.7c8.3-0.5,14.2-7.2,15.1-17c4.4,0,8.7,0,13.1,0
		c-0.2,6.1-2.7,8.9-9.2,10.2c-2.2,0.4-4,1.2-3.9,3.9c0.2,2.9,2.2,3,4.4,3C119.9,35.9,126.2,29.1,127.3,18.9z"/>
	<path fill="#FDFDFD" d="M15.1,60.1c0,26.1,0.1,52.1,0.1,78.2c0,17,0,33.9,0,50.9c-6.9,0.4-6.9,0.4-6.9-6.4c0-38.9,0-77.7,0-116.6
		C8.2,59.5,8.2,59.5,15.1,60.1z"/>
	<path fill="#CCCCCC" d="M184.8,189.3c0-43.1,0-86.2-0.1-129.4c0.9,0,1.8,0,2.7-0.1c3.4-0.4,4.4,1,4.4,4.3
		c-0.1,40.3-0.1,80.5-0.1,120.8C191.7,189.4,191.7,189.4,184.8,189.3z"/>
	<path fill="#FDFDFD" d="M15.2,22.9c0,10,0,20,0,30c-6.9,0.4-6.9,0.4-6.9-6.4c0-6.3,0-12.5,0-18.8c0-5,0-5,5-5
		C13.9,22.8,14.5,22.9,15.2,22.9z"/>
	<path fill="#E1E2E4" d="M184.8,52.9c0-10,0-20,0-30c8.3-0.2,6.9-0.2,6.9,6.5c0.1,6.1,0,12.3,0,18.4c0,5.1,0,5.1-5,5.1
		C186.1,52.9,185.5,52.9,184.8,52.9z"/>
	<path fill="#B7B7B7" d="M107,18.9c-0.9,9.8-6.8,16.5-15.1,17c-2.3,0.1-5,0.4-5.4-2.7c-0.4-3,2.1-3.7,4.5-4.1c6-1.2,8.4-4,8.9-10.2
		c-0.6-5.8-3.4-8.9-9-9.9C88.4,8.6,86,8,86.6,5c0.6-3.2,3.3-3,5.8-2.6C100.8,3.9,105.5,9.2,107,18.9z"/>
	<path fill="#B7B7B7" d="M127.3,18.9c-1.1,10.2-7.4,17-15.9,17.1c-2.2,0-4.3-0.1-4.4-3c-0.1-2.7,1.7-3.4,3.9-3.9
		c6.5-1.2,9.1-4,9.2-10.2c-0.2-5.6-2.9-8.9-8.7-9.9c-2.5-0.4-4.8-1-4.3-4.1c0.6-3.3,3.3-3,5.8-2.6C121.3,3.9,126.1,9.3,127.3,18.9z"
		/>
	<path fill="#B7B7B7" d="M23.8,111.1c2.3-1.6,3.6-3.3,4.8-3.2c1.2,0.1,3.2,2,3.2,3.1c0,1.2-1.9,3.1-3.1,3.3
		C27.5,114.4,26.1,112.7,23.8,111.1z"/>
	<path fill="#B7B7B7" d="M171.2,115.9c-1.5-2.4-3.1-3.8-3-5c0.2-1.2,2.1-2.2,3.3-3.2c1.1,1.2,2.9,2.3,3,3.5
		C174.6,112.4,172.9,113.7,171.2,115.9z"/>
	<path fill="#B7B7B7" d="M147.7,79.1c1.5,2.1,3.2,3.5,3,4.4c-0.3,1.4-1.9,2.5-2.9,3.7c-1.2-1.1-3.1-2.1-3.4-3.4
		C144.2,82.8,146,81.3,147.7,79.1z"/>
	<path fill="#B7B7B7" d="M33.4,134.7c-2.2,1.7-3.5,3.4-4.7,3.4c-1.2-0.1-2.2-2-3.4-3.2c1.2-1.1,2.2-2.8,3.5-3.1
		C29.8,131.6,31.2,133.2,33.4,134.7z"/>
	<path fill="#B7B7B7" d="M176.2,134.8c-2.1,1.7-3.6,3.5-4.4,3.3c-1.5-0.5-2.5-2.2-3.8-3.4c1.1-1,2.2-2.9,3.3-2.9
		C172.6,131.7,173.9,133.3,176.2,134.8z"/>
	<path fill="#B7B7B7" d="M33.4,162c-2.1,1.6-3.4,3.3-4.4,3.2c-1.3-0.2-2.5-1.9-3.7-2.9c1-1.2,2-3.3,3.2-3.4
		C29.7,158.8,31.1,160.4,33.4,162z"/>
	<path fill="#B7B7B7" d="M100,79c1.6,2.3,3.4,3.8,3.2,4.8c-0.3,1.3-2.1,2.9-3.4,3.1c-0.9,0.1-2.9-1.9-3-3
		C96.7,82.7,98.3,81.4,100,79z"/>
	<path fill="#B7B7B7" d="M147.5,115.8c-1.5-2.3-3.2-3.7-3.1-4.9c0.2-1.2,2.1-2.2,3.3-3.2c1,1.2,2.7,2.4,2.9,3.7
		C150.8,112.4,149.1,113.7,147.5,115.8z"/>
	<path fill="#B7B7B7" d="M52.5,130c1.6,2.4,3.3,3.9,3.1,5c-0.2,1.3-2,2.8-3.4,3.1c-0.7,0.2-2.8-2-2.8-3.1
		C49.3,133.7,50.9,132.4,52.5,130z"/>
	<path fill="#B7B7B7" d="M152.3,135.1c-2.2,1.5-3.6,3.2-4.6,3c-1.3-0.3-2.4-2.1-3.5-3.2c1.2-1.1,2.2-3,3.5-3.1
		C148.8,131.7,150.1,133.5,152.3,135.1z"/>
	<path fill="#B7B7B7" d="M57.3,162c-2.3,1.6-3.7,3.3-4.8,3.2c-1.2-0.2-2.9-2-3.1-3.3c-0.1-0.9,1.8-3,2.9-3
		C53.6,158.9,54.9,160.4,57.3,162z"/>
	<path fill="#B7B7B7" d="M47.7,110.9c2.2-1.5,3.7-3.2,4.8-3c1.2,0.2,2.2,2.2,3.3,3.3c-1.2,1.1-2.4,2.7-3.7,2.9
		C51.1,114.3,49.8,112.5,47.7,110.9z"/>
	<path fill="#B7B7B7" d="M176.3,84c-2.4,1.6-3.9,3.3-4.9,3.1c-1.3-0.3-2.7-2.1-3.1-3.5c-0.2-0.7,2-2.7,3.1-2.7
		C172.6,80.8,173.9,82.4,176.3,84z"/>
	<path fill="#B7B7B7" d="M81.1,134.5c-2.2,1.8-3.4,3.4-4.8,3.6c-1,0.1-3.1-1.9-3.1-2.7c0.1-1.3,1.6-3.3,2.8-3.5
		C77.2,131.6,78.7,133.1,81.1,134.5z"/>
	<path fill="#B7B7B7" d="M128.4,134.7c-2,1.7-3.5,3.6-4.2,3.3c-1.5-0.5-2.5-2.2-3.8-3.4c1.1-1,2.1-2.9,3.2-2.9
		C124.8,131.7,126.2,133.3,128.4,134.7z"/>
	<path fill="#B7B7B7" d="M81.1,162.1c-2.3,1.5-3.6,3-4.9,3c-1.1,0-3.1-2-3-2.9c0.1-1.3,1.8-3.3,2.9-3.4
		C77.4,158.8,78.8,160.5,81.1,162.1z"/>
	<path fill="#B7B7B7" d="M123.9,166.9c-1.7-2.3-3.5-3.7-3.3-4.8c0.2-1.3,1.9-2.8,3.3-3.3c0.6-0.2,2.8,1.9,2.9,3
		C126.8,163.1,125.4,164.5,123.9,166.9z"/>
	<path fill="#B7B7B7" d="M76.2,79.2c1.6,2.1,3.3,3.5,3.1,4.4C79,85,77.3,86,76.1,87.2c-1-1.2-2.7-2.3-2.9-3.6
		C73,82.6,74.7,81.2,76.2,79.2z"/>
	<path fill="#B7B7B7" d="M128.6,83.6c-2.3,1.7-3.6,3.4-4.8,3.4c-1.1,0-2.2-1.9-3.3-3c1.1-1.1,2.1-2.8,3.4-3.2
		C124.8,80.6,126.2,82.1,128.6,83.6z"/>
	<path fill="#B7B7B7" d="M76.3,115.9c-1.6-2.2-3.3-3.6-3.1-4.6c0.2-1.3,1.9-2.4,3-3.6c1.1,1,3.1,2,3.1,3.1
		C79.4,112.1,77.9,113.5,76.3,115.9z"/>
	<path fill="#B7B7B7" d="M128.3,111c-2,1.6-3.4,3.4-4.3,3.2c-1.3-0.3-2.4-2-3.6-3.1c1.2-1.1,2.2-2.9,3.5-3.1
		C124.9,107.7,126.3,109.5,128.3,111z"/>
	<path fill="#B7B7B7" d="M104.4,111.3c-2,1.4-3.3,3.1-4.4,2.9c-1.1-0.2-3-2.1-2.9-3c0.2-1.3,1.8-2.9,3.1-3.2
		C101.1,107.7,102.5,109.6,104.4,111.3z"/>
	<path fill="#B7B7B7" d="M104.4,135.1c-2,1.5-3.3,3.1-4.4,2.9c-1.1-0.1-3-2.1-2.9-3c0.2-1.3,1.8-2.9,3.1-3.2
		C101.1,131.6,102.5,133.5,104.4,135.1z"/>
	<path fill="#B7B7B7" d="M99.9,157.2c1.5,2.2,3,3.5,3,4.6c-0.1,1.2-1.7,2.3-2.6,3.5c-1.1-1.1-2.9-2.1-3.1-3.4
		C96.9,160.9,98.5,159.5,99.9,157.2z"/>
</g>
</svg>
