<?xml version="1.0" encoding="utf-8"?>
<!-- Generator: Adobe Illustrator 17.1.0, SVG Export Plug-In . SVG Version: 6.00 Build 0)  -->
<!DOCTYPE svg PUBLIC "-//W3C//DTD SVG 1.1//EN" "http://www.w3.org/Graphics/SVG/1.1/DTD/svg11.dtd">
<svg version="1.1" id="Layer_1" xmlns="http://www.w3.org/2000/svg" xmlns:xlink="http://www.w3.org/1999/xlink" x="0px" y="0px"
	 viewBox="0 0 200 200" enable-background="new 0 0 200 200" xml:space="preserve">
<g>
	<path fill="#E9E9E9" d="M51.4,199.1c-6.4-1.6-12.3-3.9-17.2-8.9c-10-10.4-11.3-25.9-2.4-37.4c1.9-2.4,2.6-4.8,2.6-7.8
		c-0.1-40.3,0-80.6,0-120.9c0-12.2,3.7-17.7,14.9-22.4c0.5-0.2,0.9-0.5,1.3-0.8c2.8,0,5.7,0,8.5,0c5.1,2.6,11,4.6,13.3,10.5
		c1.4,3.6,2.8,7.6,2.9,11.4c0.2,40.5,0.2,80.9,0.1,121.4c0,3.6,0.8,6.6,3,9.6c11,15.2,3.7,37.5-14.1,43.4c-1.9,0.6-3.9,1.2-5.9,1.8
		C56,199.1,53.7,199.1,51.4,199.1z M66.1,91.6c0-2.6,0-5.3,0-7.9c0.3-2.8,0.7-5.6,0.7-8.4c0.1-17.9,0.1-35.9,0-53.8
		c0-6.4-4-11.1-9.9-11.9c-6.8-1-12.1,2.4-13.9,8.9c-0.5,2-0.8,4.1-0.9,6.1c-0.1,18.1-0.1,36.1,0,54.2c0,1.6,0.5,3.3,0.7,4.9
		c0,2.7,0,5.3,0,8c-0.3,1.9-0.7,3.8-0.7,5.7c-0.1,17.4-0.1,34.8,0,52.2c0,2.7-0.7,4.9-2.6,6.9c-6.4,6.7-7,17.7-1.6,25.4
		c5.6,7.9,16.1,11,24.8,7.3c13.3-5.8,16.8-21.7,7-33.1c-2.1-2.5-2.8-4.9-2.8-8c0.1-16.9,0.1-33.8,0-50.7
		C66.8,95.4,66.4,93.5,66.1,91.6z"/>
	<path fill="#A2A2A2" d="M129,124.9c-13.7,0-24.7-10.9-24.7-24.5c0-13.5,11.1-24.7,24.6-24.7c13.9,0,24.8,10.9,24.7,24.8
		C153.6,114.1,142.8,124.9,129,124.9z M112.6,100.5c0,8.6,7.9,16.4,16.4,16.4c9-0.1,16.7-7.8,16.6-16.5c-0.1-8.9-7.9-16.6-16.6-16.5
		C120.1,83.9,112.5,91.6,112.6,100.5z"/>
	<path fill="#A3A3A3" d="M133.4,63.2c-0.1,1.3,0,2.6-0.2,3.9c-0.4,2.4-1.5,4.3-4.2,4.2c-2.6-0.1-3.9-1.9-4-4.3
		c-0.1-2.4-0.1-4.9,0-7.3c0.1-2.5,1.3-4.3,4-4.3c2.7-0.1,3.8,1.8,4.2,4.1C133.4,60.6,133.3,61.9,133.4,63.2z"/>
	<path fill="#A3A3A3" d="M92,104.7c-1.7-0.2-3.6,0.1-4.9-0.7c-1.3-0.7-2.9-2.5-2.9-3.8c0-1.3,1.7-3.5,3-3.7c3.1-0.5,6.5-0.5,9.6,0
		c1.3,0.2,3,2.4,3.1,3.7c0,1.3-1.6,3.1-2.9,3.8C95.6,104.8,93.7,104.5,92,104.7z"/>
	<path fill="#A3A3A3" d="M166.1,96.2c1.4,0,3.1-0.5,4.2,0.1c1.6,0.9,3.5,2.4,3.8,3.9c0.2,1.1-1.9,3.5-3.3,3.8c-3,0.6-6.2,0.6-9.2,0
		c-1.4-0.3-3-2.4-3.3-3.9c-0.4-2.4,1.5-3.7,3.8-3.9C163.5,96.1,164.8,96.2,166.1,96.2z"/>
	<path fill="#A3A3A3" d="M124.9,137.5c0.1-1.5-0.3-3.3,0.3-4.6c0.7-1.4,2.2-3.2,3.5-3.3c1.3-0.1,3.7,1.5,3.9,2.6
		c0.5,3.4,0.6,6.9,0,10.3c-0.2,1.2-2.6,2.8-3.9,2.7c-1.3-0.1-2.9-1.8-3.6-3.2C124.6,140.8,124.9,139.1,124.9,137.5z"/>
	<path fill="#B3B3B3" d="M162.1,130.3c-0.4,0.5-1,2.1-2,2.5c-1.3,0.5-3.3,0.4-4.3-0.3c-2.4-1.9-4.6-4.1-6.5-6.5
		c-0.7-0.9-0.7-3-0.1-4.2c0.5-1,2.2-1.9,3.4-2C155.2,119.5,162.1,126.7,162.1,130.3z"/>
	<path fill="#B3B3B3" d="M162.1,70.6c-0.2,3.4-6.4,10.1-9,10.1c-1.3,0-3.2-0.8-3.8-1.8c-0.6-1-0.6-3.2,0.1-4.1
		c1.9-2.5,4.2-4.8,6.7-6.8c0.9-0.7,3-0.6,4.2-0.1C161.3,68.4,161.7,70.1,162.1,70.6z"/>
	<path fill="#B3B3B3" d="M109.5,76.9c-0.1,3.2-3.4,5-6.1,3c-2.5-1.9-4.9-4.3-6.7-6.8c-1.8-2.5,0-5.7,3-5.9
		C102.6,67.1,109.5,73.9,109.5,76.9z"/>
	<path fill="#B3B3B3" d="M109.5,123.6c0.1,3.1-6.3,9.6-9.4,9.7c-3,0.1-5.3-3.2-3.5-5.5c2.1-2.8,4.8-5.4,7.6-7.5
		C106.5,118.5,109.4,120.6,109.5,123.6z"/>
	<path fill="#F7F7F7" d="M42.9,83.6c-0.3-1.6-0.7-3.3-0.7-4.9c-0.1-18.1-0.1-36.1,0-54.2c0-2,0.3-4.1,0.9-6.1
		c1.8-6.5,7.1-9.8,13.9-8.9c5.9,0.8,9.9,5.5,9.9,11.9c0.1,17.9,0.1,35.9,0,53.8c0,2.8-0.5,5.6-0.7,8.4c-3.5,3.1-3.5,4.8,0,7.9
		c0.3,1.9,0.7,3.8,0.7,5.7c0.1,16.9,0.1,33.8,0,50.7c0,3.1,0.7,5.6,2.8,8c9.8,11.5,6.3,27.4-7,33.1c-8.6,3.7-19.2,0.6-24.8-7.3
		c-5.4-7.7-4.8-18.6,1.6-25.4c2-2.1,2.6-4.2,2.6-6.9c-0.1-17.4-0.1-34.8,0-52.2c0-1.9,0.5-3.8,0.7-5.7C47.3,89,47.3,86.2,42.9,83.6z
		 M59,101.5c0-17,0-34,0-51c0-1.3,0-2.6-0.1-3.9c-0.3-2.4-1.5-4.3-4.1-4.2c-2.6,0-3.9,1.8-4.1,4.3c-0.1,1.3,0,2.6,0,3.9
		c0,34.5,0,69.1,0,103.6c0,2.6-0.4,4.4-2.9,6c-4.7,3-6.4,8.7-4.7,14c1.6,4.9,6.7,8.4,11.8,8.4c5.1-0.1,9.8-3.5,11.5-8.3
		c1.8-5.2,0.1-10.9-4.6-14c-2.3-1.5-2.9-3.2-2.9-5.7C59,136.8,59,119.2,59,101.5z"/>
	<path fill="#5B5B5B" d="M42.9,83.6c4.4,2.6,4.4,5.4,0,8C42.9,89,42.9,86.3,42.9,83.6z"/>
	<path fill="#4E4E4E" d="M66.1,91.6c-3.5-3.1-3.5-4.8,0-7.9C66.1,86.3,66.1,88.9,66.1,91.6z"/>
	<path fill="#B2B2B2" d="M112.6,100.5c0-8.8,7.5-16.6,16.4-16.7c8.7-0.1,16.5,7.7,16.6,16.5c0.1,8.8-7.6,16.4-16.6,16.5
		C120.5,116.9,112.6,109.1,112.6,100.5z"/>
	<path fill="#666666" d="M59,101.5c0,17.7,0,35.3,0,53c0,2.5,0.5,4.2,2.9,5.7c4.7,3,6.4,8.8,4.6,14c-1.7,4.9-6.3,8.3-11.5,8.3
		c-5.2,0.1-10.3-3.5-11.8-8.4c-1.7-5.3-0.1-11,4.7-14c2.5-1.6,2.9-3.4,2.9-6c-0.1-34.5,0-69.1,0-103.6c0-1.3,0-2.6,0-3.9
		c0.2-2.5,1.4-4.2,4.1-4.3c2.7,0,3.9,1.8,4.1,4.2c0.1,1.3,0.1,2.6,0.1,3.9C59,67.5,59,84.5,59,101.5z M58.8,171.5
		c-0.6-3.3-1.7-4.8-4.2-4.8c-2.2,0-4.2,1.1-3.7,3.3c0.4,1.6,2.2,3.4,3.7,3.9C55.7,174.2,57.4,172.4,58.8,171.5z"/>
	<path fill="#777777" d="M58.8,171.5c-1.4,0.9-3.1,2.7-4.2,2.4c-1.6-0.5-3.4-2.3-3.7-3.9c-0.5-2.2,1.4-3.4,3.7-3.3
		C57.1,166.7,58.3,168.2,58.8,171.5z"/>
</g>
</svg>
