<?xml version="1.0" encoding="utf-8"?>
<!-- Generator: Adobe Illustrator 17.1.0, SVG Export Plug-In . SVG Version: 6.00 Build 0)  -->
<!DOCTYPE svg PUBLIC "-//W3C//DTD SVG 1.1//EN" "http://www.w3.org/Graphics/SVG/1.1/DTD/svg11.dtd">
<svg version="1.1" id="Layer_1" xmlns="http://www.w3.org/2000/svg" xmlns:xlink="http://www.w3.org/1999/xlink" x="0px" y="0px"
	 viewBox="0 0 1948 2000" enable-background="new 0 0 1948 2000" xml:space="preserve">
<g>
	<path fill="#FFFFFF" d="M521.1,1991c-64-16-123-39-172-89c-100-104-113-259-24-374c19-24,26-48,26-78c-1-403,0-806,0-1209
		c0-122,37-177,149-224c5-2,9-5,13-8c28,0,57,0,85,0c51,26,110,46,133,105c14,36,28,76,29,114c2,405,2,809,1,1214c0,36,8,66,30,96
		c110,152,37,375-141,434c-19,6-39,12-59,18C567.1,1991,544.1,1991,521.1,1991z M668.1,916c0-26,0-53,0-79c3-28,7-56,7-84
		c1-179,1-359,0-538c0-64-40-111-99-119c-68-10-121,24-139,89c-5,20-8,41-9,61c-1,181-1,361,0,542c0,16,5,33,7,49c0,27,0,53,0,80
		c-3,19-7,38-7,57c-1,174-1,348,0,522c0,27-7,49-26,69c-64,67-70,177-16,254c56,79,161,110,248,73c133-58,168-217,70-331
		c-21-25-28-49-28-80c1-169,1-338,0-507C675.1,954,671.1,935,668.1,916z"/>
	<path fill="#FFFFFF" d="M1297.1,1249c-137,0-247-109-247-245c0-135,111-247,246-247c139,0,248,109,247,248
		C1543.1,1141,1435.1,1249,1297.1,1249z M1133.1,1005c0,86,79,164,164,164c90-1,167-78,166-165c-1-89-79-166-166-165
		C1208.1,839,1132.1,916,1133.1,1005z"/>
	<path fill="#FFFFFF" d="M1341.1,632c-1,13,0,26-2,39c-4,24-15,43-42,42c-26-1-39-19-40-43c-1-24-1-49,0-73c1-25,13-43,40-43
		c27-1,38,18,42,41C1341.1,606,1340.1,619,1341.1,632z"/>
	<path fill="#FFFFFF" d="M927.1,1047c-17-2-36,1-49-7c-13-7-29-25-29-38c0-13,17-35,30-37c31-5,65-5,96,0c13,2,30,24,31,37
		c0,13-16,31-29,38C963.1,1048,944.1,1045,927.1,1047z"/>
	<path fill="#FFFFFF" d="M1668.1,962c14,0,31-5,42,1c16,9,35,24,38,39c2,11-19,35-33,38c-30,6-62,6-92,0c-14-3-30-24-33-39
		c-4-24,15-37,38-39C1642.1,961,1655.1,962,1668.1,962z"/>
	<path fill="#FFFFFF" d="M1256.1,1375c1-15-3-33,3-46c7-14,22-32,35-33c13-1,37,15,39,26c5,34,6,69,0,103c-2,12-26,28-39,27
		c-13-1-29-18-36-32C1253.1,1408,1256.1,1391,1256.1,1375z"/>
	<path fill="#FFFFFF" d="M1628.1,1303c-4,5-10,21-20,25c-13,5-33,4-43-3c-24-19-46-41-65-65c-7-9-7-30-1-42c5-10,22-19,34-20
		C1559.1,1195,1628.1,1267,1628.1,1303z"/>
	<path fill="#FFFFFF" d="M1628.1,706c-2,34-64,101-90,101c-13,0-32-8-38-18s-6-32,1-41c19-25,42-48,67-68c9-7,30-6,42-1
		C1620.1,684,1624.1,701,1628.1,706z"/>
	<path fill="#FFFFFF" d="M1102.1,769c-1,32-34,50-61,30c-25-19-49-43-67-68s0-57,30-59C1033.1,671,1102.1,739,1102.1,769z"/>
	<path fill="#FFFFFF" d="M1102.1,1236c1,31-63,96-94,97c-30,1-53-32-35-55c21-28,48-54,76-75C1072.1,1185,1101.1,1206,1102.1,1236z"
		/>
	<path fill="#FFFFFF" d="M436.1,836c44,26,44,54,0,80C436.1,890,436.1,863,436.1,836z"/>
	<path fill="#FFFFFF" d="M668.1,916c-35-31-35-48,0-79C668.1,863,668.1,889,668.1,916z"/>
	<path fill="#FFFFFF" d="M597.1,1015c0,177,0,353,0,530c0,25,5,42,29,57c47,30,64,88,46,140c-17,49-63,83-115,83
		c-52,1-103-35-118-84c-17-53-1-110,47-140c25-16,29-34,29-60c-1-345,0-691,0-1036c0-13,0-26,0-39c2-25,14-42,41-43
		c27,0,39,18,41,42c1,13,1,26,1,39C597.1,675,597.1,845,597.1,1015z M595.1,1715c-6-33-17-48-42-48c-22,0-42,11-37,33
		c4,16,22,34,37,39C564.1,1742,581.1,1724,595.1,1715z"/>
</g>
</svg>
