<?xml version="1.0" encoding="utf-8"?>
<!-- Generator: Adobe Illustrator 17.1.0, SVG Export Plug-In . SVG Version: 6.00 Build 0)  -->
<!DOCTYPE svg PUBLIC "-//W3C//DTD SVG 1.1//EN" "http://www.w3.org/Graphics/SVG/1.1/DTD/svg11.dtd">
<svg version="1.1" id="Layer_1" xmlns="http://www.w3.org/2000/svg" xmlns:xlink="http://www.w3.org/1999/xlink" x="0px" y="0px"
	 viewBox="0 0 200 200" enable-background="new 0 0 200 200" xml:space="preserve">
<g>
	<path fill="#B8B6B6" d="M199.2,107.4c-3.6,13.8-14.7,19.6-28,14.4c-2.5-1-4.8-2.5-7.3-3.6c-1.5-0.7-3.1-1.1-4.6-1.7
		c4.3-0.8,8.6-1.5,12.9-2.3c4.3-0.8,8.6-1.6,12.9-2.5c1.6-0.4,3.4-1.3,2.8-3.5c-0.7-2.4-2.7-1.7-4.5-1.4c-7.5,1.2-15,2.3-22.5,3.4
		c2.9-6.2,7.7-10.1,14.4-11.3c7.5-1.3,15.1-1.9,21.6-6.9c2.3-1.8,1.7,1.5,2.4,2.6c0,0.5,0,1,0,1.6c0,0.5,0,1.1,0,1.6
		c0.2,1.1,0.5,2.1,0.7,3.2c0,0.8,0,1.6,0,2.3c-0.2,0.8-0.5,1.6-0.7,2.4C199.1,106.3,199.1,106.8,199.2,107.4z"/>
	<path fill="#B8B6B6" d="M0.8,78.2c1.4-0.7,2.8-2.1,4.2-2.1C26.3,76,47.7,76,69,76c3.1,0,4.9,1.5,4.9,3.8c0,2.4-1.8,4-5.2,4
		c-12.6,0.1-25.2,0-37.8,0c-8.2,0-16.4,0-24.6,0c-2.1,0-4.2,0.1-5.4-2.2c-0.2-0.6-0.5-1.1-0.7-1.7c0-0.3,0-0.5,0-0.8
		C0.4,78.9,0.6,78.5,0.8,78.2z"/>
	<path fill="#B8B6B6" d="M199.8,101.1c-0.2-1.1-0.5-2.1-0.7-3.1c0.2,0,0.5,0,0.7,0C199.8,99,199.8,100,199.8,101.1z"/>
	<path fill="#B8B6B6" d="M199.1,105.8c0.2-0.8,0.5-1.6,0.7-2.4c0,0.8,0,1.6,0,2.3C199.6,105.7,199.3,105.8,199.1,105.8z"/>
	<path fill="#B8B6B6" d="M0.2,80c0.2,0.6,0.5,1.1,0.7,1.7c-0.2,0-0.5-0.1-0.7-0.1C0.2,81,0.2,80.5,0.2,80z"/>
	<path fill="#B8B6B6" d="M199.1,96.3c0-0.5,0-1,0-1.6c0.2,0,0.5,0,0.7,0c0,0.5,0,1,0,1.6C199.6,96.4,199.3,96.3,199.1,96.3z"/>
	<path fill="#B8B6B6" d="M199.1,96.3c0.2,0,0.5,0,0.7,0.1c0,0.5,0,1,0,1.6c-0.2,0-0.5,0-0.7,0C199.1,97.4,199.1,96.8,199.1,96.3z"/>
	<path fill="#B8B6B6" d="M199.1,105.8c0.2,0,0.5,0,0.7,0c0,0.5,0,1,0,1.6c-0.2,0.1-0.4,0.1-0.7,0.1
		C199.1,106.8,199.1,106.3,199.1,105.8z"/>
	<path fill="#B8B6B6" d="M0.8,78.2c-0.2,0.4-0.4,0.7-0.7,1.1c0-0.3,0-0.5,0-0.8C0.4,78.2,0.6,78.2,0.8,78.2z"/>
	<path fill="#B8B6B6" d="M152.2,147.1c7.3,0,14.5-0.2,21.8,0c12.7,0.5,21.1,12.4,17.1,24.4c-2.2,6.7-7,11-14,12.1
		c-5,0.8-10.1,0.6-15.1,0.6c-2.4,0-4.4-1.1-4.4-3.9c0-2.8,1.9-3.8,4.4-3.8c2.6,0,5.2,0,7.8-0.1c1.9-0.1,3.9-0.2,5.8-0.5
		c4.7-0.9,8.1-4.7,8.5-9.3c0.4-4.8-2.4-9.4-7.1-10.9c-1.9-0.6-4.1-0.8-6.1-0.8c-12.7-0.1-25.4,0-38.2,0c-1,0-2.1,0-3.1,0
		c-3.4-0.1-5.3-1.6-5.1-4c0.3-2.9,2.4-3.8,5-3.8C137.1,147.1,144.6,147.1,152.2,147.1C152.2,147.1,152.2,147.1,152.2,147.1z"/>
	<path fill="#B8B6B6" d="M119.9,83.9c-8.7,0-17.4,0-26.1,0c-1.3,0-2.9,0.3-3.8-0.3c-1.3-0.9-2.7-2.4-3-3.9c-0.4-2,1.2-3.3,3.3-3.5
		c1.3-0.1,2.6-0.1,3.9-0.1c16.9,0,33.8,0,50.6,0c1.9,0,3.9-0.2,5.7-0.8c2.7-1,4.1-3.2,3.9-6.1c-0.1-2.8-2.3-5.1-5.2-5.4
		c-2.7-0.3-5.4-0.1-8.2-0.3c-3.3-0.2-5.3-1.7-5.1-4.1c0.2-3.1,2.5-3.9,4.9-3.9c3.7,0,7.6,0,11.2,0.7c6.6,1.4,11,8.2,10.3,15
		c-0.7,7.1-6.5,12.5-14,12.6C138.8,84,129.4,83.8,119.9,83.9C119.9,83.8,119.9,83.9,119.9,83.9z"/>
	<path fill="#B8B6B6" d="M68.1,154.9c-14.4,0-28.8,0-43.3,0c-1.2,0-2.3,0-3.5-0.1c-2.2-0.1-3.8-1.3-3.9-3.6
		c-0.1-2.5,1.4-3.8,3.8-4.1c1.1-0.2,2.3-0.1,3.5-0.1c28.8,0,57.7,0,86.5,0c1.4,0,3.2-0.3,4.2,0.3c1.3,0.9,2.8,2.6,2.8,3.9
		c0,1.1-1.8,2.6-3.1,3.3c-1,0.6-2.5,0.2-3.8,0.2C97,154.9,82.5,154.9,68.1,154.9z"/>
	<path fill="#B8B6B6" d="M96.5,108.7c-11.6,0-23.1,0-34.7,0c-1.7,0-3.5,0-4.9-0.7c-1.2-0.6-2.5-2.2-2.5-3.4c0-1.2,1.3-2.8,2.5-3.4
		c1.3-0.7,3-0.7,4.5-0.7c23.6,0,47.3,0,70.9,0c1.5,0,3.3,0,4.6,0.7c1.2,0.6,2.5,2.2,2.5,3.4c0,1.2-1.3,2.8-2.5,3.4
		c-1.4,0.7-3.3,0.7-4.9,0.7C120.1,108.7,108.3,108.7,96.5,108.7z"/>
	<path fill="#B8B6B6" d="M143.6,32.2c7.4,0.8,15.1,0.8,22.2,2.6c11.8,3.1,20.1,14.6,20.8,26.8c0.2,3.9-0.9,5.7-3.4,5.9
		c-2.5,0.2-4-1.6-4.4-5.3c-1.2-10.7-7.4-18.1-17.2-20.6c-2.5-0.6-5.1-0.7-7.7-0.7c-7.8-0.1-15.6,0-23.3,0c-0.8,0-1.6,0-2.3,0
		c-3.8-0.1-5.6-1.4-5.7-3.9c-0.1-2.7,1.7-4,5.8-4c5.1,0,10.1,0,15.2,0C143.6,32.7,143.6,32.4,143.6,32.2z"/>
	<path fill="#B8B6B6" d="M72.8,16c4.9,1.7,9,4.4,12.5,8.3c5.2,5.8,4.8,12.4,2.8,19.1c-2,6.6-6.7,10.7-13.6,11.8
		c0.4-1.2,0.9-2.4,1.2-3.7c1.5-5.1,3.1-10.1,4.4-15.2c0.6-2.2,1.7-5.6-1.5-6.3c-3.5-0.7-2.8,3-3.5,5.2c-2,6.1-4.1,12.2-6.2,18.2
		c-5-5.6-4.9-12-2.5-18.5c1.3-3.5,3.1-6.8,4.7-10.2c1.2-2.5,2-5.1,0.8-7.8C72.1,16.6,72.4,16.3,72.8,16z"/>
	<path fill="#B8B6B6" d="M105.9,124.7c6.4,0,12.7,0,19.1,0c1.4,0,3.1-0.1,4.2,0.6c1.1,0.7,2.4,2.3,2.4,3.5c0,1.2-1.3,2.7-2.5,3.4
		c-1,0.6-2.5,0.5-3.8,0.5c-13.1,0-26.2,0-39.3,0c-4.5,0-6.4-1.2-6.5-3.9c-0.1-2.8,1.9-4.1,6.6-4.2
		C92.6,124.7,99.2,124.7,105.9,124.7z"/>
	<path fill="#B8B6B6" d="M50.1,132.8c-4.9,0-9.9,0-14.8,0c-1.3,0-2.6-0.1-3.9-0.3c-2.3-0.3-4-1.4-3.9-4c0.1-2.6,1.9-3.5,4.1-3.8
		c0.9-0.1,1.8-0.1,2.7-0.1c10.5,0,21,0,31.5,0c1.3,0,2.6,0.1,3.9,0.3c2.1,0.4,4,1.7,3.4,3.9c-0.3,1.4-2,2.9-3.4,3.6
		c-1.3,0.7-3,0.4-4.6,0.4C60.2,132.9,55.1,132.8,50.1,132.8z"/>
	<path fill="#B8B6B6" d="M23.9,108.5c-3,0-5.9,0.1-8.9,0c-2.4-0.1-4.4-1.2-4.5-3.9c0-2.7,1.9-3.9,4.4-4c6.1-0.1,12.1-0.1,18.2,0
		c2.4,0,4.4,1.1,4.4,3.9c0,2.8-1.9,3.8-4.3,4C30.2,108.6,27,108.5,23.9,108.5C23.9,108.5,23.9,108.5,23.9,108.5z"/>
	<path fill="#8E8E8E" d="M68.8,53.5c2.1-6.1,4.2-12.1,6.2-18.2c0.7-2.2,0-5.9,3.5-5.2c3.2,0.6,2.1,4,1.5,6.3
		c-1.3,5.1-2.9,10.1-4.4,15.2c-0.4,1.2-0.8,2.4-1.2,3.7c-0.8,1.3-1.6,2.7-2.3,4c-0.9,1.7-1.8,3.5-4.1,2.5c-2.2-1-1.6-2.9-0.8-4.6
		C67.9,55.9,68.3,54.7,68.8,53.5z"/>
	<path fill="#8E8E8E" d="M160.7,110.3c7.5-1.1,15-2.3,22.5-3.4c1.8-0.3,3.8-1.1,4.5,1.4c0.6,2.2-1.2,3.1-2.8,3.5
		c-4.3,1-8.6,1.7-12.9,2.5c-4.3,0.8-8.6,1.5-12.9,2.3c-1.1-0.8-2.2-1.5-3.3-2.3c0.9-1,1.8-2.1,2.8-3
		C159.2,110.8,160.1,110.6,160.7,110.3z"/>
	<path fill="#B8B6B6" d="M72.8,16c-0.3,0.3-0.6,0.6-1,0.9c-0.2-0.4-0.5-0.8-0.7-1.2C71.7,15.8,72.2,15.9,72.8,16z"/>
</g>
</svg>
