<?xml version="1.0" encoding="utf-8"?>
<!-- Generator: Adobe Illustrator 17.1.0, SVG Export Plug-In . SVG Version: 6.00 Build 0)  -->
<!DOCTYPE svg PUBLIC "-//W3C//DTD SVG 1.1//EN" "http://www.w3.org/Graphics/SVG/1.1/DTD/svg11.dtd">
<svg version="1.1" id="Layer_1" xmlns="http://www.w3.org/2000/svg" xmlns:xlink="http://www.w3.org/1999/xlink" x="0px" y="0px"
	 viewBox="0 0 3500 2000" enable-background="new 0 0 3500 2000" xml:space="preserve">
<g>
	<path fill="#BFBFBF" d="M1788,1808h-15c-52,20-103,41-156,58c-8,3-31-14-32-23c-1-12,10-29,21-38s28-10,51-18c-19-9-28-14-38-18
		c-237.4-89.9-395.2-306.8-415-555.9c-0.5-6-0.9-12-1.2-18.1c-0.4-8.3-0.7-16.7-0.8-25c-0.7-48.7,3.2-96.1,10.8-142.5
		c1.4-8.9,3-17.7,4.7-26.5c16.5-85,44.8-166.7,79.5-247c74-174,175-333,290-483c7-9,16-16,24-24c-0.2-0.2-0.3-0.4-0.4-0.6
		c-16.8-20.8-32.7-42.6-50.6-61.4c-40-42-70-40-109,3c-161,181-309,372-425,586c-95,177-174,361-168,568c7,257,125,449,352,567
		c69,36,149,50,224,75h154c11-3,22-7,33-9c125-26,239-73,329-168C1896,1807,1842,1807,1788,1808z M1467,1877c-4,2-10,0-25,0
		c-8-2-27-3-44-9c-11-6-25-25-22-33c5-13,21-27,34-29c21-3,45,1,64,9c14,6,22,23,33,35C1494,1859,1481,1869,1467,1877z"/>
	<path fill="#BFBFBF" d="M2526,1200c-82,92-183,147-307,163c-21,3-41,19-62,30c-12-37-46-27-71-30c-231-37-406-240-406-474
		c0-116,33-224,81-328c14-30,23-61,35-91c13-15,28-29,38-46c87-148,189-284,308-407h38c22.8,25.7,45.5,50.4,68.2,76.2
		c0.3,0.3,0.5,0.6,0.8,0.8c-42,64-88,126-125,193c-34.5,61.7-65.7,124.3-89.2,189c-0.1,0.3-0.2,0.7-0.4,1
		c-35,96.4-52.8,197.3-38.4,306c15,119,69,219,162,296c38,31,81,56,121,83c0,2.4,0.6,5.4,0.9,8c0.1,0.7,0.1,1.4,0.1,2
		c-39,7-79,12-117,24c-13.6,3.9-23.4,21.9-35,34.9c-0.3,0.4-0.7,0.8-1,1.1c12,10,24,29,37,30c84,5,159-19,223-75h7c15,3,30,6,45,8
		c26.3,0,51,1.5,76.2,3.9C2518.8,1199.3,2522.4,1199.6,2526,1200z"/>
	<path fill="#BFBFBF" d="M2156,1422c-24,140-81,264-183,365c-7,7-15,13-23,20h-163c44-37,94-69,129-113c42-52,72-113,104-172
		c1-2,1-5,1-8c-3-23-29-34-49-23c-4,2-8,5-12,8c-5,4-6,14-9,21c-44,99-111,176-205,229c-19,11-39,22-58,32c0.5,1.9-9.7,3.2-20.6,4.6
		c-2.2,0.3-3.5,1.7-4,3.3c-17-8.3-36.9-17.7-44.3-19.9c-237.5-88.9-395.3-305.8-415-555.9c-0.5-6-0.9-12-1.2-18.1
		c-0.4-8.3-0.7-16.7-0.8-25c-0.7-48.7,3.2-96.1,10.8-142.5c1.4-8.9,3-17.7,4.7-26.5c16.5-85.1,44.8-167.1,79.5-248
		c74-174,175-333,290-483c6.9-8.8,15.7-15.7,23.6-23.6c0.1-0.1,0.3-0.3,0.4-0.4c49,59,98,118,146,176c-15,28-32,55-46,84
		c-51,108-91,221-100,341c-19,252,154,499,398,564C2056,1423,2107,1419,2156,1422z"/>
	<path fill="#BFBFBF" d="M2538.9,914.3c-11.6,85.8-39,165.7-104.9,227.7C2498.9,1080,2527.2,1000.2,2538.9,914.3z"/>
	<path fill="#BFBFBF" d="M2540.8,896.5c0.4-19-6.8-37.1-30.8-40.5c-9.6-1.1-16.9,0.7-22.4,4.5c5.7-4.4,13.3-6.6,23.4-5.5
		C2534.3,859.3,2541.2,877,2540.8,896.5z"/>
	<path fill="#D6D6D6" d="M2280,1172c-39,7-79,12-117,24c-13.6,3.9-23.4,21.9-35,34.9c-0.3-0.3-0.7-0.6-1-0.9c12-12,22-31,36-36
		c38-11,77.9-16,116.9-24C2280,1170.7,2280,1171.4,2280,1172z"/>
	<path fill="#BFBFBF" d="M2526,1200c-3.6-0.4-7.2-0.7-10.8-1.1c-25.2-2.4-49.8-4.3-75.2-6.9c-15-2-30-5-45-8c13-14,25-29,39-42
		c64.9-62,93.2-141.8,104.9-227.7c0.4-2.8,0.7-5.6,1.1-8.3c0.1-0.9,0.2-1.9,0.3-2.8c0.2-1.4,0.3-2.8,0.3-4.2c0-0.5,0.1-0.9,0.1-1.4
		c0-0.4,0-0.7,0-1.1c0.4-19-6.8-37.1-30.8-40.5c-9.6-1.1-16.9,0.7-22.4,4.5c0,0-0.1,0-0.1,0.1c-9.5,6.5-13.9,19-16.5,33.5
		c-2,11-2,23-7,34c-18,46-30,95-56,136c-24,37-78.6,83.2-128,106c0-3-1-7-1-10c-41-28-84-52-121-83c-93-76-147-177-162-296
		c-13.6-108,4-208.2,38.4-304c0.1-0.3,0.2-0.6,0.4-1c23.5-65.4,54.8-128.7,89.2-191c36.8-66.6,82.4-128.3,124.2-191.8
		c0.3-0.4,0.5-0.8,0.8-1.2c160,187,300,387,369,627C2668,894,2644,1056,2526,1200z"/>
</g>
</svg>
