<?xml version="1.0" encoding="utf-8"?>
<!-- Generator: Adobe Illustrator 17.1.0, SVG Export Plug-In . SVG Version: 6.00 Build 0)  -->
<!DOCTYPE svg PUBLIC "-//W3C//DTD SVG 1.1//EN" "http://www.w3.org/Graphics/SVG/1.1/DTD/svg11.dtd">
<svg version="1.1" id="Layer_1" xmlns="http://www.w3.org/2000/svg" xmlns:xlink="http://www.w3.org/1999/xlink" x="0px" y="0px"
	 viewBox="0 0 27 35" enable-background="new 0 0 27 35" xml:space="preserve">
<g>
	<path fill="#E0F9F5" d="M5.1,35c-1.1-0.3-2.2-0.7-3-1.6c-1.8-1.8-2-4.6-0.4-6.6c0.3-0.4,0.5-0.8,0.5-1.4c0-7.1,0-14.2,0-21.3
		c0-2.2,0.7-3.1,2.6-4c0.1,0,0.2-0.1,0.2-0.1c0.5,0,1,0,1.5,0c0.9,0.5,1.9,0.8,2.3,1.9c0.2,0.6,0.5,1.3,0.5,2c0,7.2,0,14.3,0,21.4
		c0,0.6,0.1,1.2,0.5,1.7c1.9,2.7,0.7,6.6-2.5,7.7c-0.3,0.1-0.7,0.2-1,0.3C5.9,35,5.5,35,5.1,35z M7.7,16c0-0.5,0-0.9,0-1.4
		c0.1-0.5,0.1-1,0.1-1.5c0-3.2,0-6.3,0-9.5c0-1.1-0.7-2-1.7-2.1C4.8,1.4,3.9,2,3.6,3.1C3.5,3.5,3.5,3.8,3.4,4.2c0,3.2,0,6.4,0,9.6
		c0,0.3,0.1,0.6,0.1,0.9c0,0.5,0,0.9,0,1.4c-0.1,0.3-0.1,0.7-0.1,1c0,3.1,0,6.1,0,9.2c0,0.5-0.1,0.9-0.5,1.2
		c-1.1,1.2-1.2,3.1-0.3,4.5c1,1.4,2.8,1.9,4.4,1.3c2.3-1,3-3.8,1.2-5.8C7.9,27,7.8,26.5,7.8,26c0-3,0-6,0-9
		C7.8,16.7,7.7,16.4,7.7,16z"/>
	<path fill="#96E2D3" d="M18.8,21.9c-2.4,0-4.4-1.9-4.4-4.3c0-2.4,2-4.4,4.3-4.4c2.5,0,4.4,1.9,4.4,4.4C23.1,20,21.2,21.9,18.8,21.9
		z M15.9,17.6c0,1.5,1.4,2.9,2.9,2.9c1.6,0,2.9-1.4,2.9-2.9c0-1.6-1.4-2.9-2.9-2.9C17.2,14.7,15.9,16,15.9,17.6z"/>
	<path fill="#96E2D3" d="M19.6,11c0,0.2,0,0.5,0,0.7c-0.1,0.4-0.3,0.8-0.7,0.7c-0.5,0-0.7-0.3-0.7-0.8c0-0.4,0-0.9,0-1.3
		c0-0.4,0.2-0.8,0.7-0.8c0.5,0,0.7,0.3,0.7,0.7C19.6,10.5,19.5,10.8,19.6,11z"/>
	<path fill="#96E2D3" d="M12.2,18.3c-0.3,0-0.6,0-0.9-0.1c-0.2-0.1-0.5-0.4-0.5-0.7c0-0.2,0.3-0.6,0.5-0.7c0.5-0.1,1.1-0.1,1.7,0
		c0.2,0,0.5,0.4,0.5,0.7c0,0.2-0.3,0.5-0.5,0.7C12.9,18.3,12.5,18.3,12.2,18.3z"/>
	<path fill="#96E2D3" d="M25.3,16.8c0.2,0,0.5-0.1,0.7,0c0.3,0.2,0.6,0.4,0.7,0.7c0,0.2-0.3,0.6-0.6,0.7c-0.5,0.1-1.1,0.1-1.6,0
		c-0.2-0.1-0.5-0.4-0.6-0.7c-0.1-0.4,0.3-0.7,0.7-0.7C24.9,16.8,25.1,16.8,25.3,16.8z"/>
	<path fill="#96E2D3" d="M18.1,24.1c0-0.3-0.1-0.6,0.1-0.8c0.1-0.2,0.4-0.6,0.6-0.6c0.2,0,0.7,0.3,0.7,0.5c0.1,0.6,0.1,1.2,0,1.8
		c0,0.2-0.5,0.5-0.7,0.5c-0.2,0-0.5-0.3-0.6-0.6C18,24.7,18.1,24.4,18.1,24.1z"/>
	<path fill="#96E2D3" d="M24.6,22.9c-0.1,0.1-0.2,0.4-0.4,0.4c-0.2,0.1-0.6,0.1-0.8-0.1c-0.4-0.3-0.8-0.7-1.1-1.1
		c-0.1-0.2-0.1-0.5,0-0.7c0.1-0.2,0.4-0.3,0.6-0.4C23.4,20.9,24.6,22.2,24.6,22.9z"/>
	<path fill="#96E2D3" d="M24.6,12.3c0,0.6-1.1,1.8-1.6,1.8c-0.2,0-0.6-0.1-0.7-0.3c-0.1-0.2-0.1-0.6,0-0.7c0.3-0.4,0.7-0.8,1.2-1.2
		c0.2-0.1,0.5-0.1,0.7,0C24.5,11.9,24.6,12.2,24.6,12.3z"/>
	<path fill="#96E2D3" d="M15.3,13.4c0,0.6-0.6,0.9-1.1,0.5c-0.4-0.3-0.9-0.8-1.2-1.2c-0.3-0.4,0-1,0.5-1
		C14.1,11.7,15.3,12.9,15.3,13.4z"/>
	<path fill="#96E2D3" d="M15.3,21.7c0,0.5-1.1,1.7-1.7,1.7c-0.5,0-0.9-0.6-0.6-1c0.4-0.5,0.8-1,1.3-1.3
		C14.8,20.8,15.3,21.1,15.3,21.7z"/>
	<path fill="#F3FDFB" d="M3.6,14.6c-0.1-0.3-0.1-0.6-0.1-0.9c0-3.2,0-6.4,0-9.6c0-0.4,0.1-0.7,0.2-1.1c0.3-1.1,1.3-1.7,2.5-1.6
		c1,0.1,1.7,1,1.7,2.1c0,3.2,0,6.3,0,9.5c0,0.5-0.1,1-0.1,1.5c-0.6,0.5-0.6,0.8,0,1.4c0.1,0.3,0.1,0.7,0.1,1c0,3,0,6,0,9
		c0,0.5,0.1,1,0.5,1.4c1.7,2,1.1,4.8-1.2,5.8c-1.5,0.7-3.4,0.1-4.4-1.3c-1-1.4-0.8-3.3,0.3-4.5c0.4-0.4,0.5-0.7,0.5-1.2
		c0-3.1,0-6.1,0-9.2c0-0.3,0.1-0.7,0.1-1C4.4,15.6,4.4,15.1,3.6,14.6z M6.4,17.8c0-3,0-6,0-9c0-0.2,0-0.5,0-0.7
		C6.3,7.6,6.1,7.3,5.7,7.3C5.2,7.3,5,7.6,5,8.1c0,0.2,0,0.5,0,0.7C5,14.9,5,21,5,27.1c0,0.5-0.1,0.8-0.5,1.1
		c-0.8,0.5-1.1,1.5-0.8,2.5c0.3,0.9,1.2,1.5,2.1,1.5c0.9,0,1.7-0.6,2-1.5c0.3-0.9,0-1.9-0.8-2.5c-0.4-0.3-0.5-0.6-0.5-1
		C6.4,24,6.4,20.9,6.4,17.8z"/>
	<path fill="#20C6A6" d="M3.6,14.6c0.8,0.5,0.8,1,0,1.4C3.6,15.6,3.6,15.1,3.6,14.6z"/>
	<path fill="#20C6A6" d="M7.7,16c-0.6-0.5-0.6-0.8,0-1.4C7.7,15.1,7.7,15.5,7.7,16z"/>
	<path fill="#A1ECDF" d="M15.9,17.6c0-1.6,1.3-2.9,2.9-2.9c1.5,0,2.9,1.4,2.9,2.9c0,1.6-1.3,2.9-2.9,2.9
		C17.3,20.5,15.9,19.1,15.9,17.6z"/>
	<path fill="#0AAD91" d="M6.4,17.8c0,3.1,0,6.2,0,9.4c0,0.4,0.1,0.7,0.5,1c0.8,0.5,1.1,1.6,0.8,2.5c-0.3,0.9-1.1,1.5-2,1.5
		c-0.9,0-1.8-0.6-2.1-1.5c-0.3-0.9,0-1.9,0.8-2.5C4.9,27.8,5,27.5,5,27.1C5,21,5,14.9,5,8.8c0-0.2,0-0.5,0-0.7
		c0-0.4,0.2-0.7,0.7-0.8c0.5,0,0.7,0.3,0.7,0.7c0,0.2,0,0.5,0,0.7C6.4,11.8,6.4,14.8,6.4,17.8z M6.4,30.1c-0.1-0.6-0.3-0.8-0.7-0.8
		c-0.4,0-0.7,0.2-0.7,0.6c0.1,0.3,0.4,0.6,0.7,0.7C5.8,30.6,6.1,30.3,6.4,30.1z"/>
	<path fill="#96E2D3" d="M6.4,30.1c-0.2,0.2-0.5,0.5-0.7,0.4C5.4,30.5,5,30.1,5,29.9c-0.1-0.4,0.2-0.6,0.7-0.6
		C6.1,29.3,6.3,29.5,6.4,30.1z"/>
</g>
</svg>
