<?xml version="1.0" encoding="utf-8"?>
<!-- Generator: Adobe Illustrator 17.1.0, SVG Export Plug-In . SVG Version: 6.00 Build 0)  -->
<!DOCTYPE svg PUBLIC "-//W3C//DTD SVG 1.1//EN" "http://www.w3.org/Graphics/SVG/1.1/DTD/svg11.dtd">
<svg version="1.1" id="Layer_1" xmlns="http://www.w3.org/2000/svg" xmlns:xlink="http://www.w3.org/1999/xlink" x="0px" y="0px"
	 viewBox="0 0 27 35" enable-background="new 0 0 27 35" xml:space="preserve">
<g>
	<path fill="#E0F9F5" d="M5,35c-1.1-0.3-2.2-0.7-3-1.6c-1.8-1.8-2-4.6-0.4-6.6C1.9,26.4,2,26,2,25.4c0-7.1,0-14.2,0-21.3
		c0-2.2,0.7-3.1,2.6-4C4.8,0.1,4.8,0,4.9,0c0.5,0,1,0,1.5,0c0.9,0.5,1.9,0.8,2.3,1.9c0.2,0.6,0.5,1.3,0.5,2c0,7.2,0,14.3,0,21.4
		c0,0.6,0.1,1.2,0.5,1.7c1.9,2.7,0.7,6.6-2.5,7.7c-0.3,0.1-0.7,0.2-1,0.3C5.8,35,5.4,35,5,35z M7.6,16c0-0.5,0-0.9,0-1.4
		c0.1-0.5,0.1-1,0.1-1.5c0-3.2,0-6.3,0-9.5c0-1.1-0.7-2-1.7-2.1C4.8,1.4,3.9,2,3.5,3.1C3.5,3.5,3.4,3.8,3.4,4.2c0,3.2,0,6.4,0,9.6
		c0,0.3,0.1,0.6,0.1,0.9c0,0.5,0,0.9,0,1.4c-0.1,0.3-0.1,0.7-0.1,1c0,3.1,0,6.1,0,9.2c0,0.5-0.1,0.9-0.5,1.2
		c-1.1,1.2-1.2,3.1-0.3,4.5c1,1.4,2.8,1.9,4.4,1.3c2.3-1,3-3.8,1.2-5.8C7.9,27,7.8,26.5,7.8,26c0-3,0-6,0-9
		C7.8,16.7,7.7,16.3,7.6,16z"/>
	<path fill="#F3FDFB" d="M3.5,14.6c-0.1-0.3-0.1-0.6-0.1-0.9c0-3.2,0-6.4,0-9.6c0-0.4,0.1-0.7,0.2-1.1C3.9,1.9,4.8,1.4,6,1.5
		c1,0.1,1.7,1,1.7,2.1c0,3.2,0,6.3,0,9.5c0,0.5-0.1,1-0.1,1.5C7,15.1,7,15.4,7.6,16c0.1,0.3,0.1,0.7,0.1,1c0,3,0,6,0,9
		c0,0.5,0.1,1,0.5,1.4c1.7,2,1.1,4.8-1.2,5.8c-1.5,0.7-3.4,0.1-4.4-1.3c-1-1.4-0.8-3.3,0.3-4.5c0.4-0.4,0.5-0.7,0.5-1.2
		c0-3.1,0-6.1,0-9.2c0-0.3,0.1-0.7,0.1-1C4.3,15.5,4.3,15.1,3.5,14.6z M6.4,17.8c0-3,0-6,0-9c0-0.2,0-0.5,0-0.7
		C6.3,7.6,6.1,7.3,5.6,7.3c-0.5,0-0.7,0.3-0.7,0.8c0,0.2,0,0.5,0,0.7c0,6.1,0,12.2,0,18.3c0,0.5-0.1,0.8-0.5,1.1
		c-0.8,0.5-1.1,1.5-0.8,2.5c0.3,0.9,1.2,1.5,2.1,1.5c0.9,0,1.7-0.6,2-1.5c0.3-0.9,0-1.9-0.8-2.5c-0.4-0.3-0.5-0.6-0.5-1
		C6.4,24,6.4,20.9,6.4,17.8z"/>
	<path fill="#20C6A6" d="M3.5,14.6c0.8,0.5,0.8,1,0,1.4C3.5,15.5,3.5,15.1,3.5,14.6z"/>
	<path fill="#20C6A6" d="M7.6,16c-0.6-0.5-0.6-0.8,0-1.4C7.6,15.1,7.6,15.5,7.6,16z"/>
	<path fill="#0AAD91" d="M6.4,17.8c0,3.1,0,6.2,0,9.4c0,0.4,0.1,0.7,0.5,1c0.8,0.5,1.1,1.6,0.8,2.5c-0.3,0.9-1.1,1.5-2,1.5
		c-0.9,0-1.8-0.6-2.1-1.5c-0.3-0.9,0-1.9,0.8-2.5c0.4-0.3,0.5-0.6,0.5-1.1c0-6.1,0-12.2,0-18.3c0-0.2,0-0.5,0-0.7
		c0-0.4,0.2-0.7,0.7-0.8c0.5,0,0.7,0.3,0.7,0.7c0,0.2,0,0.5,0,0.7C6.4,11.8,6.4,14.8,6.4,17.8z M6.3,30.1c-0.1-0.6-0.3-0.8-0.7-0.8
		c-0.4,0-0.7,0.2-0.7,0.6c0.1,0.3,0.4,0.6,0.7,0.7C5.8,30.6,6.1,30.3,6.3,30.1z"/>
	<path fill="#96E2D3" d="M6.3,30.1c-0.2,0.2-0.5,0.5-0.7,0.4c-0.3-0.1-0.6-0.4-0.7-0.7c-0.1-0.4,0.2-0.6,0.7-0.6
		C6,29.3,6.3,29.5,6.3,30.1z"/>
</g>
<path fill="#A1ECDF" d="M27,17.8c-0.1-0.1-0.1-0.3-0.2-0.4c-0.3,0-0.5,0-0.9,0c-0.2,0-0.4,0-0.6,0l-0.3,0c-0.1,0-0.3,0-0.4-0.2
	c0-0.1,0-0.1,0-0.2c0,0,0-0.1,0-0.1c0,0,0-0.1,0-0.1c0,0,0,0,0,0l0,0c0.3-0.4,0.5-0.8,0.8-1.2c0,0,0,0,0,0c-0.1-0.1-0.1-0.3-0.2-0.4
	c-0.1,0-0.2,0-0.3,0c-0.1,0-0.2,0-0.2,0c-0.2,0.3-0.4,0.7-0.6,1c-0.2,0.3-0.4,0.7-0.7,1c-0.1,0.2-0.3,0.3-0.5,0.2
	c-0.6,0-1.1,0-1.6-0.1l-0.6,0l-0.6,0h0c0,0,0,0-0.1,0C20,17,20,17,19.9,17l-0.2-0.4c0-0.1,0-0.1,0.1-0.2c0,0,0,0,0,0c0,0,0,0,0,0
	c0.1-0.2,0.2-0.3,0.3-0.5c0.4-0.6,0.8-1.2,1.2-1.9c0.1-0.2,0.3-0.3,0.5-0.2c0.4,0,0.9,0,1.3,0.1c0.4,0,0.7,0,1.1,0.1
	c0.1-0.2,0.2-0.3,0.3-0.4c0,0,0,0,0,0c-0.1-0.2-0.2-0.3-0.2-0.5c-0.2,0-0.4,0-0.7,0c-0.1,0-0.3,0-0.4,0c-0.1,0-0.3,0-0.4,0h-0.1
	l-0.5,0l0.2-0.4l0,0c0,0,0,0,0,0c0,0,0-0.1,0-0.1c0.1-0.1,0.2-0.2,0.2-0.4c0.2-0.4,0.5-0.8,0.7-1.1v0c0,0,0,0,0,0
	c-0.1-0.1-0.2-0.3-0.2-0.5c-0.1,0-0.2,0-0.3,0c-0.1,0-0.2,0-0.3,0c-0.2,0.4-0.5,0.7-0.7,1.1l-0.2,0.3c0,0,0,0,0,0c0,0,0,0,0,0
	c0,0.1-0.1,0.2-0.4,0.2c-0.2,0-0.3-0.2-0.3-0.3l-0.1-0.3c-0.2-0.3-0.4-0.7-0.6-1.1c-0.1,0-0.2,0-0.3,0c-0.1,0-0.2,0-0.3,0
	c-0.1,0.1-0.2,0.3-0.3,0.4c0.2,0.3,0.3,0.6,0.5,1c0.2,0.4,0.4,0.8,0.6,1.2c0.1,0.1,0.1,0.3,0,0.5c-0.4,0.6-0.8,1.2-1.1,1.8
	c-0.1,0.2-0.3,0.5-0.4,0.7c0,0,0,0,0,0c0,0,0,0,0,0c0,0-0.1,0.1-0.1,0.2c0,0,0,0,0,0h-0.5c0,0,0,0,0,0c-0.1,0-0.1-0.1-0.2-0.2
	c0,0,0,0,0,0c-0.1-0.2-0.3-0.5-0.4-0.7c-0.4-0.6-0.7-1.2-1.1-1.8c-0.1-0.2-0.1-0.4,0-0.5c0.2-0.4,0.4-0.8,0.6-1.2
	c0.2-0.3,0.3-0.6,0.5-1c-0.1-0.1-0.2-0.3-0.3-0.4c-0.1,0-0.2,0-0.3,0c-0.1,0-0.2,0-0.3,0c-0.2,0.4-0.4,0.7-0.5,1l-0.2,0.3
	c0,0.1-0.1,0.2-0.3,0.3c-0.2,0-0.3-0.2-0.3-0.2c0,0,0,0,0,0c0,0,0,0,0,0l-0.2-0.4c-0.2-0.4-0.5-0.7-0.7-1.1c-0.1,0-0.2,0-0.3,0
	c-0.1,0-0.2,0-0.3,0c0,0,0,0,0,0c0,0,0,0,0,0c-0.1,0.2-0.2,0.3-0.3,0.5c0.3,0.5,0.7,1,1,1.5c0,0,0,0.1,0.1,0.1c0,0,0,0,0,0l0.2,0.4
	l0,0l-0.5,0h-0.1c-0.1,0-0.3,0-0.4,0c-0.1,0-0.3,0-0.4,0c-0.3,0-0.5,0-0.7,0h0c0,0.1-0.1,0.1-0.1,0.2c0,0.1-0.1,0.1-0.1,0.2
	c0,0,0,0,0,0.1c0.1,0.1,0.2,0.3,0.3,0.4c0.4,0,0.7,0,1.1-0.1c0.4,0,0.9,0,1.3-0.1h0c0.2,0,0.3,0.1,0.4,0.2c0.4,0.6,0.8,1.3,1.2,1.9
	c0.1,0.2,0.2,0.3,0.3,0.5c0,0,0,0,0,0c0,0,0,0,0,0c0,0.1,0.1,0.1,0.1,0.2L17.3,17c0,0-0.1,0.1-0.2,0.1c0,0,0,0-0.1,0h0l-0.6,0
	l-0.6,0c-0.5,0-1,0-1.6,0.1h0c-0.2,0-0.4-0.1-0.5-0.2c-0.2-0.4-0.4-0.7-0.7-1c-0.2-0.3-0.4-0.7-0.6-1c-0.1,0-0.2,0-0.2,0
	c-0.1,0-0.2,0-0.3,0c-0.1,0.2-0.2,0.3-0.2,0.4c0,0,0,0,0,0c0.3,0.4,0.5,0.8,0.8,1.2l0,0c0,0,0,0.1,0.1,0.1c0,0,0,0,0,0
	c0,0,0,0,0,0.1c0,0.1,0,0.1,0,0.2c-0.1,0.2-0.3,0.2-0.4,0.2l-0.3,0c-0.2,0-0.4,0-0.6,0c-0.3,0-0.6,0-0.9,0c-0.1,0.2-0.1,0.3-0.2,0.4
	c0,0,0,0,0,0c0.1,0.1,0.2,0.3,0.3,0.4c0.3,0,0.6,0,0.9,0c0.1,0,0.3,0,0.4,0l0.4,0c0,0,0,0,0,0h0.1c0.2,0,0.3,0.1,0.3,0.2
	c0,0,0,0.1,0,0.2c0,0.1,0,0.2,0,0.2c-0.1,0.2-0.2,0.3-0.3,0.5c0,0.1-0.1,0.1-0.1,0.2c0,0.1-0.1,0.1-0.1,0.2
	c-0.1,0.1-0.2,0.3-0.2,0.4c0,0,0,0,0,0c0.1,0.2,0.2,0.3,0.3,0.4c0.1,0,0.2,0,0.2,0h0.1c0.1,0,0.1,0,0.2,0c0.2-0.5,0.5-0.9,0.7-1.4
	l0.2-0.3c0,0,0-0.1,0.1-0.1c0.1-0.1,0.1-0.2,0.2-0.4c0.1-0.2,0.2-0.3,0.4-0.3c0.6,0,1.2,0,1.8-0.1c0.4,0,0.7,0,1.1-0.1
	c0,0,0.1,0,0.1,0l0.3,0.5c0,0,0,0,0,0c0,0,0,0,0,0c-0.1,0.3-0.3,0.6-0.4,0.9c-0.3,0.6-0.6,1.1-0.9,1.7c-0.1,0.2-0.2,0.2-0.4,0.3
	c-0.3,0-0.6,0-0.9,0c-0.5,0-1,0-1.5,0.1c-0.1,0.2-0.2,0.3-0.2,0.5c0.1,0.1,0.2,0.3,0.3,0.4v0c0,0,0,0,0,0.1c0.3,0,0.5,0,0.8,0
	c0.1,0,0.3,0,0.4,0c0.1,0,0.3,0,0.4,0H15l0.4,0l-0.1,0.4c0,0,0,0,0,0c0,0,0,0.1-0.1,0.1c-0.3,0.5-0.5,1-0.8,1.6
	c0.1,0.1,0.2,0.3,0.3,0.4c0,0,0,0,0,0c0.1,0,0.2,0,0.3,0c0.1,0,0.2,0,0.3,0c0.2-0.4,0.4-0.8,0.6-1.2l0.2-0.4c0,0,0,0,0,0
	c0,0,0,0,0,0c0-0.1,0.1-0.2,0.3-0.3c0.2,0,0.3,0.2,0.4,0.2l0.2,0.3c0.2,0.3,0.4,0.7,0.6,1c0.1,0,0.2,0,0.3,0c0.1,0,0.2,0,0.3,0
	c0.1-0.1,0.2-0.3,0.2-0.5c-0.2-0.3-0.4-0.6-0.6-0.9c-0.2-0.4-0.5-0.8-0.7-1.1c-0.1-0.1-0.1-0.3,0-0.5c0.3-0.6,0.6-1.2,1-1.8
	c0.1-0.2,0.3-0.5,0.4-0.7c0,0,0,0,0,0v0h0.5v0c0,0,0,0,0,0c0.1,0.2,0.2,0.5,0.4,0.7c0.3,0.6,0.6,1.2,1,1.8c0.1,0.2,0.1,0.4,0,0.5
	c-0.3,0.4-0.5,0.8-0.7,1.1c-0.2,0.3-0.4,0.6-0.6,0.9c0.1,0.2,0.2,0.3,0.2,0.5c0.1,0,0.2,0,0.3,0c0.1,0,0.2,0,0.3,0
	c0.2-0.3,0.4-0.7,0.6-1l0.2-0.3c0-0.1,0.1-0.2,0.4-0.2c0.2,0,0.3,0.2,0.3,0.3c0,0,0,0,0,0c0,0,0,0,0,0l0.2,0.4
	c0.2,0.4,0.4,0.8,0.6,1.2c0.1,0,0.2,0,0.3,0c0.1,0,0.2,0,0.3,0c0.1-0.2,0.2-0.3,0.3-0.4c0,0,0,0,0,0c-0.3-0.5-0.5-1-0.8-1.5
	c0-0.1,0-0.1,0-0.1c0,0,0,0,0,0l-0.1-0.4l0.5,0h0.1c0.1,0,0.2,0,0.4,0c0.1,0,0.3,0,0.4,0c0.2,0,0.5,0,0.7,0c0.1-0.2,0.2-0.3,0.3-0.5
	c0,0,0,0,0,0c-0.1-0.1-0.2-0.3-0.2-0.4c-0.5,0-1,0-1.5-0.1c-0.3,0-0.6,0-0.9,0c-0.2,0-0.3-0.1-0.4-0.3c-0.3-0.6-0.6-1.2-0.9-1.7
	c-0.2-0.3-0.3-0.6-0.5-0.9c0,0,0-0.1,0-0.1l0.3-0.5c0,0,0.1,0,0.1,0c0.4,0,0.8,0,1.1,0.1c0.6,0,1.2,0,1.8,0.1c0.2,0,0.3,0.1,0.4,0.3
	c0.1,0.1,0.1,0.2,0.2,0.4c0,0,0,0.1,0.1,0.1l0.2,0.3c0.2,0.5,0.5,0.9,0.7,1.4c0.1,0,0.1,0,0.2,0h0.1c0.1,0,0.1,0,0.2,0
	c0.1-0.1,0.2-0.3,0.3-0.4c0,0,0,0,0,0c-0.1-0.1-0.2-0.3-0.2-0.4c0-0.1-0.1-0.1-0.1-0.2c0-0.1-0.1-0.1-0.1-0.2
	c-0.1-0.2-0.2-0.3-0.3-0.5c0,0,0-0.1,0-0.1c0,0,0-0.1,0-0.2c0,0,0-0.1,0-0.1c0.1-0.1,0.2-0.2,0.4-0.2H25c0,0,0,0,0,0l0.4,0
	c0.2,0,0.3,0,0.4,0c0.2,0,0.6,0,0.9,0C26.8,18.1,26.9,18,27,17.8C27,17.8,27,17.8,27,17.8z"/>
</svg>
