<?xml version="1.0" encoding="utf-8"?>
<!-- Generator: Adobe Illustrator 17.1.0, SVG Export Plug-In . SVG Version: 6.00 Build 0)  -->
<!DOCTYPE svg PUBLIC "-//W3C//DTD SVG 1.1//EN" "http://www.w3.org/Graphics/SVG/1.1/DTD/svg11.dtd">
<svg version="1.1" id="Layer_1" xmlns="http://www.w3.org/2000/svg" xmlns:xlink="http://www.w3.org/1999/xlink" x="0px" y="0px"
	 viewBox="0 0 200 200" enable-background="new 0 0 200 200" xml:space="preserve">
<g>
	<path fill="#B8B6B6" d="M7.2,182.4c1.7-3.1,4.4-4.4,7.9-4.6c5.7-0.3,10.5-2.7,14.6-6.6c4.8-4.5,7.3-4.4,12.1,0c9.8,9,22.5,9,32.5,0
		c4.9-4.4,7.3-4.4,12.1,0c9.9,9,22.6,9,32.5,0c4.8-4.4,7.2-4.4,12.1,0c10,9,22.7,9,32.5,0c4.8-4.4,7.3-4.5,12.1,0
		c4.1,3.9,9,6.3,14.6,6.6c3.5,0.2,6.2,1.5,7.9,4.6c0,1.2,0,2.5,0,3.7c-2.3,3.8-5.5,4.7-9.8,4.1c-6-0.8-11.6-2.7-16.6-6.1
		c-1.6-1.1-2.6-1.1-4.2,0c-13.4,8.5-26.8,8.5-40.2,0.1c-1.8-1.1-2.9-1-4.6,0.1c-13.3,8.3-26.7,8.3-39.9,0c-1.7-1.1-2.8-1.2-4.6-0.1
		c-13.4,8.4-26.9,8.4-40.2-0.1c-1.6-1-2.7-1-4.2,0c-5,3.4-10.5,5.3-16.6,6.1c-4.3,0.6-7.6-0.3-9.8-4.1
		C7.2,184.9,7.2,183.6,7.2,182.4z"/>
	<path fill="#B8B6B6" d="M7.2,148.8c1.9-3.1,4.9-4.2,8.4-4.4c5.3-0.3,9.8-2.5,13.6-6.1c5.4-5.1,7.5-5.1,12.9-0.1
		c9.4,8.6,22.5,8.6,31.9-0.1c5.2-4.8,7.3-4.8,12.6,0.1c9.4,8.6,22.5,8.6,31.9,0c5.3-4.9,7.4-4.9,12.6,0c9.4,8.7,22.5,8.7,31.9,0.1
		c5.4-5,7.5-5,12.9,0.1c3.8,3.6,8.3,5.8,13.6,6.1c3.5,0.2,6.5,1.3,8.4,4.4c0,1.2,0,2.5,0,3.7c-1.7,3.6-4.5,4.8-8.5,4.5
		c-7.4-0.6-13.9-3.2-20-7.6c-14.8,10.1-29.6,10.3-44.7,0.1c-14.7,10.1-29.6,10.3-44.6,0c-14.7,10.1-29.5,10.2-43.7,0.6
		c-6.2,2.3-11.8,4.8-17.7,6.4c-4.5,1.2-9.3,1.4-11.8-4.1C7.2,151.3,7.2,150.1,7.2,148.8z"/>
	<path fill="#B8B6B6" d="M198,119.8c-3.1,5.4-8.2,4.7-12.8,3.4c-5.4-1.5-10.6-4-16.6-6.3c-4.7,3.2-10.6,6.1-17.5,6.7
		c-8.6,0.9-16.5-1-23.7-5.8c-1.8-1.2-2.9-1.4-4.9-0.2c-13.2,8.4-26.6,8.3-40,0.1c-1-0.6-2.9-1-3.8-0.5c-14.5,9.2-28.8,8.6-43.1-1.1
		c-5.8,3.9-12.1,6.8-19.3,7.5c-4,0.4-7-0.6-9.2-4c0-1.2,0-2.5,0-3.7c1.6-3,3.9-4.5,7.4-4.7c6-0.3,11.2-2.8,15.6-7.1
		c4.2-4.1,6.9-3.9,11.2,0c10.5,9.6,22.6,9.6,33.3-0.1c4.3-3.9,7-3.9,11.3,0c10.5,9.6,22.8,9.6,33.3,0c4.3-3.9,6.9-3.9,11.3,0
		c10.8,9.7,22.6,9.7,33.6-0.2c4.1-3.7,6.8-3.8,11,0.2c4.4,4.3,9.5,6.8,15.6,7.1c3.5,0.2,5.8,1.7,7.4,4.7
		C198,117.3,198,118.5,198,119.8z"/>
</g>
<g>
	<path fill="#919191" d="M78.9,134.1c-6.3,6.6-14.3,10-23,11.8c-0.8,0.2-1.5,0.4-2.3,0.6c-3.6,0-7.2,0-10.8,0
		c-5.2-1.7-10.9-2.8-15.7-5.3C11.2,132.9,3,119.5,2.5,101.6C2.1,87.1,7.6,74.2,14.3,61.8c8.1-15,18.5-28.4,29.8-41
		c2.7-3,4.8-3.2,7.6-0.2c1.3,1.3,2.4,2.9,3.5,4.3c-0.6,0.6-1.2,1.1-1.7,1.7c-8,10.5-15.1,21.6-20.3,33.8c-3.9,9.3-6.8,18.8-6.6,29.1
		c0.3,18.7,11.6,35.3,29.2,41.9c0.7,0.3,1.4,0.7,2.6,1.3c-1.6,0.6-2.8,0.7-3.5,1.3c-0.8,0.6-1.5,1.8-1.5,2.7c0,0.6,1.7,1.8,2.2,1.6
		c3.7-1.2,7.3-2.7,10.9-4.1c0.4,0,0.7,0,1.1,0C71.3,134.1,75.1,134.1,78.9,134.1z M43.3,138.9c1,0,1.5,0.1,1.7,0
		c1-0.6,1.9-1.3,2.8-1.9c-0.7-0.8-1.3-2.1-2.3-2.4c-1.4-0.6-3-0.8-4.4-0.6c-0.9,0.1-2,1.1-2.3,2c-0.2,0.5,0.8,1.9,1.6,2.3
		C41.4,138.8,42.8,138.8,43.3,138.9z"/>
	<path fill="#BFBFBF" d="M119.2,91.6c-5.8,6.4-12.8,10.3-21.5,11.4c-1.5,0.2-2.9,1.4-4.3,2.1c-0.8-2.6-3.2-1.9-5-2.1
		C72.3,100.4,60,86.2,60,69.8c0-8.1,2.3-15.7,5.7-23c0.9-2.1,1.6-4.3,2.4-6.4c0.9-1.1,1.9-2,2.6-3.2C76.8,26.9,84,17.4,92.3,8.7H95
		c1.6,1.8,3.2,3.6,4.8,5.4c-2.9,4.5-6.1,8.8-8.7,13.5c-6,10.8-10.6,22-9,34.7C83.2,70.6,87,77.7,93.5,83c2.6,2.2,5.6,3.9,8.5,5.8
		c0,0.2,0,0.5,0.1,0.7c-2.7,0.5-5.5,0.9-8.2,1.6c-1,0.3-1.7,1.6-2.5,2.5c0.9,0.7,1.7,2,2.6,2.1c5.9,0.4,11.1-1.3,15.6-5.2
		c0.2,0,0.4,0,0.5,0c1,0.2,2.1,0.4,3.1,0.5C115.2,91.3,117.2,91.4,119.2,91.6z"/>
	<path fill="#A8A8A8" d="M66.5,134.1c-3.6,1.4-7.2,2.9-10.9,4.1c-0.6,0.2-2.2-1-2.2-1.6c-0.1-0.9,0.7-2,1.5-2.7
		c0.7-0.6,1.9-0.7,3.5-1.3c-1.3-0.6-1.9-1-2.6-1.3c-17.5-6.6-28.9-23.2-29.2-41.9c-0.2-10.3,2.7-19.9,6.6-29.1
		c5.2-12.2,12.3-23.3,20.3-33.8c0.5-0.6,1.1-1.1,1.7-1.7c3.4,4.1,6.8,8.2,10.2,12.3c-1.1,2-2.2,3.9-3.2,5.9
		c-3.6,7.6-6.4,15.4-7,23.9c-1.3,17.6,10.8,34.9,27.8,39.4c3.3,0.9,6.8,0.6,10.3,0.8c-1.7,9.8-5.7,18.4-12.8,25.5
		c-0.5,0.5-1.1,0.9-1.6,1.4c-3.8,0-7.6,0-11.4,0c3.1-2.6,6.6-4.8,9-7.9c2.9-3.6,5.1-7.9,7.2-12.1c0.1-0.2,0.1-0.4,0.1-0.6
		c-0.2-1.6-2-2.4-3.4-1.6c-0.3,0.2-0.6,0.3-0.9,0.5c-0.4,0.3-0.4,0.9-0.7,1.4c-3.1,6.9-7.8,12.3-14.4,16.1c-1.4,0.8-2.7,1.5-4.1,2.3
		c0,0.3,0,0.3,0.1,0.6C62.6,133.3,64.5,133.7,66.5,134.1z"/>
	<path fill="#7D7D7D" d="M93.3,107.2c-3.4-0.2-7,0.1-10.3-0.8C66,101.9,53.9,84.6,55.2,67c0.6-8.4,3.4-16.3,7-23.9
		c1-2,2.1-3.9,3.2-5.9c0.9,1.1,1.8,2.2,2.7,3.3c-0.8,2.1-1.5,4.3-2.4,6.4c-3.3,7.3-5.7,14.9-5.7,23c0,16.4,12.2,30.6,28.4,33.1
		c1.7,0.3,4.2-0.5,5,2.1C93.4,105.8,93.4,106.5,93.3,107.2z"/>
	<path fill="#FFFFFF" d="M120.2,71c-0.8,6.3-2.7,12-7.4,16.5c-1,0.9-1.8,2-2.7,3c-0.2,0-0.4,0-0.5,0c-1.8-0.4-3.5-0.9-5.4-1.3
		c2.5-2.5,5.2-4.5,6.8-7.1c1.8-2.9,2.7-6.3,3.9-9.5c0.3-0.7,0.3-1.6,0.5-2.4c0.3-1.6,0.9-2.9,2.7-2.6C120,67.8,120.4,69.5,120.2,71z
		"/>
	<path fill="#D6D6D6" d="M119.2,91.6c-2-0.2-4-0.3-6-0.6c-1-0.1-2.1-0.4-3.1-0.5c0.9-1,1.8-2,2.7-3c4.7-4.5,6.6-10.3,7.4-16.5
		c0.2-1.6-0.1-3.2-2.1-3.5c-1.8-0.2-2.5,1.1-2.7,2.6c-0.1,0.8-0.2,1.6-0.5,2.4c-1.2,3.2-2.1,6.7-3.9,9.5c-1.7,2.6-4.3,4.6-6.8,7.1
		c1.8,0.4,3.6,0.9,5.4,1.3c-4.5,3.9-9.7,5.6-15.6,5.2c-0.9-0.1-1.7-1.4-2.6-2.1c0.8-0.9,1.5-2.2,2.5-2.5c2.7-0.8,5.5-1.1,8.2-1.6
		c0-0.2-0.1-0.5-0.1-0.7c-2.8-1.9-5.8-3.7-8.5-5.8C87,77.7,83.2,70.6,82.1,62.3c-1.6-12.7,3-23.9,9-34.7c2.6-4.7,5.8-9,8.7-13.5
		c11.2,13.1,21,27.1,25.8,43.9C129.2,70.2,127.4,81.6,119.2,91.6z"/>
	<path fill="#EDEDED" d="M66.5,134.1c-2-0.4-3.9-0.8-5.9-1.2c0-0.3,0-0.3-0.1-0.6c1.4-0.8,2.7-1.5,4.1-2.3
		c6.6-3.7,11.3-9.1,14.4-16.1c0.2-0.5,0.3-1.2,0.7-1.4c0.3-0.2,0.6-0.4,0.9-0.5c1.4-0.8,3.2,0,3.4,1.6c0,0.2,0,0.4-0.1,0.6
		c-2.2,4.2-4.3,8.4-7.2,12.1c-2.4,2.9-5.7,5.1-8.6,7.6C67.5,133.9,66.9,134,66.5,134.1z"/>
	<path fill="#DCDCDC" d="M43.3,138.9c-0.6-0.1-1.9-0.2-2.9-0.7c-0.8-0.4-1.7-1.8-1.6-2.3c0.3-0.9,1.5-1.9,2.3-2
		c1.4-0.2,3.1,0.1,4.4,0.6c0.9,0.4,1.5,1.6,2.3,2.4c-0.9,0.6-1.9,1.3-2.8,1.9C44.8,139.1,44.4,138.9,43.3,138.9z"/>
</g>
</svg>
