<?xml version="1.0" encoding="utf-8"?>
<!-- Generator: Adobe Illustrator 17.1.0, SVG Export Plug-In . SVG Version: 6.00 Build 0)  -->
<!DOCTYPE svg PUBLIC "-//W3C//DTD SVG 1.1//EN" "http://www.w3.org/Graphics/SVG/1.1/DTD/svg11.dtd">
<svg version="1.1" id="Layer_1" xmlns="http://www.w3.org/2000/svg" xmlns:xlink="http://www.w3.org/1999/xlink" x="0px" y="0px"
	 viewBox="0 0 200 200" enable-background="new 0 0 200 200" xml:space="preserve">
<g>
	<path fill="#919191" d="M120,180.7c-9,9.5-20.4,14.2-32.9,16.8c-1.1,0.2-2.2,0.6-3.3,0.9c-5.1,0-10.3,0-15.4,0
		c-7.5-2.5-15.5-3.9-22.4-7.5c-22.7-11.8-34.5-31-35.2-56.7c-0.6-20.7,7.3-39.1,16.8-56.8C39.2,56,54,36.9,70.1,18.8
		c3.9-4.3,6.9-4.5,10.9-0.3c1.8,1.9,3.4,4.1,5.1,6.2c-0.8,0.8-1.7,1.5-2.4,2.4c-11.5,15-21.6,30.9-29,48.3
		C49,88.6,45,102.2,45.2,117c0.4,26.7,16.6,50.4,41.7,59.9c1,0.4,1.9,0.9,3.8,1.8c-2.3,0.8-4,0.9-5.1,1.8c-1.1,0.9-2.2,2.6-2.1,3.8
		c0.1,0.9,2.4,2.6,3.2,2.3c5.3-1.7,10.4-3.8,15.6-5.8c0.5,0,1,0,1.5,0C109.2,180.7,114.6,180.7,120,180.7z M69.2,187.7
		c1.5,0,2.1,0.2,2.5,0c1.4-0.8,2.7-1.8,4-2.7c-1.1-1.2-1.9-2.9-3.3-3.5c-1.9-0.8-4.3-1.2-6.4-0.9c-1.3,0.2-2.9,1.6-3.4,2.9
		c-0.3,0.8,1.1,2.7,2.2,3.3C66.5,187.4,68.4,187.5,69.2,187.7z"/>
	<path fill="#BFBFBF" d="M177.6,120c-8.2,9.2-18.3,14.7-30.7,16.3c-2.1,0.3-4.1,1.9-6.2,3c-1.2-3.7-4.6-2.7-7.1-3
		C110.5,132.6,93,112.3,93,88.9c0-11.6,3.3-22.4,8.1-32.8c1.4-3,2.3-6.1,3.5-9.1c1.3-1.5,2.8-2.9,3.8-4.6
		c8.7-14.8,18.9-28.4,30.8-40.7h3.8c2.3,2.6,4.6,5.1,6.9,7.7c-4.2,6.4-8.8,12.6-12.5,19.3c-8.6,15.4-15.2,31.4-12.8,49.6
		c1.5,11.9,6.9,21.9,16.2,29.6c3.8,3.1,8.1,5.6,12.1,8.3c0,0.3,0.1,0.7,0.1,1c-3.9,0.7-7.9,1.2-11.7,2.4c-1.4,0.4-2.4,2.3-3.6,3.6
		c1.2,1,2.4,2.9,3.7,3c8.4,0.5,15.9-1.9,22.3-7.5c0.2,0,0.5,0,0.7,0c1.5,0.3,3,0.6,4.5,0.8C171.9,119.5,174.7,119.7,177.6,120z"/>
	<path fill="#A8A8A8" d="M102.3,180.8c-5.2,2-10.3,4.1-15.6,5.8c-0.8,0.3-3.1-1.4-3.2-2.3c-0.1-1.2,1-2.9,2.1-3.8
		c1.1-0.9,2.7-1,5.1-1.8c-1.8-0.9-2.8-1.5-3.8-1.8c-25.1-9.4-41.3-33.1-41.7-59.9C45,102.2,49,88.6,54.7,75.3
		c7.4-17.4,17.5-33.3,29-48.3c0.7-0.9,1.6-1.6,2.4-2.4c4.9,5.9,9.8,11.8,14.6,17.6c-1.5,2.8-3.2,5.5-4.6,8.4
		c-5.1,10.8-9.1,22.1-10,34.1c-1.9,25.2,15.4,49.9,39.8,56.4c4.7,1.2,9.8,0.8,14.7,1.1c-2.4,14-8.1,26.4-18.3,36.5
		c-0.7,0.7-1.5,1.3-2.3,2c-5.4,0-10.8,0-16.3,0c4.4-3.7,9.4-6.9,12.9-11.3c4.2-5.2,7.2-11.3,10.4-17.2c0.1-0.2,0.1-0.5,0.1-0.8
		c-0.3-2.3-2.9-3.4-4.9-2.3c-0.4,0.2-0.8,0.5-1.2,0.8c-0.5,0.4-0.6,1.4-0.9,2.1c-4.4,9.9-11.1,17.6-20.5,22.9
		c-1.9,1.1-3.9,2.2-5.8,3.2c0.1,0.4,0.1,0.4,0.1,0.9C96.7,179.6,99.5,180.2,102.3,180.8z"/>
	<path fill="#7D7D7D" d="M140.6,142.3c-4.9-0.3-10,0.1-14.7-1.1c-24.4-6.5-41.7-31.2-39.8-56.4c0.9-12,4.9-23.3,10-34.1
		c1.4-2.9,3-5.6,4.6-8.4c1.3,1.5,2.6,3.1,3.8,4.7c-1.1,3-2.1,6.2-3.5,9.1C96.3,66.5,93,77.3,93,88.9c0,23.4,17.5,43.7,40.6,47.3
		c2.5,0.4,5.9-0.7,7.1,3C140.7,140.3,140.7,141.3,140.6,142.3z"/>
	<path fill="#FFFFFF" d="M179,90.6c-1.1,8.9-3.8,17.2-10.6,23.6c-1.4,1.3-2.6,2.8-3.9,4.2c-0.2,0-0.5,0-0.7,0
		c-2.5-0.6-5.1-1.3-7.7-1.9c3.6-3.6,7.4-6.5,9.8-10.2c2.6-4.1,3.8-9,5.6-13.6c0.4-1.1,0.5-2.2,0.7-3.4c0.4-2.2,1.3-4.1,3.9-3.8
		C178.8,86,179.3,88.3,179,90.6z"/>
	<path fill="#D6D6D6" d="M177.6,120c-2.9-0.3-5.7-0.5-8.6-0.8c-1.5-0.2-3-0.5-4.5-0.8c1.3-1.4,2.5-2.9,3.9-4.2
		c6.7-6.4,9.5-14.7,10.6-23.6c0.3-2.2-0.2-4.6-3-5c-2.6-0.3-3.5,1.5-3.9,3.8c-0.2,1.1-0.2,2.3-0.7,3.4c-1.8,4.6-3,9.5-5.6,13.6
		c-2.4,3.7-6.2,6.6-9.8,10.2c2.6,0.6,5.1,1.3,7.7,1.9c-6.4,5.6-13.9,8-22.3,7.5c-1.3-0.1-2.5-2-3.7-3c1.2-1.2,2.2-3.1,3.6-3.6
		c3.8-1.1,7.8-1.6,11.7-2.4c0-0.3-0.1-0.7-0.1-1c-4.1-2.8-8.4-5.2-12.1-8.3c-9.3-7.6-14.7-17.7-16.2-29.6
		c-2.3-18.2,4.3-34.2,12.8-49.6c3.7-6.7,8.3-12.9,12.5-19.3c16,18.7,30,38.7,36.9,62.7C191.8,89.4,189.4,105.6,177.6,120z"/>
	<path fill="#EDEDED" d="M102.3,180.8c-2.8-0.6-5.6-1.2-8.4-1.8c-0.1-0.4-0.1-0.4-0.1-0.9c1.9-1.1,3.9-2.2,5.8-3.2
		c9.4-5.3,16.2-13.1,20.5-22.9c0.3-0.7,0.4-1.7,0.9-2.1c0.4-0.3,0.8-0.5,1.2-0.8c2-1.1,4.6,0,4.9,2.3c0,0.3,0,0.6-0.1,0.8
		c-3.1,5.9-6.2,12.1-10.4,17.2c-3.4,4.2-8.1,7.3-12.3,10.8C103.7,180.4,102.9,180.6,102.3,180.8z"/>
	<path fill="#DCDCDC" d="M69.2,187.7c-0.8-0.2-2.7-0.2-4.2-1c-1.1-0.6-2.5-2.5-2.2-3.3c0.5-1.3,2.1-2.7,3.4-2.9
		c2.1-0.3,4.4,0.1,6.4,0.9c1.3,0.6,2.2,2.3,3.3,3.5c-1.3,0.9-2.6,1.9-4,2.7C71.3,187.8,70.7,187.7,69.2,187.7z"/>
</g>
</svg>
