<?xml version="1.0" encoding="utf-8"?>
<!-- Generator: Adobe Illustrator 17.1.0, SVG Export Plug-In . SVG Version: 6.00 Build 0)  -->
<!DOCTYPE svg PUBLIC "-//W3C//DTD SVG 1.1//EN" "http://www.w3.org/Graphics/SVG/1.1/DTD/svg11.dtd">
<svg version="1.1" id="Layer_1" xmlns="http://www.w3.org/2000/svg" xmlns:xlink="http://www.w3.org/1999/xlink" x="0px" y="0px"
	 viewBox="0 0 3500 2000" enable-background="new 0 0 3500 2000" xml:space="preserve">
<g>
	<path fill="#FFFFFF" d="M759,1542c5-8,12-16,15-25c43-118,126-186,250-202c23-3,39-10,51-33c68-125,208-190,354-169
		c143,21,252,120,283,260c5,20,14,30,34,35c139,34,214,141,199,279c-15,122-124,213-259,213c-199,1-397,0-596,0
		c-170,0-259-61-321-219c-2-6-7-10-11-15C759,1625,759,1583,759,1542z M1375,1829L1375,1829c101,0,201,1,302,0c21,0,42,0,61-5
		c89-21,143-99,136-194c-7-82-78-152-165-157c-42-2-59-18-63-60c-3-30-12-61-26-88c-53-101-142-149-253-146c-112,3-197,57-243,162
		c-12,28-28,41-58,39c-11-1-23,2-34,4c-120,18-208,118-202,228c7,123,103,215,228,217C1164,1830,1270,1829,1375,1829z"/>
	<path fill="#FFFFFF" d="M2741,659c-10,21-19,41-29,62c-55,109-145,168-266,170c-217,3-433,3-650,0c-128-1-230-99-242-227
		c-11-124,70-237,194-265c23-5,35-12,41-37c30-135,139-236,276-258c141-23,288,41,355,160c16,28,34,37,65,42c120,19,201,87,241,202
		c4,12,10,23,15,34C2741,582,2741,620,2741,659z M2125,821L2125,821c107,0,214,2,321-1c126-3,225-104,225-225c0-120-101-220-228-221
		c-35,0-54-12-68-44c-52-114-172-176-295-157c-123,20-213,113-227,239c-4,36-21,49-54,52c-23,2-46,6-67,15c-78,33-119,115-103,200
		c15,80,90,140,180,141C1913,822,2019,821,2125,821z"/>
	<path fill="#FFFFFF" d="M759,806c18-8,36-20,55-23c100-15,199-27,299-40c9-1,17-5,29-8c-15-59-30-116-45-173c-13-51-27-102-41-153
		c-7-25-5-49,25-56c27-6,39,13,45,37c32,120,64,239,96,359c9,35-3,52-38,57c-124,16-246,33-369,47c-18,2-37-10-56-16
		C759,827,759,817,759,806z"/>
	<path fill="#FFFFFF" d="M2032,1193c28,105,54,203,80,301c2,9,5,17,7,26c6,24,7,49-23,56c-29,6-40-14-47-39c-31-118-63-236-94-354
		c-10-37,2-53,40-58c122-17,245-33,367-49c26-4,49,0,53,30c4,31-20,38-45,42c-98,13-196,26-295,39C2063,1187,2051,1189,2032,1193z"
		/>
	<path fill="#FFFFFF" d="M2285,1409c28,105,55,206,81,307c7,27,26,63-16,75c-42,12-45-27-53-55c-29-108-58-217-87-325
		c-14-52-6-65,47-72c119-16,238-32,356-48c26-4,49,0,53,30c4,31-20,39-44,42c-102,14-204,27-307,40C2307,1404,2299,1406,2285,1409z"
		/>
	<path fill="#FFFFFF" d="M1396,881c-28-107-55-209-82-311c-7-27-22-60,17-72c40-12,45,25,52,51c30,112,59,224,89,336
		c11,44,1,59-44,65c-119,16-237,32-356,47c-3,0-5,0-8,1c-24,2-46,0-50-29c-4-28,15-38,40-42c93-12,186-25,280-38
		C1353,889,1371,885,1396,881z"/>
</g>
</svg>
