<?xml version="1.0" encoding="utf-8"?>
<!-- Generator: Adobe Illustrator 17.1.0, SVG Export Plug-In . SVG Version: 6.00 Build 0)  -->
<!DOCTYPE svg PUBLIC "-//W3C//DTD SVG 1.1//EN" "http://www.w3.org/Graphics/SVG/1.1/DTD/svg11.dtd">
<svg version="1.1" id="Layer_1" xmlns="http://www.w3.org/2000/svg" xmlns:xlink="http://www.w3.org/1999/xlink" x="0px" y="0px"
	 viewBox="0 0 200 200" enable-background="new 0 0 200 200" xml:space="preserve">
<g>
	<path fill="#8E8E8E" d="M0.9,154.2c0.5-0.8,1.2-1.6,1.5-2.5c4.3-11.8,12.6-18.6,25-20.2c2.3-0.3,3.9-1,5.1-3.3
		c6.8-12.5,20.8-19,35.4-16.9c14.3,2.1,25.2,12,28.3,26c0.5,2,1.4,3,3.4,3.5c13.9,3.4,21.4,14.1,19.9,27.9
		C118,180.9,107.1,190,93.6,190c-19.9,0.1-39.7,0-59.6,0c-17,0-25.9-6.1-32.1-21.9c-0.2-0.6-0.7-1-1.1-1.5
		C0.9,162.5,0.9,158.3,0.9,154.2z M62.5,182.9C62.5,182.9,62.5,182.9,62.5,182.9c10.1,0,20.1,0.1,30.2,0c2.1,0,4.2,0,6.1-0.5
		c8.9-2.1,14.3-9.9,13.6-19.4c-0.7-8.2-7.8-15.2-16.5-15.7c-4.2-0.2-5.9-1.8-6.3-6c-0.3-3-1.2-6.1-2.6-8.8
		c-5.3-10.1-14.2-14.9-25.3-14.6c-11.2,0.3-19.7,5.7-24.3,16.2c-1.2,2.8-2.8,4.1-5.8,3.9c-1.1-0.1-2.3,0.2-3.4,0.4
		C16.2,140.2,7.4,150.2,8,161.2c0.7,12.3,10.3,21.5,22.8,21.7C41.4,183,52,182.9,62.5,182.9z"/>
	<path fill="#8E8E8E" d="M199.1,65.9c-1,2.1-1.9,4.1-2.9,6.2c-5.5,10.9-14.5,16.8-26.6,17c-21.7,0.3-43.3,0.3-65,0
		c-12.8-0.1-23-9.9-24.2-22.7C79.3,54,87.4,42.7,99.8,39.9c2.3-0.5,3.5-1.2,4.1-3.7c3-13.5,13.9-23.6,27.6-25.8
		c14.1-2.3,28.8,4.1,35.5,16c1.6,2.8,3.4,3.7,6.5,4.2c12,1.9,20.1,8.7,24.1,20.2c0.4,1.2,1,2.3,1.5,3.4
		C199.1,58.2,199.1,62,199.1,65.9z M137.5,82.1C137.5,82.1,137.5,82.1,137.5,82.1c10.7,0,21.4,0.2,32.1-0.1
		c12.6-0.3,22.5-10.4,22.5-22.5c0-12-10.1-22-22.8-22.1c-3.5,0-5.4-1.2-6.8-4.4c-5.2-11.4-17.2-17.6-29.5-15.7
		c-12.3,2-21.3,11.3-22.7,23.9c-0.4,3.6-2.1,4.9-5.4,5.2c-2.3,0.2-4.6,0.6-6.7,1.5c-7.8,3.3-11.9,11.5-10.3,20c1.5,8,9,14,18,14.1
		C116.3,82.2,126.9,82.1,137.5,82.1z"/>
	<path fill="#B8B6B6" d="M0.9,80.6c1.8-0.8,3.6-2,5.5-2.3c10-1.5,19.9-2.7,29.9-4c0.9-0.1,1.7-0.5,2.9-0.8c-1.5-5.9-3-11.6-4.5-17.3
		C33.4,51.1,32,46,30.6,40.9c-0.7-2.5-0.5-4.9,2.5-5.6c2.7-0.6,3.9,1.3,4.5,3.7c3.2,12,6.4,23.9,9.6,35.9c0.9,3.5-0.3,5.2-3.8,5.7
		C31,82.2,18.8,83.9,6.5,85.3c-1.8,0.2-3.7-1-5.6-1.6C0.9,82.7,0.9,81.7,0.9,80.6z"/>
	<path fill="#B8B6B6" d="M128.2,119.3c2.8,10.5,5.4,20.3,8,30.1c0.2,0.9,0.5,1.7,0.7,2.6c0.6,2.4,0.7,4.9-2.3,5.6
		c-2.9,0.6-4-1.4-4.7-3.9c-3.1-11.8-6.3-23.6-9.4-35.4c-1-3.7,0.2-5.3,4-5.8c12.2-1.7,24.5-3.3,36.7-4.9c2.6-0.4,4.9,0,5.3,3
		c0.4,3.1-2,3.8-4.5,4.2c-9.8,1.3-19.6,2.6-29.5,3.9C131.3,118.7,130.1,118.9,128.2,119.3z"/>
	<path fill="#B8B6B6" d="M153.5,140.9c2.8,10.5,5.5,20.6,8.1,30.7c0.7,2.7,2.6,6.3-1.6,7.5c-4.2,1.2-4.5-2.7-5.3-5.5
		c-2.9-10.8-5.8-21.7-8.7-32.5c-1.4-5.2-0.6-6.5,4.7-7.2c11.9-1.6,23.8-3.2,35.6-4.8c2.6-0.4,4.9,0,5.3,3c0.4,3.1-2,3.9-4.4,4.2
		c-10.2,1.4-20.4,2.7-30.7,4C155.7,140.4,154.9,140.6,153.5,140.9z"/>
	<path fill="#B8B6B6" d="M64.6,88.1c-2.8-10.7-5.5-20.9-8.2-31.1c-0.7-2.7-2.2-6,1.7-7.2c4-1.2,4.5,2.5,5.2,5.1
		c3,11.2,5.9,22.4,8.9,33.6c1.1,4.4,0.1,5.9-4.4,6.5c-11.9,1.6-23.7,3.2-35.6,4.7c-0.3,0-0.5,0-0.8,0.1c-2.4,0.2-4.6,0-5-2.9
		c-0.4-2.8,1.5-3.8,4-4.2c9.3-1.2,18.6-2.5,28-3.8C60.3,88.9,62.1,88.5,64.6,88.1z"/>
	<path fill="#B8B6B6" d="M62.5,182.9c-10.6,0-21.1,0.1-31.7,0c-12.5-0.1-22.1-9.3-22.8-21.7c-0.6-11,8.2-21,20.1-22.6
		c1.1-0.2,2.3-0.5,3.4-0.4c3,0.2,4.6-1.1,5.8-3.9c4.6-10.5,13.1-15.9,24.3-16.2c11.1-0.3,20,4.4,25.3,14.6c1.4,2.7,2.3,5.8,2.6,8.8
		c0.4,4.2,2.1,5.7,6.3,6c8.7,0.5,15.8,7.5,16.5,15.7c0.8,9.4-4.7,17.3-13.6,19.4c-2,0.5-4.1,0.5-6.1,0.5
		C82.6,182.9,72.6,182.9,62.5,182.9C62.5,182.9,62.5,182.9,62.5,182.9z"/>
	<path fill="#B8B6B6" d="M137.5,82.1c-10.6,0-21.1,0.1-31.7,0c-9-0.1-16.5-6.2-18-14.1c-1.6-8.5,2.5-16.7,10.3-20
		c2.1-0.9,4.5-1.2,6.7-1.5c3.3-0.3,5-1.7,5.4-5.2c1.4-12.6,10.4-22,22.7-23.9c12.4-2,24.3,4.2,29.5,15.7c1.4,3.2,3.4,4.3,6.8,4.4
		c12.7,0.2,22.8,10.1,22.8,22.1c0,12.1-9.8,22.2-22.5,22.5C158.9,82.3,148.2,82.1,137.5,82.1C137.5,82.1,137.5,82.1,137.5,82.1z"/>
</g>
</svg>
