<?xml version="1.0" encoding="utf-8"?>
<!-- Generator: Adobe Illustrator 17.1.0, SVG Export Plug-In . SVG Version: 6.00 Build 0)  -->
<!DOCTYPE svg PUBLIC "-//W3C//DTD SVG 1.1//EN" "http://www.w3.org/Graphics/SVG/1.1/DTD/svg11.dtd">
<svg version="1.1" id="Layer_1" xmlns="http://www.w3.org/2000/svg" xmlns:xlink="http://www.w3.org/1999/xlink" x="0px" y="0px"
	 viewBox="0 0 40 30" enable-background="new 0 0 40 30" xml:space="preserve">
<g>
	<g>
		<path fill="#00CAA8" d="M19.8,7.7c0.6,0,1-0.4,1-1V2.5c0-0.6-0.4-1-1-1c-0.6,0-1,0.4-1,1v4.2C18.8,7.3,19.4,7.7,19.8,7.7z"/>
		<path fill="#00CAA8" d="M33.5,21.2c0,0.6,0.4,1,1,1h4.2c0.6,0,1-0.4,1-1c0-0.6-0.4-1-1-1h-4.2C34,20.2,33.5,20.8,33.5,21.2z"/>
		<path fill="#00CAA8" d="M8.3,22.3h2.1c0-0.4,0-0.6,0-1c0-5.2,4.2-9.4,9.4-9.4s9.4,4.2,9.4,9.4c0,0.4,0,0.6,0,1h2.1
			c0-0.4,0-0.6,0-1C31.3,15,26,9.8,19.8,9.8S8.3,15,8.3,21.2C8.3,21.7,8.3,21.9,8.3,22.3z"/>
		<path fill="#00CAA8" d="M30.8,11.7l2.9-2.9c0.4-0.4,0.4-1,0-1.5c-0.4-0.4-1-0.4-1.5,0l-2.9,2.9c-0.4,0.4-0.4,1,0,1.5
			C29.8,12.1,30.6,12.1,30.8,11.7z"/>
		<path fill="#00CAA8" d="M8.8,11.7c0.4,0.4,1,0.4,1.5,0c0.4-0.4,0.4-1,0-1.5L7.3,7.3c-0.4-0.4-1-0.4-1.5,0c-0.4,0.4-0.4,1,0,1.5
			L8.8,11.7z"/>
		<path fill="#00CAA8" d="M38.5,26.5H27.1l-7.3-6.3l-7.3,6.3H1c-0.4,0-1,0.4-1,1c0,0.6,0.6,1,1,1h12.7l2.5-2.1l3.7-3.1l3.7,3.1
			l2.5,2.1H39c0.6,0,1-0.4,1-1C39.6,26.9,39.2,26.5,38.5,26.5z"/>
		<path fill="#00CAA8" d="M1,22.3h4.2c0.6,0,1-0.4,1-1c0-0.6-0.4-1-1-1H1c-0.6,0-1,0.6-1,1C0,21.9,0.4,22.3,1,22.3z"/>
	</g>
</g>
</svg>
