<?xml version="1.0" encoding="utf-8"?>
<!-- Generator: Adobe Illustrator 17.1.0, SVG Export Plug-In . SVG Version: 6.00 Build 0)  -->
<!DOCTYPE svg PUBLIC "-//W3C//DTD SVG 1.1//EN" "http://www.w3.org/Graphics/SVG/1.1/DTD/svg11.dtd">
<svg version="1.1" id="Layer_1" xmlns="http://www.w3.org/2000/svg" xmlns:xlink="http://www.w3.org/1999/xlink" x="0px" y="0px"
	 viewBox="0 0 40 35" enable-background="new 0 0 40 35" xml:space="preserve">
<g>
	<g>
		<path fill="#00CAA8" d="M31,11l2.9-2.9c0.4-0.4,0.4-1.1,0-1.5c-0.4-0.4-1.1-0.4-1.5,0l-2.9,2.9c-0.4,0.4-0.4,1.1,0,1.5
			C30,11.4,30.8,11.4,31,11z"/>
		<path fill="#00CAA8" d="M19.9,7C20.5,7,21,6.6,21,6V1.8c0-0.6-0.4-1.1-1.1-1.1c-0.4,0-1.1,0.4-1.1,1.1V6C18.9,6.6,19.5,7,19.9,7z"
			/>
		<path fill="#00CAA8" d="M33.7,20.6c0,0.6,0.4,1.1,1.1,1.1h4.2c0.6,0,1.1-0.4,1.1-1.1c0-0.6-0.4-1.1-1.1-1.1h-4.2
			C34.1,19.6,33.7,20.2,33.7,20.6z"/>
		<path fill="#00CAA8" d="M8.8,11c0.4,0.4,1.1,0.4,1.5,0c0.4-0.4,0.4-1.1,0-1.5L7.3,6.6c-0.4-0.4-1.1-0.4-1.5,0
			C5.5,7,5.5,7.7,5.9,8.1L8.8,11z"/>
		<path fill="#00CAA8" d="M1.1,21.7h4.2c0.6,0,1.1-0.4,1.1-1.1s-0.4-1.1-1.1-1.1H1.1c-0.6,0-1.1,0.6-1.1,1.1
			C0,21.3,0.4,21.7,1.1,21.7z"/>
		<path fill="#00CAA8" d="M38.7,25.9H26l-2.5,2.1l-3.8,3.2L16.3,28l-2.5-2.1H1.1c-0.4,0-1.1,0.4-1.1,1.1C0,27.6,0.6,28,1.1,28h11.5
			l7.3,6.3l7.3-6.3h11.5c0.6,0,1.1-0.4,1.1-1.1C39.8,26.3,39.4,25.9,38.7,25.9z"/>
		<path fill="#00CAA8" d="M8.6,21.7h2.1c0-0.4,0-0.6,0-1.1c0-5.2,4.2-9.4,9.4-9.4s9.4,4.2,9.4,9.4c0,0.4,0,0.6,0,1.1h2.1
			c0-0.4,0-0.6,0-1.1c0-6.3-5.2-11.5-11.5-11.5S8.6,14.3,8.6,20.6C8.4,21,8.4,21.3,8.6,21.7z"/>
	</g>
</g>
</svg>
