<?xml version="1.0" encoding="utf-8"?>
<!-- Generator: Adobe Illustrator 17.1.0, SVG Export Plug-In . SVG Version: 6.00 Build 0)  -->
<!DOCTYPE svg PUBLIC "-//W3C//DTD SVG 1.1//EN" "http://www.w3.org/Graphics/SVG/1.1/DTD/svg11.dtd">
<svg version="1.1" id="Layer_1" xmlns="http://www.w3.org/2000/svg" xmlns:xlink="http://www.w3.org/1999/xlink" x="0px" y="0px"
	 viewBox="0 0 200 200" enable-background="new 0 0 200 200" xml:space="preserve">
<g>
	<path fill="#EEEEEE" d="M87.7,30.4c-0.2-1.3-0.7-2.7-0.7-4c0.1-3.2,0.8-6.4,0.6-9.5C87.1,9.4,89.9,4,96.9,1.1c2.1,0,4.1,0,6.2,0
		c6.9,2.9,9.4,8.1,9.4,15.6c-0.2,41.2-0.1,82.4-0.2,123.6c0,3.7,0.9,6.1,4,8.3c12.6,9.1,15.2,25.5,6.6,38.4
		c-8.3,12.3-25.7,15.9-38.4,7.2c-16.4-11.2-16.4-33.9-1.8-44.9c3.7-2.8,5.4-5.6,5-10.2c-0.3-3.4-0.1-6.9-0.1-10.4c1.6,0,3.3,0,5.4,0
		c0,6-0.2,11.5,0.1,17c0.2,4.1-0.8,6.7-4.6,9c-7.9,4.9-10.8,14.5-7.9,23.4c2.8,8.5,11,14.2,20.1,14c9-0.2,16.9-6.5,19.2-15.2
		c2.4-8.9-1.2-18.4-9.3-22.9c-3.2-1.7-3.8-3.8-3.8-7c0.1-42.2,0.1-84.5,0.1-126.7c0-1.4,0.1-2.8,0-4.2c-0.3-4.4-3.1-7.2-7-7.2
		c-3.9,0-6.6,2.8-6.9,7.3c-0.2,3.2-0.1,6.4-0.1,9.7c-1.7,0-3.5,0-5.5,0c0.1,1.7,0.1,2.8,0.2,3.9C87.6,29.9,87.6,30.2,87.7,30.4z"/>
	<path fill="#6A6A6A" d="M87.7,30.4c-0.1-0.3-0.1-0.5,0-0.8c1.8,0,3.6,0.2,5.4-0.1c2-0.3,4.7,1.4,5.9-1.8c-2-0.7-4-1.4-6-2.1
		c0-3.2,0-6.4,0.1-9.7c0.2-4.5,2.9-7.3,6.9-7.3c3.9,0,6.7,2.8,7,7.2c0.1,1.4,0,2.8,0,4.2c0,42.2,0,84.5-0.1,126.7
		c0,3.2,0.6,5.3,3.8,7c8.1,4.5,11.7,14,9.3,22.9c-2.3,8.7-10.2,15-19.2,15.2c-9.1,0.2-17.3-5.5-20.1-14c-2.9-8.9,0-18.6,7.9-23.4
		c3.8-2.3,4.8-4.9,4.6-9c-0.3-5.5-0.1-11-0.1-17c-2.1,0-3.8,0-5.4,0c0-0.3,0-0.5-0.1-0.8c1.8,0,3.6,0.2,5.3-0.1c2-0.3,4-1.1,6-1.7
		c-2-0.7-4-1.5-5.9-2.2c0-4.9,0-9.7,0-14.6c0.8,0,1.7,0.2,2.3-0.1c1.4-0.7,2.6-1.6,3.9-2.5c-1.3-0.7-2.6-1.5-3.9-2.1
		c-0.7-0.3-1.5-0.1-2.3-0.1c0-5.1,0-10.2,0-15.3c1-0.1,2.1,0.1,3-0.2c1.1-0.4,1.9-1.3,2.9-2c-1-0.6-1.9-1.6-2.9-1.7
		c-2.8-0.2-5.6-0.1-8.4-0.1c0-0.3,0-0.5,0.1-0.8c1.6,0,3.2,0,5.4,0c0-3.4,0-6.4,0-9.4c0-5.4,0-5.4-5.3-5.3c0,0,0,0.1,0,0.1
		c0-0.3,0-0.5,0-0.8c3,0,6.1,0.1,9.1-0.1c0.8,0,1.6-0.9,2.3-1.4c-0.7-0.7-1.3-1.8-2.2-2.1c-1.3-0.4-2.7-0.3-4.1-0.3
		c0-5.1,0-10.2,0.1-15.2c0.5,0,1.1,0.1,1.5-0.1c1.5-0.6,3-1.3,4.5-1.9c-1.4-0.6-2.8-1.6-4.3-1.8c-2.3-0.3-4.6-0.1-6.9-0.1
		c0-0.3,0-0.5,0-0.8c0,0,0,0,0,0c1.6,0,3.2,0,5.1,0c0-5.1,0-9.7,0-14.7C90.9,30.4,89.3,30.4,87.7,30.4L87.7,30.4z"/>
	<path fill="#ECECEC" d="M87.7,45.1c0,0.3,0,0.5,0,0.8c0,1.2,0,2.4,0,3.9c2,0,3.6,0,5.2,0c0,5.1,0,10.2-0.1,15.2c-1.7,0-3.4,0-5.5,0
		c0.1,1.8,0.2,2.9,0.3,4c0,0.3,0,0.5,0,0.8c-0.3-1.5-0.7-2.9-0.7-4.4c-0.1-5.3-0.1-10.6,0-16C87.1,48.1,87.5,46.6,87.7,45.1z"/>
	<path fill="#ECECEC" d="M92.9,89.3c0,5.1,0,10.2,0,15.3c-1.8,0-3.5,0-5.3-0.1c0-5.1,0-10.2,0-15.3C89.4,89.2,91.2,89.3,92.9,89.3z"
		/>
	<path fill="#EDEDED" d="M87.7,30.4c1.6,0,3.2,0,5.1,0c0,5.1,0,9.7,0,14.7c-1.9,0-3.5,0-5.1,0C87.7,40.3,87.7,35.3,87.7,30.4z"/>
	<path fill="#EDEDED" d="M87.7,69.8c5.3-0.1,5.3-0.1,5.3,5.3c0,3,0,6,0,9.4c-2.2,0-3.8,0-5.4,0C87.7,79.6,87.7,74.7,87.7,69.8z"/>
	<path fill="#ECECEC" d="M93,109.4c0,4.9,0,9.7,0,14.6c-1.8,0-3.5,0-5.3,0.1c0-4.9,0-9.8,0-14.8C89.4,109.3,91.2,109.3,93,109.4z"/>
	<path fill="#323232" d="M93,109.4c-1.8-0.1-3.5-0.1-5.3-0.2c0-1.6,0-3.1-0.1-4.7c1.8,0,3.5,0,5.3,0.1c0.8,0,1.6-0.2,2.3,0.1
		c1.4,0.6,2.6,1.4,3.9,2.1c-1.3,0.8-2.6,1.8-3.9,2.5C94.6,109.5,93.7,109.3,93,109.4z"/>
	<path fill="#343434" d="M92.9,89.3c-1.8,0-3.5,0-5.3-0.1c0-1.3,0-2.6-0.1-3.9c2.8,0,5.6-0.1,8.4,0.1c1,0.1,1.9,1.1,2.9,1.7
		c-1,0.7-1.8,1.6-2.9,2C95.1,89.4,94,89.2,92.9,89.3z"/>
	<path fill="#343434" d="M87.6,124c1.8,0,3.5,0,5.3-0.1c2,0.7,4,1.5,5.9,2.2c-2,0.6-3.9,1.4-6,1.7c-1.7,0.3-3.6,0.1-5.3,0.1
		C87.6,126.6,87.6,125.3,87.6,124z"/>
	<path fill="#323232" d="M92.9,25.7c2,0.7,4,1.4,6,2.1C97.8,31,95,29.3,93,29.6c-1.8,0.3-3.6,0.1-5.4,0.1c-0.1-1.1-0.1-2.2-0.2-3.9
		C89.5,25.7,91.2,25.7,92.9,25.7z"/>
	<path fill="#363636" d="M87.7,69.1c-0.1-1.1-0.2-2.2-0.3-4c2,0,3.7,0,5.5,0c1.4,0.1,2.9-0.1,4.1,0.3c0.9,0.3,1.5,1.4,2.2,2.1
		c-0.8,0.5-1.5,1.4-2.3,1.4C93.8,69.1,90.8,69.1,87.7,69.1z"/>
	<path fill="#323232" d="M92.9,49.9c-1.6,0-3.2,0-5.2,0c0-1.5,0-2.7,0-3.9c2.3,0,4.6-0.2,6.9,0.1c1.5,0.2,2.9,1.2,4.3,1.8
		c-1.5,0.7-3,1.3-4.5,1.9C94,49.9,93.4,49.8,92.9,49.9z"/>
</g>
</svg>
