<?xml version="1.0" encoding="utf-8"?>
<!-- Generator: Adobe Illustrator 17.1.0, SVG Export Plug-In . SVG Version: 6.00 Build 0)  -->
<!DOCTYPE svg PUBLIC "-//W3C//DTD SVG 1.1//EN" "http://www.w3.org/Graphics/SVG/1.1/DTD/svg11.dtd">
<svg version="1.1" id="Layer_1" xmlns="http://www.w3.org/2000/svg" xmlns:xlink="http://www.w3.org/1999/xlink" x="0px" y="0px"
	 viewBox="0 0 200 200" enable-background="new 0 0 200 200" xml:space="preserve">
<g>
	<path fill="#5B5B5B" d="M95.7,92.6c2.1-0.5,1.4-2.2,1.4-3.5c0.1-7.9,0-15.8,0-23.6c0-4.4,0-8.8,0-13.2c0-0.9,0-1.8,0.1-2.7
		c0.2-1.6,1-2.7,2.8-2.6c1.8,0,2.5,1.3,2.6,2.8c0.1,1.1,0.1,2.3,0.1,3.5c0,11.8,0,23.5,0,35.3c0,2.1,0.1,3.8,2.3,5.3
		c2.7,1.7,3.5,4.6,2.8,7.9c-0.2,0.9-0.3,1.8-0.5,2.7c-0.8,0.9-1.6,1.7-2.4,2.6c-4.4,1.9-8.5,2-11.9-2.2c-0.6-0.8-2.3-0.9-3.5-0.9
		c-8.9-0.1-17.9,0-26.8-0.1c-1.2,0-2.3,0-3.5-0.3c-1.8-0.4-2.9-1.7-2.9-3.6c0.1-1.8,1.1-2.9,2.8-3.3c1.1-0.3,2.3-0.3,3.5-0.3
		c8.9,0,17.9,0,26.8-0.1c1.2,0,3,0.8,3.6-1.2C94,94.2,94.8,93.4,95.7,92.6z M100.1,104.5c2.3-0.1,4.4-2.1,4.4-4.5
		c0.1-2.4-2.2-4.7-4.7-4.6c-2.3,0.1-4.4,2.1-4.4,4.5C95.4,102.4,97.7,104.6,100.1,104.5z"/>
	<path fill="#A3A3A3" d="M105,106.9c0.8-0.9,1.6-1.7,2.4-2.6c11.3,11.2,22.6,22.5,33.9,33.7c0.5,0.5,1.2,1.1,1.4,1.8
		c0.2,0.6,0.1,1.7-0.4,2c-0.4,0.4-1.4,0.3-2.1,0.1c-0.6-0.2-1-0.8-1.5-1.2C127.5,129.5,116.3,118.2,105,106.9z"/>
	<path fill="#A3A3A3" d="M103.9,31.3c0,2.1-1.8,3.9-4,3.9c-2.1,0-3.9-1.8-3.9-3.9c0-2.3,1.9-4.2,4.1-4.1
		C102.3,27.3,104,29.2,103.9,31.3z"/>
	<path fill="#A3A3A3" d="M31.3,96c2.1,0,3.9,1.8,3.9,3.9c0,2.3-2,4.1-4.3,3.9c-2.1-0.1-3.8-2-3.7-4.1C27.3,97.7,29.2,96,31.3,96z"/>
	<path fill="#A3A3A3" d="M172.8,100.1c-0.1,2.1-1.9,3.8-4,3.8c-2.3,0-4.2-2.1-4-4.3c0.2-2.1,2.1-3.7,4.2-3.6
		C171.1,96.2,172.9,98,172.8,100.1z"/>
	<path fill="#A3A3A3" d="M103.9,168.6c0.1,2.1-1.6,4-3.7,4.2c-2.2,0.2-4.2-1.7-4.2-4c0-2.1,1.8-4,3.9-4
		C102,164.7,103.8,166.5,103.9,168.6z"/>
	<path fill="#A8B4BD" d="M94.5,1.2c-1,0-2.1,0-3.1,0v0C92.4,1.2,93.5,1.2,94.5,1.2z"/>
	<path fill="#C5CDD3" d="M91.4,1.2L91.4,1.2c-0.8,0-1.6,0-2.3,0C89.8,1.2,90.6,1.2,91.4,1.2z"/>
	<path fill="#C5CDD3" d="M91.4,1.2c-0.8,0-1.6,0-2.3,0C89.8,1.2,90.6,1.2,91.4,1.2c1,0,2.1,0,3.1,0C93.5,1.2,92.4,1.2,91.4,1.2z"/>
	<path fill="#5B5B5B" d="M198.8,89C193.6,42.8,157.2,6.4,111,1.1c0-0.2-0.1-0.4-0.1-0.6H89.1c0,0.2,0,0.4-0.1,0.6c0.8,0,1.6,0,2.3,0
		c1,0,2.1,0,3.1,0c-1,0-2.1,0-3.1,0c-0.8,0-1.6,0-2.3,0C42.8,6.4,6.4,42.8,1.1,89c-0.2,0-0.4,0-0.6,0.1v21.8l0.3,0.1l0.3,0
		c5.2,46.3,41.6,82.7,87.9,87.9c0.8,0,8.1,0.4,9.4,0.6h3.1c1.3-0.2,8.6-0.7,9.4-0.6c46.3-5.2,82.7-41.6,87.9-87.9l0.3,0l0.3-0.1
		V89.1C199.3,89,199.1,89,198.8,89z M166,147.1c-12.2,17.3-29,28.1-49.8,32.3c-13.5,2.8-27,2.3-40.2-1.9c-0.5-0.2-1.1-0.5-1.6-0.7
		c-1.5-0.5-3.1-1.1-4.6-1.6c-5-2.6-10.4-4.6-15-7.8C36.3,155,24.4,137.8,20.3,116c-5-26.6,1.5-50.4,19.7-70.8
		c11.8-13.1,26.5-21.3,43.7-24.9c9.5-2,19.2-2.1,28.9-0.6c17.2,2.7,31.9,10.1,44.3,22.2c8.1,7.9,14.6,17,18.4,27.8
		c0.5,1.6,1.1,3.1,1.6,4.7c0.2,0.5,0.5,1,0.7,1.6C184.8,101.5,181.3,125.4,166,147.1z"/>
	<path fill="#FDFDFD" d="M175.2,69.7c0.5,1.5,1.1,3.1,1.6,4.6c-0.9,1-0.2,1.3,0.7,1.6c7.3,25.5,3.8,49.4-11.6,71.2
		c-12.2,17.3-29,28.1-49.8,32.3c-13.5,2.8-27,2.3-40.2-2c-0.3-0.9-0.6-1.6-1.6-0.7c-1.5-0.5-3.1-1.1-4.6-1.6c-0.7-0.7-1.3-1.6-2.2-2
		c-9.3-4.3-17-10.7-24-18.1c-6.5-6.9-11.4-14.7-14.9-23.4c-5.4-13.6-7-27.7-4.8-42.2c1.1-7.2,3.2-14.1,6.2-20.7
		C34.6,59,41,50.7,48.9,43.4c7.3-6.7,15.6-11.9,24.9-15.4c10-3.8,20.4-5.3,31.2-5c10,0.3,19.5,2.4,28.5,6.4
		c17.5,7.7,30.6,20.3,39.4,37.5C173.4,67.9,174.4,68.8,175.2,69.7z M93.1,95c-0.6,2.1-2.3,1.2-3.6,1.2c-8.9,0.1-17.9,0-26.8,0.1
		c-1.2,0-2.3,0-3.5,0.3c-1.7,0.4-2.7,1.5-2.8,3.3c-0.1,2,1,3.2,2.9,3.6c1.1,0.3,2.3,0.3,3.5,0.3c8.9,0,17.9,0,26.8,0.1
		c1.2,0,2.9,0.2,3.5,0.9c3.4,4.2,7.5,4,11.9,2.2c11.2,11.3,22.5,22.6,33.7,33.8c0.5,0.5,0.9,1,1.5,1.2c0.6,0.2,1.7,0.3,2.1-0.1
		c0.4-0.4,0.5-1.4,0.4-2c-0.2-0.7-0.8-1.3-1.4-1.8c-11.3-11.2-22.6-22.5-33.9-33.7c0.2-0.9,0.3-1.8,0.5-2.7c0.7-3.2-0.1-6.1-2.8-7.9
		c-2.2-1.4-2.3-3.1-2.3-5.3c0-11.8,0-23.5,0-35.3c0-1.2,0-2.3-0.1-3.5c-0.2-1.5-0.9-2.7-2.6-2.8c-1.8,0-2.6,1-2.8,2.6
		c-0.1,0.9-0.1,1.8-0.1,2.7c0,4.4,0,8.8,0,13.2c0,7.9,0,15.8,0,23.6c0,1.3,0.7,3-1.4,3.5c-1.6-1.7-3.2-3.3-4.8-5
		c-0.9-0.9-1.9-2-3.3-0.7c-1.4,1.3-0.3,2.3,0.6,3.2C89.8,91.8,91.5,93.4,93.1,95z M103.9,31.3c0-2.1-1.7-4-3.8-4.1
		C98,27.1,96,29,96,31.3c0,2.1,1.8,3.9,3.9,3.9C102.1,35.2,103.9,33.5,103.9,31.3z M31.3,96c-2.1,0-4,1.7-4.1,3.8
		c-0.1,2.1,1.6,4,3.7,4.1c2.3,0.2,4.3-1.7,4.3-3.9C35.2,97.9,33.4,96.1,31.3,96z M172.8,100.1c0.1-2.1-1.7-4-3.8-4.1
		c-2.2-0.1-4,1.5-4.2,3.6c-0.2,2.2,1.7,4.3,4,4.3C170.9,104,172.7,102.2,172.8,100.1z M103.9,168.6c-0.1-2.1-1.9-3.9-4-3.8
		c-2.1,0.1-3.9,1.9-3.9,4c0,2.3,2,4.2,4.2,4C102.4,172.6,104,170.8,103.9,168.6z"/>
	<path fill="#DEE3E6" d="M175.2,69.7c-0.8-1-1.8-1.8-2.3-2.9c-8.7-17.1-21.8-29.7-39.4-37.5c-9-4-18.6-6.2-28.5-6.4
		c-10.8-0.3-21.1,1.3-31.2,5c-9.3,3.5-17.6,8.6-24.9,15.4C41,50.7,34.6,59,30.1,68.8c-3,6.6-5.1,13.5-6.2,20.7
		c-2.2,14.5-0.7,28.6,4.8,42.2c3.5,8.7,8.4,16.5,14.9,23.4c7,7.4,14.7,13.7,24,18.1c0.9,0.4,1.5,1.3,2.2,2c-5-2.6-10.4-4.6-15-7.8
		C36.3,155,24.4,137.8,20.3,116c-5-26.6,1.5-50.4,19.7-70.8c11.8-13.1,26.5-21.3,43.7-24.9c9.5-2,19.2-2.1,28.9-0.6
		c17.2,2.7,31.9,10.1,44.3,22.2C164.9,49.8,171.4,58.9,175.2,69.7z"/>
	<path fill="#DEE3E6" d="M177.5,76c-0.9-0.3-1.6-0.6-0.7-1.6C177.1,74.9,177.3,75.4,177.5,76z"/>
	<path fill="#DEE3E6" d="M76,177.5c-0.5-0.2-1.1-0.5-1.6-0.7C75.4,176,75.7,176.7,76,177.5z"/>
	<path fill="#A3A3A3" d="M95.7,92.6c-0.9,0.8-1.7,1.6-2.6,2.4c-1.7-1.6-3.3-3.2-4.9-4.9c-0.9-0.9-2-2-0.6-3.2
		c1.3-1.2,2.4-0.1,3.3,0.7C92.5,89.2,94.1,90.9,95.7,92.6z"/>
	<path fill="#F4F5F6" d="M100.1,104.5c-2.4,0.1-4.7-2.2-4.7-4.6c0-2.3,2.1-4.4,4.4-4.5c2.4-0.1,4.7,2.2,4.7,4.6
		C104.5,102.4,102.4,104.5,100.1,104.5z"/>
</g>
</svg>
