<?xml version="1.0" encoding="utf-8"?>
<!-- Generator: Adobe Illustrator 17.1.0, SVG Export Plug-In . SVG Version: 6.00 Build 0)  -->
<!DOCTYPE svg PUBLIC "-//W3C//DTD SVG 1.1//EN" "http://www.w3.org/Graphics/SVG/1.1/DTD/svg11.dtd">
<svg version="1.1" id="Layer_1" xmlns="http://www.w3.org/2000/svg" xmlns:xlink="http://www.w3.org/1999/xlink" x="0px" y="0px"
	 viewBox="0 0 200 200" enable-background="new 0 0 200 200" xml:space="preserve">
<g>
	<path fill="#818181" d="M101.5,0.5c5.9,7.4,2.7,15.8,2.4,23.9c0,1-2.6,2.7-4,2.7c-1.4,0-3.9-1.7-4-2.7c-0.3-8-3.5-16.5,2.4-23.9
		C99.4,0.5,100.4,0.5,101.5,0.5z"/>
	<path fill="#818181" d="M184.5,89.6c9,1.9,12.2,11.4,5.6,19.8c-5.4,6.9-11.6,13.4-18.4,19c-48.6,39.3-119,32.3-159.4-15.6
		c-7.8-9.2-7.8-15.6,0-24.8c40.4-47.9,110.3-54.7,159.5-15.7c3.5,2.8,6.4,5.5,4.3,10.4c-3.3-0.8-6.9-1-9.8-2.7
		c-8.2-4.7-16-10-23.9-15c-0.4,0.6-0.8,1.1-1.3,1.7c7.8,9.9,11.9,21,12,33.6c0.1,12.7-4.3,23.9-13.2,35.6
		c15.2-5.9,26.1-14.1,35.6-24.1c4.5-4.8,10.5-9.1,6.9-17.4C182,93.2,183.8,91.2,184.5,89.6z M143.7,100.4
		c0-24.1-19.5-43.7-43.5-43.8c-24.1-0.1-43.8,19.3-44,43.3c-0.2,24.4,19.5,44.2,43.9,44.2C124.1,144,143.6,124.5,143.7,100.4z
		 M58,67.2c-1.8,0-3-0.4-3.9,0.1c-14.4,6.6-26.3,16.5-36,28.9c-1.4,1.8-1.1,6.9,0.4,8.9c9.2,11.8,20.6,21.1,34,27.8
		c1.3,0.6,2.8,0.8,4.3,1.2c-0.6-1.5-0.9-3.2-1.7-4.6c-11.5-19.4-11.5-38.7,0-58.1C55.8,70.3,56.6,69.2,58,67.2z"/>
	<path fill="#F0F0F0" d="M184.5,89.6c-0.7,1.6-2.4,3.7-2,4.8c3.6,8.3-2.4,12.6-6.9,17.4c-9.5,10-20.4,18.2-35.6,24.1
		c8.9-11.8,13.2-22.9,13.2-35.6c-0.1-12.6-4.2-23.7-12-33.6c0.4-0.6,0.8-1.1,1.3-1.7c7.9,5.1,15.8,10.3,23.9,15
		c2.8,1.6,6.5,1.8,9.8,2.7C178.9,85,181.7,87.3,184.5,89.6z"/>
	<path fill="#818181" d="M104.5,186.6c0,2.8,0.5,5.8-0.2,8.5c-0.5,1.8-2.7,4.3-4.3,4.4c-1.5,0.1-4.3-2.5-4.5-4.1
		c-0.5-5.9-0.5-11.9,0-17.8c0.1-1.5,3-4,4.5-3.9c1.6,0.1,3.7,2.5,4.2,4.3C105.1,180.8,104.5,183.8,104.5,186.6z"/>
	<path fill="#818181" d="M46.5,42.7c-0.1,0.6-0.5,1.1-1.1,1.2c-2.4,0.8-5.3,2.2-6.6,1.3c-3.8-2.5-7.2-6-9.8-9.8
		c-2.5-3.7,0.5-8,3.9-6.4c5,2.3,8.9,6.9,13.2,10.7c0.4,0.4,0.6,0.9,0.5,1.4C46.7,41.7,46.6,42.2,46.5,42.7z"/>
	<path fill="#818181" d="M158,47.1c-1-0.3-1.9-1.1-2.2-2.1c-0.6-2.3-1.5-4.7-0.7-6c2.3-3.6,5.7-6.7,9.2-9.2c3.6-2.6,8.2,0,6.8,3.3
		c-2.1,4.9-6.4,8.9-10.1,13.1C160.2,47,159.1,47.4,158,47.1L158,47.1z"/>
	<path fill="#818181" d="M47.1,160.3c-3.3,2.7-6.6,5.4-9.9,8.1c-2.6,2.1-6.6,1.3-7.9-1.8c-0.2-0.5-0.3-0.8-0.1-1.1
		c2.8-3.9,6.3-7.5,10.2-10.3c1.3-0.9,4.6,1,7,1.7C46.6,158.1,46.9,159.2,47.1,160.3z"/>
	<path fill="#818181" d="M164.4,171.9c-2.8-3.7-5.6-7.4-8.4-11.1c-1-1.4-0.7-3.3,0.8-4.2c1.5-1,3-1.8,3.5-1.4
		c4,3.1,7.8,6.8,10.7,10.9c0.7,0.9-0.7,3.3-1.7,5.3c-0.4,0.8-1.1,1.4-2,1.6c0,0,0,0,0,0C166.2,173.2,165,172.8,164.4,171.9z"/>
	<path fill="#CFCFCF" d="M143.7,100.4c0,24-19.6,43.6-43.6,43.7c-24.4,0.1-44.1-19.8-43.9-44.2c0.2-24,19.9-43.4,44-43.3
		C124.2,56.7,143.7,76.3,143.7,100.4z M99.9,80.2c-10.4,0-19.9,9.4-20.1,19.8c-0.2,10.6,9.5,20.5,20.2,20.5
		c10.4,0,19.9-9.4,20.1-19.8C120.3,90.1,110.5,80.2,99.9,80.2z"/>
	<path fill="#F0F0F0" d="M58,67.2c-1.4,2-2.2,3-2.9,4.1c-11.5,19.4-11.5,38.7,0,58.1c0.8,1.4,1.1,3,1.7,4.6c-1.4-0.4-3-0.5-4.3-1.2
		c-13.5-6.7-24.9-16-34-27.8c-1.5-2-1.9-7-0.4-8.9c9.6-12.5,21.5-22.4,36-28.9C55,66.9,56.2,67.2,58,67.2z"/>
	<path fill="#818181" d="M99.9,80.2c10.7,0,20.4,9.9,20.2,20.5c-0.2,10.4-9.8,19.8-20.1,19.8c-10.7,0-20.4-9.9-20.2-20.5
		C80,89.6,89.5,80.2,99.9,80.2z M110.4,100.2c-0.1-5.5-5-10.3-10.5-10.4c-5.5,0-10.4,4.8-10.5,10.3c-0.1,5.8,5.2,11,10.9,10.7
		C105.8,110.7,110.5,105.6,110.4,100.2z"/>
	<path fill="#FFFFFF" d="M110.4,100.2c0.1,5.5-4.7,10.5-10.2,10.7c-5.7,0.2-11-5-10.9-10.7c0.1-5.5,5.1-10.3,10.5-10.3
		C105.4,89.8,110.3,94.7,110.4,100.2z"/>
</g>
</svg>
