<?xml version="1.0" encoding="utf-8"?>
<!-- Generator: Adobe Illustrator 17.1.0, SVG Export Plug-In . SVG Version: 6.00 Build 0)  -->
<!DOCTYPE svg PUBLIC "-//W3C//DTD SVG 1.1//EN" "http://www.w3.org/Graphics/SVG/1.1/DTD/svg11.dtd">
<svg version="1.1" id="Layer_1" xmlns="http://www.w3.org/2000/svg" xmlns:xlink="http://www.w3.org/1999/xlink" x="0px" y="0px"
	 viewBox="0 0 200 200" enable-background="new 0 0 200 200" xml:space="preserve">
<path fill="#FFFFFF" d="M199,100.3c0,51.3-39.2,93.5-89.3,98.2c-3.1,0.3-6.2,0.4-9.3,0.4s-6.3-0.1-9.3-0.4
	C44.2,194,6.9,156.9,2.3,110.1c0-0.4-0.1-0.9-0.1-1.3c-0.2-2.8-0.4-5.6-0.4-8.5c0-2.9,0.1-5.7,0.4-8.5c0.1-1.1,0.2-2.2,0.3-3.3
	c0.8-6.8,2.3-13.3,4.4-19.6C7,68.7,7,68.6,7.1,68.4c0.1-0.3,0.2-0.6,0.3-0.9c0.1-0.4,0.3-0.8,0.4-1.1c0,0,0,0,0,0
	c0.2-0.6,0.4-1.1,0.6-1.7c0-0.1,0-0.1,0.1-0.2c0.1-0.2,0.2-0.5,0.3-0.7C8.9,63.5,9,63.2,9.1,63c2.9-7.1,6.6-13.8,11-19.9
	c0,0,0-0.1,0.1-0.1C38.1,18,67.3,1.7,100.4,1.7c10.4,0,20.5,1.6,29.9,4.6c27.6,8.8,50,29.4,61.1,56c1.5,3.6,2.8,7.2,3.9,11
	c0.2,0.7,0.4,1.5,0.6,2.2c0.1,0.3,0.2,0.6,0.2,0.9c0,0.1,0,0.2,0.1,0.3c0,0.2,0.1,0.4,0.2,0.7c0,0.2,0.1,0.3,0.1,0.4
	c0.1,0.2,0.1,0.4,0.1,0.6c0,0.2,0.1,0.3,0.1,0.5C198.2,85.8,199,92.9,199,100.3z"/>
<g>
	<path fill="#2FA9D2" d="M196.7,80.5c0.2,0.9,0.3,1.8,0.5,2.7C197,82.3,196.9,81.4,196.7,80.5z M196.4,79.1c0,0,0-0.1,0-0.1
		c0-0.2-0.1-0.4-0.1-0.6C196.3,78.6,196.3,78.9,196.4,79.1C196.4,79.1,196.4,79.1,196.4,79.1z M196,77.2c0-0.1,0-0.2-0.1-0.3
		c0.1,0.3,0.1,0.6,0.2,0.9C196.1,77.6,196,77.4,196,77.2z M33.5,27.8c0.8-0.7,1.5-1.4,2.3-2.1C35,26.4,34.2,27.1,33.5,27.8z"/>
	<path fill="#6D6D6D" d="M171.4,112.9c7.3-7.9,16.5-11.2,27.1-11.5c0-1.2,0-2.5,0-3.7c0-0.4,0-0.7,0-1.1c0-0.4,0-0.8,0-1.1
		c0-0.5,0-0.9-0.1-1.4c0-0.2,0-0.5,0-0.7c0-0.4,0-0.8-0.1-1.2c0-0.4-0.1-0.8-0.1-1.2c0-0.1,0-0.3,0-0.4c0-0.4-0.1-0.7-0.1-1.1
		c0-0.3-0.1-0.6-0.1-0.9c0-0.4-0.1-0.7-0.1-1.1c0-0.1,0-0.2,0-0.4c0-0.4-0.1-0.7-0.1-1.1c-0.1-0.9-0.3-1.8-0.4-2.7
		c-0.2-0.9-0.3-1.8-0.5-2.7c-0.1-0.4-0.2-0.9-0.3-1.3c0,0,0,0,0-0.1c-0.1-0.3-0.1-0.6-0.2-0.8c0-0.2-0.1-0.3-0.1-0.4
		c-0.1-0.3-0.1-0.6-0.2-0.9c-0.1-0.3-0.1-0.6-0.2-0.9c-0.2-0.7-0.4-1.5-0.6-2.2c-0.9-3.3-2.1-6.5-3.4-9.7c-6.3,3-12.9,4.9-19.9,5
		c-31.3,0.6-53.6-31.1-42.4-60.3c0.2-0.6,0.5-1.3,0.7-2c0.1-0.2,0.1-0.4,0.2-0.6c-6.4-1.4-12.8-2.7-19.2-4.1
		C111.1,2,89.6,1.6,89.6,1.6c0,0.2,0,0.4-0.1,0.7c-2.3,0.3-4.6,0.7-6.8,1.1c-0.6,0.1-1.1,0.2-1.7,0.3c-0.7,0.1-1.4,0.3-2.1,0.5
		c-0.4,0.1-0.7,0.2-1,0.2c-1.6,0.4-3.2,0.8-4.8,1.3c-0.3,0.1-0.6,0.2-1,0.3c-0.5,0.1-0.9,0.3-1.4,0.4c-0.2,0-0.4,0.1-0.5,0.2
		c-0.5,0.2-1,0.3-1.5,0.5c0,0,0,0,0,0c-0.4,0.1-0.9,0.3-1.3,0.4c-0.2,0.1-0.3,0.1-0.5,0.2c-0.3,0.1-0.6,0.2-0.9,0.3
		c-1.4,0.5-2.8,1-4.1,1.6c-0.4,0.2-0.9,0.4-1.3,0.6c-0.5,0.2-1,0.4-1.5,0.7c-1.9,0.8-3.7,1.7-5.5,2.7c-0.5,0.2-0.9,0.5-1.4,0.7
		c-3.6,2-7.1,4.2-10.4,6.7c-0.4,0.3-0.8,0.6-1.2,0.9c-0.4,0.3-0.8,0.6-1.2,0.9c-0.1,0.1-0.3,0.2-0.4,0.4c-1.1,0.9-2.1,1.8-3.2,2.7
		c-0.8,0.7-1.5,1.4-2.3,2.1c-4.1,3.9-8,8.3-11.5,13c-0.3,0.4-0.6,0.8-0.9,1.2c0,0-0.1,0.1-0.1,0.1c-0.3,0.4-0.6,0.8-0.9,1.2
		c0,0.1-0.1,0.1-0.1,0.2c0,0,0,0.1-0.1,0.1c-0.2,0.3-0.4,0.6-0.6,0.8c-0.1,0.2-0.3,0.4-0.4,0.6c-0.4,0.6-0.8,1.3-1.3,1.9
		c-0.3,0.4-0.6,0.9-0.8,1.3c-0.8,1.3-1.6,2.6-2.3,4c-0.2,0.3-0.4,0.7-0.6,1c-0.5,1-1.1,2-1.6,3c-0.3,0.5-0.5,1-0.7,1.5
		c-0.5,1.1-1,2.1-1.6,3.2c-0.3,0.6-0.5,1.1-0.8,1.7C9.2,63,9.1,63.2,9,63.5c-0.1,0.3-0.2,0.6-0.3,0.8c-0.1,0.2-0.2,0.5-0.3,0.7
		c0,0,0,0.1-0.1,0.2c-0.2,0.6-0.4,1.1-0.6,1.7c0,0,0,0,0,0c-0.1,0.4-0.3,0.8-0.4,1.1c-0.1,0.3-0.2,0.6-0.3,0.9
		c-0.1,0.2-0.1,0.4-0.2,0.5c-0.2,0.6-0.4,1.2-0.5,1.7c-0.2,0.6-0.4,1.2-0.5,1.9c-0.1,0.4-0.2,0.8-0.3,1.2c-0.1,0.2-0.1,0.4-0.2,0.6
		c0,0,0,0.1,0,0.1c-0.1,0.4-0.2,0.7-0.3,1.1c-0.2,0.8-0.4,1.6-0.6,2.5c-0.1,0.3-0.1,0.6-0.2,0.9c0,0,0,0,0,0.1
		c0,0.2-0.1,0.4-0.1,0.7c0,0.1,0,0.2,0,0.3c-0.1,0.3-0.1,0.5-0.1,0.8c0,0.1,0,0.2-0.1,0.3c0,0.2-0.1,0.4-0.1,0.6c0,0.1,0,0.2,0,0.2
		c0,0.2-0.1,0.4-0.1,0.6c0,0.1,0,0.1,0,0.2c0,0.2-0.1,0.4-0.1,0.6c0,0,0,0,0,0c-0.1,0.5-0.2,1-0.2,1.5C3.1,86,3,86.5,2.9,87
		c0,0.2,0,0.3-0.1,0.5c-0.1,0.5-0.1,1.1-0.2,1.6c0,2-0.5,8.2-0.7,9.3c0,0,0.7,10.3,0.7,12.4c1.5,13.7,5.7,26.4,12.6,38.3
		c1.8,3.1,1.8,3,5.3,1.7c16.2-6.5,34.3-2.6,46.3,9.7c1.6,1.7,2,2.2-0.5,3.6c-2.7,1.5-4.9,4-7.3,6c0.2,0.2,0.5,0.5,0.7,0.7
		c10.1-4.7,20.1-4.8,29.6,1.2c4,2.5,7.2,6.3,10.8,9.5c1.3-2.9,2.4-5.9,3.8-8.7c1.7-3.3,4.5-5.6,7.8-7.1c2.5-1.1,3-2.4,2.2-5.1
		c-6.2-18.9,5.9-38.9,24.4-42.4c13-2.5,25.3,1,33.9,12.6c0.3,0.4,0.5,0.9,0.9,1.2c0.3,0.3,0.8,0.5,1.2,0.8c0.1-0.5,0.4-1,0.2-1.4
		c-1.3-3.3-2.3-6.8-4.1-9.8C166.9,115.5,168.1,116.4,171.4,112.9z"/>
	<path fill="#FDFEFE" d="M191.2,62.8c0.1,0.4,0.3,0.9,0.4,1.3c1.4,3.2,2.5,6.4,3.4,9.7C194,70.1,192.7,66.4,191.2,62.8z M196.4,79.1
		c0,0,0-0.1,0-0.1c0-0.2-0.1-0.4-0.1-0.6C196.3,78.6,196.3,78.9,196.4,79.1C196.4,79.1,196.4,79.1,196.4,79.1z M196,77.2
		c0-0.1,0-0.2-0.1-0.3c0.1,0.3,0.1,0.6,0.2,0.9C196.1,77.6,196,77.4,196,77.2z"/>
	<path fill="#FDFEFE" d="M196.5,79.4c0.1,0.4,0.2,0.7,0.2,1.1c0.2,0.9,0.3,1.8,0.5,2.7c0.2,0.9,0.3,1.8,0.4,2.7
		c0,0.4,0.1,0.7,0.1,1.1c0,0.1,0,0.2,0,0.4c0,0.4,0.1,0.7,0.1,1.1c0,0.3,0.1,0.6,0.1,0.9c0,0.4,0.1,0.7,0.1,1.1c0,0.1,0,0.3,0,0.4
		c0,0.4,0.1,0.8,0.1,1.2c0,0.4,0.1,0.8,0.1,1.2c0,0.2,0,0.5,0,0.7c0,0.5,0,0.9,0.1,1.4c0,0.4,0,0.8,0,1.1c0,0.4,0,0.7,0,1.1
		c0,1.2,0,2.5,0,3.7c0.5,9.4-1.3,18.6-4.2,27.5c-9.5,29.1-28.3,49.8-56.4,62c-9.2,4-18.9,6-28.8,7.2c-1.8,0.2-3-0.1-3.2-2.1
		c-0.6-5.3-3-10-5.7-14.5c-3.6-3.2-6.8-7-10.8-9.5c-9.5-5.9-19.5-5.8-29.6-1.2c-0.4,0.2-0.8,0.5-1.3,0.7c0,0-0.5,0.4-0.7,0.5
		c0.1-0.2,0.1-0.5,0.2-0.8c0.2-0.3,0.5-0.5,0.7-0.8c0.1-0.2,0.2-0.3,0.4-0.4c2.4-2.1,4.6-4.5,7.3-6c2.5-1.4,2.1-1.9,0.5-3.6
		c-12-12.3-30.2-16.2-46.3-9.7c-3.4,1.4-3.5,1.4-5.3-1.7c-6.9-11.9-11.1-24.7-12.6-38.3c-0.2,0-0.4,0-0.6-0.1
		c4.6,46.8,41.9,83.9,88.8,88.3h18.6c50.1-4.7,89.3-46.9,89.3-98.2C198.8,93.5,198,86.3,196.5,79.4z"/>
	<path fill="#FDFDFE" d="M6.7,69.5c-0.2,0.6-0.4,1.2-0.5,1.7c-0.2,0.6-0.4,1.2-0.5,1.9c-0.1,0.4-0.2,0.8-0.3,1.2
		c-0.1,0.2-0.1,0.4-0.2,0.6c0,0,0,0.1,0,0.1c-0.1,0.4-0.2,0.7-0.3,1.1c-0.2,0.8-0.4,1.6-0.6,2.5c-0.1,0.3-0.1,0.6-0.2,0.9
		c0,0,0,0,0,0.1c0,0.2-0.1,0.4-0.1,0.7c0,0.1,0,0.2,0,0.3c-0.1,0.3-0.1,0.5-0.1,0.8c0,0.1,0,0.2-0.1,0.3c0,0.2-0.1,0.4-0.1,0.6
		c0,0.1,0,0.2,0,0.2c0,0.2-0.1,0.4-0.1,0.6c0,0.1,0,0.1,0,0.2c0,0.2-0.1,0.4-0.1,0.6c0,0,0,0,0,0c-0.1,0.5-0.2,1-0.2,1.5
		C3.1,86,3,86.5,2.9,87c0,0.2,0,0.3-0.1,0.5c-0.1,0.5-0.1,1.1-0.2,1.6c-0.1,0-0.2,0-0.4,0C3.1,82.3,4.6,75.8,6.7,69.5z"/>
	<path fill="#FDFDFE" d="M19.9,43.6c-0.2,0.3-0.4,0.6-0.6,0.8c-0.1,0.2-0.3,0.4-0.4,0.6c-0.4,0.6-0.8,1.3-1.3,1.9
		c-0.3,0.4-0.6,0.9-0.8,1.3c-0.8,1.3-1.6,2.6-2.3,4c-0.2,0.3-0.4,0.7-0.6,1c-0.5,1-1.1,2-1.6,3c-0.3,0.5-0.5,1-0.7,1.5
		c-0.5,1.1-1,2.1-1.6,3.2c-0.3,0.6-0.5,1.1-0.8,1.7C9.2,63,9.1,63.2,9,63.5C11.9,56.4,15.6,49.8,19.9,43.6z"/>
	<path fill="#FDFDFE" d="M35.7,25.7c-0.8,0.7-1.5,1.4-2.3,2.1C34.2,27.1,35,26.4,35.7,25.7z"/>
	<path fill="#7A7A7A" d="M194.3,128.9c-9.5,29.1-28.3,49.8-56.4,62c-9.2,4-18.9,6-28.8,7.2c-1.8,0.2-3-0.1-3.2-2.1
		c-0.6-5.3-3-10-5.7-14.5c1.3-2.9,2.4-5.9,3.8-8.7c1.7-3.3,4.5-5.6,7.8-7.1c2.5-1.1,3-2.4,2.2-5.1c-6.2-18.9,5.9-38.9,24.4-42.4
		c13-2.5,25.3,1,33.9,12.6c0.3,0.4,0.5,0.9,0.9,1.2c0.3,0.3,0.8,0.5,1.2,0.8c0.1-0.5,0.4-1,0.2-1.4c-1.3-3.3-2.3-6.8-4.1-9.8
		c-3.5-6-2.3-5.1,0.9-8.6c7.3-7.9,16.5-11.2,27.1-11.5C199,110.8,197.2,120,194.3,128.9z"/>
	<path fill="#9B9B9B" d="M191.7,64.1c-6.3,3-12.9,4.9-19.9,5c-31.3,0.6-53.6-31.1-42.4-60.3c0.2-0.6,0.5-1.3,0.7-2
		c0.1-0.2,0.1-0.4,0.2-0.6c15.4,4.8,28.7,13.1,40,24.6c8.5,8.6,15.3,18.5,20.1,29.6c0.3,0.7,0.6,1.5,0.8,2.3
		C191.4,63.3,191.5,63.7,191.7,64.1z"/>
	<path fill="#FBFDFD" d="M59.7,66.2c-4.8,0-9.1,4.3-9.1,9.1c0,4.9,4.5,9.4,9.4,9.2c4.8-0.2,9-4.5,8.9-9.3
		C68.8,70.3,64.5,66.1,59.7,66.2z M59.7,78.2c-1.2-0.3-2.3-1.5-2.9-1.9c-0.1-2.6,1.4-4.1,3.1-4c1.7,0.1,2.8,1.2,2.9,2.9
		C62.9,76.9,61.3,78.7,59.7,78.2z"/>
	<polygon fill="#D7EEF6" points="26.6,164.4 26.4,164.2 26.6,164.4 	"/>
	<polygon fill="#D7EEF6" points="28.9,167.5 28.7,167.3 28.9,167.5 	"/>
	<path fill="#6D6D6D" d="M58.5,171.5c0,0-0.5,0.4-0.7,0.5c0.1-0.2,0.1-0.5,0.2-0.8c0.2-0.3,0.5-0.5,0.7-0.8c0.1-0.2,0.2-0.3,0.4-0.4
		c0.2,0.2,0.5,0.5,0.7,0.7C59.4,171,58.9,171.3,58.5,171.5z"/>
	<polygon fill="#DAF0F7" points="35.8,173.7 35.6,173.5 35.8,173.6 	"/>
</g>
<g>
	<path fill="#FFFFFF" d="M117.8,73.6l-6.1,7.3c-3.1-2.4-6.1-3.8-9.8-3.8c-7,0-11.9,5.6-11.9,19c0,13.2,4.8,18.8,12.1,18.8
		c4.3,0,7.5-2,10.7-4.4l5.8,7.4c-3.6,3.6-9.5,7-17.1,7c-15,0-25-10.1-25-28.8c0-18.3,10.6-28.5,24.8-28.5
		C108.3,67.6,113.2,69.8,117.8,73.6z"/>
</g>
</svg>
