<?xml version="1.0" encoding="utf-8"?>
<!-- Generator: Adobe Illustrator 19.0.0, SVG Export Plug-In . SVG Version: 6.00 Build 0)  -->
<svg version="1.1" id="Layer_1" xmlns="http://www.w3.org/2000/svg" xmlns:xlink="http://www.w3.org/1999/xlink" x="0px" y="0px"
	 viewBox="0 0 83.4 85.4" style="enable-background:new 0 0 83.4 85.4;" xml:space="preserve">
<style type="text/css">
	.st0{fill:#429FCE;}
	.st1{fill:#B5B5B5;}
</style>
<g id="XMLID_498_">
	<path id="XMLID_1879_" class="st0" d="M11.2,49.4h24.5c0,0,0,0,0,0c0,0,0,0,0,0h0l0,0c4.9,0,8.9-4,8.9-8.9c0-4.9-4-8.9-8.9-8.9
		c-4.9,0-8.9,4-8.9,8.9c0,0.8,0.7,1.5,1.5,1.5c0.8,0,1.5-0.7,1.5-1.5c0-3.2,2.6-5.8,5.8-5.8c3.2,0,5.8,2.6,5.8,5.8
		c0,3.2-2.6,5.8-5.8,5.8H11.2c-0.8,0-1.5,0.7-1.5,1.5S10.4,49.4,11.2,49.4z"/>
	<path id="XMLID_1878_" class="st0" d="M75.2,42.5c0-6.8-5.5-12.3-12.3-12.3c-6.8,0-12.3,5.5-12.3,12.3c0,0.8,0.7,1.5,1.5,1.5
		c0.8,0,1.5-0.7,1.5-1.5c0-5.1,4.1-9.2,9.2-9.2c5.1,0,9.2,4.1,9.2,9.2c0,5.1-4.1,9.2-9.2,9.2h-55c-0.8,0-1.5,0.7-1.5,1.5
		s0.7,1.5,1.5,1.5h55c0,0,0,0,0,0c0,0,0,0,0,0h0l0,0C69.7,54.7,75.2,49.2,75.2,42.5z"/>
	<path id="XMLID_499_" class="st0" d="M49.9,57.8L49.9,57.8l-30.6,0c-0.8,0-1.5,0.7-1.5,1.5c0,0.8,0.7,1.5,1.5,1.5h30.6c0,0,0,0,0,0
		c3.2,0,5.8,2.6,5.8,5.8c0,3.2-2.6,5.8-5.8,5.8c-3.2,0-5.8-2.6-5.8-5.8c0-0.8-0.7-1.5-1.5-1.5S41,65.8,41,66.7c0,4.9,4,8.9,8.9,8.9
		s8.9-4,8.9-8.9C58.8,61.8,54.8,57.8,49.9,57.8z"/>
</g>
<path id="XMLID_237_" class="st1" d="M69.6,24.2c-1.1,0-2.1,0.1-3.1,0.4C65.9,10.9,54.6,0,40.8,0c-10.9,0-20.2,6.8-24,16.3
	C7.4,16.8,0,24.5,0,33.9C0,40,3.1,45.4,7.7,48.5c0-0.2-0.1-0.4-0.1-0.7c0-1.9,1.6-3.5,3.5-3.5h24.5c2.1,0,3.8-1.7,3.8-3.8
	s-1.7-3.8-3.8-3.8c-2.1,0-3.8,1.7-3.8,3.8c0,1.9-1.6,3.5-3.5,3.5c-1.9,0-3.5-1.6-3.5-3.5c0-6,4.9-10.9,10.9-10.9
	c6,0,10.9,4.9,10.9,10.9c0,3.8-2,7.2-5,9.2h21.4c4,0,7.2-3.2,7.2-7.2s-3.2-7.2-7.2-7.2c-4,0-7.2,3.2-7.2,7.2c0,1.9-1.6,3.5-3.5,3.5
	c-1.9,0-3.5-1.6-3.5-3.5c0-7.9,6.4-14.3,14.3-14.3c7.9,0,14.3,6.4,14.3,14.3c0,3-1,5.9-2.6,8.2c5.1-2,8.8-6.9,8.8-12.8
	C83.4,30.3,77.2,24.2,69.6,24.2z"/>
<path id="XMLID_236_" class="st0" d="M32.7,73.5h-5.4l2.3-2.3c0.5-0.5,0.5-1.3,0-1.8h0c-0.5-0.5-1.3-0.5-1.8,0l-2.3,2.3v-5.4
	c0-0.9-0.7-1.6-1.6-1.6c-0.9,0-1.6,0.7-1.6,1.6v5.4L20,69.4c-0.5-0.5-1.3-0.5-1.8,0c-0.5,0.5-0.5,1.3,0,1.8l2.3,2.3h-5.4
	c-0.9,0-1.6,0.7-1.6,1.6c0,0.9,0.7,1.6,1.6,1.6h5.4L18.3,79c-0.5,0.5-0.5,1.3,0,1.8c0.5,0.5,1.3,0.5,1.8,0l2.3-2.3v5.4
	c0,0.9,0.7,1.6,1.6,1.6c0.9,0,1.6-0.7,1.6-1.6v-5.4l2.3,2.3c0.5,0.5,1.3,0.5,1.8,0h0c0.5-0.5,0.5-1.3,0-1.8l-2.3-2.3h5.4
	c0.9,0,1.6-0.7,1.6-1.6C34.3,74.2,33.6,73.5,32.7,73.5z"/>
<path id="XMLID_68_" class="st0" d="M74.2,62.5h-3.1l1.3-1.3c0.3-0.3,0.3-0.7,0-1h0c-0.3-0.3-0.7-0.3-1,0l-1.3,1.3v-3.1
	c0-0.5-0.4-0.9-0.9-0.9c-0.5,0-0.9,0.4-0.9,0.9v3.1l-1.3-1.3c-0.3-0.3-0.7-0.3-1,0c-0.3,0.3-0.3,0.7,0,1l1.3,1.3h-3.1
	c-0.5,0-0.9,0.4-0.9,0.9c0,0.5,0.4,0.9,0.9,0.9h3.1l-1.3,1.3c-0.3,0.3-0.3,0.7,0,1c0.3,0.3,0.7,0.3,1,0l1.3-1.3v3.1
	c0,0.5,0.4,0.9,0.9,0.9c0.5,0,0.9-0.4,0.9-0.9v-3.1l1.3,1.3c0.3,0.3,0.7,0.3,1,0h0c0.3-0.3,0.3-0.7,0-1l-1.3-1.3h3.1
	c0.5,0,0.9-0.4,0.9-0.9C75.2,62.9,74.7,62.5,74.2,62.5z"/>
</svg>
