<?xml version="1.0" encoding="utf-8"?>
<!-- Generator: Adobe Illustrator 19.0.0, SVG Export Plug-In . SVG Version: 6.00 Build 0)  -->
<svg version="1.1" id="Layer_1" xmlns="http://www.w3.org/2000/svg" xmlns:xlink="http://www.w3.org/1999/xlink" x="0px" y="0px"
	 viewBox="0 0 63.4 63.4" style="enable-background:new 0 0 63.4 63.4;" xml:space="preserve">
<style type="text/css">
	.st0{fill:#FFCC66;}
</style>
<path id="XMLID_261_" class="st0" d="M62.6,33.3c-0.6-0.2-1.3-0.2-1.8,0.4c-4.1,4.9-10.2,7.6-16.6,7.6c-12.1,0-21.9-9.8-21.9-21.9
	c0-6.3,2.7-12.3,7.6-16.6c0.6-0.4,0.6-1.2,0.4-1.8s-0.8-1-1.6-1C12.3,1.6,0,15.1,0,31.7c0,17.6,14.3,31.7,31.7,31.7
	c16.4,0,30.1-12.3,31.7-28.6C63.5,34,63.2,33.5,62.6,33.3z"/>
</svg>
