<?xml version="1.0" encoding="utf-8"?>
<!-- Generator: Adobe Illustrator 19.0.0, SVG Export Plug-In . SVG Version: 6.00 Build 0)  -->
<svg version="1.1" id="Layer_1" xmlns="http://www.w3.org/2000/svg" xmlns:xlink="http://www.w3.org/1999/xlink" x="0px" y="0px"
	 viewBox="0 0 82.7 82.7" style="enable-background:new 0 0 82.7 82.7;" xml:space="preserve">
<style type="text/css">
	.st0{fill:#FFCC66;}
</style>
<circle id="XMLID_56_" class="st0" cx="41.3" cy="40.5" r="21.9"/>
<path id="XMLID_55_" class="st0" d="M41.3,14.7L41.3,14.7c-1.4,0-2.5-1.1-2.5-2.5V2.5C38.8,1.1,40,0,41.3,0h0c1.4,0,2.5,1.1,2.5,2.5
	v9.7C43.8,13.5,42.7,14.7,41.3,14.7z"/>
<path id="XMLID_54_" class="st0" d="M41.3,82.7L41.3,82.7c-1.4,0-2.5-1.1-2.5-2.5v-9.7c0-1.4,1.1-2.5,2.5-2.5h0
	c1.4,0,2.5,1.1,2.5,2.5v9.7C43.8,81.5,42.7,82.7,41.3,82.7z"/>
<path id="XMLID_53_" class="st0" d="M68,41.3L68,41.3c0-1.4,1.1-2.5,2.5-2.5h9.7c1.4,0,2.5,1.1,2.5,2.5v0c0,1.4-1.1,2.5-2.5,2.5
	h-9.7C69.1,43.8,68,42.7,68,41.3z"/>
<path id="XMLID_52_" class="st0" d="M0,41.3L0,41.3c0-1.4,1.1-2.5,2.5-2.5h9.7c1.4,0,2.5,1.1,2.5,2.5v0c0,1.4-1.1,2.5-2.5,2.5H2.5
	C1.1,43.8,0,42.7,0,41.3z"/>
<path id="XMLID_51_" class="st0" d="M60.2,22.5L60.2,22.5c-1-1-1-2.6,0-3.5l6.8-6.8c1-1,2.6-1,3.5,0l0,0c1,1,1,2.6,0,3.5l-6.8,6.8
	C62.8,23.4,61.2,23.4,60.2,22.5z"/>
<path id="XMLID_50_" class="st0" d="M12.1,70.6L12.1,70.6c-1-1-1-2.6,0-3.5l6.8-6.8c1-1,2.6-1,3.5,0l0,0c1,1,1,2.6,0,3.5l-6.8,6.8
	C14.7,71.5,13.1,71.5,12.1,70.6z"/>
<path id="XMLID_38_" class="st0" d="M60.2,60.2L60.2,60.2c1-1,2.6-1,3.5,0l6.8,6.8c1,1,1,2.6,0,3.5h0c-1,1-2.6,1-3.5,0l-6.8-6.8
	C59.2,62.8,59.2,61.2,60.2,60.2z"/>
<path id="XMLID_35_" class="st0" d="M12.1,12.1L12.1,12.1c1-1,2.6-1,3.5,0l6.8,6.8c1,1,1,2.6,0,3.5l0,0c-1,1-2.6,1-3.5,0l-6.8-6.8
	C11.1,14.7,11.1,13.1,12.1,12.1z"/>
</svg>
