<?xml version="1.0" encoding="utf-8"?>
<!-- Generator: Adobe Illustrator 19.0.0, SVG Export Plug-In . SVG Version: 6.00 Build 0)  -->
<svg version="1.1" id="Layer_1" xmlns="http://www.w3.org/2000/svg" xmlns:xlink="http://www.w3.org/1999/xlink" x="0px" y="0px"
	 viewBox="0 0 83.3 51.6" style="enable-background:new 0 0 83.3 51.6;" xml:space="preserve">
<style type="text/css">
	.st0{fill:#B5B5B5;}
</style>
<g id="XMLID_68_">
	<path id="XMLID_1295_" class="st0" d="M83.3,39.3H0.8c0.5,1.4,1.1,2.8,1.9,4h79.5C82.8,42,83.1,40.7,83.3,39.3z"/>
	<path id="XMLID_1190_" class="st0" d="M0.2,31.3C0.1,32.1,0,33,0,33.9c0,0.5,0,0.9,0.1,1.3h83c-0.3-1.4-0.8-2.8-1.4-4H0.2z"/>
	<path id="XMLID_1189_" class="st0" d="M1.3,27.3h77c-2.4-1.9-5.4-3.1-8.7-3.1c-1.1,0-2.1,0.1-3.1,0.4c0-0.4-0.1-0.8-0.1-1.3H3.6
		C2.7,24.5,1.9,25.8,1.3,27.3z"/>
	<path id="XMLID_499_" class="st0" d="M6.1,47.3c3.1,2.7,7.1,4.3,11.5,4.3h52c3.9,0,7.5-1.7,10-4.3H6.1z"/>
	<path id="XMLID_498_" class="st0" d="M53.3,3.3C49.6,1.2,45.3,0,40.8,0C36.2,0,32,1.2,28.3,3.3H53.3z"/>
	<path id="XMLID_237_" class="st0" d="M22.9,7.3c-1.3,1.2-2.4,2.6-3.4,4h42.6c-1-1.4-2.1-2.8-3.4-4H22.9z"/>
	<path id="XMLID_236_" class="st0" d="M17.3,15.3c-0.2,0.4-0.3,0.7-0.5,1.1c-3.3,0.2-6.3,1.2-8.9,2.9h57.8c-0.4-1.4-0.8-2.7-1.4-4
		H17.3z"/>
</g>
</svg>
