<?xml version="1.0" encoding="utf-8"?>
<!-- Generator: Adobe Illustrator 19.0.0, SVG Export Plug-In . SVG Version: 6.00 Build 0)  -->
<svg version="1.1" id="Layer_1" xmlns="http://www.w3.org/2000/svg" xmlns:xlink="http://www.w3.org/1999/xlink" x="0px" y="0px"
	 viewBox="0 0 83.4 80.8" style="enable-background:new 0 0 83.4 80.8;" xml:space="preserve">
<style type="text/css">
	.st0{fill:#B5B5B5;}
	.st1{fill:#429FCE;}
</style>
<g id="XMLID_1189_">
	<path id="XMLID_1697_" class="st0" d="M69.6,24.2c-1.1,0-2.1,0.1-3.1,0.4C65.9,10.9,54.6,0,40.8,0c-10.9,0-20.2,6.8-24,16.3
		C7.4,16.8,0,24.5,0,33.9c0,9.7,7.9,17.6,17.7,17.6h52c7.6,0,13.7-6.1,13.7-13.7S77.2,24.2,69.6,24.2z"/>
</g>
<g id="XMLID_237_">
	<path id="XMLID_498_" class="st1" d="M39.7,61.4c-0.2-0.2-0.6-0.2-0.8,0c-0.3,0.3-6.9,8.2-6.9,12.2c0,4.1,3.3,7.3,7.3,7.3
		c4.1,0,7.3-3.3,7.3-7.3C46.6,69.6,39.9,61.7,39.7,61.4z"/>
</g>
<path id="XMLID_236_" class="st1" d="M15.1,60h9.1c0.3,0,0.5,0.4,0.3,0.7L20,70.8c-0.1,0.3-0.5,0.3-0.7,0l-4.5-10.2
	C14.6,60.3,14.8,60,15.1,60z"/>
<path id="XMLID_68_" class="st1" d="M54.8,60h9.1c0.3,0,0.5,0.4,0.3,0.7l-4.5,10.2c-0.1,0.3-0.5,0.3-0.7,0l-4.5-10.2
	C54.4,60.3,54.5,60,54.8,60z"/>
</svg>
