<?xml version="1.0" encoding="utf-8"?>
<!-- Generator: Adobe Illustrator 19.0.0, SVG Export Plug-In . SVG Version: 6.00 Build 0)  -->
<svg version="1.1" id="Layer_1" xmlns="http://www.w3.org/2000/svg" xmlns:xlink="http://www.w3.org/1999/xlink" x="0px" y="0px"
	 viewBox="0 0 108.7 86.6" style="enable-background:new 0 0 108.7 86.6;" xml:space="preserve">
<style type="text/css">
	.st0{fill:#DBDBDB;}
	.st1{fill:#B5B5B5;}
	.st2{fill:#429FCE;}
</style>
<path id="XMLID_434_" class="st0" d="M11.6,39.1c0.9,0,1.8,0.1,2.6,0.3C14.8,27.9,24.3,18.7,36,18.7c9.2,0,17.1,5.7,20.3,13.8
	c7.9,0.4,14.2,6.9,14.2,14.9c0,8.2-6.7,14.9-14.9,14.9H11.6C5.2,62.3,0,57.1,0,50.7C0,44.3,5.2,39.1,11.6,39.1z"/>
<path id="XMLID_381_" class="st1" d="M93.5,26.4c-1.2,0-2.3,0.1-3.4,0.4C89.4,11.9,77.1,0,62,0C51,0,41.4,6.3,36.8,15.5
	c9.6,0.1,18.1,5.6,22.1,14.2c8.6,1.2,15.2,8.6,15.2,17.5c0,3.4-1,6.6-2.7,9.3h22.1c8.3,0,15-6.7,15-15
	C108.5,33.1,101.8,26.4,93.5,26.4z"/>
<circle id="XMLID_380_" class="st2" cx="58.3" cy="79.4" r="7.1"/>
<circle id="XMLID_379_" class="st2" cx="77" cy="70.1" r="4.8"/>
<circle id="XMLID_261_" class="st2" cx="38" cy="74.1" r="4.8"/>
</svg>
