<?xml version="1.0" encoding="utf-8"?>
<!-- Generator: Adobe Illustrator 19.0.0, SVG Export Plug-In . SVG Version: 6.00 Build 0)  -->
<svg version="1.1" id="Layer_1" xmlns="http://www.w3.org/2000/svg" xmlns:xlink="http://www.w3.org/1999/xlink" x="0px" y="0px"
	 viewBox="-18 0.9 83.4 83.1" style="enable-background:new -18 0.9 83.4 83.1;" xml:space="preserve">
<style type="text/css">
	.st0{fill:#B5B5B5;}
	.st1{fill:#429FCE;}
</style>
<g id="XMLID_1532_">
	<path id="XMLID_1650_" class="st0" d="M51.6,25c-1.1,0-2.1,0.1-3.1,0.4C47.9,11.7,36.6,0.8,22.8,0.8c-10.9,0-20.2,6.8-24,16.3
		C-10.6,17.6-18,25.3-18,34.8c0,9.7,7.9,17.6,17.7,17.6h52c7.6,0,13.7-6.1,13.7-13.7S59.2,25,51.6,25z"/>
</g>
<g>
	<path class="st1" d="M26.3,70H20l2.7-2.7c0.6-0.6,0.6-1.5,0-2.1c-0.6-0.6-1.5-0.6-2.1,0l-2.7,2.7v-6.3c0-1.1-0.9-1.9-1.9-1.9
		c-1.1,0-1.9,0.9-1.9,1.9v6.3l-2.7-2.7c-0.6-0.6-1.5-0.6-2.1,0c-0.5,0.6-0.5,1.5,0,2.1L12,70H5.8c-1.1,0-1.9,0.9-1.9,1.9
		s0.8,1.9,1.8,1.9H12l-2.7,2.7c-0.6,0.6-0.6,1.5,0,2.1c0.6,0.5,1.5,0.5,2.1,0l2.7-2.7v6.2c0,1.1,0.9,1.9,1.9,1.9s1.9-0.8,1.9-1.9
		v-6.2l2.7,2.7c0.6,0.6,1.5,0.6,2.1,0c0.6-0.6,0.6-1.5,0-2.1L20,73.8h6.3c1.1,0,1.9-0.9,1.9-1.9C28.2,70.8,27.3,70,26.3,70z"/>
	<path class="st1" d="M41.7,62.9h-4l1.8-1.8c0.4-0.4,0.4-0.9,0-1.3c-0.4-0.4-0.9-0.4-1.3,0l-1.8,1.8v-4c0-0.7-0.5-1.2-1.2-1.2
		S34,56.9,34,57.6v4l-1.7-1.7c-0.4-0.4-0.9-0.4-1.3,0c-0.4,0.3-0.4,0.9,0,1.3l1.7,1.7h-4c-0.7,0-1.2,0.5-1.2,1.2
		c0,0.7,0.6,1.2,1.2,1.2h4L31,67c-0.4,0.4-0.4,0.9,0,1.3c0.4,0.4,1,0.4,1.3,0l1.7-1.7v4c0,0.7,0.5,1.2,1.2,1.2s1.2-0.5,1.2-1.2v-4
		l1.8,1.8c0.4,0.4,0.9,0.4,1.3,0c0.4-0.4,0.4-0.9,0-1.3l-1.8-1.8h4c0.7,0,1.2-0.5,1.2-1.2C42.9,63.4,42.4,62.9,41.7,62.9z"/>
</g>
</svg>
