<?xml version="1.0" encoding="utf-8"?>
<!-- Generator: Adobe Illustrator 19.0.0, SVG Export Plug-In . SVG Version: 6.00 Build 0)  -->
<svg version="1.1" id="Layer_1" xmlns="http://www.w3.org/2000/svg" xmlns:xlink="http://www.w3.org/1999/xlink" x="0px" y="0px"
	 viewBox="-3 -13.9 114.8 111.9" style="enable-background:new -3 -13.9 114.8 111.9;" xml:space="preserve">
<style type="text/css">
	.st0{fill:#FFCC66;}
	.st1{fill:#B5B5B5;}
	.st2{fill:#429FCE;}
</style>
<g id="XMLID_196_">
	<path id="XMLID_278_" class="st0" d="M45.6,28.2c2.5-5.4,6.7-9.8,11.7-12.5c-3.8-6.6-10.9-11-19-11c-12.1,0-21.9,9.8-21.9,21.9
		c0,8.6,5,16.1,12.3,19.7C29.3,37,36.4,29.4,45.6,28.2z"/>
	<path id="XMLID_277_" class="st0" d="M38.3,0.8c1.4,0,2.5-1.1,2.5-2.5v-9.7c0-1.4-1.1-2.5-2.5-2.5s-2.5,1.1-2.5,2.5v9.7
		C35.8-0.4,37,0.8,38.3,0.8z"/>
	<path id="XMLID_276_" class="st0" d="M11.7,27.4c0-1.4-1.1-2.5-2.5-2.5h-9.7c-1.4,0-2.5,1.2-2.5,2.5s1.1,2.5,2.5,2.5h9.7
		C10.5,29.9,11.7,28.8,11.7,27.4z"/>
	<path id="XMLID_275_" class="st0" d="M60.7,8.6l6.8-6.8c1-1,1-2.6,0-3.5l0,0c-1-1-2.6-1-3.5,0l-6.8,6.8c-1,1-1,2.6,0,3.5
		S59.8,9.5,60.7,8.6z"/>
	<path id="XMLID_198_" class="st0" d="M15.9,46.3l-6.8,6.8c-1,1-1,2.6,0,3.5c1,1,2.6,1,3.5,0l6.8-6.8c1-1,1-2.6,0-3.5
		C18.5,45.3,16.9,45.3,15.9,46.3z"/>
	<path id="XMLID_197_" class="st0" d="M15.9,8.6c1,1,2.6,1,3.5,0c1-1,1-2.6,0-3.5l-6.8-6.8c-1-1-2.6-1-3.5,0l0,0c-1,1-1,2.6,0,3.5
		L15.9,8.6z"/>
</g>
<g id="XMLID_98_">
	<path id="XMLID_99_" class="st1" d="M98.7,39.1c-1,0-2,0.1-3,0.3c-0.6-13-11.3-23.3-24.5-23.3c-10.4,0-19.2,6.4-22.8,15.5
		c-8.9,0.4-15.9,7.7-15.9,16.7c0,9.3,7.5,16.8,16.8,16.8h49.4c7.2,0,13-5.8,13-13S105.9,39.1,98.7,39.1z"/>
</g>
<g>
	<path class="st2" d="M74.8,83.9h-6.2l2.7-2.7c0.6-0.6,0.6-1.5,0-2.1c-0.6-0.6-1.5-0.6-2.1,0l-2.7,2.7v-6.2c0-1.1-0.9-1.9-1.9-1.9
		c-1.1,0-1.9,0.9-1.9,1.9v6.2L60,79.1c-0.6-0.6-1.5-0.6-2.1,0c-0.6,0.6-0.6,1.5,0,2.1l2.7,2.7h-6.3c-1.1,0-1.9,0.9-1.9,1.9
		c0,1.1,0.9,1.9,1.9,1.9h6.3l-2.7,2.7c-0.6,0.6-0.6,1.5,0,2.1c0.6,0.6,1.5,0.6,2.1,0l2.7-2.7v6.3c0,1.1,0.9,1.9,1.9,1.9
		s1.9-0.9,1.9-1.9v-6.3l2.7,2.7c0.6,0.6,1.5,0.6,2.1,0c0.6-0.6,0.6-1.5,0-2.1l-2.7-2.7h6.2c1.1,0,1.9-0.9,1.9-1.9
		C76.7,84.7,75.8,83.9,74.8,83.9z"/>
	<path class="st2" d="M90.3,76.8h-3.9l1.7-1.7c0.4-0.4,0.4-0.9,0-1.3c-0.4-0.4-0.9-0.4-1.3,0L85,75.6v-4.1c0-0.7-0.5-1.2-1.2-1.2
		c-0.7,0-1.2,0.5-1.2,1.2v4l-1.7-1.7c-0.4-0.4-0.9-0.4-1.3,0c-0.4,0.4-0.4,1,0,1.3l1.7,1.7h-4c-0.7,0-1.2,0.5-1.2,1.2
		s0.6,1.2,1.2,1.2h4.1L79.6,81c-0.4,0.4-0.4,0.9,0,1.3c0.3,0.3,0.9,0.3,1.3,0l1.7-1.7v3.9c0,0.7,0.5,1.2,1.2,1.2
		c0.7,0,1.2-0.5,1.2-1.2v-4l1.8,1.8c0.4,0.4,0.9,0.4,1.3,0c0.4-0.4,0.4-0.9,0-1.3l-1.8-1.8h4c0.7,0,1.2-0.5,1.2-1.2
		S91,76.8,90.3,76.8z"/>
</g>
</svg>
