<?xml version="1.0" encoding="utf-8"?>
<!-- Generator: Adobe Illustrator 19.0.0, SVG Export Plug-In . SVG Version: 6.00 Build 0)  -->
<svg version="1.1" id="Layer_1" xmlns="http://www.w3.org/2000/svg" xmlns:xlink="http://www.w3.org/1999/xlink" x="0px" y="0px"
	 viewBox="0 0 108.4 62.3" style="enable-background:new 0 0 108.4 62.3;" xml:space="preserve">
<style type="text/css">
	.st0{fill:#B5B5B5;}
	.st1{fill:#DBDBDB;}
</style>
<g id="XMLID_1295_">
	<path id="XMLID_1354_" class="st0" d="M69.3,35.1c1.2,1.3,2.3,2.8,3.1,4.5h36c-0.2-1.6-0.6-3.1-1.3-4.5H69.3z"/>
	<path id="XMLID_1353_" class="st0" d="M73.8,44.1c0.2,1,0.3,2,0.3,3.1c0,0.5,0,1-0.1,1.4h32.7c0.8-1.4,1.3-2.9,1.6-4.5H73.8z"/>
	<path id="XMLID_1352_" class="st0" d="M45.4,17.1c2.7,1,5.2,2.6,7.4,4.5h36.5c-0.4-1.6-0.9-3-1.5-4.5H45.4z"/>
	<path id="XMLID_1351_" class="st0" d="M58.9,29.7c1.3,0.2,2.5,0.5,3.7,0.9h41.3c-2.7-2.6-6.4-4.2-10.4-4.2c-1.2,0-2.3,0.1-3.4,0.4
		c0-0.2,0-0.5-0.1-0.7H56.8C57.6,27.2,58.3,28.4,58.9,29.7z"/>
	<path id="XMLID_1350_" class="st0" d="M73,53.1c-0.4,1.2-1,2.3-1.6,3.4h22.1c3.6,0,6.9-1.3,9.5-3.4H73z"/>
	<path id="XMLID_1349_" class="st0" d="M75.9,3.7C71.8,1.3,67,0,62,0c-5.1,0-9.8,1.3-13.9,3.7H75.9z"/>
	<path id="XMLID_1348_" class="st0" d="M42.2,8.2c-1.4,1.4-2.6,2.9-3.7,4.5h47c-1.1-1.6-2.3-3.1-3.7-4.5H42.2z"/>
</g>
<g id="XMLID_68_">
	<path id="XMLID_1190_" class="st1" d="M0,50.6C0,50.6,0,50.7,0,50.6c0,1.6,0.3,2.9,0.8,4.2h67.6c0.8-1.3,1.3-2.7,1.6-4.2H0z"/>
	<path id="XMLID_1189_" class="st1" d="M3.8,42.2c-1.3,1.2-2.3,2.6-2.9,4.2h69.5c-0.1-1.5-0.4-2.9-0.9-4.2H3.8z"/>
	<path id="XMLID_499_" class="st1" d="M14.4,38H67c-1.5-1.8-3.4-3.3-5.6-4.2H15.3C14.8,35.1,14.5,36.5,14.4,38z"/>
	<path id="XMLID_498_" class="st1" d="M20.4,25.3c-1.2,1.3-2.3,2.7-3.2,4.2h37.6c-0.9-1.5-2-2.9-3.2-4.2H20.4z"/>
	<path id="XMLID_237_" class="st1" d="M26.1,21.1h19.6c-3-1.5-6.3-2.3-9.8-2.3C32.4,18.7,29.1,19.6,26.1,21.1z"/>
	<path id="XMLID_236_" class="st1" d="M3.6,59.1c2.1,2,4.9,3.2,8,3.2h43.9c3.5,0,6.7-1.2,9.3-3.2H3.6z"/>
</g>
</svg>
