<?xml version="1.0" encoding="utf-8"?>
<!-- Generator: Adobe Illustrator 19.0.0, SVG Export Plug-In . SVG Version: 6.00 Build 0)  -->
<svg version="1.1" id="Layer_1" xmlns="http://www.w3.org/2000/svg" xmlns:xlink="http://www.w3.org/1999/xlink" x="0px" y="0px"
	 viewBox="0 0 83.4 83.2" style="enable-background:new 0 0 83.4 83.2;" xml:space="preserve">
<style type="text/css">
	.st0{fill:#B5B5B5;}
	.st1{fill:#429FCE;}
</style>
<g id="XMLID_499_">
	<path id="XMLID_500_" class="st0" d="M69.6,24.2c-1.1,0-2.1,0.1-3.1,0.4C65.9,10.9,54.6,0,40.8,0c-10.9,0-20.2,6.8-24,16.3
		C7.4,16.8,0,24.5,0,33.9c0,9.7,7.9,17.6,17.7,17.6h52c7.6,0,13.7-6.1,13.7-13.7S77.2,24.2,69.6,24.2z"/>
</g>
<g id="XMLID_236_">
	<path id="XMLID_237_" class="st1" d="M55,56.7c-0.1-0.1-0.4-0.1-0.5,0c-0.2,0.2-5,5.9-5,8.8c0,2.9,2.4,5.2,5.2,5.2
		c2.9,0,5.2-2.4,5.2-5.2C59.9,62.6,55.1,56.9,55,56.7z"/>
</g>
<path id="XMLID_68_" class="st1" d="M44.3,69.2H38l2.7-2.7c0.6-0.6,0.6-1.5,0-2.1h0c-0.6-0.6-1.5-0.6-2.1,0l-2.7,2.7v-6.3
	c0-1-0.8-1.9-1.9-1.9c-1,0-1.9,0.8-1.9,1.9v6.3l-2.7-2.7c-0.6-0.6-1.5-0.6-2.1,0c-0.6,0.6-0.6,1.5,0,2.1l2.7,2.7h-6.3
	c-1,0-1.9,0.8-1.9,1.9c0,1,0.8,1.9,1.9,1.9h6.3l-2.7,2.7c-0.6,0.6-0.6,1.5,0,2.1c0.6,0.6,1.5,0.6,2.1,0l2.7-2.7v6.3
	c0,1,0.8,1.9,1.9,1.9c1,0,1.9-0.8,1.9-1.9V75l2.7,2.7c0.6,0.6,1.5,0.6,2.1,0h0c0.6-0.6,0.6-1.5,0-2.1L38,72.9h6.3
	c1,0,1.9-0.8,1.9-1.9C46.2,70,45.3,69.2,44.3,69.2z"/>
</svg>
