<?xml version="1.0" encoding="utf-8"?>
<!-- Generator: Adobe Illustrator 19.0.0, SVG Export Plug-In . SVG Version: 6.00 Build 0)  -->
<svg version="1.1" id="Layer_1" xmlns="http://www.w3.org/2000/svg" xmlns:xlink="http://www.w3.org/1999/xlink" x="0px" y="0px"
	 viewBox="0 0 114.8 111.8" style="enable-background:new 0 0 114.8 111.8;" xml:space="preserve">
<style type="text/css">
	.st0{fill:#429FCE;}
	.st1{fill:#FFCC66;}
	.st2{fill:#B5B5B5;}
</style>
<g id="XMLID_687_">
	<path id="XMLID_688_" class="st0" d="M87.4,85.3c-0.1-0.1-0.4-0.1-0.5,0c-0.2,0.2-5,5.9-5,8.8c0,2.9,2.4,5.2,5.2,5.2
		c2.9,0,5.2-2.4,5.2-5.2C92.3,91.3,87.5,85.6,87.4,85.3z"/>
</g>
<g id="XMLID_498_">
	<path id="XMLID_686_" class="st1" d="M48.6,42.1c2.5-5.4,6.7-9.8,11.7-12.5c-3.8-6.6-10.9-11-19-11c-12.1,0-21.9,9.8-21.9,21.9
		c0,8.6,5,16.1,12.3,19.7C32.3,50.9,39.4,43.3,48.6,42.1z"/>
	<path id="XMLID_685_" class="st1" d="M41.3,14.7c1.4,0,2.5-1.1,2.5-2.5V2.5c0-1.4-1.1-2.5-2.5-2.5s-2.5,1.1-2.5,2.5v9.7
		C38.8,13.5,40,14.7,41.3,14.7z"/>
	<path id="XMLID_684_" class="st1" d="M14.7,41.3c0-1.4-1.1-2.5-2.5-2.5H2.5C1.1,38.8,0,40,0,41.3s1.1,2.5,2.5,2.5h9.7
		C13.5,43.8,14.7,42.7,14.7,41.3z"/>
	<path id="XMLID_683_" class="st1" d="M63.7,22.5l6.8-6.8c1-1,1-2.6,0-3.5v0c-1-1-2.6-1-3.5,0l-6.8,6.8c-1,1-1,2.6,0,3.5
		C61.2,23.4,62.8,23.4,63.7,22.5z"/>
	<path id="XMLID_500_" class="st1" d="M18.9,60.2L12.1,67c-1,1-1,2.6,0,3.5c1,1,2.6,1,3.5,0l6.8-6.8c1-1,1-2.6,0-3.5
		C21.5,59.2,19.9,59.2,18.9,60.2z"/>
	<path id="XMLID_499_" class="st1" d="M18.9,22.5c1,1,2.6,1,3.5,0c1-1,1-2.6,0-3.5l-6.8-6.8c-1-1-2.6-1-3.5,0v0c-1,1-1,2.6,0,3.5
		L18.9,22.5z"/>
</g>
<g id="XMLID_236_">
	<path id="XMLID_237_" class="st2" d="M101.7,53c-1,0-2,0.1-3,0.3c-0.6-13-11.3-23.3-24.5-23.3c-10.4,0-19.2,6.4-22.8,15.5
		c-8.9,0.4-15.9,7.7-15.9,16.7c0,9.3,7.5,16.8,16.8,16.8h49.4c7.2,0,13-5.8,13-13S108.9,53,101.7,53z"/>
</g>
<path id="XMLID_68_" class="st0" d="M76.7,97.8h-6.3l2.7-2.7c0.6-0.6,0.6-1.5,0-2.1h0c-0.6-0.6-1.5-0.6-2.1,0l-2.7,2.7v-6.3
	c0-1-0.8-1.9-1.9-1.9c-1,0-1.9,0.8-1.9,1.9v6.3L61.8,93c-0.6-0.6-1.5-0.6-2.1,0c-0.6,0.6-0.6,1.5,0,2.1l2.7,2.7h-6.3
	c-1,0-1.9,0.8-1.9,1.9c0,1,0.8,1.9,1.9,1.9h6.3l-2.7,2.7c-0.6,0.6-0.6,1.5,0,2.1c0.6,0.6,1.5,0.6,2.1,0l2.7-2.7v6.3
	c0,1,0.8,1.9,1.9,1.9c1,0,1.9-0.8,1.9-1.9v-6.3l2.7,2.7c0.6,0.6,1.5,0.6,2.1,0h0c0.6-0.6,0.6-1.5,0-2.1l-2.7-2.7h6.3
	c1,0,1.9-0.8,1.9-1.9C78.6,98.6,77.7,97.8,76.7,97.8z"/>
</svg>
