<?xml version="1.0" encoding="utf-8"?>
<!-- Generator: Adobe Illustrator 19.0.0, SVG Export Plug-In . SVG Version: 6.00 Build 0)  -->
<svg version="1.1" id="Layer_1" xmlns="http://www.w3.org/2000/svg" xmlns:xlink="http://www.w3.org/1999/xlink" x="0px" y="0px"
	 viewBox="-18 2.3 83.4 81.7" style="enable-background:new -18 2.3 83.4 81.7;" xml:space="preserve">
<style type="text/css">
	.st0{fill:#B5B5B5;}
	.st1{fill:#429FCE;}
</style>
<g id="XMLID_1836_">
	<path id="XMLID_1837_" class="st0" d="M51.6,26.5c-1.1,0-2.1,0.1-3.1,0.4C47.9,13.2,36.6,2.3,22.8,2.3c-10.9,0-20.2,6.8-24,16.3
		C-10.6,19.1-18,26.8-18,36.2c0,9.7,7.9,17.6,17.7,17.6h52c7.6,0,13.7-6.1,13.7-13.7S59.2,26.5,51.6,26.5z"/>
</g>
<g>
	<path class="st1" d="M29.6,72.1h-3.5l1.5-1.5c0.3-0.3,0.3-0.8,0-1.1c-0.3-0.3-0.8-0.3-1.1,0L25,71v-3.5c0-0.5-0.4-1-1-1
		c-0.5,0-1,0.4-1,1V71l-1.6-1.6c-0.3-0.3-0.8-0.3-1.1,0c-0.3,0.4-0.3,0.9,0,1.1l1.6,1.6h-3.6c-0.5,0-1,0.4-1,1c0,0.6,0.4,1.1,1,1
		h3.6l-1.6,1.6c-0.3,0.3-0.3,0.8,0,1.1s0.8,0.3,1.1,0l1.6-1.6v3.6c0,0.5,0.4,1,1,1c0.5,0,1-0.4,1-1v-3.6l1.5,1.5
		c0.3,0.3,0.8,0.3,1.1,0c0.3-0.3,0.3-0.8,0-1.1l-1.5-1.5h3.5c0.5,0,1-0.4,1-1C30.6,72.6,30.2,72.1,29.6,72.1z"/>
	<path class="st1" d="M2.3,67.1h-3.5l1.5-1.5c0.3-0.3,0.3-0.8,0-1.1s-0.8-0.3-1.1,0L-2.3,66v-3.5c0-0.5-0.4-1-1-1c-0.5,0-1,0.4-1,1
		V66l-1.6-1.6c-0.3-0.3-0.8-0.3-1.1,0c-0.3,0.4-0.3,0.9,0,1.2l1.5,1.5H-9c-0.5,0-1,0.4-1,1c0,0.6,0.4,1.1,1,1h3.6L-7,70.7
		c-0.3,0.3-0.3,0.8,0,1.1s0.8,0.3,1.1,0l1.6-1.6v3.6c0,0.5,0.4,1,1,1c0.6,0,1-0.4,1-1v-3.6l1.5,1.5c0.3,0.3,0.8,0.3,1.1,0
		s0.3-0.8,0-1.1l-1.5-1.5h3.5c0.5,0,1-0.4,1-1C3.3,67.6,2.9,67.1,2.3,67.1z"/>
	<path class="st1" d="M17.6,64.7v-0.1c0-0.4-0.3-0.7-0.7-0.7h-2.6l1.1-1.1c0.2-0.2,0.2-0.6,0-0.8c-0.2-0.2-0.6-0.2-0.8,0l-1.1,1.1
		v-2.6c0-0.5-0.4-0.8-0.8-0.8c-0.5,0-0.8,0.4-0.8,0.8v2.6L10.8,62c-0.2-0.2-0.6-0.2-0.8,0s-0.2,0.6,0,0.8l1.1,1.1H8.5
		c-0.4,0-0.7,0.3-0.7,0.7v0.1c0,0.4,0.3,0.7,0.7,0.7h2.7L10,66.6c-0.2,0.2-0.2,0.6,0,0.8c0.2,0.2,0.6,0.2,0.8,0l1.1-1.1v2.5
		c0,0.5,0.4,0.8,0.8,0.8c0.4,0,0.8-0.4,0.8-0.8v-2.5l1.1,1.1c0.2,0.2,0.6,0.2,0.8,0c0.2-0.2,0.2-0.6,0-0.8l-1.2-1.2h2.7
		C17.3,65.4,17.6,65.1,17.6,64.7z"/>
	<path class="st1" d="M13,78.3h-2.5l1.1-1.1c0.2-0.2,0.2-0.6,0-0.8c-0.2-0.2-0.6-0.2-0.8,0l-1.1,1.1v-2.6c0-0.5-0.4-0.8-0.8-0.8
		c-0.5,0-0.8,0.4-0.8,0.8v2.6L7,76.4c-0.2-0.2-0.6-0.2-0.8,0c-0.3,0.2-0.3,0.6,0,0.8l1.1,1.1H4.8c-0.5,0-0.8,0.4-0.8,0.8
		c0,0.4,0.3,0.7,0.7,0.8h2.6L6.2,81c-0.2,0.2-0.2,0.6,0,0.8s0.6,0.2,0.8,0l1.1-1.1v2.5c0,0.5,0.4,0.8,0.8,0.8c0.4,0,0.7-0.4,0.8-0.8
		v-2.5l1.1,1.1c0.2,0.2,0.6,0.2,0.8,0c0.2-0.2,0.2-0.6,0-0.8l-1.1-1.1H13c0.5,0,0.8-0.4,0.8-0.8C13.8,78.6,13.4,78.3,13,78.3z"/>
	<path class="st1" d="M34.7,68.8c0,0.5,0.4,0.8,0.8,0.8s0.7-0.4,0.8-0.8v-2.5l1.1,1.1c0.2,0.2,0.6,0.2,0.8,0c0.2-0.2,0.2-0.6,0-0.8
		l-1.1-1.1h2.6c0.5,0,0.8-0.4,0.8-0.8c0-0.5-0.4-0.8-0.8-0.8h-2.6l1.1-1.1c0.2-0.2,0.2-0.6,0-0.8s-0.6-0.2-0.8,0l-1.1,1.1v-2.6
		c0-0.5-0.4-0.8-0.8-0.8c-0.5,0-0.8,0.4-0.8,0.8v2.6L33.6,62c-0.2-0.2-0.6-0.2-0.8,0s-0.2,0.6,0,0.8l1.1,1.1h-2.5
		c-0.5,0-0.8,0.4-0.8,0.8c0,0.4,0.3,0.7,0.8,0.8h2.5l-1.1,1.1c-0.2,0.2-0.2,0.6,0,0.8c0.2,0.2,0.6,0.2,0.8,0l1.1-1.1V68.8z"/>
	<path class="st1" d="M43.4,78.3h-2.6l1.1-1.1c0.2-0.2,0.2-0.6,0-0.8l-0.1-0.1c-0.2-0.2-0.6-0.2-0.8,0l-1,1v-2.4
		c0-0.5-0.4-0.8-0.8-0.8c-0.5,0-0.8,0.4-0.8,0.8v2.6l-1.1-1.1c-0.2-0.2-0.6-0.2-0.8,0c-0.3,0.2-0.3,0.6,0,0.8l1.1,1.1h-2.5
		c-0.5,0-0.8,0.4-0.8,0.8c0,0.4,0.3,0.7,0.7,0.8h2.5L36.4,81c-0.2,0.2-0.2,0.5,0.1,0.8c0.2,0.2,0.6,0.2,0.8,0l1.1-1.1v2.5
		c0,0.5,0.4,0.8,0.8,0.8c0.4,0,0.7-0.4,0.8-0.8v-2.5l1.1,1.1c0.2,0.2,0.6,0.2,0.8,0c0.2-0.2,0.2-0.6,0-0.8l-1.1-1.1h2.6
		c0.5,0,0.8-0.4,0.8-0.8C44.2,78.6,43.8,78.3,43.4,78.3z"/>
	<path class="st1" d="M57,67.1h-3.5l1.5-1.5c0.3-0.3,0.3-0.8,0-1.1s-0.8-0.3-1.1,0l-1.6,1.6v-3.6c0-0.5-0.4-1-1-1c-0.5,0-1,0.4-1,1
		v3.4l-1.5-1.5c-0.3-0.3-0.8-0.3-1.1,0c-0.4,0.4-0.4,0.9,0,1.1l1.6,1.6h-3.7c-0.5,0-1,0.4-1,1c0,0.6,0.5,1.1,1.1,1h3.6l-1.6,1.6
		c-0.3,0.3-0.3,0.8,0,1.1s0.8,0.3,1.1,0l1.5-1.5v3.5c0,0.5,0.4,1,1,1c0.6,0,1.1-0.4,1-1v-3.7l1.6,1.6c0.3,0.3,0.8,0.3,1.1,0
		s0.3-0.8,0-1.1l-1.5-1.5H57c0.5,0,1-0.4,1-1C58,67.6,57.6,67.1,57,67.1z"/>
</g>
</svg>
