<?xml version="1.0" encoding="utf-8"?>
<!-- Generator: Adobe Illustrator 19.0.0, SVG Export Plug-In . SVG Version: 6.00 Build 0)  -->
<svg version="1.1" id="Layer_1" xmlns="http://www.w3.org/2000/svg" xmlns:xlink="http://www.w3.org/1999/xlink" x="0px" y="0px"
	 viewBox="-18 -0.3 83.4 84.3" style="enable-background:new -18 -0.3 83.4 84.3;" xml:space="preserve">
<style type="text/css">
	.st0{fill:#B5B5B5;}
	.st1{fill:#429FCE;}
</style>
<g id="XMLID_1836_">
	<path id="XMLID_1837_" class="st0" d="M51.6,23.9c-1.1,0-2.1,0.1-3.1,0.4C47.9,10.6,36.6-0.3,22.8-0.3C11.9-0.3,2.6,6.5-1.2,16
		C-10.6,16.5-18,24.2-18,33.6c0,9.7,7.9,17.6,17.7,17.6h52c7.6,0,13.7-6.1,13.7-13.7S59.2,23.9,51.6,23.9z"/>
</g>
<g>
	<path class="st1" d="M33.2,69.9h-6.3l2.7-2.7c0.6-0.6,0.6-1.5,0-2.1c-0.6-0.6-1.5-0.6-2.1,0l-2.7,2.7v-6.2c0-1.1-0.9-1.9-1.9-1.9
		c-1.1,0-1.9,0.9-1.9,1.9v6.3l-2.7-2.7c-0.6-0.6-1.5-0.6-2.1,0c-0.5,0.5-0.5,1.5,0,2l2.7,2.7h-6.2c-1.1,0-1.9,0.9-1.9,1.9
		c0,1.1,0.8,1.9,1.8,1.9h6.3l-2.7,2.7c-0.6,0.6-0.6,1.5,0,2.1c0.6,0.6,1.5,0.6,2.1,0l2.7-2.7v6.3c0,1.1,0.9,1.9,1.9,1.9
		c1.1,0,1.9-0.8,1.9-1.9v-6.2l2.7,2.7c0.6,0.6,1.5,0.6,2.1,0c0.6-0.6,0.6-1.5,0-2.1l-2.8-2.8h6.4c1.1,0,1.9-0.9,1.9-1.9
		C35.1,70.7,34.2,69.9,33.2,69.9z"/>
	<path class="st1" d="M8.1,61.8h-4L5.9,60c0.4-0.4,0.4-0.9,0-1.3c-0.4-0.4-0.9-0.4-1.3,0l-1.8,1.8v-4.1c0-0.7-0.5-1.2-1.2-1.2
		c-0.7,0-1.2,0.5-1.2,1.2v4l-1.7-1.7c-0.4-0.4-0.9-0.4-1.3,0c-0.4,0.4-0.4,1,0,1.3l1.8,1.8h-4.1c-0.7,0-1.2,0.5-1.2,1.2
		c0,0.6,0.6,1.1,1.2,1.2h4l-1.7,1.7c-0.4,0.4-0.4,0.9,0,1.3c0.4,0.3,0.9,0.3,1.3,0l1.7-1.7v3.9c0,0.7,0.5,1.2,1.2,1.2
		c0.7,0,1.2-0.5,1.2-1.2v-4l1.8,1.8c0.4,0.4,0.9,0.4,1.3,0c0.4-0.4,0.4-0.9,0-1.3l-1.7-1.7h3.9c0.7,0,1.2-0.5,1.2-1.2
		S8.8,61.8,8.1,61.8z"/>
	<path class="st1" d="M49.1,61.8h-4l1.8-1.8c0.4-0.4,0.4-0.9,0-1.3c-0.4-0.4-0.9-0.4-1.3,0l-1.8,1.8v-4.1c0-0.7-0.5-1.2-1.2-1.2
		c-0.7,0-1.2,0.5-1.2,1.2v4l-1.7-1.7c-0.4-0.4-0.9-0.4-1.3,0c-0.4,0.4-0.4,1,0,1.3l1.8,1.8h-4.1c-0.7,0-1.2,0.5-1.2,1.2
		c0,0.6,0.6,1.1,1.2,1.2h4l-1.7,1.7c-0.4,0.4-0.4,0.9,0,1.3c0.4,0.3,0.9,0.3,1.3,0l1.7-1.7v3.9c0,0.7,0.5,1.2,1.2,1.2
		c0.7,0,1.2-0.5,1.2-1.2v-4l1.8,1.8c0.4,0.4,0.9,0.4,1.3,0c0.4-0.4,0.4-0.9,0-1.3l-1.7-1.7h3.9c0.7,0,1.2-0.5,1.2-1.2
		S49.8,61.8,49.1,61.8z"/>
</g>
</svg>
