<?xml version="1.0" encoding="utf-8"?>
<!-- Generator: Adobe Illustrator 19.0.0, SVG Export Plug-In . SVG Version: 6.00 Build 0)  -->
<svg version="1.1" id="Layer_1" xmlns="http://www.w3.org/2000/svg" xmlns:xlink="http://www.w3.org/1999/xlink" x="0px" y="0px"
	 viewBox="-6 -5.5 108.5 94.5" style="enable-background:new -6 -5.5 108.5 94.5;" xml:space="preserve">
<style type="text/css">
	.st0{fill:#DBDBDB;}
	.st1{fill:#B5B5B5;}
	.st2{fill:#429FCE;}
</style>
<path id="XMLID_99_" class="st0" d="M5.6,33.6c0.9,0,1.8,0.1,2.6,0.3C8.8,22.4,18.3,13.2,30,13.2c9.2,0,17.1,5.7,20.3,13.8
	c7.9,0.4,14.2,6.9,14.2,14.9c0,8.2-6.7,14.9-14.9,14.9h-44C-0.8,56.8-6,51.6-6,45.2S-0.8,33.6,5.6,33.6z"/>
<path id="XMLID_98_" class="st1" d="M87.5,20.9c-1.2,0-2.3,0.1-3.4,0.4C83.4,6.4,71.1-5.5,56-5.5C45-5.5,35.4,0.8,30.8,10
	c9.6,0.1,18.1,5.6,22.1,14.2c8.6,1.2,15.2,8.6,15.2,17.5c0,3.4-1,6.6-2.7,9.3h22.1c8.3,0,15-6.7,15-15
	C102.5,27.6,95.8,20.9,87.5,20.9z"/>
<g>
	<path class="st2" d="M31.2,75h-6.3l2.7-2.7c0.6-0.6,0.6-1.5,0-2.1c-0.6-0.6-1.5-0.6-2.1,0l-2.7,2.7v-6.3c0-1.1-0.9-1.9-1.9-1.9
		c-1.1,0-1.9,0.9-1.9,1.9v6.3l-2.7-2.7c-0.6-0.6-1.5-0.6-2.1,0c-0.5,0.6-0.5,1.5,0,2.1l2.7,2.7h-6.2c-1.1,0-1.9,0.9-1.9,1.9
		s0.8,1.8,1.9,1.9h6.2l-2.7,2.7c-0.6,0.6-0.6,1.5,0,2.1c0.6,0.5,1.5,0.5,2.1,0l2.7-2.7v6.2c0,1.1,0.9,1.9,1.9,1.9
		c1.1,0,1.9-0.8,1.9-1.9v-6.2l2.7,2.7c0.6,0.6,1.5,0.6,2.1,0c0.6-0.6,0.6-1.5,0-2.1l-2.7-2.7h6.3c1.1,0,1.9-0.9,1.9-1.9
		C33.1,75.8,32.2,75,31.2,75z"/>
	<path class="st2" d="M46.7,67.9h-4.1l1.8-1.8c0.4-0.4,0.4-0.9,0-1.3c-0.4-0.4-0.9-0.4-1.3,0l-1.7,1.7v-3.9c0-0.7-0.5-1.2-1.2-1.2
		S39,61.9,39,62.6v4.1l-1.8-1.8c-0.4-0.4-0.9-0.4-1.3,0c-0.3,0.3-0.3,0.9,0,1.3l1.7,1.7h-3.9c-0.7,0-1.2,0.5-1.2,1.2
		c0,0.6,0.5,1.2,1.2,1.2h3.9L35.9,72c-0.4,0.4-0.4,0.9,0,1.3c0.4,0.4,1,0.4,1.3,0l1.8-1.8v4.1c0,0.7,0.5,1.2,1.2,1.2
		c0.6,0,1.1-0.6,1.2-1.2v-3.9l1.7,1.7c0.4,0.4,0.9,0.4,1.3,0c0.4-0.4,0.4-0.9,0-1.3l-1.8-1.8h4.1c0.7,0,1.2-0.5,1.2-1.2
		C47.9,68.4,47.4,67.9,46.7,67.9z"/>
</g>
</svg>
