<?xml version="1.0" encoding="utf-8"?>
<!-- Generator: Adobe Illustrator 19.0.0, SVG Export Plug-In . SVG Version: 6.00 Build 0)  -->
<svg version="1.1" id="Layer_1" xmlns="http://www.w3.org/2000/svg" xmlns:xlink="http://www.w3.org/1999/xlink" x="0px" y="0px"
	 viewBox="-6 -5.9 108.5 94.9" style="enable-background:new -6 -5.9 108.5 94.9;" xml:space="preserve">
<style type="text/css">
	.st0{fill:#DBDBDB;}
	.st1{fill:#B5B5B5;}
	.st2{fill:#429FCE;}
</style>
<path id="XMLID_198_" class="st0" d="M5.6,33.2c0.9,0,1.8,0.1,2.6,0.3C8.8,22,18.3,12.8,30,12.8c9.2,0,17.1,5.7,20.3,13.8
	c7.9,0.4,14.2,6.9,14.2,14.9c0,8.2-6.7,14.9-14.9,14.9h-44C-0.8,56.4-6,51.2-6,44.8S-0.8,33.2,5.6,33.2z"/>
<path id="XMLID_197_" class="st1" d="M87.5,20.5c-1.2,0-2.3,0.1-3.4,0.4C83.4,6,71.1-5.9,56-5.9c-11,0-20.6,6.3-25.2,15.5
	c9.6,0.1,18.1,5.6,22.1,14.2c8.6,1.2,15.2,8.6,15.2,17.5c0,3.4-1,6.6-2.7,9.3h22.1c8.3,0,15-6.7,15-15
	C102.5,27.2,95.8,20.5,87.5,20.5z"/>
<g>
	<path class="st2" d="M40.1,74.9h-6.2l2.7-2.7c0.6-0.6,0.6-1.5,0-2.1c-0.6-0.6-1.5-0.6-2.1,0l-2.7,2.7v-6.3c0-1.1-0.9-1.9-1.9-1.9
		c-1.1,0-1.9,0.9-1.9,1.9v6.3l-2.7-2.7c-0.6-0.6-1.5-0.6-2.1,0c-0.6,0.6-0.6,1.5,0,2.1l2.7,2.7h-6.3c-1.1,0-1.9,0.9-1.9,1.9
		s0.9,1.9,1.9,1.9h6.3l-2.7,2.7c-0.6,0.6-0.6,1.5,0,2.1c0.6,0.6,1.5,0.6,2,0l2.8-2.8v6.4c0,1.1,0.9,1.9,1.9,1.9s1.8-0.9,1.9-1.9
		v-6.3l2.7,2.7c0.6,0.6,1.5,0.6,2.1,0c0.6-0.6,0.6-1.5,0-2.1l-2.7-2.7h6.2c1.1,0,1.9-0.9,1.9-1.9C42,75.7,41.1,74.9,40.1,74.9z"/>
	<path class="st2" d="M15.1,66.7H11l1.8-1.8c0.4-0.4,0.4-0.9,0-1.3c-0.4-0.4-0.9-0.4-1.3,0l-1.7,1.7v-3.9c0-0.7-0.5-1.2-1.2-1.2
		c-0.7,0-1.2,0.5-1.2,1.2v4.1l-1.8-1.8c-0.4-0.4-0.9-0.4-1.3,0C4,64,4,64.6,4.3,65L6,66.7H2.1c-0.7,0-1.2,0.5-1.2,1.2
		c0,0.7,0.5,1.2,1.2,1.2H6l-1.7,1.7c-0.4,0.4-0.4,0.9,0,1.3c0.4,0.4,1,0.4,1.3,0l1.8-1.8v4.1c0,0.7,0.5,1.2,1.2,1.2
		c0.6,0,1.2-0.5,1.2-1.2v-3.9l1.7,1.7c0.4,0.4,0.9,0.4,1.3,0c0.4-0.4,0.4-0.9,0-1.3L11,69.1h4.1c0.7,0,1.2-0.5,1.2-1.2
		C16.3,67.2,15.8,66.7,15.1,66.7z"/>
	<path class="st2" d="M56.1,66.7H52l1.8-1.8c0.4-0.4,0.4-0.9,0-1.3c-0.4-0.4-0.9-0.4-1.3,0l-1.7,1.7v-3.9c0-0.7-0.5-1.2-1.2-1.2
		c-0.7,0-1.2,0.5-1.2,1.2v4.1l-1.8-1.8c-0.4-0.4-0.9-0.4-1.3,0C45,64,45,64.6,45.3,65l1.7,1.7h-3.9c-0.7,0-1.2,0.5-1.2,1.2
		c0,0.7,0.5,1.2,1.2,1.2H47l-1.7,1.7c-0.4,0.4-0.4,0.9,0,1.3c0.4,0.4,1,0.4,1.3,0l1.8-1.8v4.1c0,0.7,0.5,1.2,1.2,1.2
		c0.6,0,1.2-0.5,1.2-1.2v-3.9l1.7,1.7c0.4,0.4,0.9,0.4,1.3,0c0.4-0.4,0.4-0.9,0-1.3L52,69.1h4.1c0.7,0,1.2-0.5,1.2-1.2
		C57.3,67.2,56.8,66.7,56.1,66.7z"/>
</g>
</svg>
