<?xml version="1.0" encoding="utf-8"?>
<!-- Generator: Adobe Illustrator 16.0.0, SVG Export Plug-In . SVG Version: 6.00 Build 0)  -->
<!DOCTYPE svg PUBLIC "-//W3C//DTD SVG 1.1//EN" "http://www.w3.org/Graphics/SVG/1.1/DTD/svg11.dtd">
<svg version="1.1" id="Слой_1" xmlns="http://www.w3.org/2000/svg" xmlns:xlink="http://www.w3.org/1999/xlink" x="0px" y="0px"
	 width="30px" height="30px" viewBox="0 0 30 30" enable-background="new 0 0 30 30" xml:space="preserve">
<g id="XMLID_498_">
	<path id="XMLID_1879_" fill="#FFFFFF" d="M4.227,17.283h8.698l0,0l0,0l0,0l0,0c1.74,0,3.159-1.401,3.159-3.119
		c0-1.716-1.419-3.118-3.159-3.118c-1.739,0-3.16,1.402-3.16,3.118c0,0.28,0.248,0.526,0.532,0.526c0.284,0,0.532-0.246,0.532-0.526
		c0-1.121,0.924-2.031,2.06-2.031c1.136,0,2.058,0.91,2.058,2.031c0,1.122-0.922,2.033-2.058,2.033H4.227
		c-0.284,0-0.532,0.244-0.532,0.525C3.695,17.002,3.943,17.283,4.227,17.283z"/>
	<path id="XMLID_1878_" fill="#FFFFFF" d="M26.949,14.866c0-2.383-1.954-4.31-4.366-4.31c-2.415,0-4.368,1.926-4.368,4.31
		c0,0.28,0.247,0.526,0.533,0.526c0.283,0,0.531-0.246,0.531-0.526c0-1.787,1.455-3.223,3.268-3.223
		c1.811,0,3.266,1.436,3.266,3.223c0,1.788-1.455,3.222-3.266,3.222H3.021c-0.285,0-0.533,0.247-0.533,0.525
		c0,0.281,0.249,0.527,0.533,0.527h19.526l0,0l0,0l0,0l0,0C24.995,19.141,26.949,17.214,26.949,14.866z"/>
	<path id="XMLID_499_" fill="#FFFFFF" d="M17.966,20.227L17.966,20.227H7.102c-0.283,0-0.532,0.244-0.532,0.524
		s0.249,0.522,0.532,0.522h10.864l0,0c1.136,0,2.063,0.914,2.063,2.035s-0.928,2.031-2.063,2.031c-1.137,0-2.058-0.91-2.058-2.031
		c0-0.279-0.249-0.525-0.533-0.525s-0.568,0.246-0.568,0.563c0,1.713,1.421,3.116,3.159,3.116c1.741,0,3.16-1.403,3.16-3.116
		C21.126,21.627,19.707,20.227,17.966,20.227z"/>
</g>
<path id="XMLID_237_" fill="#FFFFFF" d="M24.96,8.454c-0.392,0-0.744,0.035-1.099,0.141c-0.213-4.8-4.227-8.619-9.126-8.619
	c-3.869,0-7.17,2.383-8.52,5.711C2.878,5.862,0.251,8.56,0.251,11.852c0,2.138,1.1,4.031,2.733,5.115
	c0-0.07-0.035-0.139-0.035-0.244c0-0.666,0.568-1.227,1.242-1.227h8.699c0.746,0,1.348-0.595,1.348-1.332
	c0-0.735-0.603-1.331-1.348-1.331c-0.746,0-1.35,0.596-1.35,1.331c0,0.666-0.569,1.228-1.243,1.228
	c-0.674,0-1.243-0.562-1.243-1.228c0-2.102,1.74-3.818,3.87-3.818c2.129,0,3.87,1.716,3.87,3.818c0,1.332-0.711,2.521-1.775,3.223
	h7.597c1.42,0,2.557-1.117,2.557-2.521c0-1.401-1.137-2.522-2.557-2.522c-1.421,0-2.556,1.121-2.556,2.522
	c0,0.666-0.569,1.226-1.242,1.226c-0.676,0-1.243-0.561-1.243-1.226c0-2.768,2.271-5.01,5.077-5.01c2.803,0,5.076,2.243,5.076,5.01
	c0,1.051-0.354,2.065-0.924,2.872c1.813-0.699,3.123-2.417,3.123-4.484C29.859,10.591,27.659,8.454,24.96,8.454z"/>
<path id="XMLID_236_" fill="#FFFFFF" d="M11.86,25.725H9.942l0.817-0.806c0.177-0.174,0.177-0.455,0-0.63l0,0
	c-0.178-0.176-0.462-0.176-0.64,0l-0.816,0.807v-1.893c0-0.314-0.249-0.561-0.567-0.561c-0.32,0-0.569,0.246-0.569,0.561v1.893
	l-0.816-0.807c-0.177-0.176-0.462-0.176-0.639,0c-0.177,0.175-0.177,0.456,0,0.63l0.816,0.806H5.612
	c-0.32,0-0.567,0.246-0.567,0.563c0,0.313,0.248,0.56,0.567,0.56h1.917l-0.78,0.805c-0.178,0.176-0.178,0.457,0,0.632
	c0.177,0.176,0.46,0.176,0.639,0l0.816-0.806v1.893c0,0.314,0.25,0.561,0.568,0.561c0.319,0,0.568-0.244,0.568-0.561v-1.893
	l0.816,0.806c0.178,0.176,0.462,0.176,0.639,0l0,0c0.177-0.175,0.177-0.456,0-0.632l-0.816-0.805h1.917
	c0.319,0,0.568-0.244,0.568-0.56C12.428,25.971,12.179,25.725,11.86,25.725z"/>
<path id="XMLID_68_" fill="#FFFFFF" d="M26.593,21.872h-1.102l0.463-0.456c0.106-0.104,0.106-0.246,0-0.352l0,0
	c-0.106-0.104-0.249-0.104-0.354,0l-0.463,0.455v-1.084c0-0.176-0.142-0.315-0.318-0.315c-0.176,0-0.319,0.141-0.319,0.315v1.084
	l-0.461-0.455c-0.104-0.104-0.247-0.104-0.354,0c-0.105,0.104-0.105,0.246,0,0.352l0.461,0.456h-1.1c-0.179,0-0.32,0.14-0.32,0.315
	c0,0.174,0.143,0.313,0.32,0.313h1.1l-0.461,0.457c-0.105,0.104-0.105,0.244,0,0.351c0.107,0.106,0.25,0.106,0.354,0l0.461-0.455
	v1.084c0,0.176,0.144,0.314,0.319,0.314c0.177,0,0.318-0.141,0.318-0.314v-1.084l0.463,0.455c0.105,0.106,0.248,0.106,0.354,0l0,0
	c0.106-0.105,0.106-0.246,0-0.351l-0.463-0.457h1.102c0.179,0,0.32-0.14,0.32-0.313C26.949,22.012,26.771,21.872,26.593,21.872z"/>
</svg>
