<?xml version="1.0" encoding="utf-8"?>
<!-- Generator: Adobe Illustrator 16.0.0, SVG Export Plug-In . SVG Version: 6.00 Build 0)  -->
<!DOCTYPE svg PUBLIC "-//W3C//DTD SVG 1.1//EN" "http://www.w3.org/Graphics/SVG/1.1/DTD/svg11.dtd">
<svg version="1.1" id="Слой_1" xmlns="http://www.w3.org/2000/svg" xmlns:xlink="http://www.w3.org/1999/xlink" x="0px" y="0px"
	 width="28px" height="28px" viewBox="0 0 28 28" enable-background="new 0 0 28 28" xml:space="preserve">
<ellipse id="XMLID_56_" fill="#F3C870" cx="13.983" cy="13.812" rx="7.414" ry="7.364"/>
<path id="XMLID_55_" fill="#F3C870" d="M13.983,5.139L13.983,5.139c-0.474,0-0.846-0.372-0.846-0.842V1.036
	c0-0.472,0.406-0.841,0.846-0.841l0,0c0.475,0,0.846,0.369,0.846,0.841v3.26C14.829,4.733,14.458,5.139,13.983,5.139z"/>
<path id="XMLID_54_" fill="#F3C870" d="M13.983,28L13.983,28c-0.474,0-0.846-0.369-0.846-0.84v-3.261
	c0-0.473,0.374-0.841,0.846-0.841l0,0c0.475,0,0.846,0.368,0.846,0.841v3.261C14.829,27.596,14.458,28,13.983,28z"/>
<path id="XMLID_53_" fill="#F3C870" d="M23.022,14.081L23.022,14.081c0-0.47,0.373-0.841,0.848-0.841h3.284
	c0.476,0,0.846,0.372,0.846,0.841l0,0c0,0.472-0.37,0.84-0.846,0.84H23.87C23.396,14.921,23.022,14.552,23.022,14.081z"/>
<path id="XMLID_52_" fill="#F3C870" d="M0,14.081L0,14.081c0-0.47,0.372-0.841,0.846-0.841h3.283c0.475,0,0.847,0.372,0.847,0.841
	l0,0c0,0.472-0.374,0.84-0.847,0.84H0.846C0.372,14.921,0,14.552,0,14.081z"/>
<path id="XMLID_51_" fill="#F3C870" d="M20.384,7.76L20.384,7.76c-0.341-0.335-0.341-0.873,0-1.177l2.302-2.287
	c0.337-0.336,0.879-0.336,1.185,0l0,0c0.339,0.337,0.339,0.875,0,1.178L21.569,7.76C21.263,8.062,20.72,8.062,20.384,7.76z"/>
<path id="XMLID_50_" fill="#F3C870" d="M4.097,23.932L4.097,23.932c-0.339-0.336-0.339-0.873,0-1.178l2.303-2.285
	c0.339-0.337,0.881-0.337,1.186,0l0,0c0.339,0.335,0.339,0.872,0,1.178l-2.303,2.285C4.978,24.235,4.435,24.235,4.097,23.932z"/>
<path id="XMLID_38_" fill="#F3C870" d="M20.384,20.437L20.384,20.437c0.336-0.337,0.879-0.337,1.186,0l2.301,2.285
	c0.339,0.337,0.339,0.874,0,1.178l0,0c-0.34,0.336-0.88,0.336-1.185,0l-2.302-2.285C20.043,21.308,20.043,20.771,20.384,20.437z"/>
<path id="XMLID_35_" fill="#F3C870" d="M4.097,4.263L4.097,4.263c0.338-0.336,0.881-0.336,1.186,0L7.585,6.55
	c0.339,0.337,0.339,0.875,0,1.177l0,0c-0.338,0.337-0.881,0.337-1.186,0L4.097,5.441C3.758,5.139,3.758,4.599,4.097,4.263z"/>
</svg>
