<?xml version="1.0" encoding="utf-8"?>
<!-- Generator: Adobe Illustrator 16.0.0, SVG Export Plug-In . SVG Version: 6.00 Build 0)  -->
<!DOCTYPE svg PUBLIC "-//W3C//DTD SVG 1.1//EN" "http://www.w3.org/Graphics/SVG/1.1/DTD/svg11.dtd">
<svg version="1.1" id="Слой_1" xmlns="http://www.w3.org/2000/svg" xmlns:xlink="http://www.w3.org/1999/xlink" x="0px" y="0px"
	 width="28px" height="28px" viewBox="0 0 28 28" enable-background="new 0 0 28 28" xml:space="preserve">
<path id="XMLID_261_" fill="#F3C870" d="M27.685,14.72c-0.269-0.09-0.575-0.09-0.798,0.178c-1.813,2.161-4.511,3.351-7.342,3.351
	c-5.35,0-9.685-4.323-9.685-9.663c0-2.78,1.195-5.426,3.361-7.324c0.265-0.176,0.265-0.529,0.178-0.793
	c-0.088-0.263-0.354-0.44-0.708-0.44C5.439,0.734,0,6.69,0,14.014C0,21.779,6.324,28,14.019,28c7.253,0,13.311-5.427,14.019-12.617
	C28.08,15.027,27.949,14.809,27.685,14.72z"/>
</svg>
