<?xml version="1.0" encoding="utf-8"?>
<!-- Generator: Adobe Illustrator 16.0.0, SVG Export Plug-In . SVG Version: 6.00 Build 0)  -->
<!DOCTYPE svg PUBLIC "-//W3C//DTD SVG 1.1//EN" "http://www.w3.org/Graphics/SVG/1.1/DTD/svg11.dtd">
<svg version="1.1" id="Слой_1" xmlns="http://www.w3.org/2000/svg" xmlns:xlink="http://www.w3.org/1999/xlink" x="0px" y="0px"
	 width="10px" height="22px" viewBox="0 0 10 22" enable-background="new 0 0 10 22" xml:space="preserve">
<title>iPhone 6 Plus</title>
<desc>Created with Sketch.</desc>
<g id="Page-1_1_">
	<g id="iPhone-6-Plus">
		<path id="Page-1" fill="#FFFFFF" d="M5,21c-2.206,0-4-1.795-4-4c0-1.371,0.704-2.769,1.795-3.563
			c0.011-0.008,0.016-0.02,0.026-0.029c0.026-0.021,0.047-0.047,0.067-0.072c0.02-0.026,0.039-0.051,0.053-0.078
			c0.014-0.028,0.023-0.057,0.031-0.088c0.01-0.032,0.018-0.064,0.02-0.1C2.993,13.058,3,13.047,3,13.033V3c0-1.103,0.897-2,2-2
			c1.104,0,2,0.897,2,2v1.5H4.5v1H7v2H4.5v1H7v2H4.5v1H7v1.534c0,0.016,0.008,0.03,0.009,0.047c0.003,0.026,0.009,0.051,0.017,0.078
			c0.01,0.037,0.021,0.072,0.039,0.106c0.011,0.022,0.025,0.04,0.039,0.06c0.025,0.033,0.051,0.063,0.082,0.09
			c0.01,0.006,0.014,0.017,0.022,0.023C8.297,14.23,9,15.629,9,17C9,19.205,7.206,21,5,21 M8,12.799V3c0-1.654-1.346-3-3-3
			C3.346,0,2,1.346,2,3v9.799C0.782,13.797,0,15.41,0,17c0,2.756,2.243,5,5,5s5-2.244,5-5C10,15.383,9.236,13.803,8,12.799"/>
	</g>
</g>
</svg>
