<?xml version="1.0" encoding="utf-8"?>
<!-- Generator: Adobe Illustrator 16.0.0, SVG Export Plug-In . SVG Version: 6.00 Build 0)  -->
<!DOCTYPE svg PUBLIC "-//W3C//DTD SVG 1.1//EN" "http://www.w3.org/Graphics/SVG/1.1/DTD/svg11.dtd">
<svg version="1.1" id="Слой_1" xmlns="http://www.w3.org/2000/svg" xmlns:xlink="http://www.w3.org/1999/xlink" x="0px" y="0px"
	 width="30px" height="18px" viewBox="0 0 30 18" enable-background="new 0 0 30 18" xml:space="preserve">
<g id="XMLID_68_">
	<path id="XMLID_1295_" fill="#FFFFFF" d="M29.793,13.768H0.451c0.178,0.484,0.393,0.962,0.677,1.376h28.274
		C29.616,14.695,29.722,14.252,29.793,13.768z"/>
	<path id="XMLID_1190_" fill="#FFFFFF" d="M0.237,11.014c-0.036,0.277-0.071,0.589-0.071,0.896c0,0.171,0,0.311,0.035,0.448h29.521
		c-0.105-0.482-0.286-0.965-0.497-1.376H0.237V11.014z"/>
	<path id="XMLID_1189_" fill="#FFFFFF" d="M0.628,9.641h27.387c-0.855-0.655-1.924-1.068-3.096-1.068
		c-0.39,0-0.746,0.034-1.103,0.137c0-0.137-0.035-0.275-0.035-0.447H1.447C1.126,8.677,0.843,9.124,0.628,9.641z"/>
	<path id="XMLID_499_" fill="#FFFFFF" d="M2.335,16.521C3.438,17.448,4.863,18,6.427,18H24.92c1.389,0,2.668-0.586,3.559-1.479
		H2.335z"/>
	<path id="XMLID_498_" fill="#FFFFFF" d="M19.124,1.384c-1.316-0.723-2.846-1.136-4.446-1.136c-1.637,0-3.13,0.413-4.445,1.136
		H19.124z"/>
	<path id="XMLID_237_" fill="#FFFFFF" d="M8.31,2.759C7.848,3.174,7.458,3.654,7.102,4.136h15.151
		c-0.355-0.482-0.747-0.962-1.21-1.375H8.31V2.759z"/>
	<path id="XMLID_236_" fill="#FFFFFF" d="M6.318,5.512c-0.071,0.136-0.107,0.24-0.177,0.378C4.968,5.96,3.901,6.303,2.976,6.888
		h20.558c-0.145-0.481-0.287-0.928-0.499-1.375H6.318z"/>
</g>
</svg>
