<?xml version="1.0" encoding="utf-8"?>
<!-- Generator: Adobe Illustrator 16.0.0, SVG Export Plug-In . SVG Version: 6.00 Build 0)  -->
<!DOCTYPE svg PUBLIC "-//W3C//DTD SVG 1.1//EN" "http://www.w3.org/Graphics/SVG/1.1/DTD/svg11.dtd">
<svg version="1.1" id="Слой_1" xmlns="http://www.w3.org/2000/svg" xmlns:xlink="http://www.w3.org/1999/xlink" x="0px" y="0px"
	 width="30px" height="22px" viewBox="0 0 30 22" enable-background="new 0 0 30 22" xml:space="preserve">
<g id="XMLID_1350_">
	<path id="XMLID_1409_" fill="#B5B5B5" d="M19.168,9.642c0.328,0.355,0.63,0.764,0.849,1.228h9.851
		c-0.055-0.437-0.163-0.845-0.355-1.228H19.168z"/>
	<path id="XMLID_1408_" fill="#B5B5B5" d="M20.398,12.099c0.056,0.271,0.083,0.547,0.083,0.847c0,0.137,0,0.271-0.027,0.382h8.949
		c0.218-0.382,0.355-0.792,0.438-1.229H20.398z"/>
	<path id="XMLID_1407_" fill="#B5B5B5" d="M12.628,4.729c0.738,0.273,1.423,0.71,2.024,1.229h9.989
		c-0.11-0.437-0.246-0.819-0.411-1.229H12.628z"/>
	<path id="XMLID_1354_" fill="#B5B5B5" d="M16.322,8.167c0.355,0.055,0.684,0.137,1.012,0.246h11.302
		c-0.738-0.71-1.751-1.146-2.845-1.146c-0.327,0-0.63,0.027-0.932,0.109c0-0.055,0-0.136-0.026-0.191h-9.085
		C15.966,7.485,16.158,7.813,16.322,8.167z"/>
	<path id="XMLID_1353_" fill="#B5B5B5" d="M20.18,14.554c-0.108,0.329-0.273,0.628-0.437,0.929h6.048c0.985,0,1.887-0.354,2.6-0.929
		H20.18z"/>
	<path id="XMLID_1352_" fill="#B5B5B5" d="M20.974,1.071c-1.121-0.655-2.435-1.01-3.804-1.01c-1.396,0-2.681,0.355-3.804,1.01
		H20.974z"/>
	<path id="XMLID_1351_" fill="#B5B5B5" d="M11.752,2.299c-0.384,0.382-0.711,0.792-1.013,1.228h12.862
		c-0.301-0.437-0.63-0.846-1.013-1.228H11.752z"/>
</g>
<path id="XMLID_1349_" fill="#4999C2" d="M11.806,15.347h-1.751l0.739-0.738c0.164-0.162,0.164-0.407,0-0.572l0,0
	c-0.165-0.164-0.41-0.164-0.575,0l-0.711,0.737v-1.72c0-0.272-0.219-0.519-0.52-0.519c-0.274,0-0.52,0.218-0.52,0.519v1.72
	l-0.739-0.737c-0.164-0.164-0.41-0.164-0.574,0c-0.165,0.165-0.165,0.41,0,0.572l0.739,0.738H6.169
	c-0.274,0-0.521,0.218-0.521,0.518c0,0.274,0.219,0.521,0.521,0.521h1.724L7.154,17.12c-0.165,0.165-0.165,0.41,0,0.574
	c0.165,0.162,0.411,0.162,0.574,0l0.739-0.736v1.718c0,0.274,0.219,0.52,0.52,0.52c0.274,0,0.52-0.218,0.52-0.52v-1.718l0.739,0.736
	c0.164,0.162,0.411,0.162,0.575,0l0,0c0.165-0.164,0.165-0.409,0-0.574l-0.766-0.766h1.724c0.273,0,0.52-0.216,0.52-0.517
	C12.327,15.564,12.081,15.347,11.806,15.347z"/>
<path id="XMLID_1348_" fill="#4999C2" d="M15.227,19.495h-1.039l0.465-0.464c0.083-0.081,0.083-0.246,0-0.355l0,0
	c-0.082-0.081-0.246-0.081-0.355,0l-0.438,0.491v-1.036c0-0.164-0.137-0.3-0.301-0.3c-0.165,0-0.301,0.136-0.301,0.3v1.036
	l-0.465-0.462c-0.083-0.084-0.247-0.084-0.355,0c-0.083,0.08-0.083,0.245,0,0.354l0.465,0.464h-1.04
	c-0.165,0-0.301,0.137-0.301,0.301c0,0.163,0.136,0.3,0.301,0.3h1.04l-0.465,0.464c-0.083,0.081-0.083,0.247,0,0.355
	c0.082,0.082,0.246,0.082,0.355,0l0.465-0.464v1.038c0,0.162,0.137,0.299,0.301,0.299c0.164,0,0.301-0.137,0.301-0.299v-1.038
	l0.465,0.464c0.083,0.082,0.246,0.082,0.355,0l0,0c0.083-0.083,0.083-0.246,0-0.355l-0.465-0.464h1.04c0.164,0,0.3-0.137,0.3-0.3
	C15.555,19.632,15.419,19.495,15.227,19.495z"/>
<path id="XMLID_1295_" fill="#DBDBDB" d="M11.095,14.883l-0.055,0.054h0.739c0.136,0,0.273,0.027,0.411,0.108h6.705
	c0.219-0.354,0.355-0.735,0.438-1.145h-8.127C11.423,14.201,11.368,14.608,11.095,14.883z"/>
<path id="XMLID_1190_" fill="#DBDBDB" d="M6.908,14.937l-0.055-0.054c-0.164-0.164-0.246-0.355-0.246-0.573
	c0-0.163,0.055-0.301,0.137-0.438h-6.54V13.9c0,0.409,0.082,0.764,0.219,1.119h5.336c0.137-0.056,0.274-0.11,0.411-0.11h0.739
	V14.937z"/>
<path id="XMLID_1189_" fill="#DBDBDB" d="M8.988,12.125c0.383,0,0.739,0.245,0.876,0.602h9.605c-0.026-0.41-0.109-0.792-0.246-1.146
	H1.243c-0.356,0.327-0.629,0.709-0.794,1.146h7.69C8.249,12.37,8.577,12.125,8.988,12.125z"/>
<path id="XMLID_499_" fill="#DBDBDB" d="M17.006,9.259H4.391c-0.11,0.383-0.219,0.766-0.247,1.147h14.396
	C18.129,9.915,17.607,9.533,17.006,9.259z"/>
<path id="XMLID_498_" fill="#DBDBDB" d="M14.297,6.967H5.786C5.458,7.321,5.157,7.704,4.91,8.113H15.2
	C14.927,7.704,14.652,7.321,14.297,6.967z"/>
<path id="XMLID_237_" fill="#DBDBDB" d="M10.055,5.165c-0.958,0-1.889,0.246-2.682,0.627h5.364
	C11.916,5.411,11.013,5.165,10.055,5.165z"/>
<path id="XMLID_236_" fill="#DBDBDB" d="M11.806,16.767h-0.739l0.055,0.054c0.083,0.082,0.137,0.162,0.164,0.246h4.105
	c0.958,0,1.834-0.329,2.545-0.874h-5.282C12.518,16.521,12.19,16.767,11.806,16.767z"/>
<path id="XMLID_68_" fill="#DBDBDB" d="M6.908,16.767H6.169c-0.384,0-0.74-0.245-0.849-0.601H1.189
	c0.574,0.545,1.34,0.873,2.189,0.873h3.338c0.027-0.081,0.083-0.164,0.164-0.247L6.908,16.767z"/>
</svg>
