<?xml version="1.0" encoding="utf-8"?>
<!-- Generator: Adobe Illustrator 16.0.0, SVG Export Plug-In . SVG Version: 6.00 Build 0)  -->
<!DOCTYPE svg PUBLIC "-//W3C//DTD SVG 1.1//EN" "http://www.w3.org/Graphics/SVG/1.1/DTD/svg11.dtd">
<svg version="1.1" id="Слой_1" xmlns="http://www.w3.org/2000/svg" xmlns:xlink="http://www.w3.org/1999/xlink" x="0px" y="0px"
	 width="23px" height="15px" viewBox="0 0 23 15" enable-background="new 0 0 23 15" xml:space="preserve">
<title>iPhone 6 Plus</title>
<desc>Created with Sketch.</desc>
<g id="Page-1">
	<g id="iPhone-6-Plus">
		<path id="Fill-4" fill="#7B8288" d="M22.546,6.28h-1.831V4.448C20.715,4.2,20.516,4,20.268,4h-1.541
			c-0.247,0-0.449,0.2-0.449,0.448V6.28h-1.828C16.201,6.28,16,6.48,16,6.728v1.542c0,0.247,0.201,0.449,0.449,0.449h1.828v1.833
			c0,0.247,0.202,0.447,0.449,0.447h1.541c0.248,0,0.447-0.2,0.447-0.447V8.72h1.831c0.247,0,0.447-0.202,0.447-0.449V6.728
			C22.993,6.48,22.793,6.28,22.546,6.28"/>
		<path id="Fill-1" fill="#7B8288" d="M7.724,6.703v1.842c0,0.277,0.225,0.502,0.503,0.502h3.663
			c-0.642,1.818-2.384,3.121-4.424,3.105c-2.474-0.018-4.519-1.996-4.615-4.468c-0.103-2.65,2.023-4.837,4.651-4.837
			c1.201,0,2.297,0.457,3.124,1.207c0.195,0.178,0.493,0.179,0.686-0.002l1.345-1.266c0.212-0.198,0.212-0.532,0.001-0.731
			C11.348,0.813,9.589,0.04,7.65,0.001C3.515-0.079,0.028,3.312,0,7.447C-0.029,11.613,3.341,15,7.502,15
			c4.001,0,7.27-3.133,7.488-7.078C14.996,7.873,15,6.201,15,6.201H8.227C7.949,6.201,7.724,6.425,7.724,6.703"/>
	</g>
</g>
</svg>
