<?xml version="1.0" encoding="utf-8"?>
<!-- Generator: Adobe Illustrator 16.0.0, SVG Export Plug-In . SVG Version: 6.00 Build 0)  -->
<!DOCTYPE svg PUBLIC "-//W3C//DTD SVG 1.1//EN" "http://www.w3.org/Graphics/SVG/1.1/DTD/svg11.dtd">
<svg version="1.1" id="Layer_1" xmlns="http://www.w3.org/2000/svg" xmlns:xlink="http://www.w3.org/1999/xlink" x="0px" y="0px"
	 width="30px" height="24px" viewBox="0 0 30 24" enable-background="new 0 0 30 24" xml:space="preserve">
<path id="XMLID_487_" fill="#FFFFFF" d="M3.747,10.245c0.236,0,0.472,0.026,0.681,0.079c0.157-3.013,2.646-5.424,5.686-5.424
	c2.411,0,4.48,1.494,5.319,3.616c2.07,0.105,3.72,1.808,3.72,3.904c0,2.149-1.755,3.904-3.903,3.904H3.747
	c-1.677,0-3.013-1.362-3.013-3.04C0.733,11.607,2.07,10.245,3.747,10.245z"/>
<path id="XMLID_434_" fill="#FFFFFF" d="M25.231,6.917c-0.314,0-0.603,0.026-0.891,0.105C24.157,3.118,20.935,0,16.952,0
	c-2.882,0-5.372,1.651-6.603,4.061c2.516,0.026,4.743,1.467,5.791,3.721c2.253,0.314,3.982,2.253,3.982,4.585
	c0,0.891-0.262,1.729-0.707,2.437h5.79c2.175,0,3.93-1.756,3.93-3.93C29.162,8.672,27.406,6.917,25.231,6.917z"/>
<circle id="XMLID_381_" fill="#FFFFFF" cx="13.126" cy="22.114" r="1.86"/>
<circle id="XMLID_380_" fill="#FFFFFF" cx="18" cy="18.891" r="1.258"/>
<circle id="XMLID_379_" fill="#FFFFFF" cx="23.345" cy="20.018" r="1.86"/>
<circle id="XMLID_261_" fill="#FFFFFF" cx="7.52" cy="20.201" r="1.258"/>
</svg>
