<?xml version="1.0" encoding="utf-8"?>
<!-- Generator: Adobe Illustrator 16.0.0, SVG Export Plug-In . SVG Version: 6.00 Build 0)  -->
<!DOCTYPE svg PUBLIC "-//W3C//DTD SVG 1.1//EN" "http://www.w3.org/Graphics/SVG/1.1/DTD/svg11.dtd">
<svg version="1.1" id="Слой_1" xmlns="http://www.w3.org/2000/svg" xmlns:xlink="http://www.w3.org/1999/xlink" x="0px" y="0px"
	 width="30px" height="24px" viewBox="0 0 30 24" enable-background="new 0 0 30 24" xml:space="preserve">
<path id="XMLID_434_" fill="#DBDBDB" d="M0,14.056c0-1.758,1.439-3.185,3.21-3.185c0.249,0,0.498,0.028,0.719,0.083
	c0.166-3.157,2.795-5.683,6.033-5.683c2.546,0,4.732,1.565,5.617,3.789c2.187,0.11,3.93,1.894,3.93,4.089
	c0,2.252-1.854,4.091-4.124,4.091H3.21C1.439,17.239,0,15.812,0,14.056"/>
<path id="XMLID_381_" fill="#B5B5B5" d="M30.024,11.53c0-2.306-1.854-4.145-4.151-4.145c-0.332,0-0.636,0.028-0.94,0.11
	c-0.193-4.089-3.597-7.356-7.776-7.356c-3.043,0-5.7,1.729-6.973,4.254c2.656,0.028,5.009,1.537,6.115,3.898
	c2.38,0.329,4.206,2.36,4.206,4.803c0,0.934-0.276,1.813-0.747,2.553h6.115C28.171,15.646,30.024,13.808,30.024,11.53"/>
<ellipse id="XMLID_380_" fill="#4999C2" cx="16.133" cy="21.933" rx="1.965" ry="1.949"/>
<ellipse id="XMLID_379_" fill="#4999C2" cx="21.308" cy="19.38" rx="1.328" ry="1.317"/>
<ellipse id="XMLID_261_" fill="#4999C2" cx="10.516" cy="20.478" rx="1.328" ry="1.318"/>
</svg>
