<?xml version="1.0" encoding="utf-8"?>
<!-- Generator: Adobe Illustrator 16.0.0, SVG Export Plug-In . SVG Version: 6.00 Build 0)  -->
<!DOCTYPE svg PUBLIC "-//W3C//DTD SVG 1.1//EN" "http://www.w3.org/Graphics/SVG/1.1/DTD/svg11.dtd">
<svg version="1.1" id="Layer_1" xmlns="http://www.w3.org/2000/svg" xmlns:xlink="http://www.w3.org/1999/xlink" x="0px" y="0px"
	 width="30px" height="24px" viewBox="0 0 30 24" enable-background="new 0 0 30 24" xml:space="preserve">
<g id="XMLID_1295_">
	<path id="XMLID_1354_" fill="#FFFFFF" d="M19.179,13.094c0.333,0.359,0.637,0.774,0.858,1.244H30
		c-0.055-0.442-0.166-0.857-0.359-1.244H19.179z"/>
	<path id="XMLID_1353_" fill="#FFFFFF" d="M20.424,15.584c0.056,0.277,0.084,0.554,0.084,0.857c0,0.139,0,0.277-0.028,0.388h9.05
		c0.222-0.388,0.359-0.802,0.443-1.245H20.424z"/>
	<path id="XMLID_1352_" fill="#FFFFFF" d="M12.564,8.112c0.748,0.276,1.439,0.719,2.048,1.245h10.102
		c-0.11-0.443-0.249-0.83-0.415-1.245H12.564z"/>
	<path id="XMLID_1351_" fill="#FFFFFF" d="M16.301,11.599c0.359,0.056,0.691,0.139,1.023,0.249h11.43
		c-0.746-0.719-1.771-1.162-2.877-1.162c-0.332,0-0.637,0.027-0.941,0.11c0-0.055,0-0.138-0.027-0.193H15.72
		C15.941,10.907,16.135,11.239,16.301,11.599z"/>
	<path id="XMLID_1350_" fill="#FFFFFF" d="M20.203,18.074c-0.111,0.332-0.277,0.637-0.443,0.941h6.117
		c0.996,0,1.909-0.359,2.629-0.941H20.203z"/>
	<path id="XMLID_1349_" fill="#FFFFFF" d="M21.006,4.403c-1.135-0.665-2.463-1.024-3.848-1.024c-1.411,0-2.712,0.36-3.846,1.024
		H21.006z"/>
	<path id="XMLID_1348_" fill="#FFFFFF" d="M11.679,5.648c-0.387,0.388-0.719,0.803-1.024,1.246h13.007
		c-0.305-0.443-0.637-0.858-1.023-1.246H11.679z"/>
</g>
<g id="XMLID_68_">
	<path id="XMLID_1190_" fill="#FFFFFF" d="M0,17.383C0,17.383,0,17.41,0,17.383c0,0.443,0.083,0.803,0.221,1.162H18.93
		c0.222-0.359,0.359-0.747,0.443-1.162H0z"/>
	<path id="XMLID_1189_" fill="#FFFFFF" d="M1.052,15.059c-0.36,0.332-0.637,0.719-0.803,1.162h19.234
		c-0.028-0.416-0.11-0.803-0.249-1.162H1.052z"/>
	<path id="XMLID_499_" fill="#FFFFFF" d="M3.985,13.896h14.558c-0.416-0.498-0.941-0.913-1.551-1.162H4.234
		C4.096,13.094,4.013,13.48,3.985,13.896z"/>
	<path id="XMLID_498_" fill="#FFFFFF" d="M5.646,10.381c-0.332,0.36-0.636,0.748-0.885,1.163h10.406
		c-0.249-0.415-0.554-0.803-0.886-1.163H5.646z"/>
	<path id="XMLID_237_" fill="#FFFFFF" d="M7.223,9.219h5.424c-0.83-0.415-1.743-0.637-2.712-0.637
		C8.967,8.554,8.054,8.804,7.223,9.219z"/>
	<path id="XMLID_236_" fill="#FFFFFF" d="M0.996,19.735c0.582,0.554,1.356,0.886,2.214,0.886H15.36c0.968,0,1.854-0.332,2.574-0.886
		H0.996z"/>
</g>
</svg>
