<?xml version="1.0" encoding="utf-8"?>
<!-- Generator: Adobe Illustrator 16.0.0, SVG Export Plug-In . SVG Version: 6.00 Build 0)  -->
<!DOCTYPE svg PUBLIC "-//W3C//DTD SVG 1.1//EN" "http://www.w3.org/Graphics/SVG/1.1/DTD/svg11.dtd">
<svg version="1.1" id="Layer_1" xmlns="http://www.w3.org/2000/svg" xmlns:xlink="http://www.w3.org/1999/xlink" x="0px" y="0px"
	 width="30px" height="24px" viewBox="0 0 30 24" enable-background="new 0 0 30 24" xml:space="preserve">
<g id="XMLID_379_">
	<path id="XMLID_380_" fill="#B5B5B5" d="M25.535,15.979c-0.309,0-0.617,0.03-0.926,0.093c-0.186-4.011-3.486-7.188-7.559-7.188
		c-3.208,0-5.922,1.974-7.033,4.782c-2.746,0.123-4.905,2.375-4.905,5.151c0,2.869,2.313,5.183,5.182,5.183h15.24
		c2.221,0,4.01-1.789,4.01-4.01C29.545,17.769,27.756,15.979,25.535,15.979z"/>
</g>
<path id="XMLID_261_" fill="#FFCC66" d="M9.124,12.771c0.216-0.525,0.462-1.018,0.771-1.481c-1.573-1.234-2.561-3.146-2.561-5.306
	c0-1.943,0.833-3.794,2.345-5.121c0.185-0.124,0.185-0.37,0.124-0.555C9.74,0.124,9.555,0,9.309,0
	C4.25,0.494,0.455,4.658,0.455,9.779c0,3.147,1.48,5.922,3.764,7.712C4.435,14.9,6.532,12.895,9.124,12.771z"/>
</svg>
