<?xml version="1.0" encoding="utf-8"?>
<!-- Generator: Adobe Illustrator 16.0.0, SVG Export Plug-In . SVG Version: 6.00 Build 0)  -->
<!DOCTYPE svg PUBLIC "-//W3C//DTD SVG 1.1//EN" "http://www.w3.org/Graphics/SVG/1.1/DTD/svg11.dtd">
<svg version="1.1" id="Layer_1" xmlns="http://www.w3.org/2000/svg" xmlns:xlink="http://www.w3.org/1999/xlink" x="0px" y="0px"
	 width="30px" height="24px" viewBox="0 0 30 24" enable-background="new 0 0 30 24" xml:space="preserve">
<g id="XMLID_38_">
	<path id="XMLID_50_" fill="#FFCC66" d="M12.7,12.666c0.653-1.411,1.751-2.561,3.058-3.266c-0.993-1.725-2.849-2.875-4.965-2.875
		c-3.162,0-5.723,2.561-5.723,5.723c0,2.248,1.307,4.207,3.214,5.148C8.441,14.966,10.296,12.98,12.7,12.666z"/>
	<path id="XMLID_51_" fill="#FFCC66" d="M10.792,5.506c0.366,0,0.653-0.287,0.653-0.653V2.318c0-0.366-0.287-0.653-0.653-0.653
		c-0.366,0-0.653,0.288-0.653,0.653v2.535C10.139,5.192,10.453,5.506,10.792,5.506z"/>
	<path id="XMLID_52_" fill="#FFCC66" d="M3.841,12.458c0-0.366-0.287-0.653-0.653-0.653H0.653C0.288,11.804,0,12.118,0,12.458
		c0,0.339,0.288,0.654,0.653,0.654h2.535C3.528,13.111,3.841,12.823,3.841,12.458z"/>
	<path id="XMLID_53_" fill="#FFCC66" d="M16.646,7.544l1.777-1.777c0.261-0.262,0.261-0.68,0-0.915l0,0
		c-0.262-0.261-0.68-0.261-0.915,0L15.732,6.63c-0.262,0.261-0.262,0.679,0,0.915C15.993,7.78,16.411,7.78,16.646,7.544z"/>
	<path id="XMLID_54_" fill="#FFCC66" d="M4.939,17.396l-1.777,1.777c-0.261,0.261-0.261,0.679,0,0.914
		c0.261,0.262,0.679,0.262,0.915,0l1.777-1.777c0.262-0.261,0.262-0.68,0-0.914C5.619,17.135,5.2,17.135,4.939,17.396z"/>
	<path id="XMLID_55_" fill="#FFCC66" d="M4.939,7.544c0.261,0.261,0.68,0.261,0.915,0c0.262-0.261,0.262-0.679,0-0.915L4.077,4.853
		c-0.261-0.261-0.679-0.261-0.915,0l0,0c-0.261,0.262-0.261,0.68,0,0.915L4.939,7.544z"/>
</g>
<g id="XMLID_35_">
	<path id="XMLID_56_" fill="#B5B5B5" d="M26.576,15.515c-0.261,0-0.521,0.026-0.783,0.079c-0.157-3.398-2.953-6.089-6.402-6.089
		c-2.719,0-5.018,1.672-5.958,4.05c-2.326,0.104-4.155,2.012-4.155,4.364c0,2.431,1.96,4.39,4.39,4.39h12.909
		c1.882,0,3.397-1.516,3.397-3.396C29.974,17.03,28.458,15.515,26.576,15.515z"/>
</g>
</svg>
