<?xml version="1.0" encoding="utf-8"?>
<!-- Generator: Adobe Illustrator 16.0.0, SVG Export Plug-In . SVG Version: 6.00 Build 0)  -->
<!DOCTYPE svg PUBLIC "-//W3C//DTD SVG 1.1//EN" "http://www.w3.org/Graphics/SVG/1.1/DTD/svg11.dtd">
<svg version="1.1" id="Слой_1" xmlns="http://www.w3.org/2000/svg" xmlns:xlink="http://www.w3.org/1999/xlink" x="0px" y="0px"
	 width="46px" height="48px" viewBox="0 0 46 48" enable-background="new 0 0 46 48" xml:space="preserve">
<g>
	<defs>
		<rect id="SVGID_1_" width="46" height="48"/>
	</defs>
	<clipPath id="SVGID_2_">
		<use xlink:href="#SVGID_1_"  overflow="visible"/>
	</clipPath>
	<path clip-path="url(#SVGID_2_)" fill="#FFFFFF" d="M23,8c0.552,0,1-0.448,1-1V1c0-0.552-0.448-1-1-1s-1,0.448-1,1v6
		C22,7.552,22.448,8,23,8"/>
	<path clip-path="url(#SVGID_2_)" fill="#FFFFFF" d="M45,22h-6c-0.553,0-1,0.448-1,1s0.447,1,1,1h6c0.553,0,1-0.448,1-1
		S45.553,22,45,22"/>
	<path clip-path="url(#SVGID_2_)" fill="#FFFFFF" d="M8,23c0-0.552-0.448-1-1-1H1c-0.552,0-1,0.448-1,1s0.448,1,1,1h6
		C7.552,24,8,23.552,8,23"/>
	<path clip-path="url(#SVGID_2_)" fill="#FFFFFF" d="M34.728,12.272c0.257,0,0.513-0.098,0.707-0.293l4.243-4.243
		c0.392-0.391,0.392-1.023,0-1.414c-0.391-0.391-1.022-0.391-1.414,0l-4.242,4.243c-0.392,0.391-0.392,1.023,0,1.414
		C34.216,12.174,34.472,12.272,34.728,12.272"/>
	<path clip-path="url(#SVGID_2_)" fill="#FFFFFF" d="M10.565,11.979c0.195,0.195,0.451,0.293,0.707,0.293s0.512-0.098,0.707-0.293
		c0.391-0.391,0.391-1.023,0-1.414L7.736,6.322c-0.391-0.391-1.023-0.391-1.414,0c-0.391,0.391-0.391,1.023,0,1.414L10.565,11.979z"
		/>
	<path clip-path="url(#SVGID_2_)" fill="#FFFFFF" d="M45,30H31.478C33.101,28.052,34,25.604,34,23c0-6.065-4.935-11-11-11
		c-6.065,0-11,4.935-11,11c0,2.604,0.899,5.051,2.522,7H1c-0.552,0-1,0.447-1,1s0.448,1,1,1h44c0.553,0,1-0.447,1-1S45.553,30,45,30
		 M14.001,23c0-4.962,4.037-9,9-9s9,4.037,9,9c0,2.75-1.233,5.277-3.38,7H17.382C15.235,28.278,14.001,25.75,14.001,23"/>
	<path clip-path="url(#SVGID_2_)" fill="#FFFFFF" d="M28.293,40.293L23,45.586l-5.293-5.293c-0.391-0.391-1.023-0.391-1.414,0
		s-0.391,1.023,0,1.414l6,6C22.488,47.902,22.744,48,23,48s0.512-0.098,0.707-0.293l6-6c0.391-0.391,0.391-1.023,0-1.414
		S28.684,39.902,28.293,40.293"/>
</g>
</svg>
