<?xml version="1.0" encoding="utf-8"?>
<!-- Generator: Adobe Illustrator 17.1.0, SVG Export Plug-In . SVG Version: 6.00 Build 0)  -->
<!DOCTYPE svg PUBLIC "-//W3C//DTD SVG 1.1//EN" "http://www.w3.org/Graphics/SVG/1.1/DTD/svg11.dtd">
<svg version="1.1" id="Layer_1" xmlns="http://www.w3.org/2000/svg" xmlns:xlink="http://www.w3.org/1999/xlink" x="0px" y="0px"
	 viewBox="0 0 3000 2000" enable-background="new 0 0 3000 2000" xml:space="preserve">
<g>
	<path fill="#FFFFFF" d="M650.6,1464.6c4.3-6.9,10.3-13.7,12.9-21.4c36.9-101.1,108-159.4,214.3-173.1c19.7-2.6,33.4-8.6,43.7-28.3
		c58.3-107.1,178.3-162.9,303.4-144.9c122.6,18,216,102.9,242.6,222.9c4.3,17.1,12,25.7,29.1,30c119.1,29.1,183.4,120.9,170.6,239.1
		c-12.9,104.6-106.3,182.6-222,182.6c-170.6,0.9-340.3,0-510.9,0c-145.7,0-222-52.3-275.1-187.7c-1.7-5.1-6-8.6-9.4-12.9
		C650.6,1535.7,650.6,1499.7,650.6,1464.6z"/>
	<path fill="#FFFFFF" d="M2349.4,707.7c-8.6,18-16.3,35.1-24.9,53.1c-47.1,93.4-124.3,144-228,145.7c-186,2.6-371.1,2.6-557.1,0
		c-109.7-0.9-197.1-84.9-207.4-194.6c-9.4-106.3,60-203.1,166.3-227.1c19.7-4.3,30-10.3,35.1-31.7
		c25.7-115.7,119.1-202.3,236.6-221.1c120.9-19.7,246.9,35.1,304.3,137.1c13.7,24,29.1,31.7,55.7,36
		c102.9,16.3,172.3,74.6,206.6,173.1c3.4,10.3,8.6,19.7,12.9,29.1C2349.4,641.7,2349.4,674.3,2349.4,707.7z"/>
	<path fill="#FFFFFF" d="M650.6,833.7c15.4-6.9,30.9-17.1,47.1-19.7c85.7-12.9,170.6-23.1,256.3-34.3c7.7-0.9,14.6-4.3,24.9-6.9
		c-12.9-50.6-25.7-99.4-38.6-148.3c-11.1-43.7-23.1-87.4-35.1-131.1c-6-21.4-4.3-42,21.4-48c23.1-5.1,33.4,11.1,38.6,31.7
		C992.6,580,1020,682,1047.4,784.9c7.7,30-2.6,44.6-32.6,48.9C908.6,847.4,804,862,698.6,874c-15.4,1.7-31.7-8.6-48-13.7
		C650.6,851.7,650.6,843.1,650.6,833.7z"/>
	<path fill="#FFFFFF" d="M1741.7,1165.4c24,90,46.3,174,68.6,258c1.7,7.7,4.3,14.6,6,22.3c5.1,20.6,6,42-19.7,48
		c-24.9,5.1-34.3-12-40.3-33.4c-26.6-101.1-54-202.3-80.6-303.4c-8.6-31.7,1.7-45.4,34.3-49.7c104.6-14.6,210-28.3,314.6-42
		c22.3-3.4,42,0,45.4,25.7c3.4,26.6-17.1,32.6-38.6,36c-84,11.1-168,22.3-252.9,33.4C1768.3,1160.3,1758,1162,1741.7,1165.4z"/>
	<path fill="#FFFFFF" d="M1958.6,1350.6c24,90,47.1,176.6,69.4,263.1c6,23.1,22.3,54-13.7,64.3c-36,10.3-38.6-23.1-45.4-47.1
		c-24.9-92.6-49.7-186-74.6-278.6c-12-44.6-5.1-55.7,40.3-61.7c102-13.7,204-27.4,305.1-41.1c22.3-3.4,42,0,45.4,25.7
		c3.4,26.6-17.1,33.4-37.7,36c-87.4,12-174.9,23.1-263.1,34.3C1977.4,1346.3,1970.6,1348,1958.6,1350.6z"/>
	<path fill="#FFFFFF" d="M1196.6,898c-24-91.7-47.1-179.1-70.3-266.6c-6-23.1-18.9-51.4,14.6-61.7c34.3-10.3,38.6,21.4,44.6,43.7
		c25.7,96,50.6,192,76.3,288c9.4,37.7,0.9,50.6-37.7,55.7c-102,13.7-203.1,27.4-305.1,40.3c-2.6,0-4.3,0-6.9,0.9
		c-20.6,1.7-39.4,0-42.9-24.9c-3.4-24,12.9-32.6,34.3-36c79.7-10.3,159.4-21.4,240-32.6C1159.7,904.9,1175.1,901.4,1196.6,898z"/>
</g>
</svg>
