<?xml version="1.0" encoding="utf-8"?>
<!-- Generator: Adobe Illustrator 16.0.0, SVG Export Plug-In . SVG Version: 6.00 Build 0)  -->
<!DOCTYPE svg PUBLIC "-//W3C//DTD SVG 1.1//EN" "http://www.w3.org/Graphics/SVG/1.1/DTD/svg11.dtd">
<svg version="1.1" id="Layer_1" xmlns="http://www.w3.org/2000/svg" xmlns:xlink="http://www.w3.org/1999/xlink" x="0px" y="0px"
	 width="27px" height="26px" viewBox="0 0 27 26" enable-background="new 0 0 27 26" xml:space="preserve">
<g id="XMLID_1095_">
	<path id="XMLID_1096_" fill="#B5B5B5" d="M22.188,7.535c-0.343,0-0.654,0.031-0.965,0.125C21.035,3.394,17.517,0,13.22,0
		C9.826,0,6.93,2.117,5.747,5.076c-2.927,0.155-5.231,2.553-5.231,5.48c0,3.021,2.46,5.48,5.511,5.48h16.192
		c2.366,0,4.266-1.899,4.266-4.266C26.484,9.404,24.554,7.535,22.188,7.535z"/>
</g>
<g id="XMLID_1092_">
	<path id="XMLID_1093_" fill="#429FCE" d="M3.131,18.651c-0.031-0.03-0.094-0.03-0.125,0c-0.031,0.031-1.059,1.276-1.059,1.899
		s0.529,1.152,1.152,1.152c0.623,0,1.152-0.529,1.152-1.152C4.221,19.928,3.193,18.683,3.131,18.651z"/>
</g>
<g id="XMLID_1011_">
	<path id="XMLID_1012_" fill="#429FCE" d="M18.606,19.928c-0.062-0.063-0.187-0.063-0.249,0c-0.094,0.094-2.148,2.554-2.148,3.799
		c0,1.277,1.027,2.273,2.273,2.273c1.276,0,2.272-1.027,2.272-2.273C20.755,22.513,18.669,20.053,18.606,19.928z"/>
</g>
<g id="XMLID_566_">
	<path id="XMLID_567_" fill="#429FCE" d="M13.344,17.811c-0.031-0.031-0.125-0.031-0.156,0c-0.062,0.063-1.495,1.775-1.495,2.615
		c0,0.873,0.716,1.558,1.557,1.558c0.872,0,1.557-0.716,1.557-1.558C14.808,19.586,13.407,17.904,13.344,17.811z"/>
</g>
<g id="XMLID_563_">
	<path id="XMLID_564_" fill="#429FCE" d="M8.207,19.928c-0.062-0.063-0.187-0.063-0.249,0c-0.093,0.094-2.148,2.554-2.148,3.799
		C5.809,25.004,6.836,26,8.082,26c1.277,0,2.273-1.027,2.273-2.273C10.355,22.513,8.3,20.053,8.207,19.928z"/>
</g>
<g id="XMLID_261_">
	<path id="XMLID_379_" fill="#429FCE" d="M24.118,18.651c-0.031-0.03-0.094-0.03-0.124,0c-0.031,0.031-1.09,1.276-1.09,1.899
		s0.529,1.152,1.151,1.152s1.151-0.529,1.151-1.152C25.208,19.928,24.148,18.683,24.118,18.651z"/>
</g>
</svg>
