<?xml version="1.0" encoding="utf-8"?>
<!-- Generator: Adobe Illustrator 16.0.0, SVG Export Plug-In . SVG Version: 6.00 Build 0)  -->
<!DOCTYPE svg PUBLIC "-//W3C//DTD SVG 1.1//EN" "http://www.w3.org/Graphics/SVG/1.1/DTD/svg11.dtd">
<svg version="1.1" id="Layer_1" xmlns="http://www.w3.org/2000/svg" xmlns:xlink="http://www.w3.org/1999/xlink" x="0px" y="0px"
	 width="27px" height="26px" viewBox="0 0 27 26" enable-background="new 0 0 27 26" xml:space="preserve">
<g id="XMLID_875_">
	<path id="XMLID_876_" fill="#FFFFFF" d="M21.688,12.497c-0.239,0-0.479,0.024-0.718,0.072c-0.144-3.112-2.706-5.578-5.866-5.578
		c-2.489,0-4.596,1.532-5.458,3.711c-2.131,0.096-3.807,1.843-3.807,3.998c0,2.227,1.795,4.023,4.022,4.023h11.827
		c1.725,0,3.113-1.389,3.113-3.113C24.801,13.886,23.412,12.497,21.688,12.497z"/>
</g>
<g id="XMLID_872_">
	<path id="XMLID_873_" fill="#FFFFFF" d="M7.778,20.613c-0.023-0.023-0.072-0.023-0.096,0c-0.024,0.048-0.79,0.934-0.79,1.389
		S7.275,22.84,7.73,22.84c0.455,0,0.838-0.383,0.838-0.838C8.568,21.57,7.802,20.661,7.778,20.613z"/>
</g>
<g id="XMLID_817_">
	<path id="XMLID_818_" fill="#FFFFFF" d="M19.055,21.57c-0.049-0.047-0.12-0.047-0.168,0c-0.048,0.072-1.58,1.868-1.58,2.777
		c0,0.934,0.742,1.652,1.652,1.652c0.934,0,1.651-0.742,1.651-1.652C20.635,23.438,19.126,21.643,19.055,21.57z"/>
</g>
<g id="XMLID_567_">
	<path id="XMLID_568_" fill="#FFFFFF" d="M15.224,20.015c-0.024-0.024-0.096-0.024-0.12,0c-0.047,0.048-1.076,1.293-1.076,1.915
		c0,0.646,0.525,1.149,1.148,1.149c0.646,0,1.149-0.526,1.149-1.149C16.301,21.308,15.271,20.063,15.224,20.015z"/>
</g>
<g id="XMLID_564_">
	<path id="XMLID_565_" fill="#FFFFFF" d="M11.489,21.57c-0.048-0.047-0.12-0.047-0.167,0c-0.048,0.072-1.58,1.868-1.58,2.777
		c0,0.934,0.742,1.652,1.652,1.652c0.934,0,1.652-0.742,1.652-1.652C13.045,23.438,11.537,21.643,11.489,21.57z"/>
</g>
<g id="XMLID_379_">
	<path id="XMLID_380_" fill="#FFFFFF" d="M23.101,20.613c-0.024-0.023-0.072-0.023-0.097,0c-0.023,0.048-0.789,0.934-0.789,1.389
		s0.383,0.838,0.838,0.838s0.838-0.383,0.838-0.838C23.891,21.57,23.125,20.661,23.101,20.613z"/>
</g>
<path id="XMLID_261_" fill="#FFFFFF" d="M8.903,9.912c0.167-0.407,0.359-0.79,0.599-1.149C8.281,7.805,7.515,6.32,7.515,4.645
	c0-1.508,0.646-2.945,1.82-3.974C9.478,0.575,9.478,0.383,9.43,0.239C9.382,0.096,9.238,0,9.047,0
	C5.121,0.383,2.176,3.615,2.176,7.589c0,2.442,1.149,4.597,2.921,5.985C5.264,11.563,6.892,10.007,8.903,9.912z"/>
</svg>
