<?xml version="1.0" encoding="utf-8"?>
<!-- Generator: Adobe Illustrator 16.0.0, SVG Export Plug-In . SVG Version: 6.00 Build 0)  -->
<!DOCTYPE svg PUBLIC "-//W3C//DTD SVG 1.1//EN" "http://www.w3.org/Graphics/SVG/1.1/DTD/svg11.dtd">
<svg version="1.1" id="Слой_1" xmlns="http://www.w3.org/2000/svg" xmlns:xlink="http://www.w3.org/1999/xlink" x="0px" y="0px"
	 width="28px" height="26px" viewBox="0 0 28 26" enable-background="new 0 0 28 26" xml:space="preserve">
<g id="XMLID_568_">
	<path id="XMLID_574_" fill="#F3C870" d="M11.864,10.165c0.604-1.299,1.619-2.357,2.826-3.007c-0.917-1.587-2.633-2.646-4.589-2.646
		c-2.922,0-5.29,2.358-5.29,5.269c0,2.069,1.208,3.873,2.971,4.741C7.927,12.283,9.641,10.455,11.864,10.165z"/>
	<path id="XMLID_573_" fill="#F3C870" d="M10.101,3.574c0.338,0,0.604-0.265,0.604-0.602V0.639c0-0.336-0.266-0.602-0.604-0.602
		c-0.337,0-0.604,0.265-0.604,0.602v2.334C9.497,3.285,9.787,3.574,10.101,3.574z"/>
	<path id="XMLID_572_" fill="#F3C870" d="M3.675,9.973c0-0.335-0.265-0.6-0.603-0.6H0.729c-0.338,0-0.604,0.289-0.604,0.6
		c0,0.314,0.266,0.602,0.604,0.602h2.343C3.386,10.574,3.675,10.31,3.675,9.973z"/>
	<path id="XMLID_571_" fill="#F3C870" d="M15.513,5.45l1.642-1.636c0.241-0.24,0.241-0.625,0-0.842l0,0
		c-0.242-0.241-0.629-0.241-0.845,0l-1.644,1.636c-0.242,0.24-0.242,0.625,0,0.841C14.907,5.667,15.294,5.667,15.513,5.45z"/>
	<path id="XMLID_570_" fill="#F3C870" d="M4.69,14.521l-1.643,1.636c-0.241,0.239-0.241,0.624,0,0.842
		c0.242,0.24,0.627,0.24,0.846,0l1.642-1.637c0.242-0.24,0.242-0.626,0-0.841C5.318,14.279,4.932,14.279,4.69,14.521z"/>
	<path id="XMLID_569_" fill="#F3C870" d="M4.69,5.45c0.241,0.241,0.628,0.241,0.845,0c0.242-0.241,0.242-0.625,0-0.841L3.893,2.973
		c-0.242-0.241-0.627-0.241-0.846,0l0,0c-0.241,0.24-0.241,0.625,0,0.842L4.69,5.45z"/>
</g>
<g id="XMLID_566_">
	<path id="XMLID_567_" fill="#B5B5B5" d="M24.689,12.788c-0.241,0-0.481,0.024-0.724,0.072c-0.146-3.128-2.731-5.605-5.917-5.605
		c-2.512,0-4.64,1.54-5.508,3.729c-2.15,0.098-3.84,1.853-3.84,4.019c0,2.237,1.812,4.041,4.057,4.041h11.933
		c1.738,0,3.141-1.396,3.141-3.128C27.83,14.184,26.428,12.788,24.689,12.788z"/>
</g>
<g id="XMLID_563_">
	<path id="XMLID_564_" fill="#4999C2" d="M16.621,21.306c-0.047-0.048-0.12-0.048-0.167,0c-0.072,0.072-1.595,1.875-1.595,2.79
		c0,0.938,0.75,1.66,1.666,1.66c0.942,0,1.667-0.746,1.667-1.66C18.192,23.181,16.671,21.378,16.621,21.306z"/>
</g>
<g id="XMLID_261_">
	<path id="XMLID_379_" fill="#4999C2" d="M20.945,20.631c-0.024-0.023-0.072-0.023-0.119,0c-0.049,0.049-0.99,1.179-0.99,1.756
		c0,0.578,0.481,1.058,1.062,1.058c0.581,0,1.062-0.479,1.062-1.058C21.959,21.81,20.994,20.68,20.945,20.631z"/>
</g>
</svg>
