<?xml version="1.0" encoding="utf-8"?>
<!-- Generator: Adobe Illustrator 16.0.0, SVG Export Plug-In . SVG Version: 6.00 Build 0)  -->
<!DOCTYPE svg PUBLIC "-//W3C//DTD SVG 1.1//EN" "http://www.w3.org/Graphics/SVG/1.1/DTD/svg11.dtd">
<svg version="1.1" id="Layer_1" xmlns="http://www.w3.org/2000/svg" xmlns:xlink="http://www.w3.org/1999/xlink" x="0px" y="0px"
	 width="28px" height="26px" viewBox="0 0 28 26" enable-background="new 0 0 28 26" xml:space="preserve">
<path id="XMLID_1532_" fill="#DBDBDB" d="M2.994,11.31c0.232,0,0.464,0.026,0.671,0.078c0.155-2.968,2.606-5.342,5.626-5.342
	c2.374,0,4.413,1.471,5.239,3.561c2.039,0.103,3.664,1.781,3.664,3.845c0,2.117-1.729,3.845-3.845,3.845H2.994
	C1.342,17.297,0,15.955,0,14.303C0,12.652,1.342,11.31,2.994,11.31z"/>
<path id="XMLID_1531_" fill="#B5B5B5" d="M24.129,8.032c-0.31,0-0.594,0.026-0.877,0.103C23.07,4.291,19.896,1.219,16,1.219
	c-2.839,0-5.316,1.626-6.503,4c2.478,0.026,4.671,1.445,5.704,3.665c2.22,0.31,3.923,2.219,3.923,4.516
	c0,0.877-0.258,1.704-0.697,2.4h5.703C26.271,15.8,28,14.07,28,11.929C28,9.761,26.271,8.032,24.129,8.032z"/>
<g id="XMLID_566_">
	<path id="XMLID_567_" fill="#429FCE" d="M9.368,19.748c-0.052-0.051-0.155-0.051-0.207,0c-0.077,0.078-1.78,2.117-1.78,3.148
		c0,1.059,0.852,1.885,1.884,1.885c1.058,0,1.884-0.852,1.884-1.885C11.148,21.891,9.445,19.826,9.368,19.748z"/>
</g>
<g id="XMLID_563_">
	<path id="XMLID_564_" fill="#429FCE" d="M14.529,19c-0.025-0.025-0.104-0.025-0.129,0c-0.052,0.052-1.135,1.342-1.135,1.987
		c0,0.671,0.542,1.187,1.187,1.187c0.671,0,1.187-0.541,1.187-1.187S14.555,19.052,14.529,19z"/>
</g>
<g id="XMLID_261_">
	<path id="XMLID_379_" fill="#429FCE" d="M4.207,19c-0.026-0.025-0.104-0.025-0.129,0c-0.052,0.052-1.136,1.342-1.136,1.987
		c0,0.671,0.542,1.187,1.187,1.187c0.671,0,1.187-0.541,1.187-1.187S4.232,19.052,4.207,19z"/>
</g>
</svg>
