<?xml version="1.0" encoding="utf-8"?>
<!-- Generator: Adobe Illustrator 16.0.0, SVG Export Plug-In . SVG Version: 6.00 Build 0)  -->
<!DOCTYPE svg PUBLIC "-//W3C//DTD SVG 1.1//EN" "http://www.w3.org/Graphics/SVG/1.1/DTD/svg11.dtd">
<svg version="1.1" id="Layer_1" xmlns="http://www.w3.org/2000/svg" xmlns:xlink="http://www.w3.org/1999/xlink" x="0px" y="0px"
	 width="28px" height="26px" viewBox="0 0 28 26" enable-background="new 0 0 28 26" xml:space="preserve">
<g id="XMLID_571_">
	<path id="XMLID_629_" fill="#FFCC66" d="M11.86,10.239c0.608-1.313,1.629-2.383,2.845-3.04c-0.924-1.605-2.651-2.675-4.621-2.675
		c-2.943,0-5.326,2.383-5.326,5.326c0,2.092,1.216,3.916,2.992,4.792C7.895,12.38,9.622,10.531,11.86,10.239z"/>
	<path id="XMLID_628_" fill="#FFCC66" d="M10.084,3.575c0.341,0,0.608-0.268,0.608-0.608V0.608c0-0.34-0.268-0.608-0.608-0.608
		c-0.34,0-0.608,0.268-0.608,0.608v2.359C9.476,3.284,9.768,3.575,10.084,3.575z"/>
	<path id="XMLID_627_" fill="#FFCC66" d="M3.615,10.045c0-0.34-0.268-0.608-0.608-0.608H0.647c-0.341,0-0.608,0.292-0.608,0.608
		c0,0.316,0.268,0.608,0.608,0.608h2.359C3.323,10.653,3.615,10.385,3.615,10.045z"/>
	<path id="XMLID_574_" fill="#FFCC66" d="M15.532,5.472l1.653-1.654c0.244-0.243,0.244-0.632,0-0.851l0,0
		c-0.242-0.243-0.632-0.243-0.851,0l-1.653,1.654c-0.244,0.243-0.244,0.632,0,0.851C14.924,5.691,15.313,5.691,15.532,5.472z"/>
	<path id="XMLID_573_" fill="#FFCC66" d="M4.636,14.642l-1.654,1.653c-0.244,0.244-0.244,0.633,0,0.852
		c0.243,0.244,0.632,0.244,0.851,0l1.654-1.653c0.243-0.243,0.243-0.632,0-0.852C5.269,14.398,4.879,14.398,4.636,14.642z"/>
	<path id="XMLID_572_" fill="#FFCC66" d="M4.636,5.472c0.243,0.244,0.632,0.244,0.851,0c0.243-0.243,0.243-0.632,0-0.851
		L3.833,2.967c-0.243-0.243-0.632-0.243-0.851,0l0,0c-0.244,0.243-0.244,0.632,0,0.851L4.636,5.472z"/>
</g>
<g id="XMLID_569_">
	<path id="XMLID_570_" fill="#B5B5B5" d="M24.774,12.891c-0.243,0-0.486,0.024-0.729,0.073c-0.146-3.162-2.748-5.667-5.959-5.667
		c-2.529,0-4.669,1.557-5.545,3.77c-2.165,0.097-3.867,1.873-3.867,4.062c0,2.263,1.824,4.087,4.086,4.087h12.015
		c1.751,0,3.162-1.411,3.162-3.162C27.937,14.301,26.525,12.891,24.774,12.891z"/>
</g>
<g id="XMLID_566_">
	<path id="XMLID_567_" fill="#429FCE" d="M17.867,21.5c-0.049-0.049-0.121-0.049-0.17,0c-0.073,0.073-1.605,1.897-1.605,2.822
		c0,0.948,0.754,1.678,1.678,1.678c0.949,0,1.679-0.754,1.679-1.678C19.448,23.397,17.916,21.573,17.867,21.5z"/>
</g>
<g id="XMLID_563_">
	<path id="XMLID_564_" fill="#429FCE" d="M22.464,20.819c-0.024-0.024-0.073-0.024-0.122,0c-0.048,0.049-0.996,1.192-0.996,1.775
		c0,0.584,0.486,1.07,1.07,1.07c0.583,0,1.069-0.486,1.069-1.07C23.485,22.012,22.513,20.868,22.464,20.819z"/>
</g>
<g id="XMLID_261_">
	<path id="XMLID_379_" fill="#429FCE" d="M13.222,20.819c-0.024-0.024-0.073-0.024-0.122,0c-0.049,0.049-0.997,1.192-0.997,1.775
		c0,0.584,0.486,1.07,1.07,1.07c0.584,0,1.07-0.486,1.07-1.07C14.243,22.012,13.271,20.868,13.222,20.819z"/>
</g>
</svg>
