<?xml version="1.0" encoding="utf-8"?>
<!-- Generator: Adobe Illustrator 16.0.0, SVG Export Plug-In . SVG Version: 6.00 Build 0)  -->
<!DOCTYPE svg PUBLIC "-//W3C//DTD SVG 1.1//EN" "http://www.w3.org/Graphics/SVG/1.1/DTD/svg11.dtd">
<svg version="1.1" id="Layer_1" xmlns="http://www.w3.org/2000/svg" xmlns:xlink="http://www.w3.org/1999/xlink" x="0px" y="0px"
	 width="28px" height="26px" viewBox="0 0 28 26" enable-background="new 0 0 28 26" xml:space="preserve">
<g id="XMLID_817_">
	<path id="XMLID_818_" fill="#B5B5B5" d="M22.456,12.653c-0.247,0-0.495,0.025-0.743,0.074c-0.148-3.219-2.798-5.77-6.066-5.77
		c-2.575,0-4.754,1.585-5.646,3.838c-2.204,0.099-3.937,1.906-3.937,4.135c0,2.303,1.857,4.16,4.16,4.16h12.232
		c1.783,0,3.22-1.437,3.22-3.219C25.676,14.09,24.239,12.653,22.456,12.653z"/>
</g>
<g id="XMLID_567_">
	<path id="XMLID_568_" fill="#429FCE" d="M15.398,21.419c-0.049-0.05-0.123-0.05-0.173,0c-0.05,0.074-1.634,1.932-1.634,2.872
		c0,0.967,0.768,1.709,1.708,1.709c0.966,0,1.709-0.768,1.709-1.709C17.033,23.351,15.449,21.493,15.398,21.419z"/>
</g>
<g id="XMLID_564_">
	<path id="XMLID_565_" fill="#429FCE" d="M20.079,20.726c-0.024-0.024-0.074-0.024-0.124,0c-0.049,0.05-1.016,1.214-1.016,1.808
		s0.496,1.09,1.09,1.09c0.595,0,1.09-0.496,1.09-1.09S20.129,20.775,20.079,20.726z"/>
</g>
<g id="XMLID_379_">
	<path id="XMLID_380_" fill="#429FCE" d="M10.669,20.726c-0.024-0.024-0.074-0.024-0.124,0c-0.05,0.05-1.016,1.214-1.016,1.808
		s0.496,1.09,1.09,1.09s1.089-0.496,1.089-1.09S10.719,20.775,10.669,20.726z"/>
</g>
<path id="XMLID_261_" fill="#FFCC66" d="M9.283,10.251c0.173-0.421,0.372-0.817,0.619-1.188C8.639,8.072,7.847,6.537,7.847,4.804
	c0-1.56,0.668-3.045,1.882-4.11c0.148-0.099,0.148-0.297,0.099-0.446S9.629,0,9.432,0C5.371,0.396,2.325,3.739,2.325,7.85
	c0,2.526,1.188,4.754,3.021,6.19C5.519,11.96,7.203,10.351,9.283,10.251z"/>
</svg>
