<?xml version="1.0" encoding="utf-8"?>
<!-- Generator: Adobe Illustrator 16.0.0, SVG Export Plug-In . SVG Version: 6.00 Build 0)  -->
<!DOCTYPE svg PUBLIC "-//W3C//DTD SVG 1.1//EN" "http://www.w3.org/Graphics/SVG/1.1/DTD/svg11.dtd">
<svg version="1.1" id="Layer_1" xmlns="http://www.w3.org/2000/svg" xmlns:xlink="http://www.w3.org/1999/xlink" x="0px" y="0px"
	 width="28px" height="26px" viewBox="0 0 28 26" enable-background="new 0 0 28 26" xml:space="preserve">
<g id="XMLID_1011_">
	<path id="XMLID_1012_" fill="#B5B5B5" d="M22.978,7.787c-0.354,0-0.675,0.032-0.997,0.129C21.787,3.507,18.15,0,13.71,0
		c-3.507,0-6.5,2.188-7.723,5.245c-3.025,0.161-5.406,2.639-5.406,5.663c0,3.121,2.542,5.664,5.696,5.664H23.01
		c2.445,0,4.408-1.963,4.408-4.409S25.424,7.787,22.978,7.787z"/>
</g>
<g id="XMLID_566_">
	<path id="XMLID_567_" fill="#429FCE" d="M13.356,19.758c-0.064-0.064-0.193-0.064-0.257,0c-0.097,0.096-2.22,2.639-2.22,3.926
		c0,1.318,1.062,2.349,2.349,2.349c1.319,0,2.349-1.062,2.349-2.349S13.421,19.854,13.356,19.758z"/>
</g>
<g id="XMLID_563_">
	<path id="XMLID_564_" fill="#429FCE" d="M19.76,18.792c-0.032-0.032-0.129-0.032-0.16,0c-0.064,0.064-1.416,1.673-1.416,2.478
		c0,0.837,0.676,1.48,1.48,1.48c0.836,0,1.479-0.676,1.479-1.48C21.176,20.465,19.824,18.856,19.76,18.792z"/>
</g>
<g id="XMLID_261_">
	<path id="XMLID_379_" fill="#429FCE" d="M6.889,18.792c-0.032-0.032-0.129-0.032-0.161,0c-0.064,0.064-1.416,1.673-1.416,2.478
		c0,0.837,0.676,1.48,1.48,1.48c0.837,0,1.48-0.676,1.48-1.48C8.305,20.465,6.953,18.856,6.889,18.792z"/>
</g>
</svg>
