<?xml version="1.0" encoding="utf-8"?>
<!-- Generator: Adobe Illustrator 16.0.0, SVG Export Plug-In . SVG Version: 6.00 Build 0)  -->
<!DOCTYPE svg PUBLIC "-//W3C//DTD SVG 1.1//EN" "http://www.w3.org/Graphics/SVG/1.1/DTD/svg11.dtd">
<svg version="1.1" id="Слой_1" xmlns="http://www.w3.org/2000/svg" xmlns:xlink="http://www.w3.org/1999/xlink" x="0px" y="0px"
	 width="28px" height="26px" viewBox="0 0 28 26" enable-background="new 0 0 28 26" xml:space="preserve">
<g id="XMLID_567_">
	<path id="XMLID_568_" fill="#FFFFFF" d="M24.097,12.66c-0.296,0-0.59,0.024-0.885,0.073c-0.177-3.157-3.329-5.659-7.216-5.659
		c-3.063,0-5.655,1.555-6.715,3.765c-2.622,0.097-4.684,1.869-4.684,4.056c0,2.259,2.208,4.08,4.948,4.08h14.552
		c2.12,0,3.829-1.408,3.829-3.156C27.926,14.068,26.217,12.66,24.097,12.66z"/>
</g>
<g id="XMLID_564_">
	<path id="XMLID_565_" fill="#FFFFFF" d="M14.229,21.258c-0.06-0.05-0.148-0.05-0.206,0c-0.06,0.072-1.945,1.894-1.945,2.816
		c0,0.948,0.913,1.676,2.033,1.676c1.148,0,2.031-0.753,2.031-1.676C16.171,23.151,14.288,21.33,14.229,21.258z"/>
</g>
<g id="XMLID_379_">
	<path id="XMLID_380_" fill="#FFFFFF" d="M19.502,20.577c-0.031-0.024-0.089-0.024-0.147,0c-0.06,0.049-1.209,1.19-1.209,1.773
		c0,0.581,0.589,1.068,1.296,1.068c0.709,0,1.297-0.487,1.297-1.068C20.738,21.768,19.56,20.626,19.502,20.577z"/>
</g>
<path id="XMLID_261_" fill="#FFFFFF" d="M8.426,10.305c0.207-0.413,0.442-0.802,0.737-1.166C7.661,8.167,6.718,6.661,6.718,4.961
	c0-1.53,0.795-2.987,2.238-4.031c0.177-0.098,0.177-0.292,0.119-0.437C9.016,0.347,8.838,0.25,8.603,0.25
	C3.772,0.638,0.149,3.917,0.149,7.949c0,2.477,1.414,4.663,3.593,6.072C3.949,11.98,5.952,10.401,8.426,10.305z"/>
</svg>
