<?xml version="1.0" encoding="utf-8"?>
<!-- Generator: Adobe Illustrator 16.0.0, SVG Export Plug-In . SVG Version: 6.00 Build 0)  -->
<!DOCTYPE svg PUBLIC "-//W3C//DTD SVG 1.1//EN" "http://www.w3.org/Graphics/SVG/1.1/DTD/svg11.dtd">
<svg version="1.1" id="Слой_1" xmlns="http://www.w3.org/2000/svg" xmlns:xlink="http://www.w3.org/1999/xlink" x="0px" y="0px"
	 width="27px" height="26px" viewBox="0 0 27 26" enable-background="new 0 0 27 26" xml:space="preserve">
<g id="XMLID_1189_">
	<path id="XMLID_1697_" fill="#FFFFFF" d="M22.516,7.877c-0.355,0-0.68,0.032-1.003,0.127c-0.195-4.349-3.85-7.81-8.314-7.81
		c-3.526,0-6.535,2.158-7.764,5.175C2.394,5.527,0,7.973,0,10.958c0,3.078,2.556,5.588,5.727,5.588h16.82
		c2.46,0,4.433-1.938,4.433-4.35C26.979,9.782,24.975,7.877,22.516,7.877z"/>
</g>
<g id="XMLID_237_">
	<path id="XMLID_498_" fill="#FFFFFF" d="M12.843,19.688c-0.065-0.064-0.194-0.064-0.26,0c-0.097,0.097-2.23,2.604-2.23,3.876
		c0,1.3,1.065,2.316,2.361,2.316c1.325,0,2.36-1.048,2.36-2.316C15.074,22.293,12.906,19.785,12.843,19.688z"/>
</g>
<path id="XMLID_236_" fill="#FFFFFF" d="M4.884,19.243h2.944c0.096,0,0.162,0.128,0.096,0.223L6.47,22.673
	c-0.032,0.097-0.162,0.097-0.227,0l-1.456-3.238C4.723,19.34,4.788,19.243,4.884,19.243z"/>
<path id="XMLID_68_" fill="#FFFFFF" d="M17.728,19.243h2.943c0.097,0,0.162,0.128,0.097,0.223l-1.456,3.239
	c-0.031,0.095-0.159,0.095-0.225,0l-1.457-3.239C17.598,19.34,17.63,19.243,17.728,19.243z"/>
</svg>
