<?xml version="1.0" encoding="utf-8"?>
<!-- Generator: Adobe Illustrator 16.0.0, SVG Export Plug-In . SVG Version: 6.00 Build 0)  -->
<!DOCTYPE svg PUBLIC "-//W3C//DTD SVG 1.1//EN" "http://www.w3.org/Graphics/SVG/1.1/DTD/svg11.dtd">
<svg version="1.1" id="Layer_1" xmlns="http://www.w3.org/2000/svg" xmlns:xlink="http://www.w3.org/1999/xlink" x="0px" y="0px"
	 width="27px" height="26px" viewBox="0 0 27 26" enable-background="new 0 0 27 26" xml:space="preserve">
<g id="XMLID_566_">
	<path id="XMLID_567_" fill="#B5B5B5" d="M22.478,7.787c-0.354,0-0.675,0.032-0.997,0.129C21.287,3.507,17.65,0,13.21,0
		c-3.507,0-6.5,2.188-7.723,5.245c-3.025,0.161-5.406,2.639-5.406,5.663c0,3.121,2.542,5.664,5.696,5.664H22.51
		c2.445,0,4.408-1.963,4.408-4.409S24.924,7.787,22.478,7.787z"/>
</g>
<g id="XMLID_563_">
	<path id="XMLID_564_" fill="#429FCE" d="M11.151,19.758c-0.064-0.064-0.193-0.064-0.257,0c-0.097,0.096-2.22,2.639-2.22,3.926
		c0,1.318,1.062,2.349,2.349,2.349c1.319,0,2.349-1.062,2.349-2.349S11.215,19.854,11.151,19.758z"/>
</g>
<g id="XMLID_261_">
	<path id="XMLID_379_" fill="#429FCE" d="M17.232,18.792c-0.031-0.032-0.129-0.032-0.16,0c-0.064,0.064-1.416,1.673-1.416,2.478
		c0,0.837,0.676,1.48,1.48,1.48c0.836,0,1.479-0.676,1.479-1.48C18.648,20.465,17.265,18.856,17.232,18.792z"/>
</g>
</svg>
