<?xml version="1.0" encoding="utf-8"?>
<!-- Generator: Adobe Illustrator 16.0.0, SVG Export Plug-In . SVG Version: 6.00 Build 0)  -->
<!DOCTYPE svg PUBLIC "-//W3C//DTD SVG 1.1//EN" "http://www.w3.org/Graphics/SVG/1.1/DTD/svg11.dtd">
<svg version="1.1" id="Layer_1" xmlns="http://www.w3.org/2000/svg" xmlns:xlink="http://www.w3.org/1999/xlink" x="0px" y="0px"
	 width="30px" height="24px" viewBox="0 0 30 24" enable-background="new 0 0 30 24" xml:space="preserve">
<g id="XMLID_499_">
	<path id="XMLID_1189_" fill="#B5B5B5" d="M23.287,7.188c-0.326,0-0.623,0.03-0.921,0.119C22.188,3.238,18.832,0,14.732,0
		c-3.237,0-6,2.02-7.128,4.842c-2.792,0.148-4.99,2.436-4.99,5.228c0,2.882,2.347,5.228,5.257,5.228h15.445
		c2.258,0,4.07-1.812,4.07-4.069C27.387,8.97,25.545,7.188,23.287,7.188z"/>
</g>
<g id="XMLID_236_">
	<path id="XMLID_237_" fill="#429FCE" d="M12.832,18.238c-0.059-0.061-0.178-0.061-0.237,0c-0.089,0.088-2.05,2.436-2.05,3.623
		c0,1.218,0.98,2.168,2.168,2.168c1.218,0,2.168-0.98,2.168-2.168S12.891,18.326,12.832,18.238z"/>
</g>
<path id="XMLID_68_" fill="#429FCE" d="M17.02,17.822h2.703c0.09,0,0.148,0.118,0.09,0.207l-1.338,3.03
	c-0.029,0.089-0.148,0.089-0.207,0l-1.337-3.03C16.871,17.911,16.931,17.822,17.02,17.822z"/>
</svg>
