<?xml version="1.0" encoding="utf-8"?>
<!-- Generator: Adobe Illustrator 16.0.0, SVG Export Plug-In . SVG Version: 6.00 Build 0)  -->
<!DOCTYPE svg PUBLIC "-//W3C//DTD SVG 1.1//EN" "http://www.w3.org/Graphics/SVG/1.1/DTD/svg11.dtd">
<svg version="1.1" id="Layer_1" xmlns="http://www.w3.org/2000/svg" xmlns:xlink="http://www.w3.org/1999/xlink" x="0px" y="0px"
	 width="27px" height="26px" viewBox="0 0 27 26" enable-background="new 0 0 27 26" xml:space="preserve">
<path id="XMLID_1655_" fill="#DBDBDB" d="M2.887,11.184c0.224,0,0.448,0.025,0.647,0.075c0.149-2.862,2.513-5.151,5.425-5.151
	c2.29,0,4.255,1.418,5.051,3.434c1.967,0.1,3.534,1.717,3.534,3.708c0,2.04-1.667,3.708-3.708,3.708H2.887
	C1.294,16.957,0,15.662,0,14.07C0,12.478,1.294,11.184,2.887,11.184z"/>
<path id="XMLID_1654_" fill="#B5B5B5" d="M23.268,8.023c-0.299,0-0.572,0.025-0.846,0.1c-0.175-3.708-3.236-6.669-6.993-6.669
	c-2.737,0-5.126,1.567-6.271,3.857c2.389,0.025,4.504,1.394,5.5,3.534c2.14,0.299,3.782,2.14,3.782,4.355
	c0,0.846-0.248,1.643-0.672,2.314h5.5c2.064,0,3.732-1.668,3.732-3.733C27,9.69,25.332,8.023,23.268,8.023z"/>
<g id="XMLID_1651_">
	<path id="XMLID_1652_" fill="#429FCE" d="M1.941,18.674c-0.025-0.025-0.075-0.025-0.1,0c-0.025,0.05-0.846,1.045-0.846,1.518
		c0,0.498,0.423,0.921,0.92,0.921s0.921-0.423,0.921-0.921C2.812,19.719,1.966,18.724,1.941,18.674z"/>
</g>
<g id="XMLID_1531_">
	<path id="XMLID_1532_" fill="#429FCE" d="M12.542,19.719c-0.05-0.05-0.149-0.05-0.199,0c-0.075,0.074-1.717,2.041-1.717,3.036
		c0,1.021,0.821,1.816,1.816,1.816c1.021,0,1.816-0.821,1.816-1.816C14.283,21.76,12.617,19.793,12.542,19.719z"/>
</g>
<g id="XMLID_566_">
	<path id="XMLID_567_" fill="#429FCE" d="M8.859,18.027c-0.025-0.025-0.1-0.025-0.125,0c-0.05,0.049-1.194,1.418-1.194,2.09
		c0,0.697,0.572,1.244,1.244,1.244c0.697,0,1.245-0.572,1.245-1.244S8.909,18.076,8.859,18.027z"/>
</g>
<g id="XMLID_563_">
	<path id="XMLID_564_" fill="#429FCE" d="M5.25,19.719c-0.05-0.05-0.149-0.05-0.199,0c-0.075,0.074-1.717,2.041-1.717,3.036
		c0,1.021,0.821,1.816,1.817,1.816c1.02,0,1.816-0.821,1.816-1.816S5.325,19.793,5.25,19.719z"/>
</g>
<g id="XMLID_261_">
	<path id="XMLID_379_" fill="#429FCE" d="M15.977,18.674c-0.025-0.025-0.075-0.025-0.1,0c-0.025,0.05-0.871,1.02-0.871,1.518
		s0.423,0.921,0.92,0.921c0.498,0,0.922-0.423,0.922-0.921C16.848,19.719,16.001,18.724,15.977,18.674z"/>
</g>
</svg>
