<?xml version="1.0" encoding="utf-8"?>
<!-- Generator: Adobe Illustrator 16.0.0, SVG Export Plug-In . SVG Version: 6.00 Build 0)  -->
<!DOCTYPE svg PUBLIC "-//W3C//DTD SVG 1.1//EN" "http://www.w3.org/Graphics/SVG/1.1/DTD/svg11.dtd">
<svg version="1.1" id="Layer_1" xmlns="http://www.w3.org/2000/svg" xmlns:xlink="http://www.w3.org/1999/xlink" x="0px" y="0px"
	 width="27px" height="26px" viewBox="0 0 27 26" enable-background="new 0 0 27 26" xml:space="preserve">
<path id="XMLID_567_" fill="#DBDBDB" d="M2.887,11.432c0.224,0,0.448,0.025,0.647,0.075c0.149-2.862,2.513-5.151,5.425-5.151
	c2.29,0,4.255,1.418,5.051,3.434c1.967,0.099,3.534,1.717,3.534,3.708c0,2.041-1.667,3.708-3.708,3.708H2.887
	C1.294,17.205,0,15.912,0,14.318C0,12.726,1.294,11.432,2.887,11.432z"/>
<path id="XMLID_566_" fill="#B5B5B5" d="M23.268,8.272c-0.299,0-0.572,0.025-0.846,0.1c-0.175-3.708-3.236-6.669-6.993-6.669
	c-2.737,0-5.126,1.568-6.271,3.857c2.389,0.025,4.504,1.394,5.5,3.534c2.14,0.298,3.782,2.14,3.782,4.354
	c0,0.846-0.248,1.642-0.672,2.314h5.5c2.064,0,3.732-1.667,3.732-3.732C27,9.939,25.332,8.272,23.268,8.272z"/>
<g id="XMLID_563_">
	<path id="XMLID_564_" fill="#429FCE" d="M6.818,19.471c-0.05-0.051-0.149-0.051-0.199,0c-0.074,0.074-1.717,2.04-1.717,3.035
		c0,1.021,0.821,1.816,1.816,1.816c1.021,0,1.817-0.82,1.817-1.816C8.536,21.511,6.893,19.545,6.818,19.471z"/>
</g>
<g id="XMLID_261_">
	<path id="XMLID_379_" fill="#429FCE" d="M11.521,18.724c-0.025-0.024-0.099-0.024-0.124,0c-0.05,0.05-1.095,1.294-1.095,1.916
		c0,0.647,0.522,1.145,1.145,1.145c0.647,0,1.145-0.522,1.145-1.145C12.617,20.018,11.571,18.773,11.521,18.724z"/>
</g>
</svg>
