<?xml version="1.0" encoding="utf-8"?>
<!-- Generator: Adobe Illustrator 16.0.0, SVG Export Plug-In . SVG Version: 6.00 Build 0)  -->
<!DOCTYPE svg PUBLIC "-//W3C//DTD SVG 1.1//EN" "http://www.w3.org/Graphics/SVG/1.1/DTD/svg11.dtd">
<svg version="1.1" id="Layer_1" xmlns="http://www.w3.org/2000/svg" xmlns:xlink="http://www.w3.org/1999/xlink" x="0px" y="0px"
	 width="27px" height="26px" viewBox="0 0 27 26" enable-background="new 0 0 27 26" xml:space="preserve">
<g id="XMLID_629_">
	<path id="XMLID_713_" fill="#FFFFFF" d="M11.43,10.037c0.588-1.27,1.576-2.305,2.751-2.94C13.289,5.544,11.619,4.51,9.713,4.51
		c-2.846,0-5.151,2.305-5.151,5.15c0,2.023,1.176,3.787,2.893,4.633C7.597,12.106,9.267,10.319,11.43,10.037z"/>
	<path id="XMLID_712_" fill="#FFFFFF" d="M9.713,3.592c0.329,0,0.588-0.259,0.588-0.588V0.723c0-0.33-0.259-0.588-0.588-0.588
		S9.125,0.394,9.125,0.723v2.281C9.125,3.31,9.408,3.592,9.713,3.592z"/>
	<path id="XMLID_711_" fill="#FFFFFF" d="M3.458,9.849c0-0.33-0.259-0.588-0.588-0.588H0.588C0.259,9.26,0,9.542,0,9.849
		c0,0.306,0.259,0.588,0.588,0.588h2.281C3.175,10.437,3.458,10.178,3.458,9.849z"/>
	<path id="XMLID_710_" fill="#FFFFFF" d="M14.982,5.427l1.599-1.599c0.235-0.235,0.235-0.612,0-0.823l0,0
		c-0.235-0.235-0.611-0.235-0.823,0l-1.6,1.599c-0.235,0.235-0.235,0.612,0,0.823C14.394,5.639,14.77,5.639,14.982,5.427z"/>
	<path id="XMLID_709_" fill="#FFFFFF" d="M4.445,14.293l-1.6,1.6c-0.235,0.235-0.235,0.611,0,0.823c0.235,0.235,0.612,0.235,0.823,0
		l1.599-1.599c0.235-0.236,0.235-0.611,0-0.824C5.057,14.059,4.68,14.059,4.445,14.293z"/>
	<path id="XMLID_708_" fill="#FFFFFF" d="M4.445,5.427c0.235,0.235,0.611,0.235,0.823,0c0.235-0.235,0.235-0.611,0-0.823
		L3.669,3.004c-0.235-0.235-0.611-0.235-0.823,0l0,0c-0.235,0.235-0.235,0.611,0,0.823L4.445,5.427z"/>
</g>
<g id="XMLID_627_">
	<path id="XMLID_628_" fill="#FFFFFF" d="M23.919,12.6c-0.235,0-0.47,0.023-0.706,0.071c-0.141-3.058-2.657-5.48-5.762-5.48
		c-2.445,0-4.516,1.505-5.362,3.646c-2.093,0.094-3.74,1.811-3.74,3.927c0,2.188,1.764,3.951,3.951,3.951h11.619
		c1.693,0,3.058-1.363,3.058-3.057S25.612,12.6,23.919,12.6z"/>
</g>
<g id="XMLID_572_">
	<path id="XMLID_573_" fill="#FFFFFF" d="M10.254,20.597c-0.023-0.023-0.071-0.023-0.094,0c-0.023,0.047-0.776,0.917-0.776,1.364
		s0.376,0.823,0.823,0.823c0.447,0,0.823-0.376,0.823-0.823S10.278,20.62,10.254,20.597z"/>
</g>
<g id="XMLID_569_">
	<path id="XMLID_570_" fill="#FFFFFF" d="M21.332,21.514c-0.047-0.047-0.117-0.047-0.164,0c-0.048,0.07-1.553,1.835-1.553,2.729
		c0,0.917,0.729,1.623,1.623,1.623c0.917,0,1.623-0.729,1.623-1.623C22.885,23.372,21.402,21.584,21.332,21.514z"/>
</g>
<g id="XMLID_566_">
	<path id="XMLID_567_" fill="#FFFFFF" d="M17.568,20.009c-0.023-0.023-0.094-0.023-0.117,0c-0.047,0.047-1.059,1.271-1.059,1.882
		c0,0.635,0.518,1.129,1.129,1.129c0.635,0,1.129-0.518,1.129-1.129C18.627,21.279,17.615,20.056,17.568,20.009z"/>
</g>
<g id="XMLID_563_">
	<path id="XMLID_564_" fill="#FFFFFF" d="M13.9,21.514c-0.047-0.047-0.118-0.047-0.165,0c-0.047,0.07-1.552,1.835-1.552,2.729
		c0,0.917,0.729,1.623,1.623,1.623c0.917,0,1.623-0.729,1.623-1.623C15.429,23.372,13.947,21.584,13.9,21.514z"/>
</g>
<g id="XMLID_261_">
	<path id="XMLID_379_" fill="#FFFFFF" d="M25.307,20.597c-0.023-0.023-0.07-0.023-0.094,0c-0.023,0.047-0.776,0.917-0.776,1.364
		s0.376,0.823,0.823,0.823s0.822-0.376,0.822-0.823S25.33,20.62,25.307,20.597z"/>
</g>
</svg>
