<?xml version="1.0" encoding="utf-8"?>
<!-- Generator: Adobe Illustrator 16.0.0, SVG Export Plug-In . SVG Version: 6.00 Build 0)  -->
<!DOCTYPE svg PUBLIC "-//W3C//DTD SVG 1.1//EN" "http://www.w3.org/Graphics/SVG/1.1/DTD/svg11.dtd">
<svg version="1.1" id="Слой_1" xmlns="http://www.w3.org/2000/svg" xmlns:xlink="http://www.w3.org/1999/xlink" x="0px" y="0px"
	 width="18px" height="18px" viewBox="0 0 18 18" enable-background="new 0 0 18 18" xml:space="preserve">
<g>
	<defs>
		<rect id="SVGID_1_" width="18" height="18"/>
	</defs>
	<clipPath id="SVGID_2_">
		<use xlink:href="#SVGID_1_"  overflow="visible"/>
	</clipPath>
	<path clip-path="url(#SVGID_2_)" fill="#899099" d="M1.866,10.68c0.187,0.788,0.498,1.514,0.892,2.178
		c-0.436,0.477-0.809,0.912-1.12,1.306c0.602,0.851,1.348,1.598,2.198,2.198c0.394-0.311,0.83-0.685,1.306-1.119
		c0.664,0.414,1.39,0.705,2.178,0.892c0.042,0.643,0.083,1.224,0.125,1.721C7.942,17.938,8.461,18,9,18s1.058-0.042,1.556-0.146
		c0.041-0.497,0.083-1.078,0.124-1.721c0.788-0.187,1.514-0.498,2.178-0.892c0.477,0.435,0.912,0.809,1.307,1.119
		c0.85-0.601,1.597-1.348,2.198-2.198c-0.312-0.394-0.685-0.829-1.12-1.306c0.415-0.664,0.705-1.39,0.892-2.178
		c0.643-0.042,1.224-0.083,1.721-0.124C17.938,10.058,18,9.539,18,9s-0.041-1.058-0.146-1.555c-0.497-0.042-1.078-0.083-1.721-0.125
		c-0.187-0.788-0.498-1.514-0.892-2.177c0.436-0.477,0.809-0.913,1.12-1.307c-0.602-0.85-1.349-1.597-2.198-2.198
		c-0.395,0.311-0.83,0.684-1.307,1.12c-0.664-0.415-1.39-0.706-2.178-0.892c-0.041-0.643-0.083-1.224-0.124-1.721
		C10.058,0.062,9.539,0,9,0S7.942,0.042,7.445,0.145C7.403,0.643,7.362,1.224,7.32,1.866C6.532,2.053,5.807,2.364,5.143,2.758
		C4.666,2.322,4.23,1.949,3.836,1.638C2.986,2.24,2.24,2.986,1.638,3.836c0.311,0.394,0.685,0.83,1.12,1.307
		C2.343,5.807,2.053,6.532,1.866,7.32C1.224,7.362,0.643,7.403,0.146,7.445C0.062,7.942,0,8.461,0,9s0.042,1.058,0.146,1.556
		C0.643,10.597,1.224,10.638,1.866,10.68 M9,4.292c2.613,0,4.707,2.115,4.707,4.708c0,2.613-2.115,4.707-4.707,4.707
		c-2.592,0-4.708-2.094-4.708-4.707C4.292,6.387,6.387,4.292,9,4.292"/>
</g>
</svg>
