<?xml version="1.0" encoding="utf-8"?>
<!-- Generator: Adobe Illustrator 16.0.0, SVG Export Plug-In . SVG Version: 6.00 Build 0)  -->
<!DOCTYPE svg PUBLIC "-//W3C//DTD SVG 1.1//EN" "http://www.w3.org/Graphics/SVG/1.1/DTD/svg11.dtd">
<svg version="1.1" id="Слой_1" xmlns="http://www.w3.org/2000/svg" xmlns:xlink="http://www.w3.org/1999/xlink" x="0px" y="0px"
	 width="15px" height="17px" viewBox="0 0 15 17" enable-background="new 0 0 15 17" xml:space="preserve">
<g>
	<defs>
		<rect id="SVGID_1_" x="-27" y="-34" width="69" height="85.1"/>
	</defs>
	<clipPath id="SVGID_2_">
		<use xlink:href="#SVGID_1_"  overflow="visible"/>
	</clipPath>
	<path clip-path="url(#SVGID_2_)" fill="#87919B" d="M12.307,5.025c1.507,0,2.725-1.118,2.725-2.494
		c0-1.376-1.218-2.493-2.725-2.493c-1.502,0-2.72,1.117-2.72,2.493c0,0.24,0.041,0.459,0.108,0.678L4.553,6.682
		C4.074,6.261,3.42,6.022,2.722,6.022C1.22,6.022,0,7.139,0,8.516c0,1.377,1.22,2.493,2.722,2.493c0.719,0,1.373-0.26,1.852-0.657
		l5.121,3.491c-0.067,0.221-0.108,0.438-0.108,0.678c0,1.376,1.218,2.493,2.72,2.493c1.507,0,2.725-1.117,2.725-2.493
		c0-1.377-1.218-2.493-2.725-2.493c-0.696,0-1.327,0.239-1.806,0.64L5.337,9.134c0.065-0.198,0.086-0.398,0.086-0.618
		S5.381,8.097,5.337,7.897l5.14-3.511C10.956,4.766,11.61,5.025,12.307,5.025"/>
</g>
</svg>
