<?xml version="1.0" encoding="utf-8"?>
<!-- Generator: Adobe Illustrator 16.0.0, SVG Export Plug-In . SVG Version: 6.00 Build 0)  -->
<!DOCTYPE svg PUBLIC "-//W3C//DTD SVG 1.1//EN" "http://www.w3.org/Graphics/SVG/1.1/DTD/svg11.dtd">
<svg version="1.1" id="Слой_1" xmlns="http://www.w3.org/2000/svg" xmlns:xlink="http://www.w3.org/1999/xlink" x="0px" y="0px"
	 width="17px" height="15px" viewBox="0 0 17 15" enable-background="new 0 0 17 15" xml:space="preserve">
<path fill="#899099" d="M16.944,1.798c-0.621,0.301-1.289,0.504-1.989,0.595c0.716-0.467,1.263-1.207,1.522-2.087
	c-0.671,0.433-1.412,0.746-2.202,0.917c-0.633-0.735-1.532-1.193-2.529-1.193c-1.914,0-3.467,1.69-3.467,3.774
	c0,0.295,0.03,0.584,0.09,0.86c-2.88-0.157-5.435-1.66-7.144-3.944C0.927,1.276,0.756,1.925,0.756,2.617
	c0,1.31,0.613,2.465,1.542,3.142c-0.568-0.02-1.103-0.191-1.57-0.474v0.047c0,1.829,1.195,3.355,2.78,3.702
	C3.218,9.119,2.912,9.166,2.595,9.166c-0.224,0-0.44-0.023-0.652-0.069c0.441,1.5,1.721,2.591,3.237,2.621
	c-1.186,1.013-2.681,1.614-4.305,1.614c-0.28,0-0.555-0.019-0.827-0.052c1.534,1.072,3.355,1.698,5.313,1.698
	c6.376,0,9.861-5.752,9.861-10.741l-0.012-0.489C15.892,3.22,16.481,2.555,16.944,1.798"/>
</svg>
