<?xml version="1.0" encoding="utf-8"?>
<!-- Generator: Adobe Illustrator 16.0.0, SVG Export Plug-In . SVG Version: 6.00 Build 0)  -->
<!DOCTYPE svg PUBLIC "-//W3C//DTD SVG 1.1//EN" "http://www.w3.org/Graphics/SVG/1.1/DTD/svg11.dtd">
<svg version="1.1" id="Слой_1" xmlns="http://www.w3.org/2000/svg" xmlns:xlink="http://www.w3.org/1999/xlink" x="0px" y="0px"
	 width="19px" height="12px" viewBox="0 0 19 12" enable-background="new 0 0 19 12" xml:space="preserve">
<path fill="#899099" d="M18.837,10.905c-0.021-0.055-0.044-0.101-0.062-0.138c-0.329-0.663-0.956-1.477-1.882-2.441l-0.021-0.022
	l-0.009-0.011l-0.01-0.012h-0.009c-0.422-0.448-0.688-0.751-0.799-0.905c-0.204-0.295-0.25-0.593-0.138-0.895
	c0.077-0.228,0.373-0.71,0.887-1.447c0.269-0.391,0.482-0.703,0.641-0.939c1.134-1.694,1.627-2.777,1.477-3.248l-0.059-0.11
	c-0.038-0.066-0.142-0.127-0.306-0.182s-0.373-0.064-0.631-0.027L15.08,0.548c-0.045-0.018-0.111-0.016-0.196,0.006
	c-0.087,0.022-0.128,0.033-0.128,0.033l-0.051,0.028l-0.038,0.033c-0.033,0.022-0.069,0.061-0.107,0.116
	c-0.04,0.055-0.073,0.12-0.099,0.193c-0.309,0.891-0.661,1.72-1.055,2.486c-0.242,0.457-0.467,0.852-0.67,1.187
	c-0.204,0.335-0.375,0.582-0.513,0.74c-0.137,0.159-0.263,0.286-0.374,0.381c-0.111,0.096-0.196,0.137-0.256,0.122
	c-0.06-0.014-0.114-0.029-0.169-0.044c-0.09-0.065-0.164-0.156-0.219-0.27c-0.058-0.114-0.095-0.258-0.115-0.431
	c-0.02-0.173-0.03-0.323-0.034-0.448s-0.001-0.302,0.006-0.53c0.006-0.229,0.009-0.383,0.009-0.464c0-0.28,0.005-0.583,0.015-0.912
	c0.011-0.327,0.019-0.587,0.025-0.779s0.009-0.394,0.009-0.607c0-0.214-0.012-0.381-0.034-0.503
	c-0.022-0.121-0.058-0.239-0.103-0.354c-0.046-0.114-0.113-0.203-0.203-0.265c-0.088-0.063-0.198-0.112-0.329-0.149
	c-0.349-0.088-0.792-0.136-1.33-0.144C7.899-0.041,7.115,0.047,6.767,0.239C6.629,0.32,6.504,0.431,6.393,0.57
	c-0.118,0.162-0.135,0.25-0.049,0.265C6.737,0.902,7.017,1.06,7.181,1.311L7.24,1.443c0.046,0.096,0.092,0.265,0.138,0.508
	c0.046,0.243,0.076,0.512,0.089,0.806c0.033,0.538,0.033,0.998,0,1.381C7.433,4.521,7.402,4.82,7.373,5.034S7.298,5.42,7.24,5.553
	C7.181,5.686,7.142,5.767,7.122,5.796S7.085,5.844,7.072,5.851C6.987,5.888,6.898,5.906,6.806,5.906
	c-0.092,0-0.203-0.051-0.334-0.155C6.34,5.648,6.204,5.507,6.063,5.326c-0.141-0.18-0.3-0.433-0.478-0.757
	C5.407,4.246,5.224,3.863,5.032,3.42L4.875,3.1C4.777,2.894,4.643,2.594,4.472,2.2C4.301,1.806,4.15,1.424,4.018,1.056
	C3.966,0.901,3.887,0.784,3.782,0.703L3.733,0.669C3.7,0.64,3.647,0.609,3.575,0.576S3.428,0.519,3.349,0.504L0.65,0.526
	c-0.276,0-0.463,0.07-0.562,0.21l-0.04,0.066c-0.02,0.037-0.029,0.096-0.029,0.177s0.02,0.181,0.059,0.298
	c0.394,1.038,0.823,2.04,1.286,3.005S2.229,6.024,2.57,6.613s0.69,1.146,1.044,1.668c0.354,0.522,0.59,0.858,0.705,1.006
	c0.115,0.146,0.205,0.257,0.271,0.33l0.247,0.266c0.157,0.178,0.388,0.389,0.694,0.636c0.306,0.246,0.643,0.489,1.015,0.729
	c0.37,0.239,0.802,0.434,1.295,0.585s0.972,0.212,1.438,0.182h1.133c0.229-0.021,0.403-0.103,0.521-0.242l0.04-0.056
	c0.026-0.043,0.052-0.112,0.074-0.204s0.033-0.193,0.033-0.304c-0.006-0.316,0.017-0.602,0.064-0.855
	c0.05-0.255,0.105-0.446,0.168-0.575c0.063-0.128,0.134-0.237,0.211-0.325c0.08-0.089,0.136-0.142,0.17-0.16
	c0.032-0.02,0.059-0.031,0.077-0.039c0.157-0.059,0.344-0.002,0.558,0.171c0.212,0.173,0.413,0.388,0.601,0.641
	c0.187,0.256,0.412,0.54,0.674,0.856c0.264,0.317,0.493,0.553,0.69,0.707l0.196,0.133c0.132,0.089,0.304,0.17,0.514,0.243
	c0.21,0.074,0.394,0.093,0.551,0.056l2.522-0.045c0.249,0,0.443-0.046,0.58-0.138s0.22-0.193,0.246-0.304s0.027-0.236,0.006-0.376
	C18.884,11.059,18.861,10.961,18.837,10.905"/>
</svg>
