<?xml version="1.0" encoding="utf-8"?>
<!-- Generator: Adobe Illustrator 16.0.0, SVG Export Plug-In . SVG Version: 6.00 Build 0)  -->
<!DOCTYPE svg PUBLIC "-//W3C//DTD SVG 1.1//EN" "http://www.w3.org/Graphics/SVG/1.1/DTD/svg11.dtd">
<svg version="1.1" id="Слой_1" xmlns="http://www.w3.org/2000/svg" xmlns:xlink="http://www.w3.org/1999/xlink" x="0px" y="0px"
	 width="86.8px" height="86.8px" viewBox="0 0 86.8 86.8" enable-background="new 0 0 86.8 86.8" xml:space="preserve">
<g>
	<defs>
		<rect id="SVGID_1_" width="86.8" height="86.8"/>
	</defs>
	<clipPath id="SVGID_2_">
		<use xlink:href="#SVGID_1_"  overflow="visible"/>
	</clipPath>
	<path clip-path="url(#SVGID_2_)" fill="#FFFFFF" d="M9,51.5c0.9,3.8,2.4,7.3,4.3,10.5c-2.1,2.3-3.9,4.399-5.4,6.3
		c2.9,4.1,6.5,7.7,10.6,10.6c1.9-1.5,4-3.3,6.3-5.399c3.2,2,6.7,3.399,10.5,4.3c0.2,3.1,0.4,5.9,0.6,8.3c2.4,0.4,4.9,0.7,7.5,0.7
		c2.6,0,5.1-0.2,7.5-0.7c0.199-2.399,0.399-5.2,0.6-8.3c3.8-0.9,7.3-2.4,10.5-4.3c2.3,2.1,4.4,3.899,6.3,5.399
		C72.4,76,76,72.399,78.9,68.3c-1.5-1.9-3.301-4-5.4-6.3c2-3.2,3.4-6.7,4.3-10.5c3.101-0.2,5.9-0.4,8.3-0.601
		c0.4-2.399,0.7-4.899,0.7-7.5s-0.2-5.1-0.7-7.5c-2.399-0.2-5.199-0.4-8.3-0.6C76.9,31.5,75.4,28,73.5,24.8c2.1-2.3,3.9-4.4,5.4-6.3
		C76,14.4,72.4,10.8,68.3,7.9c-1.899,1.5-4,3.3-6.3,5.4c-3.2-2-6.7-3.4-10.5-4.3c-0.2-3.1-0.4-5.9-0.6-8.3C48.5,0.3,46,0,43.4,0
		C40.8,0,38.3,0.2,35.9,0.7c-0.2,2.4-0.4,5.2-0.6,8.3c-3.8,0.9-7.3,2.4-10.5,4.3c-2.3-2.1-4.4-3.9-6.3-5.4
		c-4.1,2.9-7.7,6.5-10.6,10.6c1.5,1.9,3.3,4,5.4,6.3c-2,3.2-3.4,6.7-4.3,10.5c-3.1,0.2-5.9,0.4-8.3,0.6C0.3,38.3,0,40.8,0,43.4
		s0.2,5.1,0.7,7.5C3.1,51.1,5.9,51.3,9,51.5 M43.4,20.7C56,20.7,66.1,30.9,66.1,43.4C66.1,56,55.9,66.1,43.4,66.1
		c-12.5,0-22.7-10.1-22.7-22.7S30.8,20.7,43.4,20.7"/>
</g>
</svg>
