<?xml version="1.0" encoding="utf-8"?>
<!-- Generator: Adobe Illustrator 16.0.0, SVG Export Plug-In . SVG Version: 6.00 Build 0)  -->
<!DOCTYPE svg PUBLIC "-//W3C//DTD SVG 1.1//EN" "http://www.w3.org/Graphics/SVG/1.1/DTD/svg11.dtd">
<svg version="1.1" id="Слой_1" xmlns="http://www.w3.org/2000/svg" xmlns:xlink="http://www.w3.org/1999/xlink" x="0px" y="0px"
	 width="69px" height="85.1px" viewBox="0 0 69 85.1" enable-background="new 0 0 69 85.1" xml:space="preserve">
<g>
	<defs>
		<rect id="SVGID_1_" width="69" height="85.1"/>
	</defs>
	<clipPath id="SVGID_2_">
		<use xlink:href="#SVGID_1_"  overflow="visible"/>
	</clipPath>
	<path clip-path="url(#SVGID_2_)" fill="#FFFFFF" d="M56.5,25C63.4,25,69,19.4,69,12.5S63.4,0,56.5,0S44,5.6,44,12.5
		c0,1.2,0.2,2.3,0.5,3.4L20.9,33.3c-2.2-2.1-5.2-3.3-8.4-3.3C5.6,30,0,35.6,0,42.5S5.6,55,12.5,55c3.3,0,6.3-1.301,8.5-3.301
		l23.5,17.5C44.2,70.3,44,71.4,44,72.6c0,6.9,5.6,12.5,12.5,12.5S69,79.5,69,72.6s-5.6-12.5-12.5-12.5c-3.2,0-6.1,1.2-8.3,3.2
		L24.5,45.6c0.3-1,0.4-2,0.4-3.1s-0.2-2.1-0.4-3.1l23.6-17.6C50.3,23.7,53.3,25,56.5,25"/>
</g>
</svg>
